<svg id="Calque_1" data-name="Calque 1" xmlns="http://www.w3.org/2000/svg" viewBox="0 0 36 32.17"><defs><style>.cls-1{fill:#f29016;fill-rule:evenodd;}</style></defs><title>CERCLE</title><path class="cls-1" d="M5.12,13.4l0,.27a.28.28,0,0,0,0,.4c-.1.26-.21.35-.12.6H4.88c-.06.18.25.11.17.3-.18,0-.21,0-.13.09-.25-.05,0,.14,0,.22-.21.09,0,.22-.07.44s0,.17-.12.27a.18.18,0,0,1,.19.11c-.08,0-.08.07-.18.05,0,.28.23.28,0,.44.09.15.26-.12.24.1-.08.05-.18.09-.16.22.25-.06.2-.07.41-.12a.32.32,0,0,1,.18,0c0,.06.12.11,0,.15a.3.3,0,0,0-.2-.14,2.1,2.1,0,0,1-.45.23c.18.17-.14.62.15,1-.19-.13-.08.14-.06.28s0,.15,0,.16c.12.31,0,.34.06.48l0,.11a10.35,10.35,0,0,0,.29,1.25l.13.31a.73.73,0,0,1,.11.18l0,.1,0,.16,0,.1c.17.33.1.47.39.63-.1.08-.13-.11-.22-.07a.31.31,0,0,1,.06.23.3.3,0,0,1,.33,0l-.1.06c-.22.19.17.17.22.33s.16.09-.06.1c.07.09.14.14.22.13l.1.13a.14.14,0,0,0,0,.15c0,.05.14,0,0,.12.08.12.17.22.26.15s0,.14.11.05c.13.15-.21,0-.08.15.07-.06.11.21.27.28s.28.22.38.24a.38.38,0,0,0,.22.4s0-.07,0,0,.13,0,.2.1-.1.13-.09.19l.08.07c.26.13.36.28.47.29s0,.07.06.1.08-.12.13-.1c.12.26.26.33.51.5a.19.19,0,0,0,.16,0l0,0c.09,0,.08.08,0,.11.21,0,.29.21.49.09,0,.07,0,.12.1.16l0-.05c0,.15.23.23.43.31,0,.11.18.07.21,0s.15.16.23.24c.06-.17,0,0,.17,0a.26.26,0,0,0,0-.15c.1,0,.11-.1.23,0s-.06.18,0,.21.07,0,0,.06l.24.08c0,.14.2,0,.23.12,0,0,.06,0,.08-.07s0,.08.13.09.23.18.49.12a.81.81,0,0,0,.34.08s.07.07.14.07V27c.12,0,.17,0,.27,0,0,.16.26.06.33.14v0h.05c0,.14.25,0,.3,0a.14.14,0,0,0,.14.11c.19.06.25.08.4,0v0c.19.05.25,0,.27-.15.21,0-.1.09,0,.22.15-.08.32.1.49,0,0,.05.05.07.09.09a.14.14,0,0,1,.11-.13v.13c.1,0,.1-.06.15-.08s.14.15.15,0,0-.05.05,0c0,.17.27.05.39.08a1.39,1.39,0,0,0,.49,0c.13,0,.28,0,.34-.06a.41.41,0,0,0,.34,0c.11.07.09,0,.19-.06v0a2.54,2.54,0,0,0,.39,0c.05-.06,0-.16.13-.18s0,.09,0,.16a.34.34,0,0,1,.15,0,.29.29,0,0,0-.06-.11c.1,0,.1.11.19,0v-.11h0v0c.2,0,0,.06,0,.12a3.05,3.05,0,0,1,.58-.07l0-.11c.19,0,0,.14.17.09s-.15-.09,0-.13,0,.19.12.14.2,0,.33-.08,0-.1,0-.12,0,0,.05,0a.07.07,0,0,1,.07.06l.28-.07s0-.1,0-.12,0,.1.08.1,0-.09.07-.1c.1.15.19-.08.35,0s.09,0,.08-.06.1,0,.19,0v0s.06,0,.07.06.23-.23.36-.12a.16.16,0,0,1,.18-.06v0c.14-.12.18,0,.42-.11l0-.07a.21.21,0,0,0,.25,0c.21-.07.38-.14.35-.26,0,.08.07.09.15.05a1.85,1.85,0,0,0,.14-.14c-.06.09.36,0,.33,0a.62.62,0,0,0,.26-.25c0,.11.12,0,.2,0l0,0c.05,0,0,0,.07-.07s.06,0,.08,0l.29-.19.32-.21c-.05-.13-.07.07-.12,0s0-.07.1-.11.05.08.1,0,0,0,.07-.06-.09,0,0-.1.07,0,.09.05c.11-.12.07-.08.18-.1,0,0,.11-.11.11-.16s.14-.07.22-.11l0,0c.15,0,.12-.13.14-.2s.09,0,.15-.05.12-.1.25-.22.09-.11.22-.18l0,0c.18-.07.22-.26.37-.29-.12,0-.05-.07,0-.16a1.5,1.5,0,0,1,.2,0c.16-.15.35-.44.45-.47s.18-.18.15-.3c.09.05.07-.1.18-.15l0,0c.1-.09.13-.11.12-.2s.06,0,.1,0,0,0,0-.07.06,0,.1,0a.27.27,0,0,0,.06-.12s0,0,.07,0,.13-.11.11-.21a.09.09,0,0,0,0-.1c.08-.12,0,.14.09,0-.07,0,.15-.11.08-.17s0,0,0,0,0,0,0,0,.18-.23.15-.24-.05,0,0,0,.14-.08.15-.18h0c.09-.12,0-.09,0-.19,0,.06,0,.09.1,0s.13-.2,0-.14c0-.12.09-.06.16-.23s.08-.29,0-.2c.05-.07,0-.12.07-.12s.1.15.1,0,.09-.08.06-.17h0c.08-.15,0-.14.13-.19s-.21.09-.24,0c.13,0,0-.11.08-.16s0,.11.08.13c.07-.17,0,0,.1-.06a2,2,0,0,0,.24-.54c0-.05-.07.07-.11.06s0-.09,0-.14.06,0,.09-.07a.69.69,0,0,0,.2-.55c.05.09.16-.12.05,0,.09-.18.09-.24.16-.38s.06-.11,0-.13a3.42,3.42,0,0,1,.11-.35,1.26,1.26,0,0,0,.09-.26c0-.06,0-.06,0-.13s0-.13,0-.14-.05,0-.08,0v0a.1.1,0,0,0,.1,0c0-.18,0-.18.08-.4h0s0,0,0-.09a2.6,2.6,0,0,1,.07-.49.6.6,0,0,1,0-.27c-.07.08-.07,0-.13-.07s.05-.08.08-.1,0-.08,0-.14c0-.23.07-.15.06-.37,0,0,0,.1-.05,0h.05a1.48,1.48,0,0,0,0-.49v.09s0-.11,0-.14,0,0,0,0a1.43,1.43,0,0,0,0-.26s-.05.07-.06,0,.06.08.05-.06,0-.08,0-.09-.06-.36-.06-.21V14s0-.12,0-.22h0a2.67,2.67,0,0,0-.11-.34,2.06,2.06,0,0,0-.21-.49l0,0s-.13-.24-.06-.12,0,0,0,0,0,0,0,0,0-.1-.08-.17-.05,0-.05,0h0s0,0,0,0c-.13-.2.06,0,0-.12s-.15-.18-.1-.07l-.08-.11s0,.06,0,.09a.55.55,0,0,0-.08-.1s.11.27,0,.15a1.59,1.59,0,0,1,.09.2h0s.08.17.06.17,0,.1.06.16a.13.13,0,0,0,0,.09l0,0c.05.13.09.26.13.39a2.89,2.89,0,0,1,.11.48v0a1.94,1.94,0,0,0,0,.24h0a.55.55,0,0,1,0,.13,2.53,2.53,0,0,0,0,.29v.34l0,.25h0c0,.1,0,0,0,.12h0l0,.17c0,.07,0,.24,0,.25s0,.08,0,.08,0-.05,0,0l0,.08s0,.09-.06.17l-.05.25h0v0A1.76,1.76,0,0,0,29,17l-.06.2c-.06.24-.22.57-.24.74,0,0,0,0,0,0s-.19.26-.18.4-.12.22-.09.24.06,0,.09-.07h0c0,.06,0,.16-.05.07s-.07,0-.09,0c-.11.2-.1.29-.21.48s0,.12-.1.24-.06.07-.06,0c-.05.14-.18.21-.12.27a6,6,0,0,0-.34.61s.1,0,.08,0-.05,0-.08.05,0-.06,0-.06,0,.11-.1.19a1.15,1.15,0,0,0-.26.4s0,0,0,.06a.38.38,0,0,0,0,.12A.09.09,0,0,1,27,21c-.11.12-.09.18-.18.29a.39.39,0,0,1-.15.16c-.16.25-.41.44-.5.61l-.05.07c-.08.05-.22.28-.38.42a.33.33,0,0,1-.18.19l-.47.45c0,.06-.16.14-.06.18s0,.05-.05.08l0,0c-.13.06-.09.09-.23.2s-.11,0-.1.08,0,0,.05,0l-.06.05s-.1.05-.16.09l0,0c-.13.1-.16.08-.24.19l-.1.08c-.05,0-.36.15-.34.27l0,0c0-.12-.37.15-.18.12l-.56.22c.05,0,.09.07,0,.09s0,.22-.12.14c.07-.09,0-.1,0-.16-.22.06-.21.17-.43.21l-.12.06a.31.31,0,0,0-.21.05s-.15.06-.13.13-.2,0-.31.07v0c-.09,0-.07-.08-.13,0s-.1,0-.07-.06c-.18,0-.07.13-.17.17a.31.31,0,0,0-.28,0c-.05-.07-.27,0-.3.08s-.06.08-.1.11v0s-.05,0-.1,0,0,0-.05,0-.25,0-.21.06c-.17.14-.6,0-.72.24.07-.11,0-.08-.09,0s-.12,0-.27,0a2,2,0,0,1-.4,0,.44.44,0,0,1-.37,0c.06.18-.16.11-.23.23l0-.12c.12-.16-.15,0-.31,0s-.22,0-.4,0v.08h-.14c0-.05-.1-.26-.18-.11h-.67c0-.1-.15,0-.18,0v-.08c-.08,0-.09,0-.17,0H16c0-.1-.24,0-.35-.06V26l-.22,0h-.18v-.05c-.08-.1-.13.05-.27,0s-.16,0-.18,0,0-.09-.08-.1-.14-.07-.26,0-.2.06-.27,0-.18,0-.3,0-.2-.09-.39-.13-.08,0-.13,0h0l-.22-.06c0-.12-.29-.09-.42-.16h0l-.17-.05a.28.28,0,0,1-.16-.1l-.12,0-.09,0C12,25,12,25,12,25a1.31,1.31,0,0,0-.57-.28s0,.09-.08.08.08-.16,0-.17,0,.29-.12.26,0-.36-.16-.29c.05-.09-.14-.09-.18-.14-.05.17-.09.14-.06.3-.08,0,0-.1-.07-.15s.07-.12,0-.15-.12.15-.21.11.12-.05.16-.19c-.12,0-.34-.41-.58-.27.12-.11,0-.13-.1-.18l0,0c0-.12-.12-.22-.27-.31l0,0c0-.08-.22-.27-.29-.22l-.14-.11c.07-.09-.14-.14-.17-.21L8.89,23c0-.15-.24-.27-.35-.42l0,0c-.13-.08.05-.16-.07-.24.08-.14-.15-.08-.18-.2A.87.87,0,0,1,8,21.59a1.25,1.25,0,0,0-.41-.44c0-.08,0-.15,0-.25s-.27-.79-.33-.45l0,0c.08.29-.21,0-.06-.12s0-.19,0-.29.09,0,.08-.08,0-.19-.13-.19c0-.18-.13-.19-.16-.33s0-.22,0-.32a2.17,2.17,0,0,0-.11-.67l0-.13a.11.11,0,0,0,0-.05h0a2,2,0,0,0,0-.77h0a.31.31,0,0,0,0-.08V17.3c.09-.09,0-.3,0-.45v-.5A.65.65,0,0,1,6.85,16h.06l0-.36v0c-.09,0-.23,0-.24-.08l.18,0A.23.23,0,0,1,7,15.36s-.12,0-.12-.06.15,0,.14-.12c.14,0,0-.19.09-.26s0-.24.12-.34-.1-.13,0-.24-.09-.17.21-.37l0-.13a.35.35,0,0,0-.2,0c0-.05.07,0,.09-.07a.18.18,0,0,0,.15,0c0-.18.25-.13.25-.39-.05,0-.12,0-.11-.09.28.08.08-.12,0-.13s.07,0,0-.06l0-.14c.06,0,.06.07.11.1s.1-.06.12-.14a.52.52,0,0,0,.1-.11.05.05,0,0,0,0,0,.36.36,0,0,0,.07-.1l0,0a.75.75,0,0,0,.07-.12h0c.12-.22.21-.46.3-.58h0v0a.05.05,0,0,0,0,0c.14,0,.18-.2.26-.31l-.06,0c0-.08.12,0,.15-.12s-.11-.16-.18-.24l0,0c.11.07.1.14.2.21,0-.16.3-.3.22-.46s.08,0,.14,0c.09-.14.19-.27.29-.4.29-.18.09-.18.35-.42.1.07.34,0,.26-.19s0,0,0-.08,0,0,0-.09l.07-.07.14.16.07-.06c.14.08.21-.18.33-.23s.28-.35.44-.31L11.32,9,11.27,9a.69.69,0,0,0,.4-.14l.11-.08A.18.18,0,0,1,12,8.69c.14-.29.42-.08.51-.37l.08-.05c0,.07.09,0,.14,0s.28-.12.42-.18,0,0,0-.09c.22-.19.65,0,.59-.34,0,.08.09.06.13.17l.2-.1c.19-.17.41,0,.41-.29.1.18.36.07.61,0,.07.14.21,0,.31,0a.21.21,0,0,0,.15-.12c0,.09.1,0,.13,0,0,.21.12.08.2.08.13-.18.29.07.53-.1,0-.18-.17-.29-.08-.33s.09.31.16.31a2.49,2.49,0,0,0,.76,0c.08,0,.1,0,.18,0s.39,0,.57,0c0,0,.05,0,0-.07.09.16.3.09.49.07l.49,0c0,.07.06.07.13.06s.21,0,.39,0h.09a.6.6,0,0,0,.36,0c-.08.11-.06.14.07.13h.05a.6.6,0,0,0,.35,0c0,.12.18,0,.25.08s.09.07.17.08.14.11.29.09l.43.08c.08.15.45.08.53.22l.13,0a.27.27,0,0,1,.2.1c.08,0,.09-.24.21-.21-.09.07-.14.31,0,.21a3.21,3.21,0,0,0,.8.38c-.12-.1.08-.08.1-.12s0-.1-.05-.13c.13-.09.2-.15.13-.32.11-.13.07.09.11.1a0,0,0,0,1,.08,0c-.18,0-.12.23-.19.34s-.15,0-.18.09a1.07,1.07,0,0,0,.67.33c-.05.1.13.07.16.07s0,.08,0,.1.2.23.32.16a2.56,2.56,0,0,0,.28.3l0,0c.06-.06.11-.14.18-.14a.32.32,0,0,1-.14.16c0,.11.16,0,.07.13.23.08.4.36.53.29-.1.07.05.11.1.16s0,.09.12.13.32.26.42.31,0,.08.06.13.06.12.18.19a2.89,2.89,0,0,0,.53.57l0,0c-.1.1.12.11.18.23s.14.12.18.25a.77.77,0,0,0,.17.24h0c.12.15,0,.15.16.26,0,0,.1.15.13.22s.19.35.24.46c.1.31.13.34.22.65.05.16.09.23.12.32s0,.14,0,.08,0,0,0,.09a1.23,1.23,0,0,0,.13.26s0,.05,0,0,0,0,0,0,0,0,.05-.06,0,0,0,0,0,0,0,.05,0-.15.05-.2,0,0,0,0a2.64,2.64,0,0,0,0-.63.93.93,0,0,0-.06-.37.47.47,0,0,0,0-.2l0,0v-.05c0-.08,0-.14,0-.29a2.27,2.27,0,0,1-.07-.28l-.09-.22-.07,0s0-.06,0-.06h0a1.07,1.07,0,0,0-.26-.62l0,0s-.05-.08,0-.1,0,.05,0,0l0-.08s0-.05-.05,0-.1-.06-.13-.07-.05-.09.06-.11c-.08-.17-.18-.18-.19-.28s-.05.06-.08,0,0-.21-.05-.16,0-.1,0-.16-.09-.07-.13-.13,0-.06,0-.12-.05-.11-.1-.17-.05-.12-.1-.18-.13-.37-.22-.25c-.05-.05,0-.08,0-.13s-.19-.1-.18-.24a.24.24,0,0,0-.08.18l0,0c0-.12,0-.13.07-.18l0,0c0-.1-.15-.22-.24-.33l-.14-.13c-.05,0,0-.11-.06-.16l0,0a.63.63,0,0,0-.3-.25c.05-.06,0-.13,0,0-.07-.08,0-.16-.15-.23l-.07.11.08.06s-.06,0-.1,0,0-.06-.14,0a.25.25,0,0,0,.05-.28c0,.1-.13-.23-.22-.11-.17-.09-.11-.22-.28-.3a4.29,4.29,0,0,1-.45-.33s-.1,0-.12.14,0-.12,0-.19A.32.32,0,0,0,24.37,7c-.08-.16-.09-.12-.27-.25-.13.19.14,0,.1.16-.11-.1-.13,0-.22,0,.12-.19,0-.17-.11-.11a.26.26,0,0,0,0-.23c-.05.07-.05,0-.14-.07v.05l-.05,0c-.18-.15-.6-.56-.62-.21-.09,0-.07-.1-.1-.15s-.21-.06-.37-.19c0,.12.06.14,0,.28-.19-.11.05-.3-.12-.33s0,.1-.08.09,0-.17-.1-.21c0,.16-.13.08-.19.12s.09-.06,0-.11c-.16-.26-.58-.2-.85-.39,0-.07-.06,0-.11,0s-.17,0-.23-.17c0,.25-.17,0-.26,0s-.05.07-.07.11c-.18,0-.21-.12-.28-.22,0,.13-.13-.1-.26,0,.05-.24-.18,0-.26,0a.78.78,0,0,0-.67-.17C19,4.93,19,4.82,19,4.8s-.23.09-.25.25c-.1-.2-.2,0-.32-.12a.38.38,0,0,0,.15-.13c-.23,0-.23.1-.37-.06,0,.18.08.16.07.32-.05,0-.06.05-.1.07,0-.25-.2-.09-.18-.32.07,0,.12.1.1-.07-.06,0-.15,0-.15.08-.22,0-.62-.18-.9,0-.05,0-.05.06-.09.08s-.06.06-.1.08-.08-.13-.09-.25c-.17,0-.22.19-.37.06l0,.13c-.13.08-.13-.11-.24-.09C16,4.64,16,5,15.82,5a.55.55,0,0,0-.7,0c0-.09-.27-.2-.24-.07h-.05l-.31.1c0,.06.05.13,0,.15s-.33-.28-.6-.08c-.05,0-.63.15-.58.4-.06-.32-.24-.11-.38-.06s-.16-.07-.27,0c-.28.2-.62.11-.67.44a1.48,1.48,0,0,1-.32-.14c0,.19,0,.18.13.34l0,0c-.09-.11-.17-.26-.28-.17a.34.34,0,0,1-.24.33.39.39,0,0,0,.06-.21c-.23.06-.5.36-.34.57-.29-.33-.23-.23-.11.09l-.19-.31-.06,0-.08,0a.75.75,0,0,1-.13.06l-.22.07c-.12,0-.2.1-.22.33-.12-.27-.3.1-.51.14-.05.07-.17.12-.12.21s-.23-.07-.34,0c.05.13,0,.24-.06.36s-.22.08,0,.13c-.07.13-.15.12-.26,0-.09.06,0,.15,0,.22-.2-.13-.1.05-.24.16l0,0c-.05,0-.11-.1-.14-.06s0,.15,0,.23c-.1-.1-.14-.07-.12,0-.06-.05-.15-.1-.09,0a.26.26,0,0,0-.09.22l-.07.09c-.1.06-.23,0-.19.13,0,0-.07-.05-.08,0a4.4,4.4,0,0,0-.45.65c0-.05.13,0,.11.08a.19.19,0,0,1-.15.1l.06,0,0,.05c-.07-.05,0-.12-.14-.17,0,.19,0,.14-.17.16.15.16-.17.3-.28.36l.29.18c-.13.18-.16-.15-.29,0,.07.1-.06.07,0,.24-.06,0-.1,0-.15,0,0,.32-.27.35-.12.58-.15-.1-.2,0-.27.12.1.18.15.12.27.25l.06,0s0,.06-.08,0-.22-.12-.27-.06c.14.08-.12.11-.14.18s.19,0,.18.08-.19.1-.32.11c.11.15-.11.42-.12.62s.34,0,.29.16c-.38-.2-.45.11-.55.34.11,0,.12.08,0,.13s-.12,0-.15.07C5.32,13.23,5.06,13.24,5.12,13.4Z"/></svg>