<svg id="Calque_1" data-name="Calque 1" xmlns="http://www.w3.org/2000/svg" viewBox="0 0 367.66 72.4"><defs><style>.cls-1{fill:#f29016;}</style></defs><title>TRAIT 1</title><path class="cls-1" d="M31.74,37.28c.22,0,.54,0,.63-.09s.09-.23.18-.23c.61,0,.58-.11.25-.25a1,1,0,0,0-.88,0l-.11,0a.84.84,0,0,1-.63.05c-.08,0,.05-.12.06-.19s0-.07,0-.11a2.21,2.21,0,0,0-.4.05c-.09.08,0,.24-.14.25a12.13,12.13,0,0,1-1.22,0c-.09,0-.25-.06-.26-.1s.11-.1.22-.11c.91-.14,1.1-.25.89-.56,0,0,0-.07,0-.11s-.19-.24-.52-.21c-.61,0,.11.13,0,.15-.39.1-1,.12-1,.35l-.34,0a4.68,4.68,0,0,1-.54-.08c-.2,0-.38-.1-.58-.15A.68.68,0,0,1,28,36a1.15,1.15,0,0,1,.77-.25s-.08-.07-.13-.07a3.93,3.93,0,0,0-.92,0,1.93,1.93,0,0,1-1,.08c-.25-.06-.32-.2-.54-.35l.21,0c.14,0,.27,0,.41,0,0,0,0-.07-.05-.07a2.46,2.46,0,0,0-.57.06c-.37,0-.64.06-.59.24s-.2.09-.32.14-.28-.1-.28-.15c0-.22-.05-.4-.89-.4-.32,0-.6-.23-.39-.26.85-.16.24-.46.6-.66a.64.64,0,0,0,.19-.17l.23.18c.07,0,.15.09.14.19s0,0,.09,0l-.15,0-.14.06s.07,0,.2,0a1.13,1.13,0,0,1,.58,0c.11,0,0,0,0-.06s-.15,0-.14.06l.18.15c.05,0,.09,0,0-.15-.48-.11.73-.24-.28-.29-.37,0-.31-.34.05-.43l1-.22c.05.12-.12.24.21.35s.22.18-.13.19c-.53,0-.38.14-.37.23s-.16.2.24.22a3.6,3.6,0,0,0,.67-.06c0-.22.43-.15.74-.17s.56,0,.56-.11l.26,0-.26-.07c-.31-.22-1-.37-1.05-.7.27,0,.52.07.79.11a.74.74,0,0,0,.25-.06l-.72-.22a.74.74,0,0,0-.32.17s-.13,0-.31.05h.07s0-.07-.09-.09l-.2,0,.22.07c.05.16-.32.09-.56.11.06-.09-.56-.16,0-.28.13,0,.09-.16-.28-.16a1.08,1.08,0,0,1,.24-.11,1.19,1.19,0,0,1,.28,0,1,1,0,0,0-.35-.18,1.33,1.33,0,0,0-.47,0c-.07.09,0,.18,0,.27-.61-.13-.24-.34-.28-.51a1.09,1.09,0,0,1,.2,0,2,2,0,0,0,1.71-.22,1.3,1.3,0,0,1,.26,0,.67.67,0,0,1-.09.38s0,0,.1,0l-.15,0-.14.07a.35.35,0,0,0,.19,0,2.36,2.36,0,0,1,.4,0,1.81,1.81,0,0,1,.4-.18c.13,0,.39,0,.55,0s.15-.1.22-.15.18.2.08.25a7.28,7.28,0,0,1-.73.17c-.31.1-.29.22,0,.34.48-.21.38,0,.58.07.5.13,1.08.24,1.64.35a2.09,2.09,0,0,0,.42,0,1.57,1.57,0,0,1-.19-.12l-.46-.59c-1-.06-.42-.34-.56-.52a1.47,1.47,0,0,1,.19-.05s.11.06.12.1.13.14.32,0a2.46,2.46,0,0,1,1.24-.15,1.76,1.76,0,0,0,1,0c.38-.16.24,0,.34.08a.89.89,0,0,0,.38.06c.41,0,.11-.08,0-.14s.13-.08.19-.07a6.84,6.84,0,0,0,.91,0c.39-.13.48.1.76.05a3.5,3.5,0,0,1,.66-.11c.35,0,.62,0,.58.16s.13.14.25.15a12.84,12.84,0,0,0,2.24-.15c.37-.07.85-.23,1,.08a1.8,1.8,0,0,0,.49,0c.46-.16.42,0,.45.08s.08.1.12.15a1.87,1.87,0,0,0,.33-.1c.09-.06.17-.13.16-.19s.2-.15.5-.15.69.08,1,.09c.49,0,.34.19.54.2a7.76,7.76,0,0,0,.78-.07c.37,0,.4.06.41.16s.14.09.22.14c.2-.18.5.07.67,0a3.42,3.42,0,0,1,1.53-.19c.57,0,1.14,0,1.72-.07l.51,0c.15.26.43.21.93.09a8.32,8.32,0,0,1,1.06,0c.34,0,.69,0,1-.06,0,0,.1.06.14.09-.5,0-.45.15-.66.23a1.15,1.15,0,0,1-.41,0c-.32-.12-.43,0-.39.06a1.84,1.84,0,0,0,.33.45.59.59,0,0,0,.27,0c.28-.08.52-.18.8-.27s0-.1-.06-.16,0-.14.1-.18.42-.08.63-.12.18,0,.47.06a1.19,1.19,0,0,0,.92-.08.7.7,0,0,1,.59-.06,2.37,2.37,0,0,0,.72.07,7.55,7.55,0,0,1,2.08,0c.47,0,1.31.06,1.46.35h.52c-.09-.31.9-.09,1.08-.27.23.1.79,0,.79.32,0,.05.06,0,.09,0s0-.07,0-.1-.27,0-.3.08,0,.09.21,0a2.09,2.09,0,0,1,.69-.29,3.25,3.25,0,0,1,.33,0c-.06.26.55.13.86.18.14,0,.23.15.41,0s-.12-.11-.24-.16a2.69,2.69,0,0,0-.36-.06l.26-.05h.15c1.2.1,2.42.11,3.64.1a1.72,1.72,0,0,1,.61.13c.34.17.47-.08.87,0,.1,0,.05,0,0,0l-.14,0,.19,0s.06,0-.05-.06.17-.18.38-.12.23.15.37.22A.8.8,0,0,0,70,33c.33,0,.66-.07,1-.12a2.83,2.83,0,0,1,1,.1l1,.11a2.42,2.42,0,0,0,.53,0,6.37,6.37,0,0,1,2.63-.18,12.58,12.58,0,0,0,2.16.1,4.93,4.93,0,0,1,.94.12c.25,0,.53.39.78,0h.22c.08.26.35.19.79.09a2.28,2.28,0,0,1,1.16,0c.16,0,.82-.2,1-.16.49.11,1.2-.05,1.45.22,0,0,0,0,.1,0l-.15-.05-.14.06s.06,0,.19,0a17,17,0,0,0,3.35,0s.16,0,.24.07a2.2,2.2,0,0,0,1.52.09,3.89,3.89,0,0,1,.53-.09c.7,0,.78,0,.54.26,0,0,0,.1,0,.15a3.23,3.23,0,0,0,.33-.06,1.93,1.93,0,0,1,.34-.11,2.24,2.24,0,0,1,.53,0c.11,0,.18.1.16.15C92,34,92,34,93,34c.21,0,.42,0,.78,0,.09,0,0,0,0,0l-.14,0,.19.05s.07,0,0-.07c-.2-.21-.6-.11-.85-.14l-.25-.05a2,2,0,0,1,.23-.06,10.48,10.48,0,0,0,1.57-.09c.51-.09.58,0,.73-.25a3.4,3.4,0,0,1,1.42.25c.1,0,0,0,0,0l-.14,0,.19.05s.06,0,0-.06-.3-.23.1-.25a8.83,8.83,0,0,0,1.21,0c.47-.13.67.08,1.06,0,.59-.08.74,0,.67.23a.82.82,0,0,0,.26.05c0-.33.65-.09,1-.12a1.76,1.76,0,0,1,.31,0c.09,0,0,.24.34.1a8,8,0,0,1,2.36-.16.24.24,0,0,1,.17.07c.06.27.32.05.51,0a2.9,2.9,0,0,1,1.75,0,1.91,1.91,0,0,0,.69.05,4,4,0,0,1,2,0c.34.1.5-.21.89,0a3,3,0,0,0,.77.14,4.83,4.83,0,0,1,1,0c.65.12,0,.14,0,.2a1.33,1.33,0,0,1-.33,0h.07a.27.27,0,0,0-.1-.08.84.84,0,0,0-.19,0,.9.9,0,0,0,.22.06c.18.09.26.2.42.28a1.48,1.48,0,0,0,.91.15,2,2,0,0,0,.63-.2c.13-.08-.16-.22.37-.24a10.93,10.93,0,0,1,2.27-.22c.21,0,.31.16.48.24s.26.13.39,0,.49-.23,1-.26.09.31.59.17a1.57,1.57,0,0,1,.92.06c.15,0,.25.08.39.11a3.56,3.56,0,0,0,.76.19c.34-.07.26-.2,0-.32s.21-.23.35-.19a1.27,1.27,0,0,1,.35.17.49.49,0,0,1,.46,0,.86.86,0,0,0,.79,0c.33.08,1-.16,1.1.15,0,.1.21,0,.3,0a1,1,0,0,1,1.11-.12,2.41,2.41,0,0,0,.41,0c.45,0,.72,0,.69.19s.08.21.21.14c.36-.17.49.08.89.06.1,0,0,0,0,0l-.14,0,.19.05s.06,0,0-.07-.15-.18-.15-.25a10.69,10.69,0,0,0,1.77-.1c.37-.09.8.09.77.28s.37.13.65.24a.57.57,0,0,0,.09.31.83.83,0,0,0,.25,0c.09,0,.22-.05.21-.07a1.23,1.23,0,0,0-.24-.28.6.6,0,0,0-.16-.08l-.15.1s0,0,0,0c0-.21,0-.38.11-.4a4.5,4.5,0,0,1,1.33-.11,4.29,4.29,0,0,0,1.17.05c.53-.05-.1.32.58.17a7,7,0,0,1,1-.11c.17,0,.37,0,.55,0s.46-.05.69-.07.42,0,.63,0,.53,0,.78,0,.33.07.64.13c.1,0,0,0,0,0l-.15.05.2,0s.06,0,0-.07a1.7,1.7,0,0,1,1.44,0c.11.05.16.14.28.15a8.15,8.15,0,0,1,1.47.08,3.1,3.1,0,0,0,1-.12c.62-.18.28.08.45.1l.27,0c-.06.1-.59.24.22.24,0,0,.07.06,0,.14s0,0,.1,0l-.15-.05-.14.07a.35.35,0,0,0,.19,0c.32-.06.65,0,.72-.13s-.16-.14-.46-.15a2,2,0,0,1-.49-.1c.2-.2.57-.11.92-.07a12.3,12.3,0,0,1,1.24.2c.31,0,.18,0,0-.1a1.13,1.13,0,0,0-.4,0,.21.21,0,0,0-.16.16s0,.11.11.14a1,1,0,0,0,.43.1c.18,0,.35-.07,0-.27-.54-.2-.57-.3-.45-.34a6.61,6.61,0,0,1,3-.14c.1,0,.21,0,.32,0-.1.05-.33.14-.28.16a.77.77,0,0,0,.63,0l.28-.12c.28-.14.24-.13.65,0a6.9,6.9,0,0,0,1,.16c.34.05.55.09.57.14l.1.2.44-.11.37-.09.33-.07-.42,0-.46-.07.44-.15c.29.21.56,0,.84,0a7.8,7.8,0,0,1,1.08.13c.17.05.1.2,0,.36s.05,0,.16,0c-.05,0-.11,0-.14,0s-.31,0-.47.06a1.08,1.08,0,0,0,.45,0,4.46,4.46,0,0,0,1.29-.17c.42.21.53,0,.78-.06l.22,0c.46.24.79-.1,1.2,0,.08,0,.15.06.15.09s.2.15.41,0a2.6,2.6,0,0,1,1.27-.13c.24,0,.4.13.73,0a.42.42,0,0,1,.48.12c.05.12.32.11.58,0a3.25,3.25,0,0,1,.33,0c0,.1.08.26.43.07a1.9,1.9,0,0,1,1.14-.24,5.88,5.88,0,0,0,.71-.07,4.86,4.86,0,0,1,.88,0c.61.22,1.55,0,2.15.21.32.13.36.08,1.08,0a10,10,0,0,1,1.48,0,.59.59,0,0,1,0,.08c-.05.06-.19.16-.12.18a3.2,3.2,0,0,0,.76.15c.34,0,.7,0,1,0a1.31,1.31,0,0,0-.84-.18c-.12,0-.26,0-.39-.05l.41-.06.82-.11a.6.6,0,0,1,.3.07c.21.13.29.14.35,0s.25-.12.43,0,.13.13.24.19c.3.16.57.17,1.4.08.1,0,.05,0,0,0l-.14,0,.19,0s.06,0-.05-.06-.16-.11-.14-.14-.17-.21.24-.22a2.06,2.06,0,0,1,.67.06c0,.11.12.16.47.15a.47.47,0,0,1,.17.07,1.47,1.47,0,0,1-.27,0c-.62-.07-.62.11-.81.23l-.11,0a2.18,2.18,0,0,0,.3.06c.32-.12.61.23.94,0a1.83,1.83,0,0,1,.4-.11,1.17,1.17,0,0,1,.24.06,4.94,4.94,0,0,0,1.1.24c.28,0,.23-.29.84-.32.1,0,.18-.1.26-.16a1.64,1.64,0,0,0,.22-.14.53.53,0,0,0,.12.14.71.71,0,0,0,.21,0,3,3,0,0,0,.4-.17.56.56,0,0,0,.16-.14c.05,0,.15.1.15.14,0,.25.3.24.73.1.37.16.81,0,1.22,0s.82,0,1.62,0c.13,0,0,0-.09,0a2.8,2.8,0,0,0-.29,0,.74.74,0,0,0,.22.1c.11,0,.26,0,.16-.07s-.09-.15,0-.14c.73.05,1.46.1,2.17.17a10.18,10.18,0,0,0,1.74,0c.41-.06.79-.15,1.2-.2s.87-.1.86.15a2.72,2.72,0,0,1,.55,0c.17,0,.23.15.36.22s.36,0,.55,0a3.4,3.4,0,0,0,.53.08,2,2,0,0,0,.47-.07l.22.19c.17-.19.6,0,.78-.06a3.8,3.8,0,0,1,2-.15c.74.11,1.42,0,2.12.08.39,0,1-.11,1,.17h.21a2,2,0,0,1,1.1,0,1.55,1.55,0,0,0,.52,0c.46-.11.65-.09.67.11s.16.11.26.16a1.73,1.73,0,0,0,.35-.13c.09-.06.05-.14.16-.19s.18-.12.57-.06c.8.12,1.7.16,2.47.31a1.47,1.47,0,0,0,.26,0,9.55,9.55,0,0,0,1.13-.12c.37-.08.44.13.92,0a7.74,7.74,0,0,1,2.63.07,1.29,1.29,0,0,0,.91,0,1.29,1.29,0,0,1,.4,0c.32.35,1.08.18,1.61.13a2,2,0,0,1,.8,0,4.62,4.62,0,0,0,.75-.06s.07.06,0,.14,0,0,.09,0l-.14-.05-.14.07a.34.34,0,0,0,.19,0,.69.69,0,0,1,.4,0,1,1,0,0,1,.19.23c.3-.2.65.08.84,0a3.81,3.81,0,0,1,1.81,0,3.5,3.5,0,0,0,1.51,0,3.18,3.18,0,0,1,.77,0,.9.9,0,0,1,.29.09c.48.36.86.43,1.92.27.54-.08.66,0,.63.14s.13.15.46.15.58,0,.87.06h.21c.12-.31.5-.15.92-.08a2.53,2.53,0,0,0,.71-.05,4.76,4.76,0,0,1,2.93.11,1.41,1.41,0,0,0,.42,0c.18,0,.34-.1.5-.1a10.8,10.8,0,0,0,1.41.07,9.09,9.09,0,0,1,1.35-.09c.58,0,.27.2.62.26a.75.75,0,0,0,.46,0,1.53,1.53,0,0,1,.43,0,15.48,15.48,0,0,1,2.15,0,4.2,4.2,0,0,0,1-.16c.86-.15.91-.17,1.51.06a3.53,3.53,0,0,0,1.28.13c.56,0,1.07,0,.93.26a.58.58,0,0,0,.19,0,.25.25,0,0,0,.11,0c.11-.1-.28-.28.41-.28s1.08,0,1.23.29c0,0,.16,0,.21.07a2.31,2.31,0,0,1,.23.18c.05-.06.13-.13.14-.2s.14-.09.43,0a6.08,6.08,0,0,0,1,0c.13,0,.23-.08.37-.09.53,0,1.27.1,1.46-.22l3-.13h.16c.3,0,.44.26.75.15a1,1,0,0,1,.6-.17,3.34,3.34,0,0,0,.52-.09c.5-.09.89.13,1.26.08a2.41,2.41,0,0,1,1.09-.06c.41.14.47-.1.76-.05a4.55,4.55,0,0,0,.66.1,2,2,0,0,0,.56,0,1.44,1.44,0,0,1,1.14-.07,6,6,0,0,0,.78-.1,15.31,15.31,0,0,0,1.66,0c.48-.11,1.08-.16,1.64-.23a2,2,0,0,1,.6,0,5.93,5.93,0,0,0,1.47.1c.41,0,.76-.19,1.16,0a1.42,1.42,0,0,1,.94-.08c.42.18.56-.06.9,0a9.9,9.9,0,0,0,1.79-.09c.49-.06,1.16.08,1.75.08s1.25-.15,1.76-.1a16.06,16.06,0,0,0,3.1,0c1.11-.09,2.31,0,3.48,0a5.5,5.5,0,0,0,1.78-.1,1,1,0,0,1,.3,0c.35,0,.41.3,1.07.12a6.51,6.51,0,0,1,1.28.06,12.23,12.23,0,0,0,2-.16,1.34,1.34,0,0,1,.67,0,.79.79,0,0,0,.21,0c.37-.35,1.23-.3,2-.3a17.35,17.35,0,0,0,3.57-.22c.23-.06.49,0,.52.1s.15,0,.24.06c.35-.3,1.38-.1,1.86-.3a22.37,22.37,0,0,1,3.07.07,3.17,3.17,0,0,0,.45,0,7.34,7.34,0,0,0,1.32-.1c.29,0,.94.13,1.26.08a23.1,23.1,0,0,1,3.53-.11,8.4,8.4,0,0,1,2.41.09,9.49,9.49,0,0,1,3.11.09c.28,0,.64-.1,1-.1,1.24,0,2.41-.21,3.67-.14a2.88,2.88,0,0,0,.59,0c.74-.12,1.38-.15,1.65.2a3,3,0,0,0,.31,0c0-.28.57-.15.9-.16s.68,0,1,0,.62,0,1.07,0c.1,0,.05,0,0,0l-.15.05.2,0s.06,0-.05-.07c0-.2.23-.17.48-.08.07,0,0,.11,0,.16a1.32,1.32,0,0,0,.12.2,1.26,1.26,0,0,1,.2-.2.47.47,0,0,1,.26-.11l2.28.05a.59.59,0,0,1-.09.18s.06,0,.09,0,0-.07,0-.1-.27,0-.3.08,0,.09.21.05c.51-.17,1-.05,1.36-.22a.79.79,0,0,1,.33-.13c.42,0,.25.11.31.19a.93.93,0,0,0,.18.12c0-.05.05-.11.14-.14a1.63,1.63,0,0,1,.5-.06,3.24,3.24,0,0,1,.64.11.65.65,0,0,0,.58,0,7.71,7.71,0,0,1,.77-.27,1.48,1.48,0,0,1,.32,0c.21.34.8.16,1.29.12h.34V35c-.35,0-.73,0-.64.18s0,.1,0,.15a2.68,2.68,0,0,0-.43,0s.11-.06.1-.08-.05-.09-.07-.14a1.8,1.8,0,0,0-.2,0c0,.06,0,.12.17.2s.26.16-.13.2a7.22,7.22,0,0,1-.81.09,12.87,12.87,0,0,0-2.07-.11,4.37,4.37,0,0,0-2.37.23,2,2,0,0,1-.62.13c-.45,0-.83.1-.82.2s-.55.12-.74.22c-.36.17-1.13-.11-1.57.18s-1.13.07-1.73.09-1.31-.05-1.4.28a.9.9,0,0,1-.39.06c-.46,0-1.05-.15-.92.19l-.4,0a8.54,8.54,0,0,1-.86.07c-.26,0-.53-.07-.78-.06a7.19,7.19,0,0,0-1.54.14c-.51.27-1.41.11-1.91.31a1.05,1.05,0,0,1-.4,0c-.32-.23-.81.12-1.12,0-.19,0-.4.09-.56.15a2.08,2.08,0,0,1-1.32.09,2.64,2.64,0,0,0-1.51.12c-.33.14-.38.13-1,0a1,1,0,0,0-.22,0,6,6,0,0,1-1.65.09c-1.33,0-2.63.17-4,.14a2.58,2.58,0,0,0-1.37.27,1.83,1.83,0,0,1-.61.3,3.09,3.09,0,0,1-1.53.32,6.17,6.17,0,0,1-1.73-.15,4.42,4.42,0,0,0-1.59,0,5.33,5.33,0,0,1-2.36.07,12.72,12.72,0,0,0-1.49.21,2.72,2.72,0,0,1-1.26.12,9.24,9.24,0,0,0-2.93,0,9.41,9.41,0,0,1-2.48,0,2.26,2.26,0,0,0-.53,0,1.64,1.64,0,0,1-1.08,0c-.3-.15-.54,0-.84,0-.53,0-.79.34-1.47.22s-1,.3-1.51,0a10,10,0,0,1-2.73,0,4.52,4.52,0,0,0-2,.19c-.08,0-.4,0-.58,0-.46.07-.84-.1-1.36,0a11.21,11.21,0,0,1-1.55,0c-1,0-1.88.09-2.81.17a16.9,16.9,0,0,1-4.16.12,2.67,2.67,0,0,0-.33,0,3,3,0,0,1-1.41-.1,1.78,1.78,0,0,0-1.08,0c-.33.08-.75.1-1.06.18a1.55,1.55,0,0,1-.92,0,3.5,3.5,0,0,0-1.6.18c-.17,0-.4.13-.47.12a2.07,2.07,0,0,0-1,0l-.3-.15c-.18-.1-.55-.1-.59,0-.13.27-.43.2-.79.08a.78.78,0,0,0-.69,0,3.4,3.4,0,0,1-1.5.14c-1.12,0-2.27,0-3.41.06a2.14,2.14,0,0,1-.45-.05,2.63,2.63,0,0,0-1.62,0,1.46,1.46,0,0,1-.91,0,4.08,4.08,0,0,0-1.35,0c-.51.12-.95-.09-1.46,0a7.48,7.48,0,0,1-1.37,0c-.55,0-1.08,0-1.64-.07a9.9,9.9,0,0,0-2,.15,4.79,4.79,0,0,1-1.31,0,4.6,4.6,0,0,0-2.26.14c-.18.08-.51.08-.55-.05s-.27-.13-.53-.13c-1,0,.17-.16-.13-.24v0l.24,0s0-.05-.05-.07a.52.52,0,0,0-.19.08,4.94,4.94,0,0,0-1.58.13c-.06,0-.07.09-.1.1-.73,0-1.47,0-2.2,0a5.41,5.41,0,0,1-1.77-.14c-.45-.13-.27,0-.39.07a2.83,2.83,0,0,1-1.4.06c-.46-.15-.62.09-.9,0a1.41,1.41,0,0,0-.72,0,18.32,18.32,0,0,1-3.16-.08,1.1,1.1,0,0,0-.59,0,2.4,2.4,0,0,1-1.44.05,1.57,1.57,0,0,0-.31,0,.72.72,0,0,0-.15,0c-.22.15-.54,0-.81,0a7.09,7.09,0,0,1-1,.07c-.37,0-.83-.19-1.09-.08s-.78-.12-.93.09a26.35,26.35,0,0,1-3.08,0c-.11,0-.31.07-.45.07-.3,0-.81.09-.78-.15h-.3c-.06.31-.57.16-1,.11a24.62,24.62,0,0,0-3.51-.15,3.68,3.68,0,0,1-1.33-.07c-.35-.14-.73.2-1.1,0-.15.21-.59-.13-.82,0,0,0-.58,0-.9-.06s-.63,0-1,0-.75,0-1.09,0-.58-.14-.9-.18a2,2,0,0,0-.53,0,14.11,14.11,0,0,1-2.08.17c-.34,0-.46,0-.46-.15a1.28,1.28,0,0,0-.35-.07c-.51.23-1,0-1.49,0s-1.06,0-1.59,0-.91.07-1.34.06-.74-.14-1.12-.15-.64.08-1,.08-.55-.07-.84-.08a3.28,3.28,0,0,1-1-.09,1,1,0,0,0-.39,0c-.15.33-.63.12-1.06.09s-.9.1-1.22.05a11.15,11.15,0,0,0-1.52,0,4.81,4.81,0,0,0-1.32.1,5.44,5.44,0,0,1-1.09,0c-.4,0-.2-.14-.25-.25v0l.24,0s0,0-.05-.06a.62.62,0,0,0-.19.07,11.18,11.18,0,0,1-1.64.24,9.05,9.05,0,0,1-1.36-.07,1.1,1.1,0,0,0-.47.06c-.1.08,0,.22-.39.07a9.56,9.56,0,0,0-1.61-.24,1.69,1.69,0,0,0-.55,0,2.68,2.68,0,0,0-.45.27.75.75,0,0,0-.67,0,1.57,1.57,0,0,1-.82.11l-.9,0h-.67a5.9,5.9,0,0,0-.83,0c-.33.24-.85-.12-1.29.07a6.77,6.77,0,0,1-1.38,0c-.13,0-.25-.06-.38-.07a3.28,3.28,0,0,0-.52,0c-.09.3-.67.2-1,.11s-.62.07-.9,0a6.2,6.2,0,0,0-.66-.14,17.16,17.16,0,0,1-2.15.07c-.33,0-.49,0-.46-.15a2.44,2.44,0,0,0-.29,0c-.33.12-.85,0-1.24.19a2.52,2.52,0,0,1-1.68-.07,1.3,1.3,0,0,0-.52,0,1.9,1.9,0,0,1-1.21,0c-.33-.12-.68-.21-.77.06,0,0-.15,0-.24.06a4.59,4.59,0,0,0-1.46.11,11,11,0,0,0-2.23-.09.69.69,0,0,1-.15-.07l.27,0c.5,0,.39-.14.14-.23a2.4,2.4,0,0,0-1.73.12,3.52,3.52,0,0,1-.58,0c-.19,0-.2-.07-.39,0a4.41,4.41,0,0,1-2.09.23s0-.06,0-.07c.39-.12-.09-.14-.16-.2a3,3,0,0,0-.45.08,3.33,3.33,0,0,1-.56.18c-.29,0-.71.13-.86-.1v0l.24,0s0,0-.05-.06a.56.56,0,0,0-.19.07,5.73,5.73,0,0,1-.58.07.71.71,0,0,0-.22.07l-.57-.31c-.3.08-.67.08-.76,0-.21-.28-.61-.24-1.1-.11-.31.08-1-.05-1,.22a2.2,2.2,0,0,1-.55,0c-.44-.13-1.14,0-1.41-.12-.45-.15-.83.17-1.17,0,0,0-.37,0-.57.06a5.87,5.87,0,0,1-1.22.06,5.16,5.16,0,0,0-1.35,0,1.91,1.91,0,0,1-1.28-.15l.18,0a2,2,0,0,0,1-.12s0,0,.06-.08a4,4,0,0,0-.59,0,2.07,2.07,0,0,0-.61.19,2.45,2.45,0,0,1-1.26-.21c-.25-.13-.35-.12-.64.05a1.46,1.46,0,0,1-.31.09c0-.08.14-.2-.24-.21a1.34,1.34,0,0,0-.49.15s0,0,.1,0l-.15,0-.14.07a.35.35,0,0,0,.19,0,3.06,3.06,0,0,1,.73.06c-.22.13.59.26,0,.4s-.67-.11-1-.14a2.84,2.84,0,0,0-1.15,0c-.15,0-1,.16-1-.15l-.45.06a8.17,8.17,0,0,1-1.6.13c-.3,0-.4,0-.51-.14s-.37-.11-.61,0a2.37,2.37,0,0,1-1.9.11v0l.24,0s0,0,0-.06a.44.44,0,0,0-.19.07c-.16,0-.37,0-.47,0-.25.07-.4.19-.51,0s-.4-.31-.63-.45a1.06,1.06,0,0,0-.22,0s-.11.08-.08.1c.59.21-.56.23-.38.39a1.53,1.53,0,0,1-.25-.06c-.08,0-.11-.1-.21-.13s-.32-.18-.44,0-.42.24-.91.23a13.62,13.62,0,0,1-2.57-.1c-.18-.11-.16-.31-.81-.13-.33.1-.48,0-.48-.17s-.09-.09-.15-.14-.17.1-.14.14-.38.17-.61.24-.32.08-.35,0-.05-.16-.31-.06-.13.12-.24.18a.35.35,0,0,1-.4,0c-.07,0-.06-.11-.16-.14s-.34-.05-.47-.09-.12-.09-.17-.13-.16.09-.15.13c0,.21-.09.18-.54.1a3,3,0,0,0-1.17.07,6,6,0,0,0-1-.05c-.21.05-.38.15-.42,0s0-.07,0-.11-.18-.2-.22-.18c-.35.18-.7-.15-1,0a3,3,0,0,1-1.36.19c-.29,0-.59,0-.89,0h-.33v-.16l.24,0s0,0,0-.06a.44.44,0,0,0-.19.07c-.23,0-.46,0-.7,0s-.84-.14-.9.12a1.27,1.27,0,0,1-.28,0c-.23-.21-.77.16-1-.06a.52.52,0,0,0-.63,0c-.08,0,0,.19-.24.1a5.21,5.21,0,0,0-2.4-.09,5.63,5.63,0,0,1-1.36,0c-.33,0-.9-.08-.89-.28-.37.05-.72.13-1.11.16-.11,0-.3-.09-.36,0s0,.16-.3.08a9.51,9.51,0,0,1-1-.23c-.55-.2-.69-.16-.64.1a1.06,1.06,0,0,1-.32.08c-.38.07-.74-.16-1.14,0-.31-.28-.9-.07-1.36-.09l-2.32-.1h.07s0-.06-.1-.08a.84.84,0,0,0-.19,0,.9.9,0,0,0,.22.06s0,.09,0,.09a6.69,6.69,0,0,0-1.06,0,2.31,2.31,0,0,1-1.11,0,1.27,1.27,0,0,0-.42,0,4.14,4.14,0,0,1-1.95,0c-.26-.27-.94.16-1.22-.08-1,0-1.89-.17-2.89-.11a6.48,6.48,0,0,1-.85-.07,2.06,2.06,0,0,0-.42,0,2.54,2.54,0,0,1-1.65.13.5.5,0,0,1-.55,0,3.53,3.53,0,0,0-1.13-.17c-.38,0-.57-.07-.63.1a.66.66,0,0,1-.26,0c-.27,0-.28-.25-.81-.09a6.41,6.41,0,0,1-.93-.08A18,18,0,0,1,62,39.36c-.2,0-.63.09-1,.1s-.53,0-.86,0a4.58,4.58,0,0,1-1.48,0c-.45-.13-.89.21-1.32,0a1.05,1.05,0,0,0-.31,0c-1.3.07-1.33.07-1.42-.29s-.27-.06-.5,0-.41,0-.49.15a.16.16,0,0,1-.28,0c0-.14-.29-.15-.52-.1s-.09.13-.12.2a6.46,6.46,0,0,1-1.61-.1,1.5,1.5,0,0,1-.3-.1.53.53,0,0,0-.53,0,1.63,1.63,0,0,1-1.68,0,.35.35,0,0,0-.4,0c-.18.08-.27.21-.48.24a5.66,5.66,0,0,1-1.09,0c-.2,0-.31-.17-.49-.18s-.55.06-.84.08-.63,0-1,0a4.69,4.69,0,0,1-1.85-.17.41.41,0,0,0-.22,0,2.11,2.11,0,0,1-1.22,0,4.09,4.09,0,0,0-.62,0c-.14,0-.28,0-.42,0a1.77,1.77,0,0,1,.37-.06,2.24,2.24,0,0,0,1.11-.27c.12,0,.1-.13.07-.2a.56.56,0,0,0-.29-.08.63.63,0,0,0-.32.08s0,.07,0,.1-.11.09-.16.14a.73.73,0,0,0-.16-.14c-.16-.11-.56-.1-.57,0s-.41.17-.75.18a2.2,2.2,0,0,0-1,.1c-.06,0-.12.1-.08.11l.47.08c-.2,0-.39.05-.58,0s-.47,0-.71-.06A3.25,3.25,0,0,0,36.77,39a8.15,8.15,0,0,0-2.37-.21s0,0-.08,0c.46-.1.15-.2-.09-.22s-.42.14-.66.15c-.43,0-.13-.13-.22-.19l.26,0-.27-.07a1.2,1.2,0,0,0-.37-.1c-.3,0-.6,0-.9,0a2.65,2.65,0,0,1,1.4-.12c.47,0,.66,0,.56-.25,0,0-.05-.11,0-.15.25-.19.56-.52.56-.63s-.05-.1-.08-.15l-.24.13c-.23.12-.79.19-.62.4H33v-.22l.24,0s0,0-.06-.06a.45.45,0,0,0-.18.07,1.35,1.35,0,0,1-.32.11l.32.14c.19.08.39.16.55.24s0,.1.07.15a3.08,3.08,0,0,1-.33,0L32,37.53C31.64,37.45,31.57,37.4,31.74,37.28Zm97.46-.59-.15-.06-.14,0,.19,0s.07,0-.33-.09h.14a.3.3,0,0,0-.1-.09l-.19,0A2.34,2.34,0,0,0,129.2,36.69ZM180.63,35l-.15-.07-.14,0,.19.05s.06,0-.34-.1h.14s0-.06-.09-.08a.76.76,0,0,0-.19,0A2.64,2.64,0,0,0,180.63,35Zm-119-1.64.18,0-.14-.05a.46.46,0,0,0-.14.07s.06,0,.28-.12v0l.24,0s0,0-.06-.06S61.9,33.22,61.66,33.39ZM242.8,39.53l.18-.06-.14,0-.14.06s.06,0,.28-.11v0a1.57,1.57,0,0,0,.24,0s0,0-.05-.07A1.22,1.22,0,0,0,242.8,39.53Zm-174-5.82.33-.07a.53.53,0,0,0-.15,0l-.46.06c.08,0,.16,0,.54-.16l.22.1s.16-.06.15-.08-.07-.09-.12-.14A4,4,0,0,0,68.82,33.71Zm71.71,5.61.18,0-.14-.05a.46.46,0,0,0-.14.07s.06,0,.21-.17l.22.1s.16,0,.15-.08-.07-.09-.12-.13S140.75,39.08,140.53,39.32Zm104.45,0c.13-.06.22-.08.21-.1a.37.37,0,0,0-.07-.14l-.2,0c0,.06,0,.12.63.29l-.2-.12s-.15,0-.14.06l.18.16C245.44,39.49,245.48,39.46,245,39.35ZM97.46,34.14l.28-.07a.9.9,0,0,0-.22-.06l-.39.05a6.63,6.63,0,0,0,.91.12l-.16-.06-.14.05.2,0S98,34.2,97.46,34.14Zm-68.83-.49.18,0-.14-.05-.14.06s.06,0,.22-.16l.21.1c.06,0,.16-.06.16-.08s-.08-.09-.13-.14A1.16,1.16,0,0,0,28.63,33.65Zm2.1.77s0,.07-.36.25l.19.18c.06,0,.17-.07.17-.11s-.09-.14-.15-.21-.13.08.15,0h.32l.26,0a2.13,2.13,0,0,0-.27-.07,2.25,2.25,0,0,0-.53,0c.13-.06.22-.08.21-.1a.27.27,0,0,0-.07-.14l-.2,0C30.45,34.31,30.48,34.37,30.73,34.42Zm67.73,4.39v0a1.5,1.5,0,0,0,.24,0s0,0,0-.06-.13,0-.16.34l.28-.08-.46-.16s-.18.1-.15.13S98.38,39.07,98.46,38.81Zm72.05-2.75v0l.24,0s0,0-.05-.07-.13,0-.8.25l.61-.1c-.21,0-.4-.11-.63-.15a1.24,1.24,0,0,0-.32.07C169.66,36.13,169.77,36.19,170.51,36.06ZM57.17,38.77v0a1.57,1.57,0,0,0,.24,0s0,0,0-.07-.13,0-.34.48c.25-.06.47-.1.46-.11a2.86,2.86,0,0,0-.31-.27,1.88,1.88,0,0,0-.3.08C56.88,39,57,39.08,57.17,38.77Zm100.08-.69.59-.2c-.23,0-.46-.05-.68-.05a.47.47,0,0,0-.26.14s.18.06,1.23,0l-.15-.06-.14,0L158,38A4.36,4.36,0,0,0,157.25,38.08Zm-82.5-3.86.12,0-.77-.27c-.06,0-.17.05-.17.07s.44.28,1.24.32L75,34.22l-.14.05.19,0S75.13,34.3,74.75,34.22Zm56.09,3.56v0a1.75,1.75,0,0,0,.24,0s0,0-.05-.07a7.39,7.39,0,0,0-.8.34c.15,0,.34-.09.5-.15s0-.08,0-.08a5.7,5.7,0,0,0-.72,0c-.06,0-.07.09-.06.14S130.06,38,130.84,37.78ZM94.08,35l.18,0-.14-.05L94,35a3.41,3.41,0,0,0-.45-.27l.88.2c.06-.08.18-.17.15-.24s-.47-.08-.73-.09C93.76,34.58,93.67,34.65,94.08,35Zm69,2.78.18,0-.14-.05-.14.06s.06,0,.28-.06h.48a1.1,1.1,0,0,0,.78-.21s0-.08-.08-.1c-.36-.1-.52,0-.78.08a2.09,2.09,0,0,0-.39.07C163.19,37.54,163.23,37.6,163.05,37.79Zm-29.28-2.07a1.58,1.58,0,0,0-.31,0c-.22,0-.65-.09-.64.08a2.54,2.54,0,0,0,.72.13,4.14,4.14,0,0,0,.61,0c.19,0,.54.07.48-.11s-.32-.1-.55-.11-.21,0,.83.28l-.15-.06-.14.05.19,0S134.87,36,133.77,35.72ZM35.45,37.91l.11-.09a4.67,4.67,0,0,0,.56-.49c.07-.08-.07-.19-.11-.28a4.77,4.77,0,0,0-.76.21.67.67,0,0,0-.32.33c-.07.11,0,.22.3.28Zm-7-3.37h.3a1.61,1.61,0,0,0,.37-.12s0-.1,0-.1h-.45l-.63.11-.15.07.26,0c.1,0,.2,0,.81-.66a2.41,2.41,0,0,0,.17.38.76.76,0,0,0,.31.05.79.79,0,0,0,.26,0,.12.12,0,0,0,0-.15s-.1-.08-.16-.12c.14,0,.3,0,.42,0s.24.08.37.09c.3,0,.54,0,.18-.14-.08,0-.05-.14,0-.18s.15-.14-.14-.11-.83.09-1.24.15C29,33.83,28.93,33.89,28.47,34.54Zm115.71,1.58c.87,0,.86,0,.69-.25a.12.12,0,0,1,0-.19c.18-.08.29-.16,0-.21a1.34,1.34,0,0,0-.51.06c-.36.11-.67.24-1,.36s0,.16.16.18.58,0,.13-.39h.14s0-.06-.09-.08a1.72,1.72,0,0,0-.2,0A4.94,4.94,0,0,1,144.18,36.12Zm19.31-.45a.44.44,0,0,0,.24.13c.33,0,.43,0,.43-.15a2.48,2.48,0,0,1,.86-.2c.34-.06.34-.15.14-.24s-1.14,0-1.09-.25h-.21C163.73,35.19,163.62,35.41,163.49,35.67Zm3.5-.42c0,.23,1.17,0,1,.27h.32c-.09-.18.26-.15.58-.17s.35,0,.22-.1-.35-.2-.57-.3a1.63,1.63,0,0,0-.42,0A2.23,2.23,0,0,0,167,35.25Zm-109,3.88c.6,0,1.13-.07,1.66-.12a.12.12,0,0,0,.11-.09c0-.07-.05-.19-.12-.19-.3,0-.73-.12-.84.09a.47.47,0,0,1-.22.07c-.53-.14-.55.06-.71.14S57.91,39.11,57.94,39.13Zm81.76-3.36v.11c0,.23.22.1.49,0s.56,0,.59,0,1-.06.78-.26-.72-.06-1.11,0c0,0,0,.11-.13.14s-.28,0-.31-.05a.62.62,0,0,0-.12-.09c-.07,0-.17,0-.19.06S139.69,35.73,139.7,35.77Zm21.4,4,.54-.2c-.73,0,.48-.27-.3-.26-.34,0-.63-.23-1,0-.09,0-.39.08,0,.13s.93.07.43.28ZM106,34.19c.29,0,.59,0,.61-.15s-.28-.19-.67-.18a2.72,2.72,0,0,0-.3,0c-.21,0-.4.1-.6.15.22.06.42.12.65.17A1.59,1.59,0,0,0,106,34.19ZM38.3,37.68c.08-.07.1-.15.23-.19.32-.09-.32-.23.14-.31-.3-.1-.87,0-1.07-.14-.48.14.12.21.18.31a1.28,1.28,0,0,0,.32.28S38.23,37.66,38.3,37.68Zm73.77-2.91c.23.09.53.16.59.25s.24.17.48.12.22-.16.16-.23a1.21,1.21,0,0,0-.92-.19ZM71,34.23c.08,0,.19,0,.22-.09q.27-.35.51-.69s-.09-.06-.14-.09l-.11,0c-.23.26-.46.52-.67.79A1.09,1.09,0,0,0,71,34.23Zm51.7,5.7a1.13,1.13,0,0,0-.26-.07,1.76,1.76,0,0,0-1,.35s0,0,0,0a1.61,1.61,0,0,0,.22,0c.3-.06.6-.12.87-.2C122.58,40,122.6,40,122.65,39.93ZM44,33.47l-.3.07,1.29.37a.59.59,0,0,0,.25,0s.08-.09,0-.09C44.9,33.67,44.46,33.56,44,33.47Zm57.23,1.37-.23-.17-.73.27a2.74,2.74,0,0,0,.58.15C101.41,35.12,101.21,35,101.27,34.84Zm-51.84-1a1.79,1.79,0,0,0,.34-.15c.07-.08,0-.18.17-.24s.07-.12-.17-.12-.6,0-.61.09S49.29,33.65,49.43,33.85Zm116.66,6s-.05-.07-.19-.09-.72.11-.7.21.23.1.37.11C165.89,40.12,166.22,40.11,166.09,39.87ZM35.75,33.06l-.2-.09-.71.22a1.89,1.89,0,0,0,.41.1C35.59,33.32,35.88,33.29,35.75,33.06ZM188.6,35.57a7.54,7.54,0,0,0,.81.12,1,1,0,0,0,.44-.08c.07-.06,0-.14,0-.21a3.35,3.35,0,0,1-.44.07h-.62C188.72,35.48,188.69,35.52,188.6,35.57Zm-63.44,4.25c0,.22,0,.25.48.24.16,0,.31-.06.47-.08a6.42,6.42,0,0,0-.66-.24A2.65,2.65,0,0,0,125.16,39.82ZM97.5,37.62c0,.18,0,.28.46.25a1.36,1.36,0,0,0,.46-.09c.1-.08-.32-.24-.62-.24A1.33,1.33,0,0,0,97.5,37.62Zm2.87-3.42-.2-.18c-.07,0-.1.11-.21.14-.29.08-.35.17-.3.28s.07.06.1.1a1.88,1.88,0,0,0,.22,0C100.13,34.39,100.26,34.28,100.37,34.2Zm70.8,1.36a2,2,0,0,0,.25-.05,2.91,2.91,0,0,0-1.36-.28.59.59,0,0,0-.16.07Zm-25,2.43.19-.08c-.39-.08-.21-.22-.27-.34s-.17-.07-.26-.1-.3.11-.28.15a1.12,1.12,0,0,0,.3.33A2.15,2.15,0,0,0,146.15,38Zm-19.5.91.88.38s.13-.06.15-.09-.15-.27-.5-.34A2.34,2.34,0,0,0,126.65,38.9ZM42.09,35.18a3.89,3.89,0,0,0,.6-.17c.08,0,0-.12,0-.18a1.67,1.67,0,0,0-.39,0,1.57,1.57,0,0,0-.43.2S42,35.11,42.09,35.18Zm91.55.32H134a2.23,2.23,0,0,0,.27,0,1.69,1.69,0,0,0-.24-.08,6.32,6.32,0,0,0-.65-.1.53.53,0,0,0-.29.08s.05.11.15.13A3.37,3.37,0,0,0,133.64,35.5Zm-26.49,4.18h.1l.74-.38a.23.23,0,0,0-.1,0,1.69,1.69,0,0,0-.28,0c-.2.13-.38.25-.55.38C107.05,39.65,107.11,39.67,107.15,39.68Zm31.2.66c.33,0,.74.06.79-.12,0,0,0,0,0,0a1,1,0,0,0-.74,0,2.58,2.58,0,0,1-.52.08Zm-33.95-.5c.59,0,.79.09,1,.08s.36-.06.37-.1-.31-.11-.54-.11S104.92,39.76,104.4,39.84Zm34-.36.6-.14.4-.08a3.71,3.71,0,0,0-.57,0,3.28,3.28,0,0,0-.58.14S138.3,39.43,138.38,39.48ZM48.65,32.93a4.21,4.21,0,0,0,.46-.14s-.2-.1-.22-.1l-.71.17Zm54.4,7-.37-.05-.28,0-.1,0a.5.5,0,0,0,0,.21.77.77,0,0,0,.19,0Zm26.67-2.39a4.14,4.14,0,0,0,.48.12,5.59,5.59,0,0,0,.57,0c-.19-.06-.37-.13-.59-.18A3.47,3.47,0,0,0,129.72,37.49ZM65.87,33.76l.42-.33c-.14,0-.28,0-.4,0-.38,0-.21.14-.23.22S65.75,33.67,65.87,33.76Zm51.79,4.33a2.07,2.07,0,0,0,.48.12,3.69,3.69,0,0,0,.57,0c-.19-.06-.37-.13-.58-.18A3.21,3.21,0,0,0,117.66,38.09Zm91.23,1.4.59-.14.41-.07a3.83,3.83,0,0,0-.57,0,3.07,3.07,0,0,0-.58.15ZM171.58,35a4.34,4.34,0,0,0-.46-.07c-.23,0-.55,0-.62.08s.09.09.15.14Zm-52.05,4.17c.12-.09.21-.12.2-.16s.15-.19-.23-.21a1.89,1.89,0,0,0-.39,0ZM37.71,34.39c.56,0,.83-.13.63-.27a.76.76,0,0,0-.3,0c-.11,0-.14.11-.25.16a3.24,3.24,0,0,1-.39.06Zm.15-.9a2.63,2.63,0,0,0,.49.12,5.59,5.59,0,0,0,.57,0c-.2-.06-.38-.13-.6-.18A3,3,0,0,0,37.86,33.49Zm2.54-.24a2.51,2.51,0,0,0,.48.13,5.59,5.59,0,0,0,.57,0c-.19-.06-.37-.13-.59-.18A3.92,3.92,0,0,0,40.4,33.25ZM159.82,34.7a3.17,3.17,0,0,0-.46-.08c-.42,0-.3.11-.3.19s.1.09.15.14Zm-60.74.46c.14-.08.28-.14.25-.16a1.57,1.57,0,0,0-.38-.11c-.08,0-.24.08-.22.11A1.3,1.3,0,0,0,99.08,35.16ZM98,40c.5,0,.75,0,1,0a.21.21,0,0,0,.17-.12s-.19-.06-.24,0Zm-1.46-4.54s0,.08,0,.11a1.14,1.14,0,0,0,.16.14c0-.05.13-.09.15-.14a.33.33,0,0,0,0-.22s-.1-.05-.15-.08-.13.05-.15.08S96.49,35.39,96.49,35.42ZM56.11,33.18a1.23,1.23,0,0,0,.27,0,.76.76,0,0,0,.21-.18s0-.07,0-.11a2.32,2.32,0,0,0-.39,0C56.11,33,56.13,33.08,56.11,33.18Zm-.14.7a3,3,0,0,0,.47.09,2.52,2.52,0,0,0,.33-.13,1.09,1.09,0,0,0-.31-.08A2.63,2.63,0,0,0,56,33.88ZM39.63,37.53a1.49,1.49,0,0,0,.35-.18s-.15-.07-.23-.1a3.46,3.46,0,0,0-.37.11S39.49,37.44,39.63,37.53Zm-4-2.6a2.05,2.05,0,0,0,.41.12,1.15,1.15,0,0,0,.38-.11s-.15-.1-.23-.1A3.44,3.44,0,0,0,35.65,34.93ZM35,36.44c.14-.08.28-.14.25-.16a1.72,1.72,0,0,0-.38-.11c-.08,0-.25.08-.23.1S34.78,36.37,35,36.44ZM175,38.31c.1,0,.27-.06.4-.11s.07-.07.11-.11a1.4,1.4,0,0,0-.28,0,2.66,2.66,0,0,0-.45.13s0,0,0,.07Zm-4.68-2.55a2.05,2.05,0,0,0,.41.12,1.15,1.15,0,0,0,.38-.11s-.15-.1-.23-.1S170.6,35.72,170.33,35.76Zm-8.77-.82.35-.06-.39-.05a2.27,2.27,0,0,0-.25-.06H161s0,.11.12.14A2.24,2.24,0,0,0,161.56,34.94Zm-.82,2.82c.14-.09.28-.15.25-.17a1.57,1.57,0,0,0-.38-.11c-.08,0-.24.08-.22.11A1.59,1.59,0,0,0,160.74,37.76Zm-1-.22a1.78,1.78,0,0,0-.48-.16,1.66,1.66,0,0,0-.43.14,5.41,5.41,0,0,0,.58.07A2.21,2.21,0,0,0,159.74,37.54ZM159,35.45a2.75,2.75,0,0,0,.36-.14.8.8,0,0,0-.32-.14s-.28.06-.28.09S158.88,35.36,159,35.45Zm-42-.74c0-.07.12-.13.1-.18s-.13-.1-.2-.15-.39.11-.38.15S116.79,34.63,117,34.71ZM110.4,40a3.06,3.06,0,0,0-.49-.12,1,1,0,0,0-.31.08,1.75,1.75,0,0,0,.33.13A3,3,0,0,0,110.4,40Zm94.13-4.48c-.22,0-.38,0-.54,0a2.57,2.57,0,0,0-.4.08,1.9,1.9,0,0,0,.43.13A2.31,2.31,0,0,0,204.53,35.56Zm-56.62.15a.72.72,0,0,0-.2-.05,1.43,1.43,0,0,0-.37.06c0,.08,0,.17.08.25h.1Zm44.9.36c.11-.09.23-.14.23-.2a.82.82,0,0,0-.29-.07.76.76,0,0,0-.31.13S192.6,36,192.81,36.07Zm-51.56.22.69.17a1.57,1.57,0,0,0,.25,0l-.59-.18A2,2,0,0,0,141.25,36.29ZM31.81,34.1c.06-.05.15-.1.17-.15s-.09-.06-.14-.08l-.42.18ZM122,37.29l-.22-.19s-.15.09-.14.14.1.13.15.19ZM42.82,32.74a5,5,0,0,0,.57.08c.13,0,.23-.09.33-.13a.79.79,0,0,0-.25,0C43.29,32.65,43.12,32.69,42.82,32.74Zm78,5.14.42-.19a1.58,1.58,0,0,0-.26,0,1,1,0,0,0-.31.13S120.77,37.84,120.84,37.88Zm-.26,1.89.39-.05-.43-.19c-.05,0-.15.06-.14.09A1,1,0,0,0,120.58,39.77ZM65.66,36.54l.16.13.51-.15a1.29,1.29,0,0,0-.24-.05C65.93,36.48,65.8,36.52,65.66,36.54Zm91.22,3,.34-.07-.53-.15s-.12.07-.09.09A1.82,1.82,0,0,0,156.88,39.5ZM65,33.69l-.33.08.54.14s.11-.07.08-.09A2,2,0,0,0,65,33.69ZM105.74,35l-.14-.13-.54.14a1.2,1.2,0,0,0,.24.06Zm-41.53-.94a.66.66,0,0,0,.17-.16s-.09,0-.15-.08l-.41.19Zm112,5,.2.26c.07,0,.2-.07.2-.1s-.07-.14-.1-.2Zm-137-6.69.17.17c.07-.05.18-.1.2-.15s-.06-.1-.1-.15Zm.46.86-.22-.12-.42.19a1.38,1.38,0,0,0,.26,0Zm23.06,5.54.74-.07a.89.89,0,0,0-.28-.07,5.46,5.46,0,0,0-.57,0ZM124.62,36l.41-.19a1.38,1.38,0,0,0-.25,0,1.06,1.06,0,0,0-.32.13S124.55,36,124.62,36ZM29.35,35l.44-.15a2.47,2.47,0,0,0-.38-.05.67.67,0,0,0-.25.16Zm77.73,2.84-.17-.17c-.07,0-.18.09-.2.15s.06.09.1.14Zm28-3c.06,0,.17-.07.15-.09a1.52,1.52,0,0,0-.31-.13,1.18,1.18,0,0,0-.27.07ZM37.42,38.1l.16.13.51-.15a1.29,1.29,0,0,0-.24,0C37.69,38,37.56,38.08,37.42,38.1Zm-.06-.38.37-.09a3.13,3.13,0,0,0-.42,0c-.15,0-.29,0-.44.07Zm97.51-2,.27.13c0-.05.11-.1.1-.14s-.13-.11-.2-.16Zm-28.19,2.43.45.14a1,1,0,0,0,.2-.09,2.9,2.9,0,0,0-.38-.11S106.79,38.09,106.68,38.11ZM35.42,33.64a3.54,3.54,0,0,0,.38.09,1.38,1.38,0,0,0,.26,0l-.42-.18Zm113.17,3.8.34-.07-.53-.15s-.12.07-.09.09A1.82,1.82,0,0,0,148.59,37.44ZM36,38.71c.06-.05.15-.1.17-.15s-.09-.05-.14-.08l-.42.19Zm157-3.23a1.82,1.82,0,0,0,.28-.13s0-.06-.09-.09l-.53.15Zm-77.62-1.27.19.25c.07,0,.2-.06.2-.09s-.07-.14-.1-.2ZM34.34,38.4a4.68,4.68,0,0,0,.58.08c.13,0,.22-.09.33-.13A.92.92,0,0,0,35,38.3ZM32.6,36l.17.17c.07,0,.18-.1.2-.15s-.06-.1-.09-.15Zm74.15,3.91-.33.08.54.14s.12-.07.09-.09A2.08,2.08,0,0,0,106.75,39.9Zm89.18-4.1a1.57,1.57,0,0,0,.29-.14s-.06,0-.09-.08l-.53.14Zm-92-1.47.39,0-.41-.19c-.06,0-.16.06-.15.09A.86.86,0,0,0,104,34.33Zm36.13,3.18-.14-.14-.54.15a1.14,1.14,0,0,0,.24,0C139.8,37.56,140,37.53,140.09,37.51ZM189.65,35l-.37.1a3.07,3.07,0,0,0,.42,0c.15,0,.29,0,.43-.07Zm-61.17,2.63.39,0-.42-.19s-.16.06-.15.08S128.42,37.59,128.48,37.64ZM90.21,38.73a1.08,1.08,0,0,0-.25,0,2.9,2.9,0,0,0-.38.11s.13.06.2.09ZM167,34.82a1.36,1.36,0,0,0,.27-.13s-.06-.06-.1-.09l-.51.15ZM168.77,36l.46-.15a2.63,2.63,0,0,0-.38-.05.67.67,0,0,0-.24.16Zm-47.39,3.39.44.15c.05-.05.18-.12.14-.14a2.44,2.44,0,0,0-.45-.08A.42.42,0,0,0,121.38,39.38Zm4.14-.8-.28,0s-.11.06-.09.09.13.06.2.09Zm75.14,0c0-.06.06-.11.05-.16l-.2,0a.8.8,0,0,0-.09.14S200.54,38.59,200.66,38.62Zm-98.09-3.68a1.06,1.06,0,0,0-.29-.06,2.44,2.44,0,0,0-.39,0,1,1,0,0,0,.24,0C102.26,35,102.4,35,102.57,34.94ZM47.25,33l-.19-.1c-.05.05-.13.09-.14.14s.09.06.15.08Zm-1,1.73.17.14a1,1,0,0,0,.2-.09s-.06-.06-.1-.09Zm-1.56-.4.19.13c.05,0,.15-.06.14-.09s-.09-.09-.15-.13Zm-1.11,3.94-.27,0s-.12.07-.1.09a.62.62,0,0,0,.2.1Zm-1.41-5,.45,0s.08,0,.12-.07l-.42,0A.56.56,0,0,0,42.16,33.24Zm-.52,4.89.27-.07c-.13,0-.26,0-.39,0a.69.69,0,0,0-.24,0Zm74-3.19c.08,0,.19-.08.18-.1s-.1-.09-.15-.14-.15.06-.15.09S115.62,34.88,115.67,34.94Zm9.74.8.46,0a.75.75,0,0,0,.12-.07l-.42,0S125.49,35.7,125.41,35.74Zm-87.32-1.8.25,0s-.07-.1-.11-.15-.19,0-.19,0S38.07,33.88,38.09,33.94Zm112.69,3.53.17.14a1,1,0,0,0,.2-.09s-.06-.06-.1-.09ZM36.3,35.63l.12-.09a1.38,1.38,0,0,0-.26,0,2.13,2.13,0,0,0-.27.07ZM206.37,38c0-.06.06-.11,0-.16s-.13,0-.2,0a.44.44,0,0,0-.1.15Zm-55.58-1.28.36-.07c-.09,0-.17,0-.25,0l-.39.06Zm-116.34-4c0-.06.06-.11,0-.16s-.13,0-.2,0-.08.09-.09.14S34.33,32.72,34.45,32.75Zm117.92,4.87c0-.06.06-.11,0-.16l-.2,0a.44.44,0,0,0-.1.15ZM142,36.88a3.49,3.49,0,0,0,.45,0s.08,0,.12-.07l-.41,0S142,36.84,142,36.88Zm.81,1.91.11-.09a1.22,1.22,0,0,0-.26,0,1.19,1.19,0,0,0-.27.07Zm45.77-3.65c0-.06.06-.11.05-.15s-.13,0-.2,0a.42.42,0,0,0-.09.14Zm-31.64-.45-.27,0s-.12.06-.1.09a1,1,0,0,0,.2.09Zm60.5,2.67.41-.07a2.14,2.14,0,0,0-.27-.06,1.15,1.15,0,0,0-.26,0ZM157.22,35.5a1,1,0,0,0,.24,0,.44.44,0,0,0-.1-.15c-.06,0-.19,0-.19.05S157.2,35.44,157.22,35.5Zm-17.79,4.62.18.1c.06,0,.14-.09.15-.14s-.1,0-.15-.08ZM95.07,35l.41-.06a1.19,1.19,0,0,0-.27-.07,1.22,1.22,0,0,0-.26,0Zm.27,3.06.24-.06s-.07-.09-.1-.14-.2,0-.2,0S95.31,38,95.34,38.1Zm62.91-2.25c.08,0,.18-.07.17-.1s-.09-.09-.15-.14-.15.06-.14.09S158.2,35.79,158.25,35.85Zm.43,4.53.42-.07a2.3,2.3,0,0,0-.28-.06,1.3,1.3,0,0,0-.26,0Zm-35.46-6.21-.28,0s-.11.06-.09.09.13.06.2.09ZM93.06,37.55l-.18-.1s-.13.09-.15.14.1,0,.15.08Zm136.49-.92.36-.07a1.14,1.14,0,0,0-.24-.05l-.4.05Zm-108.92.13.19.12c.05,0,.15-.05.14-.08s-.09-.09-.15-.14ZM93.12,39.83a1.42,1.42,0,0,0-.28-.06l-.4,0a.74.74,0,0,0,.24,0A3.59,3.59,0,0,0,93.12,39.83Zm84.34-1.93.18.15a1.83,1.83,0,0,0,.2-.1s-.07-.06-.1-.09Zm-37.89-1,.41-.06a2.13,2.13,0,0,0-.27-.07,2.34,2.34,0,0,0-.26,0Zm-28.44,2.19-.28.07.4.05a1.14,1.14,0,0,0,.24-.05Zm49.54,1.17.18.15c.07,0,.17-.06.19-.1s-.06-.06-.09-.09Zm74.63-.66.17.14a1,1,0,0,0,.2-.09s-.06-.06-.1-.09ZM108.62,34.79l-.28,0s-.11.07-.09.09.13.07.2.1Zm26.27.25.19.13s.15-.06.15-.09a.67.67,0,0,0-.15-.13Zm27.81,0,.12-.1a1.3,1.3,0,0,0-.26,0,1.15,1.15,0,0,0-.28.07Zm10,2.63.18.15c.07,0,.17-.06.2-.1s-.06-.06-.1-.09Zm72.22.79a1.42,1.42,0,0,0-.28-.06,2.44,2.44,0,0,0-.39,0,1,1,0,0,0,.24.05A3.62,3.62,0,0,0,244.91,38.49Zm-80.12,1,.17.15c.07,0,.17-.06.2-.1s-.06-.06-.1-.09Zm.52-.37.12-.09a1.3,1.3,0,0,0-.26,0,1.28,1.28,0,0,0-.28.07Zm-76.7.3c-.07,0-.12-.08-.16-.08s-.27,0-.41,0c0,0,.08.07.12.07A3.62,3.62,0,0,0,88.61,39.43Zm51.54.56a1,1,0,0,0,.24-.05.44.44,0,0,0-.1-.15l-.2,0C140.09,39.88,140.13,39.93,140.15,40Zm26-1.38-.27,0s-.12.07-.1.09a.62.62,0,0,0,.2.1ZM76.83,33.17l-.28,0s-.11.07-.09.09.13.06.2.1Zm91.26,6-.28,0s-.11.06-.09.09.13.06.2.09Zm-22.31-4.42-.28,0s-.11.06-.09.09.13.06.2.09Zm-14.59,3.94h.24a.33.33,0,0,0,0-.14h-.2A.42.42,0,0,0,131.19,38.68Zm-56-4,.46,0s.08,0,.12-.07l-.42,0S75.29,34.6,75.21,34.64ZM73.33,38l.19.12s.15-.06.14-.09-.09-.09-.15-.13Zm96.25.44c-.07,0-.12-.09-.15-.09l-.42,0s.08.07.12.07ZM86.46,34.19l.12-.09c-.09,0-.19,0-.26,0a1.15,1.15,0,0,0-.28.08ZM71.17,37.78l.27-.07-.39-.05a2,2,0,0,0-.24.05Zm-2.56-.21-.19-.12s-.15.06-.14.08.09.09.15.14Zm78.14-2-.28,0s-.12.07-.1.09a.62.62,0,0,0,.2.1ZM63.23,37.68l-.36.07a1.14,1.14,0,0,0,.24,0l.39,0Zm108.6.61a3.49,3.49,0,0,0,.45,0c.05,0,.08,0,.12-.07l-.41,0S171.9,38.25,171.83,38.29Zm20.72-3.36.12-.09a1.38,1.38,0,0,0-.26,0,2.86,2.86,0,0,0-.28.07ZM79.43,33.67l-.12,0,.22,0,.1,0Zm187.39,4,.11.07s.11,0,.1,0a.44.44,0,0,0-.1-.08ZM76.27,35l.21,0-.11,0-.21,0Zm-.82-1.56-.11-.07s-.11,0-.1,0l.1.07Zm-2.38-.16-.12,0,.22,0,.1,0Zm183.62,6.63.12,0s.08,0,.09-.07-.06,0-.1,0Zm-184.36-6s-.08,0-.11,0l-.21,0s.08,0,.11,0Zm-4.09-.63.11,0,.1-.07-.1,0ZM67.82,37l.12,0-.22,0-.1,0Zm-1.11-3.94-.11,0,.21,0s.07,0,.11,0Zm-.23-.14.12,0a1.66,1.66,0,0,0-.22,0l-.1,0Zm-2,4.95.11,0s.08,0,.1-.08l-.1,0Zm-.34-4.8-.11,0,.21,0s.07,0,.11,0Zm179.72,6.64-.11-.07s-.11,0-.1,0l.1.07Zm-183-6.38.12.07.1,0s-.07,0-.11-.08Zm.2,4.59s.1,0,.09,0-.06,0-.1-.08-.1,0-.09,0S61.09,37.9,61.13,37.92ZM240.6,39.55s.11,0,.1,0a.26.26,0,0,0-.1-.07s-.11,0-.1,0S240.57,39.52,240.6,39.55Zm-7.14.08-.11,0-.21,0,.1,0ZM55.14,38.15l.11,0-.21,0a.21.21,0,0,0-.1,0ZM54,33.86l.21,0s-.08,0-.11,0l-.21,0Zm-1,.39.11.07s.11,0,.1,0l-.1-.07Zm-.81,4.69.21,0s-.08,0-.11,0l-.21,0Zm177-2.14-.11-.07s-.11,0-.1,0l.1.07Zm-3.14,1.78-.12-.07-.1,0,.11.07ZM49.67,34.13l-.2,0,.1,0,.21,0Zm-.37,2-.12,0a1.66,1.66,0,0,0,.22,0l.1,0Zm-3.07-3L46.11,33l-.1,0s.07,0,.1.08Zm-1.08,5.63.11,0a.44.44,0,0,0,.1-.08l-.1,0Zm172.41-2.65.11,0a.29.29,0,0,0,.1-.07s-.06,0-.1,0ZM44.25,33l.11,0a1.33,1.33,0,0,0-.21,0l-.1,0Zm172.9,6.84.11,0-.21,0a.3.3,0,0,0-.11,0ZM43.88,35l.2,0-.1,0-.22,0Zm.22,3.69-.11,0a.44.44,0,0,0-.1.08s.06,0,.1,0Zm-1.29-6.28.12.07.1,0-.11-.07Zm-2.05,5.83-.11,0,.21,0s.07,0,.1,0Zm-.47-4.57.12,0s.08,0,.1-.08l-.1,0Zm.32,2.74-.1,0-.21,0,.1,0A1.33,1.33,0,0,0,40.61,36.42ZM40,32.58l.11,0a.26.26,0,0,0,.1-.07l-.1,0Zm-1.05,0-.11-.07s-.11,0-.1,0l.1.07Zm0,1.6-.2,0s.08,0,.1,0a1.46,1.46,0,0,0,.22,0Zm-.09,3.88.12.07.1,0s-.07-.05-.11-.08Zm-.31.22.11.08s.11,0,.1,0a.26.26,0,0,0-.1-.07Zm171.17,1.57s-.08,0-.1,0a1.46,1.46,0,0,0-.22,0s.08,0,.11,0Zm-172-6.44-.2,0a.21.21,0,0,0,.1,0l.21,0Zm-.4.3.2,0-.11,0-.21,0Zm-.13,2L37,35.61s-.11,0-.1,0a.44.44,0,0,0,.1.08Zm-.61-1.34s-.08,0-.11,0l-.21,0s.08,0,.11,0Zm-.56-2-.11,0,.21,0,.11,0Zm.2,5.92.11,0a1.46,1.46,0,0,0-.22,0l-.1,0Zm-.49-4.3.21,0-.11,0-.21,0Zm-.14-1.58s-.08,0-.1,0a1.46,1.46,0,0,0-.22,0s.08,0,.11,0Zm169.38,3,.12,0s.08,0,.09-.07-.06,0-.1,0ZM33,32.74l.2,0s-.08,0-.1,0a1.33,1.33,0,0,0-.21,0Zm-1.18,2.34s.1,0,.09,0-.06,0-.1-.07-.1,0-.09,0S31.82,35.05,31.86,35.08Zm167.61,4.48-.1,0-.22,0,.11,0Zm-1.19-4.35s.11,0,.1,0-.06,0-.1-.08l-.1,0A.36.36,0,0,0,198.28,35.21Zm-2.38,2.37-.12,0s-.08.05-.09.08l.1,0Zm-168-3.88.11.07s.11,0,.1,0l-.1-.07Zm-.33-.63.11,0,.1-.07s-.06,0-.1,0Zm164.11,4,.12,0a1.66,1.66,0,0,0-.22,0l-.1,0ZM25.49,34s.1,0,.09,0-.06,0-.1-.08l-.1,0A.3.3,0,0,0,25.49,34Zm159.77,1,.1,0s-.07-.05-.1-.08-.11,0-.1,0Zm-5.12.37-.11,0a1.33,1.33,0,0,0,.21,0s.07,0,.1,0Zm-4.45.13-.11,0a1.46,1.46,0,0,0,.22,0s.06,0,.1,0Zm-1.17.09.11,0-.21,0a.3.3,0,0,0-.11,0Zm-.36.34.1,0s-.07-.05-.1-.08-.11,0-.1,0A.26.26,0,0,0,174.16,36Zm-1.26,3.44-.11,0,.21,0s.07,0,.11,0Zm-.63.23-.11,0,.21,0,.11,0Zm-1.49.3.11,0-.21,0-.1,0Zm-2.72-5.17.2,0-.1,0a1.46,1.46,0,0,0-.22,0Zm-.24,4.67-.11,0,.21,0a.3.3,0,0,0,.11,0Zm-1.16-3.14-.12-.07-.1,0,.1.07Zm-.5,2.76.11,0s.09,0,.1-.08-.06,0-.1,0Zm-1.39-4.42s-.08,0-.11,0l-.21,0,.1,0A1.46,1.46,0,0,0,164.77,34.65Zm-2,5-.11,0a1.46,1.46,0,0,0,.22,0s.06,0,.1,0Zm-.63-5.1.11,0-.21,0s-.07,0-.1,0Zm-2.88,1.46s.11,0,.1,0l-.1-.07-.1,0Zm-3.53.55.21,0-.11,0a1.52,1.52,0,0,0-.21,0Zm0,1.66.21,0a.3.3,0,0,0-.11,0l-.21,0Zm-1.07,2.07-.12-.07-.1,0,.1.07Zm-.37-5.64-.11,0-.21,0,.1,0Zm-1.85.88.12.07s.1,0,.09,0a.29.29,0,0,0-.1-.07Zm-.42,3-.21,0,.11,0,.21,0Zm-1.78-1.62.12.07.09,0s-.06,0-.1-.08Zm-.24.75-.11,0a1.46,1.46,0,0,0,.22,0s.06,0,.1,0Zm-.91-3.08-.2,0,.1,0,.21,0Zm-3.48.86.11,0-.21,0a.21.21,0,0,0-.1,0ZM145,39l.2,0a.3.3,0,0,0-.11,0l-.21,0ZM141,35.4l.12.07.1,0-.1-.07Zm-.37-.75a.3.3,0,0,0-.11,0l-.21,0,.11,0Zm-.84.15.21,0s-.08,0-.11,0l-.21,0Zm-1,.06.12.07.1,0-.11-.07Zm-.68,2.57-.11-.07s-.11,0-.1,0,.06,0,.1.07ZM137,39.81l-.11,0,.21,0a.3.3,0,0,0,.11,0ZM135,34.47l.12,0a.36.36,0,0,0,.1-.07l-.1,0Zm.32,2.4-.11,0-.21,0,.11,0Zm-.53-.17.21,0a.3.3,0,0,0-.11,0l-.21,0Zm-2.2,1.22.21,0s-.08,0-.11,0l-.21,0Zm-.29-3.53.12,0a1.66,1.66,0,0,0-.22,0l-.1,0Zm.1,5.51.11,0-.21,0a.3.3,0,0,0-.11,0Zm-.45-2.06-.11,0,.22,0,.1,0Zm-3.39.21.11,0-.22,0-.1,0Zm-.73-2.63.1,0-.1-.07s-.11,0-.1,0Zm-.2.29-.11-.07s-.11,0-.1,0a.29.29,0,0,0,.1.07Zm-2.25-1.31-.11-.07-.1,0s.07,0,.1.08Zm-.16,3.72.12.07.1,0a.3.3,0,0,0-.11-.07Zm0,.25.11,0a.44.44,0,0,0,.1-.08l-.1,0Zm-.48-3.64-.11-.07s-.11,0-.1,0l.1.07Zm-.5,5s-.08,0-.1,0a1.46,1.46,0,0,0-.22,0s.08,0,.11,0Zm-.56-5,.1,0a.3.3,0,0,0-.11-.07s-.1,0-.09,0S123.6,34.64,123.64,34.67Zm-1.46,1.07-.11-.07s-.11,0-.1,0,.06,0,.1.08Zm-.25,1-.11,0-.21,0,.1,0Zm-1.85.58.11,0s.08,0,.1-.08l-.1,0Zm0,2.06.12.07.1,0s-.07,0-.11-.08Zm-2-3.6.12,0,.1-.07-.1,0Zm-.3.64.11.07s.11,0,.1,0a.26.26,0,0,0-.1-.07Zm-.2-1.9-.2,0,.11,0,.21,0Zm-.88,4-.2,0,.1,0,.22,0Zm-.29,1.74.12,0-.22,0-.1,0Zm-.33-.88.11,0-.21,0a.21.21,0,0,0-.1,0Zm-2.4-4.74.21,0-.11,0-.21,0Zm-.06.28.12.07s.1,0,.09,0a.29.29,0,0,0-.1-.07Zm.29.9a.3.3,0,0,0-.11,0l-.21,0,.11,0Zm-1.11.17.1,0a.36.36,0,0,0-.1-.07s-.11,0-.1,0A.44.44,0,0,0,112.86,35.93Zm0,2.85.21,0s-.08,0-.11,0l-.21,0Zm-.78.75-.11-.07s-.11,0-.1,0l.1.07ZM109,34.61l.2,0a.21.21,0,0,0-.1,0l-.21,0Zm-2.77,4.86.2,0s-.08,0-.1,0a1.46,1.46,0,0,0-.22,0ZM243,40.16l-.12-.07-.09,0s.06.05.1.08ZM104,35s.11,0,.1,0-.07,0-.1-.08-.11,0-.1,0A.26.26,0,0,0,104,35Zm-.7-1.11.2,0s-.08,0-.1,0a1.33,1.33,0,0,0-.21,0Zm-1.65.06.11.07.1,0s-.07-.05-.1-.08Zm-.09.25-.12-.07s-.1,0-.09,0,.06,0,.1.07Zm-.21,1.22.12,0s.08,0,.1-.08l-.1,0ZM99.6,34l-.11-.07s-.11,0-.1,0a.29.29,0,0,0,.1.07Zm-.52,1.52.12.07s.1,0,.1,0a.3.3,0,0,0-.11-.07ZM99.14,39l.12.07.1,0a.36.36,0,0,0-.1-.07Zm221.63-3.83.11,0s.08,0,.1-.08l-.1,0Zm-.88.58.2,0a.21.21,0,0,0-.1,0l-.21,0ZM98.42,36.82s-.07,0-.1,0l-.21,0s.08,0,.1,0A1.33,1.33,0,0,0,98.42,36.82Zm-.51-2s.11,0,.1,0l-.1-.07-.1,0ZM96.42,34a.41.41,0,0,0-.11-.07s-.11,0-.1,0,.07.05.1.08Zm-.94.77-.11-.07-.1,0,.1.07Zm-1-.76-.12-.08s-.1,0-.09,0,.06,0,.1.07Zm-2.7.25.21,0s-.08,0-.11,0l-.21,0Zm0,.88.2,0-.1,0-.22,0Zm-.24-.52-.2,0,.1,0,.22,0Zm-1-.24.21,0a.3.3,0,0,0-.11,0l-.21,0Zm-.14.64-.12-.07-.1,0s.07,0,.1.08Zm189.8,1.82.2,0-.1,0-.22,0ZM88.08,38.12l.2,0-.1,0-.21,0Zm-.55-4.43-.12-.07-.1,0s.07.05.1.08ZM86.28,35l-.12-.07s-.1,0-.09,0,.06.05.1.07Zm-1.19-.32.12,0s.08,0,.1-.08l-.1,0ZM85,39.05l-.2,0,.1,0,.22,0Zm-.4-4.63-.2,0,.1,0,.22,0Zm-.13,4.23-.1,0-.22,0,.11,0ZM83.22,39l-.11,0-.21,0A.3.3,0,0,0,83,39ZM27.63,32.25s0,.06.05.09c.53,0,1.07-.07,1.58-.13.16,0,.24-.14.33-.22s0-.09-.06-.1-.31,0-.59,0A1.48,1.48,0,0,0,27.63,32.25Zm300.4,3h.62c.41,0,.23-.14.38-.17s.56-.06.83-.09a.08.08,0,0,0,.06-.1s-.1,0-.15-.08c-.22.13-.39,0-.68,0a7.55,7.55,0,0,0-1.07,0C328,35,328,35.15,328,35.29ZM134.61,40.68a1.92,1.92,0,0,0,.4-.11c.06,0-.15-.1-.26-.15a.57.57,0,0,0-.46,0c-.17.06-.4.1-.61.15l-.25.05a1,1,0,0,0,.24,0h.47A3.68,3.68,0,0,0,134.61,40.68ZM31.94,38.51c-.4.05-.76.14-1.13.21a0,0,0,0,0,0,.05.84.84,0,0,0,.24.06c.32,0,.58-.19,1,0l.47-.11A2.87,2.87,0,0,0,31.94,38.51Zm-.52-.35c.32,0,.61-.09.91-.14-.3-.06-.6-.13-.92-.18A2.19,2.19,0,0,0,31,38,2.47,2.47,0,0,0,31.42,38.16Zm148-3.93a2,2,0,0,1,.38.08,2.09,2.09,0,0,0,1.07.07s0,0,0,0l-.89-.18Zm153,.77s-.25-.1-.39-.15-.18.1-.2.15.06.11.11.18C332.18,35.1,332.43,35.05,332.43,35Zm-6,.3c0,.08-.14.2.24.22s.37-.12.39-.22ZM31.93,37.15s-.06-.06-.1-.09a2.58,2.58,0,0,0-.4.1s.07.08.13.14A4,4,0,0,0,31.93,37.15Zm302.44-2.43a1.06,1.06,0,0,0-.95,0Zm-.18.43c.06,0,.18-.08.17-.12s-.09-.13-.14-.2L334,35Zm-6.7.35a4.43,4.43,0,0,0,.43-.12c.06,0,.07-.05.11-.09h-.64A1.24,1.24,0,0,1,327.49,35.5Zm-.42-.53v.33h.32C327.27,35.19,327.68,35,327.07,35ZM127.38,34l.52-.15a.79.79,0,0,0-.24,0,2.89,2.89,0,0,0-.44.07ZM29,38c.05-.05.16-.09.15-.14s-.08-.12-.12-.18l-.26.16ZM27.3,31.77a1,1,0,0,0,.2-.09,2.66,2.66,0,0,0-.39-.11l-.26.06Zm2.22,6.46a.44.44,0,0,0-.1-.15c-.07,0-.2,0-.2.05s0,.09.06.15A1.41,1.41,0,0,0,29.52,38.23Zm-1.93-1.45c0-.05-.1-.09-.15-.14s-.15.06-.15.08.07.1.12.16S27.6,36.8,27.59,36.78Zm-2.2.81a2.57,2.57,0,0,0-.4-.05,1.14,1.14,0,0,0-.24.05l.36.06Zm318.3-2.9s-.12.07-.1.09.13.06.2.1l.17-.15Zm-10.92.06s-.1-.09-.15-.14-.15.06-.15.09.07.09.13.15S332.78,34.77,332.77,34.75Zm-4.76,0a.5.5,0,0,0-.08-.14l-.2,0a1.94,1.94,0,0,0,.06.22C327.93,34.84,328,34.82,328,34.8Zm-152.66-.57s-.12.07-.1.09a.62.62,0,0,0,.2.1l.17-.15Zm-3-.08-.26,0a2.13,2.13,0,0,0-.27.07l.41.06ZM53.83,39.39l-.14,0,.19.05.1,0Zm-20-1.9-.14,0,.19.05.1,0Zm-.45.89-.31.11h.32Zm-.31.16-.14,0a.46.46,0,0,0-.14.07l.09,0Zm-1-.22-.14,0-.14.07s.06,0,.1,0Zm-1.22-6.44s-.11,0-.1,0a.26.26,0,0,0,.1.07L31,32Zm0,6.84a.27.27,0,0,0-.1-.08.84.84,0,0,0-.19,0l.15.06Zm-1-2.37-.21,0a.21.21,0,0,0-.1,0l.2,0ZM28.89,38l-.14,0a.46.46,0,0,0-.14.07l.1,0Zm-.66-1.65a1.46,1.46,0,0,0-.22,0l-.1,0,.2,0Zm-2,1.5s-.11,0-.1,0l.1.07.11,0Zm-.56-4.74.1.09.22-.09ZM25,36.62s-.07,0-.11-.08-.1,0-.09,0a.29.29,0,0,0,.1.07Zm-1.06-.4s-.11,0-.1,0,.06,0,.1.08l.11,0Zm123.67-2.1.24,0s0,0-.06-.06l-.18,0Zm-4.52,6.3-.14,0,.2.05.1,0Zm-8.08,0,.24,0s0,0-.05-.07l-.19,0Zm-5.23.13s.08,0,.09-.07-.06,0-.1,0l-.11.07ZM127,34.1s0-.06-.1-.08a.84.84,0,0,0-.19,0l.15.06Zm-14.3-.32-.1,0-.21,0,.11,0ZM109,40.41l-.14,0-.14.06s.06,0,.1,0Zm228.89-5.6.24,0s0-.05-.05-.07l-.19,0Zm0,0-.15,0-.14.07.1,0Zm-3.24-.07-.26-.07v.11Zm-1.21,0-.15-.05-.14.07.1,0Zm-2.4.29-.14,0,.19,0,.1,0Zm-.14,0a.27.27,0,0,0-.1-.08.84.84,0,0,0-.19,0l.15.06Zm-4.56-.51-.21,0,.1,0,.22,0A.3.3,0,0,0,326.32,34.55ZM96.42,40.19l.1-.07-.1,0-.11.07Zm-1.23-6.72a.27.27,0,0,0-.1-.08.84.84,0,0,0-.19,0l.15.06Zm-2.38.12.1-.07s-.07,0-.1,0l-.11.07Zm-64.93.51-.27,0a2.13,2.13,0,0,0,.27.07h.31V34.1Zm7.67,3.61s0-.06-.09-.09l-.19,0,.14.07Z"/></svg>