<svg id="Calque_1" data-name="Calque 1" xmlns="http://www.w3.org/2000/svg" viewBox="0 0 213.44 32.17"><defs><style>.cls-1{fill:#f29016;}</style></defs><title>TRAIT ECOSYTEME INTEGRE</title><path class="cls-1" d="M133.41,19l-.28-.22a.33.33,0,0,0-.12,0c.07.45-.28.26-.47.33s-.21-.25-.39-.06-.22,0-.32-.09-.13,0-.18.05A.47.47,0,0,1,131,19a.43.43,0,0,0-.28-.11c-.17,0-.33.12-.49.11s-.22-.25-.39-.05c0,0-.09,0-.14,0a.8.8,0,0,0-.69,0c-.12.07-.35.17-.37-.15,0,0-.11,0-.13,0s-.22,0-.33,0-.15.12-.24.18a.1.1,0,0,1-.09,0c-.17-.18-.38-.06-.63-.14,0,0,0,0,0,0l.06-.06-.08-.06s0,0,0,.08c-.08.23-.22.22-.31,0,0,0,0,0,0,0l.06.07a.47.47,0,0,0,.06-.09s0,0-.08,0-.26-.14-.4.07-.25.33-.5.26c-.08,0-.19,0-.23-.08a.33.33,0,0,0-.54-.07c-.11.08-.16-.26-.31-.05s-.19,0-.28-.06-.21-.07-.25,0c-.23.23-.42,0-.62-.05,0,0-.07-.09-.09-.09s-.4.12-.45.06-.12-.31-.32-.36a2.19,2.19,0,0,1-.3-.05c-.05,0,0,0,0,0h.13c0-.05-.06-.12-.1-.13s-.11,0-.07.08.17.44-.06.28-.46-.15-.55.07-.21.31-.39.09-.21-.19-.38-.05-.33.16-.38-.15a.21.21,0,0,0-.39,0,.83.83,0,0,1-.49.14c-.08,0-.26.11-.26.1-.1-.16.12-.17.15-.27a.91.91,0,0,0,0-.23c-.06,0-.14,0-.18,0s-.32.22-.48.32-.16.14-.23.13a.8.8,0,0,1-.41-.14,2,2,0,0,1-.52-.56s0,0,0,0l.06.06.06-.08s0,0-.08,0-.28.14-.39.21a.19.19,0,0,0-.06.16c.06.17.12,0,.17,0s.13.08.19.13-.11.11-.14.1c-.39-.15-.86,0-1.21-.36-.08-.09-.29,0-.44-.07v.14l0,.24a.91.91,0,0,1-.19-.13c-.28-.26-.3-.28-.61,0a.78.78,0,0,1-.47.19c-.08,0-.11.08-.25,0s-.48-.36-.81-.35c-.06,0-.12-.2-.21-.25s-.29-.3-.32.07a.6.6,0,0,1-.3,0s0,0,0,0l.06-.06a.24.24,0,0,0-.08-.06s0,0,0,.08c-.19.3-.53.34-.85.41,0,0,0-.07,0-.28,0-.05,0,0,0,0a.53.53,0,0,0,0,.13s.12-.06.13-.1,0-.11-.08-.07c-.16.23-.2-.08-.36.12s-.19,0-.27-.07l-.7-.58a.15.15,0,0,0-.13,0,.19.19,0,0,0,0,.13c0,.1.1.19.14.28a.18.18,0,0,1,0,.13s-.09,0-.13,0,0-.3-.21-.25a.56.56,0,0,0-.28.13c-.18.19-.32.08-.51,0s-.27.1-.42,0c0,0,0-.1.06-.11s.3,0,.2-.22-.25-.07-.35,0-.18.28-.18.46,0,.11-.07.17a.66.66,0,0,1-.14-.15c0-.05,0-.13-.06-.18s-.11-.06-.14.05-.11.09-.17.14-.09-.1-.09-.15,0-.21,0-.27.3-.31,0-.39-.1.24-.17.35a.54.54,0,0,1-.89.14c-.1-.08-.13-.15-.2,0s-.45.07-.47.39c-.12-.3-.49.13-.62-.22,0-.1-.15-.29-.34-.08,0,0,0-.28-.2-.27s-.22-.09-.25-.06-.29.12-.23.32a.38.38,0,0,1,0,.15.64.64,0,0,1-.27,0s0,0,0,0l.07-.06-.08-.06s0,0,0,.08,0,.28,0,.28a2.81,2.81,0,0,1-.58,0s0-.16,0-.31,0,0,0,0l.06.07.06-.09s0,0-.09,0a.47.47,0,0,1-.71-.2c-.14-.32-.14-.32-.44-.2a1.11,1.11,0,0,1-.41,0s0,0,0,0h.13c0-.05-.06-.12-.1-.13s-.11,0-.07.08.23.28.06.32a1.09,1.09,0,0,0-.36.12c-.11.09-.15.15-.3,0s-.22.09-.32.17-.19.13-.27,0,0-.15.08-.22a.7.7,0,0,1,.09-.18s0,0,0,0l.06.06.06-.08s0,0-.08,0a2.57,2.57,0,0,1-.66.05c-.07,0-.07,0,0,.15a.12.12,0,0,1,0,.12.73.73,0,0,1-.83-.19c-.17-.26-.32-.48-.67-.24,0,0-.16,0-.16-.06,0-.36-.16-.14-.25-.05s-.08.21.08.24a1.34,1.34,0,0,0,.2,0l.21.09c-.19.08,0,.24,0,.27s-.29.06-.3,0c-.13-.37-.63-.27-.76-.62,0,0-.09,0-.09,0a.17.17,0,0,0,0,.12c0,.11.26.28-.09.24-.17,0-.33,0-.51-.1s-.22-.06-.26.26c0,.11-.15.16-.2,0-.2-.36-.73-.09-.89-.49-.12.05-.27.07-.33.15s-.2-.1-.38-.08,0,0,0,0l.06-.06-.08-.07s0,0,0,.09c0,.26-.14.14-.25.16s0-.1,0-.11.13-.2,0-.28a1.8,1.8,0,0,0-.41-.14s-.08.15-.06.16,0,.25,0,.37.06.25-.11.27-.13-.17-.17-.28a.76.76,0,0,0-.19-.25s-.12,0-.18,0a.25.25,0,0,0,0,.09c.14.2.09.29-.15.28h-.21c-.19,0-.3-.09-.11-.43,0-.08,0,0-.15.08s0,.06,0,.06a.34.34,0,0,0,.14,0l.21-.14a.15.15,0,0,0,0-.1s0,0-.23.09-.28.16-.34.14-.19-.28-.22,0V18c0,.43-.2-.1-.27,0l0-.11-.1.11c-.06,0-.17,0-.19,0-.13.22-.24,0-.44-.12l.09.11c0-.07.13-.15.12-.2s-.12-.14-.18-.2-.06.1,0,.29a.63.63,0,0,1,0,.36.78.78,0,0,1-.23-.05c-.17-.1-.12-.27-.13-.42a1.21,1.21,0,0,0,0-.18.58.58,0,0,0-.08.22c0,.15-.07.2-.21.17a1.81,1.81,0,0,0-.91.13c-.15.06-.29.25-.44,0-.16.16-.36.09-.55.11s-.28-.19-.42-.28-.14,0-.27,0,0,0,0,0l.06-.06-.08-.07s0,0,0,.09a.14.14,0,0,1,0,.17c-.1.07-.31-.33-.32.08,0,0-.08,0-.09,0a.78.78,0,0,1-.13-.19c.2-.2.13-.28-.11-.34-.07,0-.1-.15-.15-.23a.8.8,0,0,1-.1.23.54.54,0,0,1-.21.15s-.12-.06-.12-.09.18-.1,0-.17-.12,0-.17.05a1.16,1.16,0,0,0-.2.18c-.13.14-.21.14-.34,0a.76.76,0,0,0-.09-.09s-.07.06-.07.1,0,.32,0,.47,0,.07-.07.1-.06-.07-.06-.11,0-.26,0-.33-.29-.15-.3-.35c-.2,0-.11.25-.09.3s-.27.22-.06.39c0,0-.3.15-.32,0-.06-.31-.27-.22-.45-.24l-.28-.36a.15.15,0,0,0-.27,0c-.15.33-.49.34-.76.45a.67.67,0,0,1-.19.05c0-.06,0-.12,0-.18a.74.74,0,0,1,0-.14c-.08,0-.19,0-.22.08s0,.21-.08.3-.09.21-.24.05a.89.89,0,0,1-.23-.74.67.67,0,0,0,0-.2c-.06,0-.16,0-.18.07s-.41.09-.39.37a1,1,0,0,0-.24,0,2.17,2.17,0,0,0-.24.07c-.13,0-.34-.08-.32.2,0,0-.08,0-.09,0-.23-.28-.33,0-.47.11s-.2.08-.25-.06A1,1,0,0,0,81,18c-.08-.1-.2-.14-.28,0s-.39.15-.56.28l-.1,0c0-.43-.32,0-.5-.15,0,0,0,0,0,0l.06-.06L79.5,18s0,0,0,.08a.35.35,0,0,1-.09.25.32.32,0,0,1-.54.05,1,1,0,0,0-.9-.28,1.08,1.08,0,0,1-.31-.07c-.15-.05-.14,0-.48,0a.55.55,0,0,1-.44,0,.74.74,0,0,0-.45-.08s-.07.05-.11.08l.12,0,.11.05s-.05.08-.08.08c-.19,0-.4-.05-.56.13l-.16-.14c-.09-.09-.16-.21-.26-.26s-.32-.32-.29.09c0,0,0,0,0,.06l-.22.23a.55.55,0,0,1-.12-.34c0-.05,0,0-.07,0s0,.06.07.06l.2-.07s-.07,0-.2,0-.37.19-.46.14c-.29-.16-.07.18-.2.17a1.51,1.51,0,0,1-.31,0c-.08-.44-.51-.19-.73-.37s-.1.08,0,.16a.91.91,0,0,1-.13.08c-.25.11-.48.27-.79.14-.11,0-.28.06-.41.12s-.31.17-.42-.06c0,0-.09,0-.14,0a2.42,2.42,0,0,1-.95-.31.51.51,0,0,1-.07-.17s0,0,0,0-.21.07-.1.24,0,.26-.07.39a1.76,1.76,0,0,0-1.09-.42c0-.44,0-.45-.36-.42-.12,0-.36.37-.32.47s0,.05,0,.05.31.14.37-.11h.27c0,.11,0,.22,0,.34s0,.12.07.19-.2,0-.22-.15-.13-.12-.19-.11c-.27,0-.58-.15-.83.11,0,0-.17,0-.17,0,0-.38-.22-.18-.4-.09a1,1,0,0,1-.62.14c-.07,0-.16,0-.24.06l-.23,0,.12-.19.09-.15a.62.62,0,0,0-.18,0c-.16.05-.31.13-.47.18a.22.22,0,0,1-.14,0c-.31-.1-.3-.09-.44.15,0,.05-.16,0-.25.05,0-.15.05-.38-.22-.14,0,0-.12,0-.18,0s0-.05,0-.07l-.18-.32a2.75,2.75,0,0,0-.19.28c-.1.15-.19.06-.23,0s-.17-.46-.48-.42c-.06-.25-.26-.17-.36-.1s0,.18,0,.27a.16.16,0,0,1,0,.12,1.68,1.68,0,0,1-.07.24.39.39,0,0,1-.18,0c-.1,0-.18-.1-.28-.14a.9.9,0,0,0-.23-.08l.12.24s0,.09,0,.14a.55.55,0,0,1-.19,0s-.09-.1-.14-.14c-.2-.16-.24-.15-.3.14s-.06.2-.18.06a2.57,2.57,0,0,0-.28-.29c-.23-.18-.36-.17-.48.08s-.11.17-.23.16a1.93,1.93,0,0,1-.34,0c-.1,0-.2-.08-.3-.09s-.16,0-.24,0a.56.56,0,0,1-.3-.08.69.69,0,0,0-.49-.14c-.21,0-.13-.08-.05-.18s0-.12,0-.18a.48.48,0,0,1-.14.05c-.25,0-.39.16-.54.31a1.46,1.46,0,0,0-.17.24c-.08-.06-.15-.13-.24-.19s0,0-.12.1-.09.07-.14.11a.66.66,0,0,0,0-.14.25.25,0,0,0,0-.11.87.87,0,0,0-.09.11s0,.09,0,.14-.13-.2-.32-.06-.41.34-.69.08c-.09-.08,0,.32-.26.22s-.19-.26-.2-.25a.59.59,0,0,1-.78-.16s-.13,0-.18,0a.33.33,0,0,1-.47,0c-.09-.08-.23-.09-.23.07,0,.34-.32-.16-.33.13-.17,0-.06-.17-.08-.25s0-.09,0-.14A.4.4,0,0,1,54,18a2.69,2.69,0,0,0,.43,0,.16.16,0,0,0,0-.11.19.19,0,0,0,0-.11L54,18c.06,0,.12.06.07.08a.4.4,0,0,0-.21.12c-.19,0-.31,0-.28-.24,0-.05,0-.11-.06-.17l-.15.14a.22.22,0,0,0,0,.11c0,.25,0,.43-.33.19-.05-.05-.19.16-.28,0,0,.11-.05.23-.09.34a1.21,1.21,0,0,1,0,.18c0-.05-.05-.11-.08-.15s-.19-.24-.3-.35-.2-.09-.24.07,0,.08,0,.12l-.19.29a.88.88,0,0,1-.28-.32s0,0,0,0l.06.06s0,0,.06-.08,0,0-.08,0c-.27,0-.5.23-.75.06,0,0-.16,0-.25.05a.94.94,0,0,0,.1-.23s-.06-.11-.07-.1a.59.59,0,0,0-.22.12c-.13.15-.24.19-.38.14s-.21-.31-.27.06c0,.14-.7.1-.84-.07a.79.79,0,0,0-.7-.3c-.22,0-.23.06-.09.21a1.73,1.73,0,0,1-.66.12c-.17-.09-.32-.22-.55-.08s-.23,0-.34-.13c-.27-.22-.3-.2-.61,0a.15.15,0,0,1-.13,0c-.1,0-.18-.1-.28-.14a.18.18,0,0,0-.13,0c0,.11,0,.3-.07.3a5,5,0,0,1-.67,0l-.05,0c-.11-.1.1-.36-.16-.36-.09,0-.18.18-.29.25s-.13,0-.2,0c-.28,0-.61-.29-.86.11a.23.23,0,0,1-.36-.2c0-.05,0,0-.07,0s0,.06.06.06l.2-.07s-.07,0-.19,0-.37.25-.56.2a1.83,1.83,0,0,0-.46-.07,2.32,2.32,0,0,0-.45.06c-.12,0-.12,0-.29-.27a.37.37,0,0,0-.18-.1c-.13.13-.23.12-.34,0l-.24.24c-.11-.07-.17.24-.32,0a.34.34,0,0,0-.3,0,.84.84,0,0,1-1.2-.28.64.64,0,0,0-.19-.13A1.25,1.25,0,0,0,38,18c0,.27-.08.13-.21.07s-.23.07-.4.07,0,0,0,0l.06-.06s-.05-.05-.08-.06,0,0,0,.08-.08.18-.12.16a4.72,4.72,0,0,0-.9-.29.78.78,0,0,0-.58,0c-.11,0-.28,0-.24-.19s-.16-.21-.3-.21-.07.09-.06.1.09.29,0,.27-.2.25-.39.08-.53.06-.75-.19c0,0-.22.09-.34.12-.3,0-.6-.15-.91,0,0,0-.11,0-.15-.09s0-.32-.12-.07-.35.32-.58.28a6.66,6.66,0,0,0-.89-.17.54.54,0,0,1-.27-.14c-.09-.07,0-.35-.22-.23s-.31.25-.21.48l.07.15c-.06,0-.13,0-.18,0a3.12,3.12,0,0,0-.65-.13c-.16,0-.34-.12-.47-.08s-.38-.18-.63,0-.48,0-.72,0a15.35,15.35,0,0,1-1.65-.16c-.21,0-.28-.18-.32-.36,0,0-.14,0-.22,0,0,.32-.3.33-.48.46s-.27.2-.36-.12l-.06-.12a.34.34,0,0,0-.08.09.56.56,0,0,1-.8.24.54.54,0,0,0-.56,0c-.27.18-.38.06-.47-.19a.27.27,0,0,0-.14-.14.11.11,0,0,0-.12,0,.18.18,0,0,0-.08.15c0,.06.08.1.1.16a.62.62,0,0,1,0,.19.37.37,0,0,0-.14-.07l-.46,0c-.09,0-.24,0-.26,0-.26-.47-.5-.12-.74,0s-.3.18-.49.13a1,1,0,0,0-.34,0,2.31,2.31,0,0,1-.56.11c-.15,0-.28-.21-.44-.24a.72.72,0,0,0-.64,0,1.29,1.29,0,0,1-.88.19c-.19,0-.39-.07-.56.11s-.22,0-.31-.06-.18-.11-.28,0a.31.31,0,0,1-.18.07,3.64,3.64,0,0,0-1.31.11,1,1,0,0,1-.52,0c-.07,0-.11-.12-.2,0s-.33.27-.57.08c-.07,0-.26.07-.4.09-.46,0-.92.07-1.37.12a5.22,5.22,0,0,1-.63.11c-.26,0-.48.3-.79,0s-.56.07-.82-.16c0,0-.21,0-.3.06-.27.11-.45.13-.62-.19a1,1,0,0,0-.62-.42c-.33-.06-.42-.33-.63-.48s-.21-.28,0-.48a.88.88,0,0,0,.28-.7A3.78,3.78,0,0,1,7.91,16a4.15,4.15,0,0,1,0-.61,4.59,4.59,0,0,1,.29-.69c0-.1.09-.19.12-.29s-.27-.24-.09-.4a3,3,0,0,1,.38-.24,3.28,3.28,0,0,1,.58-.42c.29-.11.54-.37.89-.31a.37.37,0,0,0,.26,0,1.47,1.47,0,0,1,1.08-.37.39.39,0,0,0,.21-.13c.27-.32.64-.27,1-.25a2.38,2.38,0,0,0,.79-.22c.08,0,.19-.17.19-.17.22.21.43-.1.65,0a1.51,1.51,0,0,0,.38.08l.42,0a3.62,3.62,0,0,0,.46.06c.16,0,.34.08.51-.07a4.12,4.12,0,0,1,1,0,2.85,2.85,0,0,0,1,0c.23-.08.29,0,.41.11s.26-.14.34.06c.3-.08.59.15.91,0s.58.15.88.18c.05,0,.1.07.16.1s.37-.13.59,0a.44.44,0,0,0,.55-.05.21.21,0,0,1,.19,0c.14.12.31,0,.47.08a.63.63,0,0,0,.36,0,1,1,0,0,1,.88,0,.49.49,0,0,0,.32,0c.31-.06.31-.07.35.34-.05,0-.07,0-.09,0a1.13,1.13,0,0,0-.18,0l0,.08a.43.43,0,0,0,.25-.07c.22-.16.43-.53.76-.17l.86-.2a.66.66,0,0,1,.37,0c.09,0,.11.06.2,0A1.2,1.2,0,0,1,28,12.25c.12.05.3.12.36.07a.36.36,0,0,1,.53,0s.15,0,.23,0,.32-.07.35,0c.2.31.42.17.68.12a5,5,0,0,1,.67,0c.28,0,.59.13.84-.11,0,0,.17,0,.16.06,0,.27.19.25.31.2.28-.1.52,0,.78,0a3.23,3.23,0,0,1,.88,0c.32.09.69.24.95.11s.53,0,.78-.1a.77.77,0,0,1,.55.15c.17.11.31.18.27-.14,0,0,.13-.14.17-.12a3.59,3.59,0,0,1,.38.21c.11.06.25-.13.35.06,0,0,.14,0,.17.07.17.23.28.26.37,0s.2-.31.39-.1c0,0,.06-.07.1-.09s.22-.08.24.09,0,.14,0,.2-.1.26.08.34c0-.17.38,0,.33-.33s.06-.14.2-.07.32.22.49,0c.17.19.28.07.41-.06s.19-.06.22,0,.22.14.34,0,.09,0,.14.05.2.37.25,0c0,0,.15,0,.24-.07a2.87,2.87,0,0,1,1.23.17,2.82,2.82,0,0,0,.76.13c.06,0,.17,0,.18.05.13.38.36.19.61.15A2.92,2.92,0,0,1,45,13.2c.17,0,.33.22.47.19s.26-.24.39-.36c.46.28.69-.27,1.07-.28a.7.7,0,0,1,.67.2.33.33,0,0,0,.57,0c0-.06.26-.05.35,0s.13,0,.2,0,.15,0,.23,0,0,.12,0,.18a.83.83,0,0,0,0,.15c.07,0,.18,0,.21-.08s0-.29.07-.29a.68.68,0,0,1,.45,0A.27.27,0,0,0,50,13a1.21,1.21,0,0,1,.5,0c.12,0,.31.11.36.06.2-.2.31-.08.43.06s.1.1.2,0a1,1,0,0,1,.41-.05h0s0,.08,0,.1.06,0,.09,0a.31.31,0,0,0-.1-.08A.6.6,0,0,1,52,13a1.13,1.13,0,0,0,.76.14.31.31,0,0,1,.35.32c0,.29.1.29.31.14s.17,0,.26,0,.11-.09,0-.15l-.37-.26s0-.06-.06-.09.07,0,.11,0a.22.22,0,0,1,.14,0c.29.3.74,0,1.05.28A.29.29,0,0,0,55,13.2s.16,0,.22,0a.86.86,0,0,0,.82.05c.24-.11.4-.19.64,0s.43,0,.47-.2.23-.17.35-.16a2,2,0,0,1,.76.35c.15.11.24.09.26-.1s0-.15,0-.19a.29.29,0,0,1,.18-.05c.18.43.48.34.79.18a.53.53,0,0,0,.1.16s.1,0,.12,0a.46.46,0,0,0,.11-.16c0,.09.19.08.11.25a1.85,1.85,0,0,0-.08.58s0,.06.08.08l0,0c0-.33.24,0,.28-.16s0-.23,0-.34.21-.26.43-.15a.21.21,0,0,0,.29-.06.68.68,0,0,1,1-.18.79.79,0,0,0,.46,0c.12,0,.24-.11.36-.12a.92.92,0,0,1,.36.1c.1.05.21-.18.3,0,0,0,.19-.09.27-.08s.47-.19.51.2a.81.81,0,0,1,.38,0,.55.55,0,0,0,.24-.07c.19-.06.35.15.58,0s.49,0,.74,0h.68a1.12,1.12,0,0,1,.37.09c.12.06.17.25.33.19s.15-.19.25,0c.06,0,.16-.08.18-.14s0-.15,0-.23.2.13.28.12A2.67,2.67,0,0,0,69,13a.38.38,0,0,1,.42,0,1.22,1.22,0,0,0,.46.19c.12,0,.24-.22.38,0,0,0,.08,0,.09,0,.34-.36.73-.23,1.11-.14a.9.9,0,0,0,0,.12s-.07-.05-.09-.05a1.13,1.13,0,0,0-.18,0s0,.09,0,.09a.43.43,0,0,0,.24-.07c.06-.05.15-.05.31-.06,0,0,0,.05-.07.08s.07.07.1.07a.64.64,0,0,0,.17-.05.61.61,0,0,0-.2-.1c-.06-.16.1-.15.17-.11a1.88,1.88,0,0,0,1.07.13,1.91,1.91,0,0,1,.51.13s0,.07,0,.09a1.13,1.13,0,0,0,0,.18l.08,0a.43.43,0,0,0-.07-.24c.07-.31.43-.27.65-.45,0,0,0,0,.05,0s.27.24.41.24.22-.21.38,0,.16.09.24.15a1.25,1.25,0,0,0,.16.17h0s0,.08,0,.11.06,0,.09,0a.3.3,0,0,0-.1-.09c.9-.37.67-.55,1.54-.26a.55.55,0,0,0,.44,0c.21-.22.3.05.45.06-.07.13-.13.26-.19.39a.58.58,0,0,0,0,.14c.06,0,.15,0,.18,0s0-.17.11-.23.37-.45.6-.51a1.16,1.16,0,0,1,.7.21c.18.09.25-.07.33-.07s.18.22.3.25.27-.1.32-.26a1.7,1.7,0,0,1,.51.07c.1,0,.12,0,.2,0,.48-.34.53-.33.94.05a1.52,1.52,0,0,0,.28.19h0s0,.08,0,.11.06,0,.09,0a.3.3,0,0,0-.1-.09c0-.09-.08-.21.08-.27a2.63,2.63,0,0,1,1.06-.12c.15,0,.38,0,.45,0,.23-.32.48-.09.66,0s.31.13.47,0,.19,0,.29,0,.2.08.24,0c.29-.27.56.13.85,0,0,0,.06.14.1.2s.08.09.18-.1.14-.1.21-.14a.44.44,0,0,1,.65.06c.15.17.31.27.46,0,.29,0,.54-.23.83-.12,0,0,.06.06.09.1a.42.42,0,0,0-.12,0,.63.63,0,0,0-.07.1c.06.06.15.15.18.13a1.77,1.77,0,0,0,.43-.28c.07-.05-.22-.13,0-.21,0,0,.14.08.22.1s.08-.06.09-.11.12-.17.13,0c0,.29.31.2.32.18.15-.34.45.14.6-.11a.27.27,0,0,1,.17.06c.12.19.32.21.51.25s.1.17.18,0a2.4,2.4,0,0,1,.16-.27c.1-.15.2-.14.36-.05s.25.24.42,0,.34-.13.5,0a.34.34,0,0,0,.18.07c.22-.29.35-.17.6,0s.45.35.74.09c0,0,.26,0,.08.15s.21.34,0,.48l.25.05,0,.11a.75.75,0,0,0,.14-.27c0-.06,0,0,0,0a.48.48,0,0,0,0,.12s.11-.05.13-.09,0-.11-.09-.07-.14.16-.18.16c0-.17-.1-.42.23-.44,0,0,0-.15,0-.24l.14-.13c.21,0,.46-.38.6.1,0,.05.29.06.43,0a1.57,1.57,0,0,0,.51-.23c.16-.11.3.26.43,0,0,0,.06,0,.07,0s.17.22.28.27.22-.18.36,0,.16.08.2-.08.15-.11.23-.16c0,.33.17.13.31.1s.28-.1.38-.06.1.22.15.37v0l-.11,0,0,.08a.38.38,0,0,0,.08-.09c.26-.21.43-.65.87-.32,0,0,.06,0,.09,0s.29-.08.36,0-.07.21-.09.32.08.12.13.18.11-.06.13-.1a.45.45,0,0,0,0-.2c0-.16,0-.25.21-.24.37,0,.73,0,1.09,0a.35.35,0,0,1,.18,0c.06.39.21.22.38.08s.28-.15.35-.11c.25.16.47-.09.72,0s.49-.08.69.15c0,0,.18-.08.28-.12a.91.91,0,0,1,.35-.12s.1.15.16.23a.07.07,0,0,0,0,0c.4-.12.5.31.77.41l.19.1a.41.41,0,0,0,0-.19.44.44,0,0,0-.14-.17s-.09,0-.13,0a.6.6,0,0,1-.11-.06.31.31,0,0,1,.07-.09,1,1,0,0,1,.84-.08c.09,0,.23.13.29.1s.46-.22.62-.1.37-.1.58,0a3,3,0,0,0,.68,0c.12,0,.31.14.34.1s.41.16.41-.18l.18-.05v.15l.3.38c.21-.06.4-.31.65-.1l.08-.11c.18-.24.24-.23.4,0s.31.26.4,0,.38-.15.55-.25.23.05.36.08.45-.11.52.24c0,.05.33,0,.42.07.29.26.37,0,.48-.16s.12-.08.19-.13c0,.16.36,0,.28.28s.08.19.16.26c.07-.1.26-.17.17-.32s-.18-.21.08-.21c.11,0,.26-.11.32-.07s.23.1.34,0,.09.06.09.1.15.19.23.11.47,0,.71-.08c0,0,.13.08.15.14s.1.17.13,0,.08-.2.22-.17l.36.09a3.53,3.53,0,0,0,.82.07s.07.08.11.16v0s-.08,0-.1,0,0,.05,0,.08a.38.38,0,0,0,.08-.09,2,2,0,0,1,.4-.22l.1-.06c.2.41.39,0,.6,0s.49.18.68.11a1.69,1.69,0,0,1,.7-.09s.1.08.11.12,0,.17-.14.07-.19-.08-.29,0a.88.88,0,0,1-.23.14.82.82,0,0,1,.23.11c.09.1.15.25.25.35s.17-.05.18-.21a.61.61,0,0,1,0-.18c.08-.17.4-.1.38-.37,0,0,.1,0,.1,0,0,.4.21.15.39.1s.16.14.17.3v0a.21.21,0,0,0-.11,0s0,0,0,.08a.25.25,0,0,0,.09-.09.73.73,0,0,1,.17-.26c.07-.07.17-.17.26-.17s.08.17.12.26a.58.58,0,0,0,.16.15l.21-.25c.09.13.18.13.33,0a1.38,1.38,0,0,1,1.19,0c.17,0,.38.27.43-.12h.13a.91.91,0,0,1,.25.07c.21.12.38-.31.65,0,.13.14.48-.08.68.16,0,0,.15,0,.17-.05.14-.36.46-.1.69-.18a.93.93,0,0,1,1,.26h0s0,.08,0,.11l.09,0a.31.31,0,0,0-.1-.08c0-.15-.06-.35.21-.24l.33.21c.09.17.16.15.35,0a1,1,0,0,1,.57-.22c.12,0,.38,0,.44.28s.38.18.55,0a.55.55,0,0,1,.55-.14c.24,0,.47.12.68-.08a.39.39,0,0,1,.25-.05c.11,0,.15,0,.07.14a.56.56,0,0,0,0,.23l.23,0a1,1,0,0,0,.31-.08c.07,0,.1-.17.17-.24a.17.17,0,0,1,.17,0,.23.23,0,0,1,0,.18.86.86,0,0,1-.19.19c-.13.11,0,.14.05.2s.11.09.15,0c.08-.29.23-.48.59-.41.09,0,.19-.09.29-.11a1.22,1.22,0,0,1,.27,0c.15,0,0,.28.19.22s.22-.16.33-.17a1.64,1.64,0,0,1,.73,0,5.1,5.1,0,0,0,1.78.11c.06,0,.08-.09.2,0a1.08,1.08,0,0,0,.88,0c.34-.15.72.07,1.09.13,0,0,0,.11,0,.13a1,1,0,0,1-.18.06c.05,0,.11.08.16.07a.46.46,0,0,0,.23-.06c0-.3.29-.21.42-.31s.32.07.48.13a1.2,1.2,0,0,1,.21.13s.1-.09.09-.09c-.19-.23.08-.3.16-.3a2.06,2.06,0,0,1,.85.07.74.74,0,0,0,.92-.11c.09-.09.12,0,.2,0a.39.39,0,0,0,.31,0c.32-.17.57-.18.8.14.11.17.23-.23.37,0s.19.14.35.06a.66.66,0,0,1,.79,0c.18.14.51,0,.75.17s.25,0,.34-.13a.31.31,0,0,1,.47-.06.61.61,0,0,0,.75-.06.72.72,0,0,1,.71-.25c.23,0,.51.18.67.09a1.24,1.24,0,0,1,.65-.07,1.26,1.26,0,0,0,.74-.18c.09-.05.14-.1.2,0a1.6,1.6,0,0,1,.1.23c-.17.06,0,.34-.31.37s-.12.22,0,.34.05,0,.13-.11.09-.07.17-.11h0a.21.21,0,0,0,0,.11l.08,0a.25.25,0,0,0-.09-.09c0-.07-.05-.18,0-.19a2.62,2.62,0,0,1,.53-.2c.15,0,.4.06.46,0s.28.06.42-.08a.83.83,0,0,1,.41-.14.5.5,0,0,1,.22,0c0,.21,0,.17.21.1a1.09,1.09,0,0,1,.71,0c.17.07.17.05.18-.09s0-.07.07-.1c.22.35.47,0,.7,0,0,0,0,.08.05.15v0l-.11,0s0,.06,0,.09a.25.25,0,0,0,.09-.09,3.68,3.68,0,0,1,1.58-.14.27.27,0,0,1,.18.12c0,.05,0,.19.14.08A1.14,1.14,0,0,0,157,13c.1-.1.17-.18.3,0s.21,0,.31,0c.39-.11.78-.22,1.11.13.1.11.13,0,.19-.05a2.55,2.55,0,0,1,.35-.14c.21,0,.45.1.62-.13,0,.17.38.06.34.32s.1.28.24.36.08,0,.12,0,0-.07,0-.09a.18.18,0,0,1,0-.32c.17-.09.33-.32.55-.17a.69.69,0,0,0,.72,0,1.74,1.74,0,0,1,1.23,0,.57.57,0,0,0,.22,0c.07-.37.21-.19.4-.1s.33.22.57,0,.44,0,.67,0,.27,0,.3-.08c.15-.3.35-.07.48,0a1.54,1.54,0,0,0,1.26,0c.06,0,.17,0,.26,0a1.57,1.57,0,0,0,1.19,0c.09,0,.2,0,.27,0s.32.21.52.06.35.09.56,0a1.22,1.22,0,0,1,.6,0c.17,0,.35-.06.51.11s.22-.06.33-.11.15.24.32.06.37-.21.45-.15c.41.27.89,0,1.29.2,0,0,0,0,0,.09v0a.23.23,0,0,0-.1,0s0,0,0,.08a.38.38,0,0,0,.08-.09c.15,0,.24-.27.46-.07s.59,0,.86,0a7.07,7.07,0,0,1,2.29.09c.09,0,.18,0,.27,0s.45-.09.64.1.44-.05.41.28a.36.36,0,0,1,.5,0,1.17,1.17,0,0,0,.3-.21.59.59,0,0,1,.55-.18c.21,0,.41,0,.62,0s.57-.08.83.14c.06,0,.25,0,.35-.1a1.75,1.75,0,0,1,1-.14c.05,0,.11.1.16.15l.06.11c.25-.27.6,0,.87-.16.06,0,.13-.1.17-.08s.37.27.48.23a.57.57,0,0,1,.48,0,1.57,1.57,0,0,0,1.09,0c.14-.05.39-.11.44,0,.17.23.33-.11.44,0s.23-.07.34-.09a.17.17,0,0,1,.14,0c.14.12.38,0,.47.19.28-.06.52.31.85,0,.17-.14.52.1.76-.12a.49.49,0,0,1,.14.11c.07.09.12.25.21.27a.47.47,0,0,0,.34-.13c.14-.12.25-.19.39,0a8.67,8.67,0,0,0,1.83.18c.24,0,.44-.18.6.11a.23.23,0,0,0,.18,0c.35-.31.83.05,1.19-.24.17-.14.35.16.58,0a.53.53,0,0,1,.55.09.82.82,0,0,0,.6,0c.18,0,.32.27.51,0a.25.25,0,0,1,.25,0c.16.2.37.1.56.13s.32,0,.4,0c.4.35.87.24,1.32.27a1.19,1.19,0,0,1,.33,0,6.21,6.21,0,0,0,2.08.41c.21,0,.41,0,.53.2a.53.53,0,0,0,.52.23,1.55,1.55,0,0,1,.68,0c.17.07.38,0,.51.13.51-.29.91.23,1.4.17.22,0,.37.2.43.43s.18.09.27.11,0,.17.05.25l0,.15h-.13c-.08,0-.2-.3-.23,0a.62.62,0,0,1,0,.19c-.15.4-.15.41.24.46s.24.14.09.3a.14.14,0,0,0,0,.09l.21.1a.74.74,0,0,1-.24.05c-.42-.06-.71.28-1.1.33a.19.19,0,0,0-.12.31,3.62,3.62,0,0,0,.2.33c.11.14.24.22.07.44s-.15.24-.33.22c0,0-.07,0-.11,0a.31.31,0,0,0,.07.09,1,1,0,0,1,.18.06c.18.14.28.13.29-.13,0,0,.11-.06.17-.05s.07.09.09.14c.07.29-.32.36-.31.62a.59.59,0,0,1-.14-.06c-.07-.05-.13-.15-.2-.16s-.22,0-.09.16-.06.17-.19.05-.31,0-.42.1,0,.12.07.19l-.24-.05s-.08,0-.09,0c-.25.26-.59,0-.89.16s-.31.1-.51-.2-.13-.19-.27,0-.12.14-.18.14c-.65,0-1.32,0-2,0-.29,0-.56-.24-.84,0a.09.09,0,0,1-.07,0c-.13-.06,0-.48-.39-.2-.09.08-.35,0-.52-.09s-.28-.25-.45,0c0,0-.16,0-.22-.07a1.29,1.29,0,0,0-.81-.2c-.17,0-.36,0-.48-.13-.15.23-.29.09-.44,0-.28.24-.56-.06-.84,0s-.43-.09-.64.11-.29,0-.44,0a3.43,3.43,0,0,0-.44-.09,2,2,0,0,1-.81-.09c-.2-.11-.37-.24-.58,0-.06.07-.25,0-.38,0a2.36,2.36,0,0,0-1,.11c-.13.06-.38.22-.53-.07,0-.06-.2,0-.31-.06-.27-.06-.59.12-.83-.15,0,0-.12,0-.13,0-.19.35-.47,0-.73.1a.79.79,0,0,1-.82-.13c-.23.22-.56-.2-.79.12,0,0-.14,0-.2,0a3.2,3.2,0,0,0-1.23-.15c-.14-.26-.36,0-.54-.08a4.78,4.78,0,0,0-.65-.07,2.46,2.46,0,0,0-.44-.09c-.1,0-.27.19-.28.17-.31-.34-.71.29-1-.1l-1,0a.17.17,0,0,0-.12,0c-.06.07,0,.27-.16.22a.44.44,0,0,1-.26-.26c0-.17-.14-.17-.24-.14a2,2,0,0,1-1.39,0,.27.27,0,0,0-.25,0c-.18.18-.39.07-.58.08s-.29-.11-.39-.07a.44.44,0,0,1-.48,0c-.11-.08-.32,0-.44-.08s-.15-.08-.25,0-.29.13-.32.1c-.15-.2-.2.11-.32,0s-.28-.17-.35-.13c-.34.19-.74-.25-1.07.09,0,0-.15,0-.17,0-.18-.25-.32.1-.45,0a.87.87,0,0,0-.49-.14,1.47,1.47,0,0,1-.74-.09,1.19,1.19,0,0,0-.45-.06,2.77,2.77,0,0,1-1.66,0c-.09,0-.21,0-.27,0a.33.33,0,0,1-.52,0c-.06,0-.21,0-.31,0a7.92,7.92,0,0,1-1.07.11c-.21,0-.36-.23-.58,0s-.35-.19-.57,0-.29-.2-.48-.12-.16.25-.22-.05-.26-.13-.4,0l-.16.14c-.19-.26-.38,0-.57,0s-.34.13-.36-.16c0-.13-.07-.15-.13,0a1.59,1.59,0,0,1-.13.22.24.24,0,0,1-.14,0c-.15-.24-.28-.17-.45,0s-.25-.06-.36-.14-.19-.27-.39-.12c0,0-.13-.17-.16,0s-.08.17-.21.18c-.32,0-.67-.14-1,.11-.26-.27-.6-.06-.89-.15a1.3,1.3,0,0,0-.78,0,.35.35,0,0,1-.25,0c-.22-.23-.4-.06-.59,0s-.45.24-.72,0a1.67,1.67,0,0,0-.6-.17c-.11.34-.39-.19-.53.1,0,0-.23,0-.3-.05s-.13,0-.17.09a.26.26,0,0,1-.21.07c-.07-.05-.1-.15-.15-.23,0,.09,0,.17-.05.25s-.14.17-.23.1-.22-.3-.52-.32c0,0,0,0,0,.07l.06-.06c0-.05.12-.09.14-.15s0-.12,0-.18a.31.31,0,0,0-.09.07.22.22,0,0,0-.07.25c0,.12,0,.21-.1.2s-.25-.14-.35-.12c-.33.06-.59-.17-.9-.17a.52.52,0,0,1-.19-.08.86.86,0,0,0,.06.23c.09.15.09.26-.11.26s-.67.06-.8-.36a.32.32,0,0,0-.17-.06c-.15.21-.31-.08-.43,0a2.13,2.13,0,0,0-.34.33,1.63,1.63,0,0,0-.11.17l0-.19c0-.08.06-.25-.16-.11a1,1,0,0,1-.45.05c-.13,0-.17,0-.23.16s-.3.07-.47.1c0-.07.05-.13.07-.19l.1-.2c-.06,0-.15,0-.18,0s-.16.12-.19-.06-.15-.13-.18-.11,0,.12,0,.18a1.23,1.23,0,0,1,0,.19l-.15-.08c-.11,0-.11,0-.13.14a.31.31,0,0,1-.08.1.51.51,0,0,0-.58,0c-.22.11-.46-.2-.7,0,0-.07-.07-.13-.1-.21s0-.12,0-.18a.46.46,0,0,0-.08.13c-.09.28-.11.29-.5.26-.06,0-.17,0-.17.05,0,.3-.14.15-.26.08a.34.34,0,0,0-.2,0c-.24,0-.26-.1-.24-.28s0-.17,0-.2-.15,0-.22,0c-.06.49-.64.31-.82.64-.47-.27-.94.4-1.42,0-.08-.07-.26,0-.47-.09,0,0,0,0,0,.07s.06-.05.06-.06,0-.13-.07-.2,0,.07,0,.19c.05.3-.14.21-.24.19s-.15-.15-.25-.2-.2.05-.22,0c-.23-.31-.48-.16-.61,0s-.46-.19-.58.14a.61.61,0,0,1-.07-.17c0-.1.05-.24-.2-.28,0,0,0,0,0,0l.07-.06-.08-.06s0,0,0,.08-.11.13-.17.2-.16.25-.24.37l-.43-.28c-.08-.06-.2-.08-.27-.15s-.2-.07-.19.09,0,.19-.19.2c-.3,0-.62-.09-.9.11a.18.18,0,0,1-.19,0c-.26-.31-.43-.28-.54.11-.1,0-.2-.17-.29,0l-.33-.18.13-.09.11,0s0-.07-.07-.08a.49.49,0,0,0-.42.14c-.26.21-.46.19-.56-.12s-.15-.12-.23,0a1.69,1.69,0,0,0-.2.25.33.33,0,0,1-.55,0c0-.05-.06-.13-.1-.14-.34-.1-.34-.1-.44-.31,0-.05-.09-.08-.21-.18s0,0,0,.07.07-.05.06-.06a.68.68,0,0,0-.07-.2s0,.06,0,.19-.27.49.07.7c-.05.06-.08.17-.14.18a1.21,1.21,0,0,1-.68-.32.36.36,0,0,0-.22-.09,1.64,1.64,0,0,0-.91.13A.52.52,0,0,1,133.41,19Zm-32.7-1.29c.05-.05.1-.09.28-.28l-.14.08.06.06.2-.07s-.07,0-.26.07a.74.74,0,0,0-.14.2v-.06l-.1,0s0,.05,0,.08A.17.17,0,0,0,100.71,17.75Zm-5.14-1.52.06.08.06-.06-.08-.06s0,0,.14.12h-.06a.36.36,0,0,0,0,.11l.08,0A.82.82,0,0,0,95.57,16.23ZM78.77,18l.07.08.06-.06L78.82,18s0,0,.14.13H78.9a.36.36,0,0,0,0,.11s0,0,.08,0S79,18.14,78.77,18ZM38.15,13.72l-.08.07.06.06.06-.08s0,0-.12.14v-.06a.21.21,0,0,0-.11,0s0,0,0,.08S38,13.93,38.15,13.72ZM39.26,16v-.06l-.1,0s0,.05,0,.08.06,0,.23-.27l-.15.08s.05.07.07.07l.2-.08S39.46,15.79,39.26,16Zm46.33-2.79-.08.06.06.06a.24.24,0,0,0,.06-.08s0,0-.09.21l-.09-.13s-.07.06-.07.09a.48.48,0,0,0,.05.17A1.2,1.2,0,0,0,85.59,13.18Zm-.63.11.08.14s.06,0,.06-.06a1.67,1.67,0,0,0-.08-.2s0,.07.14.26H85.1a.36.36,0,0,0,0,.11s0,0,.08,0S85.18,13.46,85,13.29Zm73.47,4.29c-.07-.06-.09-.09-.12-.09a1,1,0,0,0-.17,0s0,.08,0,.08.15,0,.32-.41a2.29,2.29,0,0,0-.1.23s0,0,.06.07l.19-.22S158.56,17.23,158.43,17.58ZM37.73,14a.8.8,0,0,0-.21.2s0,.12,0,.18a3,3,0,0,0,.23-.27s0-.07-.4-.06l.07.08.06-.06s-.05-.05-.08-.06S37.41,14,37.73,14Zm125.14,4V18l-.11,0s0,.05,0,.08.05,0-.19-.41a1.35,1.35,0,0,1,.27.09c0,.07-.08.37.16.11a.45.45,0,0,0,.08-.27c0-.07-.14-.17-.17-.16a1.61,1.61,0,0,0-.34.24A3.88,3.88,0,0,0,162.87,18Zm-25.64.48a.89.89,0,0,1,0-.13c0-.11,0-.24-.14-.23a1,1,0,0,0-.25,0l.09.27a.12.12,0,0,0,.05.05l.18.17Zm-2.31-5.16a.81.81,0,0,0-.35.74s0,.05.05,0l.09,0,.28-.57a.19.19,0,0,0,0-.12S134.93,13.35,134.92,13.34ZM25.41,17.08c-.15,0-.41.48-.35.6s.07.05.1,0a.63.63,0,0,0,.31-.54S25.43,17.11,25.41,17.08ZM33,14.74l-.12-.29a1.43,1.43,0,0,0-.21.12c-.2.16,0,.19.09.27s.12.09.18.13Zm15.8,3.11a.23.23,0,0,0,0,.11.32.32,0,0,0,.3.4.71.71,0,0,0,.23-.06.46.46,0,0,1-.16-.07C49,18.11,48.94,18,48.83,17.85Zm1.07-.23c0-.14-.06-.23-.09-.33-.07.08-.19.15-.2.24s.1.17.15.26ZM97,17.76s.11.15.15.14a1.82,1.82,0,0,0,.38-.11c0-.07-.11-.19-.15-.18A1.5,1.5,0,0,0,97,17.76ZM28.32,13.21l.38.09s.07,0,.11-.06-.21-.15-.32-.21S28.42,13.11,28.32,13.21ZM89.53,13l-.32.31a.79.79,0,0,0,.26.08s.11-.1.12-.16S89.56,13.07,89.53,13Zm-8,4.47.25.32a.41.41,0,0,0,.07-.17c0-.1.06-.24-.12-.24S81.67,17.39,81.58,17.43Zm-26.81.42c.07,0,.13.06.14,0s.17-.24.25-.36-.1-.05-.11,0ZM68.44,16l-.1,0s0,.07,0,.09a1.08,1.08,0,0,0,.2.16s.07,0,.11,0,0-.11,0-.14Zm116,2.72a2.47,2.47,0,0,0-.29-.22s-.07,0-.11,0a2.73,2.73,0,0,0,.25.23S184.33,18.79,184.41,18.76Zm-11.2-.88.08.23c.06-.06.18-.13.17-.17s-.1-.16-.16-.24ZM45.32,17.47c0,.06-.09.11-.08.12s.13.21.2.32.07-.08.06-.1A2.79,2.79,0,0,0,45.32,17.47ZM25.81,13.06s-.09-.07-.13-.07a1.12,1.12,0,0,0-.26.08c.06.06.11.16.18.17S25.72,13.14,25.81,13.06ZM148.7,17.41c.08.09.14.2.2.2s.13-.11.19-.17l-.25-.09S148.75,17.39,148.7,17.41Zm-7.62-3.69-.32.13s0,.06,0,.09a2.23,2.23,0,0,0,.36,0s0-.08,0-.12Zm-18.84-.05c.09.08.14.14.21.16s.09-.06.13-.1a.44.44,0,0,0-.14-.16S122.35,13.61,122.24,13.67Zm-3.15,4.16a.79.79,0,0,0,.23,0,.48.48,0,0,0,.18-.08c-.06-.06-.13-.17-.18-.17S119.19,17.73,119.09,17.83Zm-1.49,0c0,.06,0,.1,0,.1s.08,0,.09,0a1,1,0,0,0,.16-.2s0-.08,0-.12a.58.58,0,0,0-.14.05A1.53,1.53,0,0,0,117.6,17.84ZM92.32,13.47a2.43,2.43,0,0,0,0-.27s0,0-.08,0c0,.17,0,.33,0,.5,0,0,.08,0,.09-.05A.57.57,0,0,0,92.32,13.47ZM89,15.41l-.21.19.18.19a2.67,2.67,0,0,0,.09-.26S89,15.45,89,15.41Zm-13,2.38-.16-.13s-.07,0-.11,0l.17.23ZM49.74,13.58a1,1,0,0,0-.08.19s0,.07.06.11l.18-.23Zm112,4.6c-.17-.07-.23-.11-.24-.1a.77.77,0,0,0-.15.16s.08.07.11.06A1.77,1.77,0,0,0,161.75,18.18ZM31.88,14.42l-.23.08a.41.41,0,0,0,.17.07,1.05,1.05,0,0,0,.24-.06Zm87.89,3.18.09.15.19-.23s-.09-.05-.11,0A1,1,0,0,0,119.77,17.6Zm62.49-4,.09.14.18-.23s-.08,0-.11,0A1,1,0,0,0,182.26,13.6Zm-54.59,1-.19.18s.14.07.16.06a.63.63,0,0,0,.1-.2Zm-51.84.14-.08-.24a.47.47,0,0,0-.07.17,1.05,1.05,0,0,0,.06.24Zm17.59-1.1-.15.09.23.19s0-.09,0-.12A1,1,0,0,0,93.42,13.66ZM136.35,18l-.18.23s.09.06.11,0a.67.67,0,0,0,.14-.15S136.38,18,136.35,18ZM30.42,13.24l-.18-.19c0,.06-.08.14-.06.16a.4.4,0,0,0,.19.11Zm84.44,5,.09.15.18-.23s-.08-.05-.11,0A1,1,0,0,0,114.86,18.21ZM71,18l-.09-.23c0,.05-.07.11-.07.17a2.1,2.1,0,0,0,.06.24ZM38.82,16.3l.09.15.19-.23s-.09,0-.11,0A1,1,0,0,0,38.82,16.3Zm41-.81-.09-.23c0,.06-.07.12-.07.17a2.1,2.1,0,0,0,.06.24Zm4.77,1-.08-.32s-.09.08-.09.12,0,.16,0,.25Zm68,1.12.24.18s0-.09,0-.11a.51.51,0,0,0-.16-.13S152.55,17.58,152.5,17.61Zm-49.6-4.35c0,.06-.06.12-.08.19s0,.07.07.1l.18-.22Zm23.41,5.23c-.18-.07-.23-.11-.25-.1a1.14,1.14,0,0,0-.14.16s.08.07.11.06ZM75.38,17.22l-.15.09.23.18s.05-.08,0-.11A1,1,0,0,0,75.38,17.22Zm-26.18.36c0,.05,0,.1.06.1a.58.58,0,0,0,.18,0s0-.08,0-.08A.65.65,0,0,0,49.2,17.58Zm1.89-.1H51a.54.54,0,0,0,0,.18h.08A1.11,1.11,0,0,0,51.09,17.48Zm2.53-3.69-.15.07s.07.07.1.07a1.15,1.15,0,0,0,.17-.06ZM54,17.37c0,.05.05.11.06.11a1.16,1.16,0,0,0,.18,0s0-.08-.05-.09Zm1.11-3.27.16-.08s-.07-.06-.1-.06A.85.85,0,0,0,55,14Zm2.4,0-.18.07.12.09s.07,0,.11,0Zm1.16.75c0,.05,0,.11.07.11l.17,0s0-.09-.05-.09Zm.89,2.23.12.05s.05-.08,0-.11a.42.42,0,0,0-.08-.12Zm6.21-3.63-.2,0s0,.05-.05.08l.18.05S65.71,13.5,65.74,13.45Zm4.61.32c-.06,0-.11.05-.11.07a1.16,1.16,0,0,0,0,.18l.09,0C70.37,13.91,70.35,13.84,70.35,13.77Zm5.23.08a1.48,1.48,0,0,0,0,.19s.06,0,.09.05a1.16,1.16,0,0,0,0-.18ZM76,16.31s-.1.05-.1.06a.58.58,0,0,0,0,.18s.08,0,.08-.05A.65.65,0,0,0,76,16.31Zm2.78-.09.12-.08a.61.61,0,0,0-.17-.07s-.07,0-.11.06Zm2.57,1.72-.07-.18a.94.94,0,0,0-.09.12s0,.07,0,.11ZM32.1,13.49a.75.75,0,0,0,0,.2s.05,0,.08.05a.58.58,0,0,0,0-.18S32.15,13.52,32.1,13.49Zm54.25,3.2,0,.12s.08.05.11,0a.42.42,0,0,0,.12-.08Zm.87.62-.19,0s0,.06-.06.09a1.16,1.16,0,0,0,.18,0S87.19,17.36,87.22,17.31Zm2.48.75-.08-.18s-.07.07-.08.12,0,.07,0,.11Zm7.68-3.49a1.48,1.48,0,0,0,0,.19s.06,0,.09.06a1.16,1.16,0,0,0,0-.18S97.43,14.6,97.38,14.57Zm2.3-1h-.11a1.08,1.08,0,0,0,0,.18h.08A1.08,1.08,0,0,0,99.68,13.54Zm-.06-.34-.05.12a.34.34,0,0,0,.11,0,.54.54,0,0,0,.12-.09Zm2.59.18,0,.12s.08.05.11,0,.08-.06.12-.08ZM37.3,17.85l.12,0s0-.08,0-.11a.42.42,0,0,0-.08-.12Zm67.12.23a.68.68,0,0,0,0,.19s.06,0,.08.05a.84.84,0,0,0,0-.17S104.47,18.11,104.42,18.08Zm11.06-4.9-.12.08a1.15,1.15,0,0,0,.17.06s.07,0,.11-.06Zm.51,4.13c0,.05.05.11.07.11l.18,0s0-.09,0-.09Zm-77,.8c0,.05,0,.11.07.11l.18,0s0-.09-.05-.09Zm77.32-4.44.12.06s0-.08,0-.11,0-.08-.08-.12Zm1.37.65.15-.08s-.07-.06-.1-.06a.58.58,0,0,0-.17.06Zm.77-.3-.18.07s.07.08.11.09.08,0,.11,0Zm1.09.15-.05.12s.08.05.11,0a.42.42,0,0,0,.12-.08Zm6-.73,0,.12s.08,0,.11,0a.42.42,0,0,0,.12-.08Zm.84,3.2c0,.06,0,.11.07.11a1.16,1.16,0,0,0,.18,0l0-.09Zm1.24-3.27-.1.06a.58.58,0,0,0,0,.18s.08,0,.08,0A.65.65,0,0,0,127.6,13.37Zm2.08,5.05s-.08.09-.08.12a.61.61,0,0,0,.07.17s.06-.07.06-.1A.77.77,0,0,0,129.68,18.42Zm9.08-.12a.65.65,0,0,0,0,.19s0,0,.08.06a1.21,1.21,0,0,0,.05-.18S138.81,18.33,138.76,18.3Zm13-.26-.18.08a.42.42,0,0,0,.12.08s.07,0,.11,0Zm1.62-2.91s0,.1.07.1a.58.58,0,0,0,.18,0s0-.08-.05-.09Zm7.86,2.56a.65.65,0,0,0-.19,0s0,0-.06.08l.18.05S161.2,17.74,161.23,17.69Zm.63-.18-.06.12s.08.05.11,0,.08-.05.12-.08Zm9.87-4.36,0,.12s.08.05.11,0,.08-.05.12-.08Zm9.48.86.12-.08a.58.58,0,0,0-.17-.06s-.07,0-.1.06Zm1.62-.63h-.11v.17h.09C182.82,13.51,182.82,13.45,182.83,13.38Zm20.78,6.15s0,.1.06.1a.58.58,0,0,0,.18,0s0-.08,0-.08A.65.65,0,0,0,203.61,19.53ZM23.81,17.78l0-.05a.41.41,0,0,0-.05.09l0,.05Zm4.94-2-.05,0a.79.79,0,0,0,0,.09s0,0,0,0Zm3,1.59-.05-.09s-.05,0-.05,0a.41.41,0,0,0,.05.09Zm0-2.66-.05,0,.09,0s0,0,0,0Zm1.18-2-.05-.05,0,.09,0,.05Zm.41,0,0-.05a.79.79,0,0,0,0,.09l0,0Zm.81.42,0-.05a.41.41,0,0,0-.05.09s0,0,0,0Zm1.85.66,0,0L36,14l0,0A.41.41,0,0,0,36,13.82Zm.4,1s-.05,0,0,0a.18.18,0,0,0,0,.09s0,0,0,0Zm.68,3,0,0a.41.41,0,0,0-.05.09s0,0,.05.05Zm3.42-.77,0,0a.31.31,0,0,0,0,.1s0,0,0,0Zm.06.62.09-.05,0,0a.18.18,0,0,0-.09,0Zm26.33.4s0,0,0,0l0,.09,0,0Zm11.93-.72,0,.05.09-.05s0,0,0,0Zm.35-3.56,0,.09,0,0,0-.09Zm.24,4,.09,0s0,0,0,0a.18.18,0,0,0-.09,0Zm.11-2.89,0-.09,0,0a1,1,0,0,0,0,.1Zm-23-1.22-.09,0,.05,0,.09,0Zm23.46,3.91.05.09s0,0,0,0a1,1,0,0,0,0-.1Zm.26-4.11-.09,0,0,0,.09,0Zm-24.22.65s0,.05,0,0a.18.18,0,0,0,.09,0s0,0,0,0Zm-.56-.57,0,0,0,.09,0,0Zm12.38,0-.09.05,0,0a.18.18,0,0,0,.09,0Zm14.42,3.78,0-.05,0,.09s0,0,0,.05Zm.26-3.84,0,0,.09,0,.05,0Zm.62-.37-.05,0s0,.06,0,.09,0,0,0,0Zm.65,2.09,0-.09,0,.05,0,.09Zm0,2.3s0,.05,0,0a.18.18,0,0,0,.09,0s0,0,0,0Zm.08-4.34,0,0,0-.09,0,0ZM54.05,17.74l.05,0a.31.31,0,0,0-.1-.05s0,0,0,.05Zm30.44,0,.05,0,.09,0s0,0,0,0A.18.18,0,0,0,84.49,17.72ZM85,14l0,0,.1.05s0,0,0,0Zm-22.82-.67,0-.09,0,0,0,.09Zm-.13,4,0,0a.26.26,0,0,0,.09.05l0,0Zm7.4.1-.08.05s0,.05,0,0a.18.18,0,0,0,.09,0ZM88.73,13.5l-.09.05s0,0,0,0l.09,0ZM90,17.05s0,0,0,0l0,.09s0,0,0,0A.18.18,0,0,0,90,17.05Zm.42.7-.09.05s0,.05.05.05l.09-.05Zm.41,0-.09,0s0,0,0,0l.09,0Zm.06-4.09-.09.05s0,0,0,0a.18.18,0,0,0,.1,0Zm.18,4,0,.05.09,0s0,0,0,0Zm0-1,0,0,.09.05s0,0,0-.05Zm1.43-3.27s0,0,0,0a.18.18,0,0,0,0,.09l0,0A1,1,0,0,0,92.53,13.4Zm.41,4.3,0,.05.09,0s0-.05,0-.05Zm.18-4.24-.05-.05,0,.09,0,.05Zm.34.07.09,0s0-.05,0-.05l-.1,0ZM50.91,18l-.09.05s0,.05,0,0,.06,0,.1,0Zm43.14-2.58,0-.09s0,0,0,.05a.18.18,0,0,0,0,.09Zm-.11-.7s0,0,0,0a.18.18,0,0,0,.09,0l0,0A.18.18,0,0,0,93.94,14.72Zm.13,1.66.05.05a.18.18,0,0,0,0-.1s0,0,0,0ZM50.53,13.23l-.05,0,.09.05,0,0Zm0,.27-.05.05.1,0,0,0Zm20.16,4.11-.09,0s0,.05,0,.05l.1,0Zm27.06,0,0,.08s0,0,0,0a.41.41,0,0,0,0-.09Zm-26.49,0,0-.05a1,1,0,0,0,0,.1l0,0Zm27.12-4.13-.05,0,.09,0,0,0ZM71.31,14.94s0,0,0,0l.1,0s0,0,0,0A.18.18,0,0,0,71.31,14.94Zm-11.1,2.41,0-.05a.41.41,0,0,0-.05.09l0,.05Zm41.17-.23,0-.05a.31.31,0,0,0,0,.1l0,0Zm-41.51.56.09,0s0-.05-.05-.05l-.09.05Zm5.72-3.37s0,0,0,0a.18.18,0,0,0,.09,0s0,0,0,0Zm38.1,3.39,0-.05a.41.41,0,0,0-.05.09s0,0,0,.05Zm.67-3.87.09-.05s0,0,0,0a.18.18,0,0,0-.1,0ZM71.87,17.62l-.05.05.09,0s0,0,0,0Zm33.25-4.49-.05-.09,0,0s0,.06,0,.1Zm1.09-.12,0-.09s0,0,0,0l0,.09Zm.08,4.22-.05-.09s0,0,0,.05l0,.09Zm.19-1.26,0,.09s0,0,0,0a.18.18,0,0,0,0-.09Zm.66-2.88-.09.05s0,0,0,0l.1,0ZM72.38,16.18s0,.05.05,0a.18.18,0,0,0,.09,0s0,0,0,0Zm36.07-2.57.09,0s0-.05,0-.05l-.09,0Zm.49,3.87,0,0,.1.05s0,0,0,0Zm1-2.28,0,.09s0,0,0,0a.18.18,0,0,0,0-.1Zm.14-.27,0,.09s0,0,0,0a.18.18,0,0,0,0-.1Zm.09-1.39-.09.05s0,0,0,0l.09,0Zm1.78-.38-.09,0s0,.05,0,.05l.1,0Zm.1,2.72-.09,0s0,.05,0,0a.18.18,0,0,0,.09,0Zm-39.36-.53-.05,0a.18.18,0,0,0,0,.09s0,0,0,0Zm39.6-2.16,0,.09s0,0,0,0l0-.09Zm.3,4.54,0-.09s-.05,0-.05.05l0,.09Zm.51-4.26,0,.09,0,0a.18.18,0,0,0,0-.09Zm1.19.2,0-.09s0,0,0,0,0,.06,0,.1Zm1.67,0,0,.05s0-.06,0-.09,0,0,0-.05Zm.38-.54,0-.09,0,0,0,.09Zm-43.18.57,0,.09,0-.05,0-.09Zm44.1-.08-.09,0s0,.05,0,0,.06,0,.1,0ZM118,14l.05,0a.18.18,0,0,0,0-.09s0,0,0,0Zm-44.59-.11,0,0,.1,0s0-.05-.05,0A.18.18,0,0,0,73.37,13.88Zm45.06,3.92,0,0,.09,0s0-.05,0,0A.18.18,0,0,0,118.43,17.8ZM73.87,13.39l0-.05a.18.18,0,0,0-.09,0s0,0,0,0Zm0,1.43,0,.09s0,0,0-.05a.18.18,0,0,0,0-.09Zm51.44,3.6,0-.05a.41.41,0,0,0,0,.09s0,0,0,.05Zm2.35-4.63-.09.05s0,.05,0,0a.18.18,0,0,0,.09,0Zm1.17,1.48.09,0-.05,0-.09,0Zm0-1.16,0,.09.05,0a.31.31,0,0,0-.05-.1Zm.3,4.23,0-.05a.41.41,0,0,0,0,.09s0,0,0,.05Zm1.18,0s0,0,0,0a1,1,0,0,0,0,.1s.05,0,0-.05A.18.18,0,0,0,130.35,18.31Zm.05-4.52.09,0-.05-.05-.09,0Zm.23,4.25s0,0,0,.05a.18.18,0,0,0,0,.09s0,0,0-.05Zm1.47-4.15,0-.05,0,.09,0,0Zm.38,4.91.05.09s0,0,0-.05l0-.09Zm.78-.26,0-.05,0,.09s0,0,0,0Zm.61-4.63-.05-.05,0,.09s0,0,0,.05ZM47.93,16.6l-.09,0s0,.05,0,.05l.1,0Zm87.8,1,0-.05a.18.18,0,0,0,0,.09s0,0,0,.05Zm.26-3.88.09-.05s0,0-.05,0a.18.18,0,0,0-.09,0Zm.48-.2-.05,0a.18.18,0,0,0,0,.09s0,0,0,.05Zm2.65.69-.05,0,.09,0,0,0Zm.65,4.37-.09,0,0,0a.18.18,0,0,0,.09,0Zm0-4.74,0,.09s.05,0,0,0a.18.18,0,0,0,0-.09Zm3.82.33,0,.09.05,0a.41.41,0,0,0-.05-.09Zm1.12-.33.09,0s0-.05-.05-.05l-.09,0ZM146.52,16l-.05-.09,0,.05a.18.18,0,0,0,0,.09Zm.38-1.44s-.05,0,0,0a.18.18,0,0,0,0,.09l0,0Zm.16,2.79s0,.05.05.05l.09-.05,0,0Zm1.44.93-.09.05.05,0,.09,0ZM149,17,149,17a.18.18,0,0,0,.09,0s0,0,0,0ZM46.89,13l-.09.05s0,0,.05,0l.09,0Zm105,4.85.05.05,0-.09s0,0,0-.05Zm1.42-4.48,0,.05a.41.41,0,0,0,.05-.09l-.05,0ZM75.73,17.13l-.09.05s0,.05,0,0a.18.18,0,0,0,.1,0Zm77.83.44-.09.05s0,.05,0,0a.18.18,0,0,0,.09,0Zm0-2-.05.05.09,0,0,0Zm1.81-.25-.09.05,0,0a.18.18,0,0,0,.09,0Zm.4.55-.09.05s0,0,.05,0a.18.18,0,0,0,.09,0Zm1.66-1.38.05,0-.09-.05s0,0,0,0Zm.77,3.46-.09.05s0,.05,0,0a.18.18,0,0,0,.09,0Zm2.56-.64-.05.05.09,0s0,0,0,0Zm0-2.59-.05.05.09,0s0,0,.05,0Zm.55,2.73-.09.05s0,.05,0,0a.18.18,0,0,0,.1,0Zm.9-1.14.05.05,0-.09s0,0,0-.05Zm1,1.81.09,0-.05,0-.09,0Zm.18-.64-.09,0,.05,0a.18.18,0,0,0,.09,0Zm3,.73-.09,0s0,.05,0,.05l.09,0Zm1-4.08-.09.05.05,0a.18.18,0,0,0,.09,0Zm5.27,3.17.05,0-.09,0,0,0Zm3.23.73.08,0,0,0-.09,0Zm2.65-1.42-.09.05,0,0,.09,0ZM44.88,13.88s0,0,0,0l.09,0L45,13.83Zm31.69,3.84,0,0a.41.41,0,0,0,0,.09l0,0ZM200.4,19.18s0,0,0,.05l0,.09s0,0,0-.05A.41.41,0,0,0,200.4,19.18ZM76.78,13.93l0,0,.09,0s0,0,0,0A.18.18,0,0,0,76.78,13.93Zm.23-.59-.09,0s0,0,0,0l.09,0Zm18.54,0-.09.05s0,0,0,0l.1,0ZM63.22,17.89s-.09,0-.11,0a.37.37,0,0,0,.14.46.1.1,0,0,0,.09,0l.14-.13Zm-5.86.6c0,.18-.15.11-.24.13a.51.51,0,0,0-.17.07.49.49,0,0,0,.17.06c.18,0,.44.1.37-.26Zm56.09-.15c0,.06-.07.12-.07.17s.17.09.27.1.08,0,.2-.09ZM95.06,12.76c0-.16-.12-.17-.21-.12s-.11.14-.17.21l.24,0Zm1,5.39.22.19s0-.08,0-.11a1.77,1.77,0,0,0-.12-.17Zm-35.18.32.23.18s0-.08,0-.11a1,1,0,0,0-.12-.16Zm3.41.12c.13.18.26.19.4,0Zm87.25.07s.08.09.12.09a1.87,1.87,0,0,0,.25,0l-.05-.13Zm3.12-.07.23.18s.05-.08,0-.11a.65.65,0,0,0-.13-.16ZM59.09,13a.34.34,0,0,0,.11.05.54.54,0,0,0,.12-.09l-.18-.08Zm5.22,5.44h-.14l-.11,0a.87.87,0,0,0,.11.09.32.32,0,0,0,.14,0ZM25.6,18s0,.07.06.07l.2-.08-.12-.07Zm56.52.32s0-.08,0-.12a.28.28,0,0,0-.08-.11l-.08.17Zm.46,0a1.16,1.16,0,0,0,0,.18s.09,0,.09-.05a1.68,1.68,0,0,0,0-.2S82.58,18.22,82.58,18.24ZM92.8,18v.14s0,.07,0,.11.08-.07.09-.11a.32.32,0,0,0,0-.14Zm30.05.84a1.16,1.16,0,0,0,.18,0s0-.09,0-.09l-.19,0C122.82,18.82,122.84,18.88,122.85,18.88Zm-15.44-.58a.48.48,0,0,0,.11.09.49.49,0,0,0,.11,0l0-.12ZM206,16.05a1.13,1.13,0,0,0,0,.18l.09,0c0-.07,0-.15,0-.27C206,16,206,16,206,16.05ZM40.32,18.31a.58.58,0,0,0,.17.06s.07,0,.1-.06l-.15-.08Zm112.53.19s0,.06-.06.09a1.16,1.16,0,0,0,.18,0s0-.05.07-.1Zm52.85-2.65c0,.21.17.12.27.14C206,15.79,205.8,15.87,205.7,15.85ZM25.6,18l-.1,0s0,.05,0,.08l.08-.06Zm12.54.25.09,0s0,0,0,0l-.08-.05Zm1.91,0a.42.42,0,0,0,0,.1s0,0,.08,0l-.06-.08Zm37.35-.08s0,.05,0,0a.18.18,0,0,0,.09,0l0-.05Zm.29.25a1,1,0,0,0,0,.1l0-.05,0-.09S77.69,18.4,77.69,18.41ZM77.88,13l.06.06S78,13,78,13s0,0,0-.05Zm.33,5.31.05,0a.18.18,0,0,0,.09,0l0,0ZM80.14,13l.06-.06-.08-.06s0,0,0,0Zm2.3,5.28,0,0-.1,0,0,.05Zm3-.16-.1,0s0,.06,0,.08l.08-.06Zm1,.06,0,.09s.05,0,0,0a.18.18,0,0,0,0-.09Zm-33.52.4a.18.18,0,0,0,.09,0l0,0a.18.18,0,0,0-.09,0Zm34.87-5.6.06-.06a.27.27,0,0,0-.08-.07l0,0ZM69.9,18.53s0,.08,0,.1,0,0,.08,0L70,18.53Zm32.85-.14s0-.05,0,0a.18.18,0,0,0-.09,0l0,.05Zm.27,0,0,0-.1,0,.05.05Zm-.13-.27s0,0,0,0a.18.18,0,0,0,.09,0l0-.05Zm2.52-.17,0,.09s0,0,0,.05l0-.09Zm.06.48,0,0a.18.18,0,0,0,.09,0l0-.05Zm3.82-.29-.1,0s0,.06,0,.09l.08-.07Zm-50,.42a.36.36,0,0,0,0,.09s.05,0,0,0a.18.18,0,0,0,0-.1Zm13.65-.15a.18.18,0,0,0,.09,0s0,0,0,0a.18.18,0,0,0-.09,0Zm47.53.17a.21.21,0,0,0,0,.1s0,0,.08,0l-.06-.08Zm12.94.46s-.08,0-.1,0,0,.05,0,.08l.08-.06ZM58.9,18.62l.09,0s0,0,0,0a.31.31,0,0,0-.1,0Zm-.68,0,.09,0s0-.05-.05-.05l-.09.05Zm-12.11-.29,0,.09s0,0,0,.05l0-.09Zm159.55-2.58-.1.11h.14ZM68.48,18.1s.06-.05.06-.06a1.67,1.67,0,0,0-.08-.2l-.07.12Z"/></svg>