<svg id="Calque_1" data-name="Calque 1" xmlns="http://www.w3.org/2000/svg" viewBox="0 0 309.45 53.62"><defs><style>.cls-1{fill:#f29016;}</style></defs><title>TRAIT 2</title><path class="cls-1" d="M78.36,26h0Z"/><path class="cls-1" d="M255.53,28.1l.07,0-.09,0Z"/><path class="cls-1" d="M256.16,24.08c-.39,0-.67,0-.71-.12s-.62-.12-1-.1-.39.15-.25.23.18.23.18.35h.92a.71.71,0,0,1,.27-.05h0c0-.05-.07-.11.2-.13h0a.26.26,0,0,1,.28,0h.23C256.77,24.18,256.75,24.1,256.16,24.08Z"/><path class="cls-1" d="M245.35,23.87a1,1,0,0,0-.57.31c-.14.12-.19.21.26.28,0,0,.09.06.23.06l.06,0h.41c1-.27,1-.36.07-.65A.77.77,0,0,0,245.35,23.87Z"/><path class="cls-1" d="M267.36,26.7a.56.56,0,0,0-.31,0h-.18c-.31.17-.12.34.46.41a2.19,2.19,0,0,0,1-.1c.26-.1,0-.17-.1-.25A2,2,0,0,0,267.36,26.7Z"/><path class="cls-1" d="M33.5,28.52c.73.06.71.08.78-.14-.26,0-.24-.1-.29-.16a1.16,1.16,0,0,0-.63-.15,1.25,1.25,0,0,0-.72.13s0,.08-.06.12A4.17,4.17,0,0,0,33.5,28.52Z"/><path class="cls-1" d="M268.71,25.77l.08-.11c-.13-.09,0-.22-.51-.26h-.49c-.35.07-.3.16-.25.25.47.06.08.22.49.29h.13c.18,0,.2,0,.15-.06l-.09-.05A1.27,1.27,0,0,1,268.71,25.77Z"/><path class="cls-1" d="M35,28.32h.71a7.21,7.21,0,0,1,1,.18h.22l.22-.06h0a.05.05,0,0,1,0,0c-.18-.06-.59,0-.68-.13.13-.12-.38-.15-.48-.24C34.71,28.05,34.57,28.09,35,28.32Z"/><path class="cls-1" d="M257.4,24.2c.33,0,.63-.07.57-.15s-.11-.21-.62-.22-.7.05-.77.15S257,24.2,257.4,24.2Z"/><path class="cls-1" d="M288.59,26.32h0a11.61,11.61,0,0,1-1.2.06h0l-.09,0s0,0,0,0h.09c-.05-.07-.38-.06-.48-.12h-.46l0,.12h-.2a12,12,0,0,0-2.17-.18h0c-.11.05-.56.05-.41.14a1,1,0,0,0,.42,0l.25.05.1,0,.15,0h0l.42,0a7.49,7.49,0,0,0,.86.07H286l0,.1c.59,0,1.08-.1,1.66-.11h0a1.13,1.13,0,0,1,.46-.06c.3,0,.47-.05.48-.13Zm-2.64.16h0Z"/><path class="cls-1" d="M272.79,27.53c.2-.08.88.07.94-.11s-.49-.16-.82-.17-.74,0-.7.16S272.3,27.56,272.79,27.53Z"/><path class="cls-1" d="M47.65,25.54c.35,0,.59,0,.66-.12s-.33-.23-.68-.24-.52,0-.47.1S47.14,25.51,47.65,25.54Z"/><polygon class="cls-1" points="271.15 24.94 271.15 24.94 271.15 24.94 271.15 24.94"/><path class="cls-1" d="M50.76,25.4c.13,0,.22,0,.24.06h.43l0-.06c0-.06.07-.12,0-.18a2.05,2.05,0,0,0-1.39,0A2.37,2.37,0,0,1,50.76,25.4Z"/><path class="cls-1" d="M47.87,24.76h0a.14.14,0,0,1,0,.06,1,1,0,0,0,.56-.05,1.25,1.25,0,0,1,.67,0,2.16,2.16,0,0,1,.66-.12c-.05-.06-.22-.07-.44-.07-.57,0-1.15,0-1.7.06h-.2C47,24.79,47.6,24.74,47.87,24.76Z"/><path class="cls-1" d="M78.67,24.37h0a4.36,4.36,0,0,1,1,.08c.34,0,.54,0,.38-.08s.08,0,.12,0,.35-.1.49-.18h-.74a1.07,1.07,0,0,1-.73.06h0l-.16,0h-.08v0c-.32,0-.67,0-.69.1S78.48,24.38,78.67,24.37Z"/><path class="cls-1" d="M59,24.45c0-.05-.24,0-.37-.06h0a.44.44,0,0,1-.32,0h0c-.48,0-.85,0-.9.17h1.25C58.9,24.54,59,24.5,59,24.45Z"/><path class="cls-1" d="M277.59,28.27H278a17.64,17.64,0,0,0-2.72,0h-.15l-.58,0h3Z"/><path class="cls-1" d="M271.65,25.12h0a1.15,1.15,0,0,0,.66-.09c.56,0,.67-.05.72-.16a1.49,1.49,0,0,0-1-.07.44.44,0,0,0-.27.07c-.06.1-.39.06-.63.07h0c.11.13-.69,0-.59.14l.79.1C271.56,25.2,271.62,25.16,271.65,25.12Z"/><path class="cls-1" d="M95.64,29.84h-.38a.59.59,0,0,1-.37,0h-.33a2.2,2.2,0,0,1-.54,0h0l.2.12h.49a1,1,0,0,1,.49,0c.62.05.57,0,.43-.14Z"/><path class="cls-1" d="M40.22,30.25h0l0-.06h0l-.19,0h0a2.41,2.41,0,0,1-.5.05,1.7,1.7,0,0,1-.5.06h-.2c-.47-.06-1,0-1.46,0h0a.66.66,0,0,1-.26,0l-.18,0h-.06l-.69-.06c-.66,0-1.23.15-2,.12h0l0,.06c.33.11.84,0,1.17.06s.38.17.47,0a3.35,3.35,0,0,0,.8.11c.22,0,.35,0,.39-.1l.26-.06a8,8,0,0,0,1.15.1c.26,0,.32,0,.37-.08H39c.25.09.71,0,1,.06h0c.32,0,.6.05.68-.07S40.4,30.26,40.22,30.25Z"/><path class="cls-1" d="M39.36,26.18c.24,0,.61,0,.66-.09S39.9,26,39.49,26c-.24,0-.44,0-.5.11S39.13,26.19,39.36,26.18Z"/><path class="cls-1" d="M88,30h-.65a2.77,2.77,0,0,1-.73.06h0a1,1,0,0,0,.48.14h0s0,0,0,0H88l.23-.11h0L88,30Z"/><path class="cls-1" d="M271.07,25.66a.86.86,0,0,0,.5-.1s-.11-.11-.3-.11-.55,0-.6.1S270.82,25.65,271.07,25.66Z"/><path class="cls-1" d="M21.1,29.27h0a3.79,3.79,0,0,1,.83,0h.32v-.13a10.3,10.3,0,0,0-1.12,0h0c-.57,0-1.26-.09-1.5.14h.26a5.28,5.28,0,0,0,.91-.06Z"/><path class="cls-1" d="M241,24.17l.29,0,.06-.12h0c0-.06.1-.14-.32-.14a1.36,1.36,0,0,1-.48-.05h-.44c0,.07.24.09.46.11l-.08.07c.05,0,.07,0,.07,0h.21a.09.09,0,0,1,.06,0h.2l-.07,0Z"/><path class="cls-1" d="M35.72,25.85l.35-.08c.16,0,.43-.08.09-.14a1.14,1.14,0,0,0-.59,0l-.19.11c-.2,0-.19.09,0,.12A.54.54,0,0,0,35.72,25.85Z"/><path class="cls-1" d="M271.11,26.79a.69.69,0,0,0,.48-.08s0-.08-.25-.1a1.1,1.1,0,0,0-.52,0C270.73,26.7,270.85,26.77,271.11,26.79Z"/><path class="cls-1" d="M49.33,25.31c-.21.15.11.2.63.22C50,25.41,50.16,25.27,49.33,25.31Z"/><path class="cls-1" d="M51.69,24.5c-.06.1.13.16.49.19l.47-.12s.09,0,.07,0a.56.56,0,0,0-.29,0h0Z"/><path class="cls-1" d="M271.58,26.27a.41.41,0,0,1-.27-.06l-.4,0-.15,0c-.05,0-.06.05-.06.08l.17,0,.42,0h.3S271.61,26.29,271.58,26.27Z"/><path class="cls-1" d="M54.33,24.63a1.92,1.92,0,0,1,.47-.06,1,1,0,0,0,.49,0c.14,0,0-.09-.17-.12l-.32,0s0,0,0,0h0l-.25,0h-.38C53.87,24.54,53.67,24.61,54.33,24.63Z"/><path class="cls-1" d="M84.68,30.26l1.16-.07C85.15,30.09,85,30.09,84.68,30.26Z"/><path class="cls-1" d="M238.36,23.92h0a2.89,2.89,0,0,0-1.49,0l-.14,0a1.17,1.17,0,0,0,.66.24,1.41,1.41,0,0,0,.52.07l.3-.06h0c.22,0,.21-.07.23-.12a.5.5,0,0,0,.18,0c0-.09.14-.13.38-.15l.33,0A1.77,1.77,0,0,0,238.36,23.92Z"/><path class="cls-1" d="M84,24.34h0s0-.07.06-.11l.12-.07h-.41l-.22.07a2.16,2.16,0,0,1-.32.05l.26.06Z"/><path class="cls-1" d="M155.2,23.37a5.32,5.32,0,0,1-.74-.07h-.18C154.53,23.42,154.53,23.42,155.2,23.37Z"/><path class="cls-1" d="M289.78,26.44h-.31a1.12,1.12,0,0,0-.4.06l.07,0h0c.17-.06.69,0,.64-.1Z"/><path class="cls-1" d="M192.86,29.12a.48.48,0,0,0-.18,0c-.07,0,0,.05.12.06a.51.51,0,0,0,.27,0S193,29.12,192.86,29.12Z"/><path class="cls-1" d="M275.27,25.06c.05,0,.11,0,.11,0s-.07-.05-.21-.05S275,25,275,25A.43.43,0,0,0,275.27,25.06Z"/><path class="cls-1" d="M253.42,24.16s0-.06-.16-.06c-.34,0-.31,0-.29.11S253.34,24.22,253.42,24.16Z"/><path class="cls-1" d="M253,24.21h0Z"/><path class="cls-1" d="M274.23,27.22s0,0-.13,0l-.15,0,.11,0A.18.18,0,0,0,274.23,27.22Z"/><path class="cls-1" d="M75,30.4s.12,0,.23,0l.14,0-.19,0A.53.53,0,0,0,75,30.4Z"/><path class="cls-1" d="M241.16,24.31c.21,0,.28,0,.31-.09l-.46,0S240.9,24.3,241.16,24.31Z"/><path class="cls-1" d="M241.51,24.45c-.1.15.21.08.45.05C241.93,24.42,241.7,24.45,241.51,24.45Z"/><path class="cls-1" d="M50.49,24.68a.51.51,0,0,1,.26-.05h0s0,0,0,0h0c-.33,0-.42,0-.42.1h.21Z"/><polygon class="cls-1" points="50.75 24.63 50.75 24.63 50.75 24.63 50.75 24.63 50.75 24.63"/><path class="cls-1" d="M58.59,25.36c.46,0,.6,0,.49-.12A1.15,1.15,0,0,0,58.59,25.36Z"/><path class="cls-1" d="M41.05,25.57s0,0,0-.05a.42.42,0,0,0-.26,0s.07,0,.1,0A.85.85,0,0,0,41.05,25.57Z"/><path class="cls-1" d="M44.53,25.93s0-.06-.07-.07a.57.57,0,0,0-.29,0l.18.06C44.43,26,44.52,26,44.53,25.93Z"/><path class="cls-1" d="M38.63,26c-.39,0-.72,0-1.05-.05a.67.67,0,0,0-.35,0l.11,0C38.13,26.21,38.13,26.21,38.63,26Z"/><path class="cls-1" d="M256.08,24.33h0s.06.07.08.07c.22,0,.15,0,.15-.07h-.23Z"/><path class="cls-1" d="M239,24.39s.11-.05.13-.08l-.12,0-.16.07Z"/><path class="cls-1" d="M260.14,24.07h.1s0,0,0,0h-.1C260,24.05,260,24.06,260.14,24.07Z"/><path class="cls-1" d="M269.37,27.52h.1l.11,0h-.21C269.26,27.49,269.26,27.51,269.37,27.52Z"/><path class="cls-1" d="M89,30c-.17,0-.26,0-.18.07a.36.36,0,0,0,.23,0L89,30Z"/><path class="cls-1" d="M83.82,30.22l.14,0,.12,0-.19,0Z"/><path class="cls-1" d="M79.69,30.27l-.18,0,.07,0,.18,0Z"/><path class="cls-1" d="M112.94,29.89h.16A.15.15,0,0,0,112.94,29.89Z"/><path class="cls-1" d="M255.87,29h.18A.19.19,0,0,0,255.87,29Z"/><path class="cls-1" d="M31.51,26.88l-.08,0s.05,0,.07,0,.08,0,.08,0Z"/><path class="cls-1" d="M102.78,28.3l.09,0-.07,0Z"/><polygon class="cls-1" points="102.8 28.3 102.8 28.3 102.8 28.3 102.8 28.3 102.8 28.3"/><path class="cls-1" d="M128.38,26.56Z"/><path class="cls-1" d="M128.24,26.64Z"/><path class="cls-1" d="M200.37,28.14l.32,0-.31,0h0l0,.06h0s0,0,0,.06h.24a1.1,1.1,0,0,1,.48.05,8.53,8.53,0,0,1,1.45-.06l.25.05h0l0,0,.44-.05c.33,0,.76.1,1-.05h0a1.8,1.8,0,0,0,.31-.07l.1-.06a1.1,1.1,0,0,0,.74,0,1.36,1.36,0,0,1,.4,0h.28V28c.48,0,1,0,1.44,0a1.92,1.92,0,0,1,.48,0s-.05,0,0,0v0h0c.06,0,.09,0,.07,0h-.3a1,1,0,0,0,.72,0,1.33,1.33,0,0,1,.82,0l.13,0v.05c0,.13.12.14.83.11h.08l0,0h.21l.27.05h5l.3-.11h0c.31,0,.33,0,.28.06a.15.15,0,0,1-.06,0h1.34l.23-.06.13-.05c.28-.2.63-.25,1.51-.2h.07l.27,0s0,0,0,.05c.16,0,.22,0,.19.07s.07,0,.05.05h.42l.05-.1,0-.06.11,0,.07,0h0l.15,0a3.54,3.54,0,0,1,.73,0h0l.29,0h0c1.18,0,2.32-.05,3.49-.07a7.5,7.5,0,0,0,.94-.05,2,2,0,0,0,.35-.06c.53-.05.9.11,1.43.07h1.93a1,1,0,0,0,.61.12h0c.18-.08.68,0,.82-.11h.13a1,1,0,0,1,.32,0h.17l.25,0a5.38,5.38,0,0,1,1.28,0l.23,0h.21l.07,0h0c.25,0,.62,0,.83-.07l.05,0a1.07,1.07,0,0,1,.27,0,.2.2,0,0,1,.18.09l-.17.06c.13,0,.16,0,.15.07l.1.11a8.56,8.56,0,0,0,1.36-.05c0-.06,0-.11.22-.14,0,0-.08-.1-.06-.14s.12-.1.28-.07a9.82,9.82,0,0,0,1.83.1,3.9,3.9,0,0,1,.67.11,1.59,1.59,0,0,0,.45,0l.34,0a6.94,6.94,0,0,1,2,0,12.52,12.52,0,0,0,1.62,0c.47,0,.39.06.29.13h-.36l.1.07.05,0,0,0h-.47c-.09,0-.12.05,0,.06a.93.93,0,0,0,.44,0h.22c.05,0,.06,0,.05,0l.14,0a2.79,2.79,0,0,0,.55.05.44.44,0,0,1,.2,0l.28-.06h0s.05-.06.18-.06,0,0,0-.05l-.15-.07-.07-.06a.1.1,0,0,1-.07,0c-.15,0-.45,0-.44-.11h0c.18,0,.43,0,.47.06h.25a4.5,4.5,0,0,1,.75.05h0a.66.66,0,0,1,.38.07l.05.06s.06,0,0,0h0l.23.07a.81.81,0,0,1,.3.06.34.34,0,0,1,.15,0h.25c.23-.06.08-.11,0-.16s-.18-.19.2-.21,1-.08,1.2.12c.11,0,.18,0,.18.06l.3.07a.9.9,0,0,1,.31,0h.11c.26,0,.31-.1.32-.17s-.13-.14.31-.13.53.08.87.07a.9.9,0,0,1,.49,0c.16,0,.21,0,.23.06l.71,0a1.06,1.06,0,0,1,.2,0s.08-.05.2-.06a4.49,4.49,0,0,1,1.51,0,.54.54,0,0,1,.29.05h.36a.76.76,0,0,1,.31-.05h0c.36-.09.64-.1.78.05h.07a3,3,0,0,1,.55-.06H260c.61,0,.59.08.59.19h0l.18,0h0s0,0,0,0v0h0a.83.83,0,0,0,.69.1l.1,0,.14,0a1,1,0,0,1-.38,0h0l.23-.06c.1-.17.78-.12,1.14-.19h.45l.25.05.09,0,.08,0h.15a.42.42,0,0,0,.15,0l.05,0h0a2.48,2.48,0,0,1,.27,0,5.54,5.54,0,0,1,1.22,0h0a2.31,2.31,0,0,1,.83,0h0c.55,0,.82-.16,1.4-.1a1.67,1.67,0,0,0,.51,0c.79,0,1.16-.21,1.84-.26h-.36a1.59,1.59,0,0,1-.34-.06.38.38,0,0,1-.15,0c-.17.08-.57.05-.77.12l-.2,0a1.38,1.38,0,0,1-.26-.07h-1.43v0h0v0a2.78,2.78,0,0,0,1-.11,1.77,1.77,0,0,0-1.24-.12l0,.12c-.5,0-.94,0-1.4-.05h0c-.59,0-1.14-.1-1.75-.08H263a4.55,4.55,0,0,1-.76-.05h-1.36l.21-.06h.33l.41,0c-.08-.06-.3,0-.47-.05h0c-.07-.07-.12-.13-.49-.14l-2.41,0-.24.06H258c-.22-.09-.79,0-1-.11,0,0,.14-.08,0-.12s0-.15.35-.12h.12a0,0,0,0,1,0,0h0c.25,0,.18.12.49.13a4.22,4.22,0,0,0,1-.13,2.24,2.24,0,0,0,1.15,0,14.71,14.71,0,0,1,1.65-.06c.53,0,.5-.08.56-.16H263c.18.05.16.17.54.16a5,5,0,0,1,1.34.11,1.6,1.6,0,0,0,.51-.05,8.72,8.72,0,0,1,1.46-.05l0-.07h0l.05,0h.18l.9-.06h0l-.25-.12h0a2.18,2.18,0,0,1,1-.12c.38,0,.78,0,1.17,0h.2s0,0,0,0h0s0,0,0,0a.63.63,0,0,0-.2,0s0,0,0,0h0a0,0,0,0,0,0,0h-.08l-.18,0h-.44a.27.27,0,0,1-.19.05H269a.11.11,0,0,1,0-.05h0c-.4,0-.79,0-1.18,0h0l-.06,0,.05,0c-.35-.11-.46,0-.68.05h0a1.81,1.81,0,0,0-.77-.1c-.44,0-.49,0-.47.05a.13.13,0,0,0,0,.06h0l-.46.06-.13-.1c-.14,0-.08.07-.12.1h-.85l-.6-.16h-.1c-.52,0-1.05-.06-1.57,0a1.63,1.63,0,0,0-.92,0l0,0h0a6.51,6.51,0,0,0-.9-.05,3.07,3.07,0,0,0-.88-.06c-.31,0-.54,0-.57-.12h0l-.25-.05h0A12.92,12.92,0,0,0,257,26s0,0,0-.06.18,0,.15-.07c-.24-.23-.35-.26-1-.36a.63.63,0,0,1-.22-.07l-.11,0a6.8,6.8,0,0,1,1.58-.07,6.6,6.6,0,0,0,.94.08c.08.13-.63.16-.51.29,1.28,0,1.48-.05,1.31-.3l-.23-.06s0-.07.08-.09a.36.36,0,0,1,.18,0,1.9,1.9,0,0,0,1.25,0s0,0,0,0,0,0,0,0a2.48,2.48,0,0,1,.46,0,2.53,2.53,0,0,0,.67,0,.48.48,0,0,0,.26-.12h0a3.78,3.78,0,0,0,.87.1l.14,0a.57.57,0,0,0,.19,0h0l.33-.05c.25.06.67,0,.88.1a8.81,8.81,0,0,0,1.42-.11h.05a2.9,2.9,0,0,0,.59,0h.08a1.9,1.9,0,0,0,.85.08,1.36,1.36,0,0,1,.58.05h1a1.09,1.09,0,0,1,.45-.07h0c-.57-.12-.06-.14.25-.18.54-.05.31-.15.2-.23h-.42c-.4,0-.33.22-.94.15-.16-.07-.54-.1-.58-.2s-.24,0-.38,0l0,.06-.26.06,0,0,0,0h-.23a2.35,2.35,0,0,1-.74-.06c.2,0,.15,0,0-.06s-.22,0-.2.06a2.25,2.25,0,0,1-.67.06h-.75a12.6,12.6,0,0,0-1.66.09c0-.08-.26-.09-.5-.1,0,0,.08-.09.24-.12,0,0,0-.06.2-.06s-.35-.17-.47-.27a2.35,2.35,0,0,0-1.4-.08,7,7,0,0,1-.93.21c.2,0,.22.08.21.14.21,0,.21.07.24.12h0l.23.06h-.4l-.08,0H260a2.42,2.42,0,0,1-.42-.05h0a1,1,0,0,1-.35.05l0,0h0v0l-.06,0-.08,0h0l-.14,0-.16,0a7.53,7.53,0,0,1-.95,0s0-.1.22-.12h0v-.1c.26,0,.23-.11.43-.15-.49-.21-.54-.21-1.38,0,0,0,0,0,0,.05a.33.33,0,0,1,.23.06l-.06,0a8.48,8.48,0,0,1-.94.1h0l-.17-.05h0a.08.08,0,0,0,0,0h-.73l.13.07,0,0c.05,0,.09.05.08.08a11.41,11.41,0,0,1-1.85,0l-.24,0c.34,0,.68,0,1-.06l.63-.07c-.47,0-.93,0-1.39,0s-.85,0-1.25,0l-.21,0s0-.11.14-.1c.75,0,.61-.1.63-.2l-.08-.06a1,1,0,0,1-.47-.11c-.1-.09-.09-.21-.69-.16a4.42,4.42,0,0,0-1,.12c-.17.07-.34.13-.11.21s.28.11.42.17l-.06.12c-.11,0-.22,0-.24.07a.46.46,0,0,0-.17,0l-1-.06c-.06,0-.2-.06-.17-.07.28-.16.21-.27-.41-.37-.26,0-.31-.18-.74-.15s-.23.17-.41.26,0,.08.09.11c.23.09-.18.14-.24.21.15,0,.23,0,.25.06l.55.12-.1.05a4.32,4.32,0,0,1-.69.06,1.29,1.29,0,0,0-.73,0h-.49l0,0c-.32-.09-.91,0-1.19-.1h0c.2,0,.19,0,0-.05h-.93s-.07,0-.07,0h-.13a.6.6,0,0,0-.29,0h-.24a1.14,1.14,0,0,0-.39,0s.22,0,.37.05h0s0,0,0,0h-.2a.7.7,0,0,0-.25.06h-.24l-.14-.08a4.66,4.66,0,0,0-1.52-.09h-1.46l-.05,0a.27.27,0,0,0-.09,0l-.08,0-.27,0c-.08,0-.09-.05,0-.1h-.7a1.27,1.27,0,0,0-.51,0c.08-.08-.09-.13-.21-.19a2.39,2.39,0,0,0-1,.13.5.5,0,0,0-.29,0,13.69,13.69,0,0,1-2.14.08h-.44a.56.56,0,0,0-.19,0c.09-.07,0-.13-.21-.16s-.25,0-.37.07a8.71,8.71,0,0,1-1.62.13c-.17,0-.19-.05-.26-.08a5.33,5.33,0,0,1-.93-.07.39.39,0,0,1,.14-.05,3.18,3.18,0,0,1,.61,0h.16c.27-.09,0-.16-.19-.23h-.15a2.46,2.46,0,0,0-1.08,0c-.28.08,0,.14.17.2a.17.17,0,0,1,.09.06c-.49.09-.95-.07-1.43,0l-.28.13h-.23c-1.21,0-2.42,0-3.63,0h-.14c-.08-.12-.6-.08-.87-.15a1.27,1.27,0,0,0-1.06.1h-1c-.32,0-.48-.13-.83-.08-.64.08-.85,0-.9-.15s-.46-.16-.9-.17a1.43,1.43,0,0,0-.78.19c-.25.1.18.25-.36.32l-.3,0c-.47-.05-.44-.16-.23-.29s.12-.1-.13-.12-.49,0-.52.06-.46.17-.93.17a.58.58,0,0,0-.49,0c-.07.05-.06.11-.08.17a3.86,3.86,0,0,1-1.49-.11l-.14-.05c-.65-.12-1.41,0-2.09-.06h-.55l-.1,0c-.12,0-.27-.05-.15-.11s-.08-.14-.23-.21c0-.05.06-.1.27-.13.84-.07,1.72,0,2.56,0h0a1.66,1.66,0,0,0,.52,0c.62,0,1.25,0,1.88,0a5.36,5.36,0,0,1,1.14,0c1.18,0,2.35,0,3.53,0h1.48a2.18,2.18,0,0,0,.52,0l.1,0c1.33,0,2.65,0,4,0,.21,0,.8-.08.73.1a.8.8,0,0,0-.49.1l-.15,0c.41.33.43.34,1.63.23.13.1.47,0,.71.06,0,0,0,0,0,.05h.33l.05,0s-.11-.07-.18-.1a1.19,1.19,0,0,0-.77,0h-.14v0c0-.14-.09-.27-.69-.34,0,0,.12-.08.2-.12a11.53,11.53,0,0,0,1.44,0l1.2.06c0,.07,0,.14.26.18,0,0,.05.06.21.05a2.75,2.75,0,0,0,.41,0h.29c.05-.08.18-.16,0-.23a.58.58,0,0,1,.29-.07l.25,0a.29.29,0,0,0,.16,0c.09-.08-.21-.15-.12-.23a.47.47,0,0,1-.17,0l.17,0h.14a.69.69,0,0,0,.29.05h0s-.06.1.1.1a11.76,11.76,0,0,0,2.54-.09,5.39,5.39,0,0,1,.67,0,13.35,13.35,0,0,0,2.28,0,4.68,4.68,0,0,1,.53,0,6,6,0,0,0,1.53,0h0l.22,0a3.59,3.59,0,0,1,1.17.12h0l.08,0a5.58,5.58,0,0,1,.66-.07c.56,0,1.11,0,1.67,0h.21c.07.06.13.14.44.1a12.3,12.3,0,0,1,1.49,0c.93,0,1.88-.08,2.78,0a19.91,19.91,0,0,0,2.69-.05,1.7,1.7,0,0,0,.92.08,14.91,14.91,0,0,1,1.51-.1l.24,0c.18,0,.36.14.57,0h.05l.31.06a.77.77,0,0,0,.38.05c.94,0,1.85-.06,2.84,0,.51,0,1.19,0,1.79,0a1.63,1.63,0,0,0,.78-.1l-.08,0h0l.06,0,.92,0a8.33,8.33,0,0,0,1.73,0c.37-.09,0-.1-.24-.13s-.67-.08-1-.13l-.23,0h-1.44a.79.79,0,0,0-.22,0c-.14,0-.22,0-.24.05a2,2,0,0,0-.73,0,9.27,9.27,0,0,0-2.37-.07h0a13.45,13.45,0,0,0-1.68,0c-.17,0-.34-.09-.49,0s-.22,0-.25-.05h-7.4c-.8,0-1.6,0-2.39,0l-.24,0h-.24l-1.5,0c-.49,0-1,0-1.46,0-.86,0-1.73-.07-2.55,0l-.94-.05h-.23a.69.69,0,0,1-.35,0,2.78,2.78,0,0,1-.5,0h0a1.35,1.35,0,0,1-.49,0,.76.76,0,0,1-.26,0h0a3.76,3.76,0,0,1-1.16,0,2.12,2.12,0,0,1-.87,0h-.18c-.78.07-1.61,0-2.42.05H228.5a7,7,0,0,0-.93,0h-.11a25.23,25.23,0,0,0-2.75,0h0a.2.2,0,0,0-.11,0h0c-.39-.06-.83,0-1.23-.05l0,0v0h-2c-.39,0-.79,0-1.18,0h-1.64c-1.43,0-2.86,0-4.29,0h-1.14a1.32,1.32,0,0,1-.56,0h-.66a1.9,1.9,0,0,1-.63,0h0a7.9,7.9,0,0,1-1.56.07l-1.42,0c-1.33,0-2.67.05-4,0-1,0-2,0-2.95,0a2.16,2.16,0,0,0-.36,0l-.37,0h-.42a.71.71,0,0,0-.36,0h-.16a.38.38,0,0,1-.2,0,0,0,0,0,1,0,0l0,0H198l-.07.05c-1.72,0-3.43,0-5.15,0l-.43,0h-.08c-.07,0-.14,0-.13-.05l0,0a2.16,2.16,0,0,1,.3,0h.06c.43,0,.85,0,1.28,0h2.88l0,0,0,0H197l.2,0h0s0,0,0,0h0c-.13,0-.36,0-.35-.05s.32-.12.62-.13h.78a.35.35,0,0,0,.12,0l0,0h-.22c-.38,0-.75-.15-1.14,0a6.71,6.71,0,0,0-1.95,0h0l-.18,0a5.83,5.83,0,0,0-2,0h0l-.09,0s0,0,0,0H193a2.85,2.85,0,0,0-1.2,0c-.26,0-.59-.05-.69.06l.29.05a2.83,2.83,0,0,0,.51,0H193a4.25,4.25,0,0,1,1.14,0l0,.14H194c-.47,0-.95,0-1.42,0h-.81l-.66,0H191l-.38,0h0c-.36,0-.93,0-1-.13l.22-.07h0a4,4,0,0,0,.6,0l.36,0a6,6,0,0,0-1.42,0h-.24a1.94,1.94,0,0,0-.76,0h0a4.5,4.5,0,0,0-1.34.16,1.24,1.24,0,0,1-.48.06h0l0-.05c.45-.15-.09-.17-.43-.17-.58,0-1.16,0-1.74,0h-.48a3.37,3.37,0,0,0-.71,0,4.21,4.21,0,0,0-.71,0c-1.07,0-2.14,0-3.19.05-.69.05-1.39,0-2.09,0a5.28,5.28,0,0,0-1.21.06h-.48a3.53,3.53,0,0,0-1.17,0,3.77,3.77,0,0,0-.95,0c-1.12,0-2.25-.05-3.34.06h0a.42.42,0,0,0-.25,0h-.23s0,0,0,0h0l.47.14a.74.74,0,0,0-.46.11h1.65c.48-.06,1,0,1.52-.07h1.38c.39,0,.77,0,1.19,0,.59.06-.1.09,0,.14h0a2.14,2.14,0,0,1-.44,0h0c-.42,0-.75.09-1.18.07h0l-.24-.07h-.25a4.83,4.83,0,0,1-1.52,0,3.05,3.05,0,0,1-.62,0c-.55,0-1.09,0-1.63,0h0a16,16,0,0,1-1.71.05,7.51,7.51,0,0,0-.95,0l-.46,0H165l-.24.05h-.7L164,24h0l-.42,0h-.08l-.39,0h0s0,0,0,.05h-1.21a5.88,5.88,0,0,1-.94,0l-.44,0h0a12.41,12.41,0,0,1-1.24.06h-1.44a12.71,12.71,0,0,1-1.38,0h-.12c-.34,0-.68,0-1,0l-.21,0h0l-.32,0-.26,0h0l-.15,0a1.27,1.27,0,0,1-.58,0h-.65a1.67,1.67,0,0,1-.53,0h0a.68.68,0,0,1-.23,0h-.23v0l0,0h-1.68a2.75,2.75,0,0,1-.41,0h0l-.15,0h-3.5l-1.44.06c-.88,0-1.8-.06-2.66,0a3.5,3.5,0,0,1-.66,0,2.08,2.08,0,0,0-1,.1,9.55,9.55,0,0,0-1.63-.09h0l-.41,0c-.41,0-.84,0-1.25,0h-.06c-.19,0-.58,0-.54.09s.41.08.68.08h.35v.12h.09a5.15,5.15,0,0,0,1.58-.12h0l.17,0,.27,0c.23,0,.47,0,.71,0h0a.8.8,0,0,0,.33,0h.12l.06,0c.13,0,.27,0,.37,0l.09,0,.47,0h0l.24,0h0s0,0,0,0h.05l.19,0h0l.19,0h0a1.83,1.83,0,0,0,.5.05h.24l.48,0H144a1.9,1.9,0,0,1,.53,0h.05l.14,0h.31l0,0,0,0h0a.44.44,0,0,1,.27.05h.42a5.27,5.27,0,0,1,.92-.06h0c.22-.05.52,0,.77-.06h.25a1.85,1.85,0,0,0,.47,0H149a.4.4,0,0,0,.16,0h0l.1,0h.2l.09,0a.28.28,0,0,0,.15,0h0a3.57,3.57,0,0,0,.81,0h.05a3.13,3.13,0,0,0,1.1,0,1.2,1.2,0,0,0,.19,0h.24c.68.06,1.36,0,2,0h.16a1.68,1.68,0,0,1,.47,0,2,2,0,0,0,.45-.05,8.12,8.12,0,0,0,1.86,0,1.32,1.32,0,0,1,.52,0h.14a5.65,5.65,0,0,1,1,0,1.32,1.32,0,0,0,.49,0h0c.38,0,.76,0,1.15,0a2.33,2.33,0,0,1,.76,0l.07,0h.17l.08,0a2.74,2.74,0,0,1,.41,0l.28-.07h.07a2.72,2.72,0,0,0,.5,0h.07a2.7,2.7,0,0,1,.52-.05h.72l.42,0a.43.43,0,0,0,.2.08,1.19,1.19,0,0,0,.28,0H165c.12,0,0-.06,0-.09h.2a3.61,3.61,0,0,0,.5.06h.19l.06.05a9.56,9.56,0,0,0,1.15-.11l.07,0h0l-.08,0c.93.13,2,0,3,.12l-.32-.18c1.09,0,2.19.08,3.31.06l.12-.05.17-.07h.44a.68.68,0,0,0,.51,0,.4.4,0,0,1,.46,0h0l.21,0h0a.14.14,0,0,1-.1.08l-.15,0a1,1,0,0,0,.49.05l.11-.07.15-.1a3.09,3.09,0,0,1,.83,0,4,4,0,0,0,1.29,0h0l.29.07.11,0a.15.15,0,0,1,.08,0h1.18l.19-.06a3.39,3.39,0,0,1,1.23,0l.53.07h0c1.06,0,2.08,0,3.09-.11s1.75,0,2.62,0l.26,0a.74.74,0,0,0,.24-.08h0a5.94,5.94,0,0,0,.74,0,2.7,2.7,0,0,1,.85,0l.08,0h0v.06c.53,0,1.06,0,1.61,0a3.56,3.56,0,0,0,1.09-.06,1.14,1.14,0,0,1,.52,0,22,22,0,0,0,2.93,0s.05,0,.07-.05a1.94,1.94,0,0,0,.68,0,6,6,0,0,0,1.66.07c.31,0,.61,0,.91,0,1.62,0,3.26,0,4.86-.07,1.44,0,2.87-.08,4.3,0a4.79,4.79,0,0,0,1.65.29c.19,0,.22.07.25.12s.08.07.2.08h.22c-.08.13-.35.18-.9.17l-5.33-.07c-.94,0-1.9,0-2.82-.06-.26,0-.57,0-.78-.07a1.27,1.27,0,0,0-.67,0,2.78,2.78,0,0,1-1.45-.06,1.75,1.75,0,0,0-1.38.12h-.24c-.81-.06-1.73,0-2.5-.11a22.53,22.53,0,0,1-3,.05h-.3c-3.89,0-7.78,0-11.67,0H168.9a.62.62,0,0,1-.38,0h-.12c-1.08.09-2.2,0-3.3.05h-4.4c-.73,0-1.46,0-2.19,0h-.14l-.1,0H156.5c-.67,0-1.34,0-2,0-.93,0-1.86,0-2.79,0h-.32l-.94,0h-2.29s.05.05.06.06,0,0,0,0h-.09l-.16,0-.13,0-.09,0h0a.33.33,0,0,1-.15,0h-.67a.07.07,0,0,0,0,.05h-.47a5.9,5.9,0,0,0-.73,0l-.73,0H144c-.79,0-1.62,0-2.41,0h0c-.56,0-1.11,0-1.67,0l-4.29.06-.48,0h0l-.87,0-.29,0c-.64,0-1.29,0-2,0l-2.1.05-5.33.12-8.33.14c-1.25,0-2.51,0-3.76.07l-1,0-.17,0a9.87,9.87,0,0,0-1.44,0q-5,.09-10.08.12a15.94,15.94,0,0,1-2,.05h0a.11.11,0,0,0,0,.05h-.06l-.15,0h-.24a.28.28,0,0,1-.25,0h-1.4a.42.42,0,0,1-.31,0h-.16s0,0,0,0h0l0,0a5.88,5.88,0,0,0-.92.1l-.07,0H92.8l.06,0,.17,0h0a2.43,2.43,0,0,1-.57.09c-.3,0-.64,0-1,0a21.41,21.41,0,0,0-2.28.06h-.48c-.76.06-1.56.05-2.34.06-1.53,0-3.06,0-4.59.06l-2.39,0a4.27,4.27,0,0,1-.72,0,.64.64,0,0,1-.35-.05c-1,.06-2.07.07-3.11.07h-.82s0,0,0-.05a1.59,1.59,0,0,1,.18-.08h0l.25,0h1.61c.26,0,.46-.07.74-.05h0a2,2,0,0,0,.62.05,1.58,1.58,0,0,1,.65,0h.11l.3,0a5.12,5.12,0,0,1,.68,0h.29l.43,0h1l.64,0h.29l.31-.06h1.07c.18,0,.15,0,0-.05a.82.82,0,0,0-.23,0H83l-.26-.06H82.7a.69.69,0,0,1-.19,0h0a3.37,3.37,0,0,1-1.18-.12h0a4.76,4.76,0,0,1-.66.11h-.72l-.12,0-.15,0h0l-.16,0-.07,0s0,0,0,.06H78a.06.06,0,0,1,0-.05h0l0-.05H76.56c-.21,0-.76-.07-.76.06a.17.17,0,0,0,0,.05h-.45l0-.09v0h0a1.48,1.48,0,0,1,.52-.1h0l.21,0a.49.49,0,0,1,.26-.05h.9l0,.05h.47s0,0,0,0,0,0,0,0a1.41,1.41,0,0,1,1,.12c.65,0,0-.11.19-.16a4,4,0,0,1,.76.1c.51,0,.7-.15,1.21-.13h.06l.36,0h0a2.71,2.71,0,0,1,.47-.06c.27,0,.27-.06.12-.09l-.11,0h-1c-1.13,0-2.24,0-3.36.06H76.1a2.57,2.57,0,0,1-.4.05,4.68,4.68,0,0,1-.53,0H74.9l-.1,0c-.23.07-.38.14.28.17l.07,0a3.61,3.61,0,0,1-1.25-.06,1.48,1.48,0,0,0-.71-.12H71.77s0,.06.06.08a2.87,2.87,0,0,0,.89.05h0l.23,0h0a0,0,0,0,0,0,0,1.41,1.41,0,0,1,.54,0h.16v0c-.08.09-.24.15-.7.1H70.6c-.11,0-.08-.06.06-.06a1.59,1.59,0,0,0,.75-.11l.14-.08h0c-.5,0-.92.07-1.4.06l-.07-.11h0c-.61-.16-.85-.15-1.15.06a3,3,0,0,1-.76.05c-.8,0-1.63,0-2.42.06a10.06,10.06,0,0,0-1.46,0,.81.81,0,0,1-.39,0l-.19,0s-.24-.05-.08-.1l-.19-.18a3.59,3.59,0,0,0-.89-.05.59.59,0,0,1-.33.11h0c0,.08.2.14.41.2l-.13,0-.29.07-.25,0h-.43l-.17,0c-.48.06-1,0-1.53,0l-.44-.05h0a6.7,6.7,0,0,0-1,0h0l-.22,0-.17,0h0c0-.1-.19-.12-.51-.11H57.2a3.49,3.49,0,0,1-.69.07h0l0,0h.65s0,.07,0,.09a1,1,0,0,1-.4.07h-.25c-.34.08-.42,0-.67,0l-.14,0h-.05l-.11,0-.24-.06c-.75-.05-.75-.05-.26-.2l-.28-.16c-.54,0-.81.12-1.29.13l0,.11.7.18a.35.35,0,0,1-.14,0,5.36,5.36,0,0,1-.82,0h0s0,0,0,0,0,0,0,0a1.47,1.47,0,0,1-.64,0l-.12,0h-.11a3.08,3.08,0,0,1-.47.05h-.17l-.16,0h-.09c-.33,0-.67,0-.44.16l-.4,0H49.35s-.05,0,0-.05h-.67a.49.49,0,0,0-.5,0h0s0,.1-.18.1c-.73,0-1.5.05-2.19,0s-1.45,0-2.18-.05h0c-.13-.14-.51-.15-1-.12s-.26.11-.23.18a14.27,14.27,0,0,0-2.18.19c-.79,0-1.6,0-2.38.05l-.7-.08c-.07,0-.19.05-.32.06a3.53,3.53,0,0,1-.46,0c-.52,0,.12,0,0-.07a1.4,1.4,0,0,0-.41,0,4,4,0,0,0-1.31.16l0,.05h0l0,.06a.08.08,0,0,0,0,0c0,.14.36.26.26.39s.26.27.89.31l.27.05s0,0,0,.06l.88.07h0l0,.06.2-.05.06,0H37.1a3.28,3.28,0,0,1,1,0,3.7,3.7,0,0,0,.58,0h.11s0,0,0,0-.6-.11-.22-.15l.24,0,.23.06.05,0,.14.07h0l0,0,.07,0c.19,0,.2-.09,0-.14l-.08,0s0,0,0-.05l.21,0a.77.77,0,0,1,.55.07c.19,0,.15-.1.38-.1h0c-.08,0-.22-.08.09-.11.47,0,1,0,1.46,0h.1l0,.11,0,.06c.4.07.19.17.14.28a7.23,7.23,0,0,0,1.6-.4h.22a.82.82,0,0,1,.29.07,1.18,1.18,0,0,0,.87,0s0,0,0,0a.58.58,0,0,1,.41,0,2.37,2.37,0,0,0,.57.06c.05,0,.08.08,0,.12l.07,0a9.5,9.5,0,0,1,1.13-.1h.22c.51.05.68,0,.73-.13h0L48.8,27h0c.37.13.42.31.92.42a.81.81,0,0,0,.57.1c.35-.05.2-.13,0-.19a1.75,1.75,0,0,0-.5-.06v-.11l.72-.06.18,0,.46,0h.09V27h0a1.41,1.41,0,0,1,1,0,1.5,1.5,0,0,1,.52,0v0l0,0v0h-.42a.55.55,0,0,1-.28.06h0l0,.1a3.17,3.17,0,0,0,.73.07,0,0,0,0,0,0,.05h0l-.2.07a1,1,0,0,0,.68.22c0-.05.06-.09.23-.12a.59.59,0,0,1,.34-.06c1,0,1,0,.63-.28h0c0-.05.08-.11.4-.08a1.44,1.44,0,0,0,.6,0h0l0-.09v0h.48l.65.05.33,0H57s0,0,0,0l.2,0a.05.05,0,0,1,0,0h.49l.21,0h0c.28,0,.51.08.19.17-.12,0-.21,0-.19.07h.69c0-.08.12-.15.44-.18v.17H58.9s0,.06.16.05l.2.05.08,0a1.64,1.64,0,0,1-.52.05h-.2c-.77.16-.78.17-.46.36l.18,0a.64.64,0,0,0,.26.1s0,0,0,0l0,0H60l.57.1h.15a.58.58,0,0,1,.32,0h0a5.82,5.82,0,0,0,.73,0,.64.64,0,0,0,.2,0h.21c.61,0,1.22,0,1.82,0l.37,0h2.4a1.39,1.39,0,0,0,.7-.06.08.08,0,0,0,0,0,3.31,3.31,0,0,0,.84,0,1.87,1.87,0,0,1,.86.07h.07A4.82,4.82,0,0,1,71.08,28h.22a.24.24,0,0,1,.22,0h.72a1.46,1.46,0,0,1,.69,0,3.31,3.31,0,0,1,.34,0,.7.7,0,0,1,.23.06l0,0,0,0H71.66l-.34.07h0a.43.43,0,0,1-.17,0h-.31l0,0h-.49l-.21,0h0l-.55,0H68.9a.89.89,0,0,0-.23,0h-.18l0,0,0,0a4,4,0,0,1-.79,0l-.14.05h-1l0,0h-.22s-.11-.06-.27-.05v0h-.1c-.52.07-1.15.07-1.59.18a4.19,4.19,0,0,0-1.06,0c-.17,0,0,.1.12.16h1.45s.08,0,.21.06-.11.12-.2.18h.07l.38.06a1.71,1.71,0,0,1,1,0,2,2,0,0,0,.69,0c-.21-.11-.21-.23,0-.34h0c.16,0,.29-.05.45-.06a1.3,1.3,0,0,1,.28,0q.09.15.69.12l.31-.1h.18a3.22,3.22,0,0,0,.73-.05l.06,0a1.74,1.74,0,0,1,.61.1l.28,0a1.26,1.26,0,0,1,.51.12h0c-.17.06-.59,0-.71.11h-.24c-.28,0-.43-.09-.73-.08h0s0,0,0,.05l.05,0c.12,0,.42,0,.46.09h.21l.06,0h.45s-.07-.1.17-.09.07.06,0,.09h-.23s0,0,0,.07a.19.19,0,0,0,.09.09h.2c.41,0,.86-.05.41-.19.18-.1.69-.16.53-.3l-.13,0a.05.05,0,0,1,0,0,.23.23,0,0,1-.09-.07h.26a.54.54,0,0,0,.25-.06h0c.18-.07.31,0,.47,0h0c0,.07-.11.11-.27.15l-.14,0a1.24,1.24,0,0,0,.85.2c.39,0,.52-.1.48-.2l-.1,0-.14,0h0c.14-.19.38-.05.6,0a5.91,5.91,0,0,0,1,0h0a0,0,0,0,0,0-.06l.06,0,0,0h.68a.43.43,0,0,1,.26-.06h.23s0,0,0,0h0l.27.09-.21,0a3.35,3.35,0,0,0-1,.17c-.2.17.38.25.69.36h.72c.48,0,.45-.16.65-.24h0c0-.09-.19-.13-.43-.17h0c.06-.14.07-.16.61-.14h.37c.18.07.93.1.29.23l-.12,0-.18,0a.24.24,0,0,0-.23,0h.22v.05h0c.25.1-.16,0-.22.06a4.77,4.77,0,0,0,1.21.06h.21l0,0,.36-.06h.09c.85-.15.76-.14.49-.34s-.74,0-.93-.08a.67.67,0,0,1,.45-.13,1.63,1.63,0,0,0,.82,0l.12,0h.72a.9.9,0,0,0,.46,0h.5v.12h.5l.16,0h.07a7.57,7.57,0,0,1,.86-.06h.09A.68.68,0,0,0,84,28l.39,0h.23a.15.15,0,0,1-.1,0c-.13,0-.34.06-.34.12h.68l.05-.11,0,0a.5.5,0,0,1,.21,0h.72a1.74,1.74,0,0,0,1,.09,3.88,3.88,0,0,1,1.12,0h.26c.36-.07.44,0,.49.07h.43a1.76,1.76,0,0,1,.53,0l1.12,0h0l.46-.12.11,0h1.2c.08,0,0,.07,0,.1l.42,0h.24c.71,0,1.42,0,2.14,0,0,0,0-.06.09-.08a1.39,1.39,0,0,1,.41,0c.54.09.4-.09.67-.11h0c.21,0,.44.07.67.09l.38,0h.2a1.4,1.4,0,0,1,.44.05h0a1.79,1.79,0,0,0,.64.05H99l.28-.1h.22a4.56,4.56,0,0,0,1,0h0c.38,0,.37-.07.31-.12l0-.05h.38v.06s0,0,0,0c.48.13.32.17,1.48,0l.18,0a7,7,0,0,1,1.39.05h0a1.11,1.11,0,0,1,.72-.08,5.05,5.05,0,0,0,1.4,0l.11,0h0l.17,0h.06s0,0,0,.05h-.16a1.08,1.08,0,0,0-.29.05h-.25l-.19,0h-1.31a7.92,7.92,0,0,0-.85.05h0l-.67,0h0c-.41,0-1-.09-1.13.09h.89l.28-.06h.68c.13.17-.32.13-.68.13a5.39,5.39,0,0,1-.73.06h-1.9s0,0,0,0H100a1.81,1.81,0,0,0-.55,0,5.87,5.87,0,0,0-1.12,0H96.2l-.28,0h-.06l-.14,0h.68l-.25-.06H94.49a10.21,10.21,0,0,1-1.37.05l-.12,0h0l-.61,0h-.25a14.69,14.69,0,0,1-1.63,0l-.1.05H88.27l0,0h0a.51.51,0,0,1-.21,0h-.25l-.93.06-.11.06-.1.05h0l.87,0s0,0,0,.05a.51.51,0,0,1-.19.06h0a.66.66,0,0,0-.46,0h-.18l-.24,0h0s-.05,0,0,0c-.73,0-1.45,0-2.15.07l-3.1.07c-.23,0-.31,0-.3.09h-.18l.08,0,.08,0,.06,0c-.07.07-.26.07-.48.06a.13.13,0,0,1,.07-.06l.11-.05.06,0s0-.09-.17-.08c-.82.05-1.64,0-2.45,0h-.34a1.41,1.41,0,0,0-.43.05c-.27,0-.61,0-.7-.1h-.68l-.94.18h-.08a4.5,4.5,0,0,0-1.37,0H70.93l-.08,0h-1.7a.42.42,0,0,1-.17,0h0a2.49,2.49,0,0,1-.74,0h0l-.11,0h-.37l-.07,0a.6.6,0,0,0-.19,0c-.51,0-1,0-1.53,0-.21,0-.42,0-.63.05-.69-.05-1.39,0-2.07,0s-.77,0-.67-.18-.12,0-.18-.07h-.11c0-.07-.56-.1-.37-.18a1.27,1.27,0,0,1,.77,0,.8.8,0,0,0,.41,0c.12,0,0-.07-.15-.09l-.25-.06c-.47,0-.81-.05-.88-.16s-.32-.18-.6-.25h-.44a.84.84,0,0,1-.35,0,.2.2,0,0,1-.11,0h0s0,0,0,0h-.24v0h0a.37.37,0,0,1-.21,0h-.25l-.42.08h-.57a2,2,0,0,0-.9.06,2.54,2.54,0,0,0-1.19.17h.14c.33,0,.71,0,.56.13h.21s0,0,0,0c.28.07.17.19.54.24a.51.51,0,0,1,.18,0h1c.16,0,.3-.1.47,0a3.84,3.84,0,0,0,.78.17c.27,0,.35.06.4.12a.86.86,0,0,0-.23,0h-.46a15.77,15.77,0,0,0-1.69,0h-.24l0,.07s0,0-.07.05H58l-.08,0h0s-.13,0-.25-.06l-.24-.06h-.69a.1.1,0,0,1-.05,0l-.45,0h-.15s0,0-.08,0h0l-.07,0h0l-.06,0,0,0,0,0h0a.88.88,0,0,1,.23,0h0a1.63,1.63,0,0,0-.82,0l-.08,0,.25.07c0,.09-.19.1-.5.13-.8.06-1.66-.06-2.44,0h-.22c-.51-.05-1,0-1.44,0h-.23l-.06,0h-.64a6.12,6.12,0,0,1-1,.06h0l-.68,0-.2,0-1,.06a2.36,2.36,0,0,1-.65-.12h0a1.28,1.28,0,0,0-.71.13,3,3,0,0,1-.45,0h0c-.3-.2-.37-.2-.8-.07h0l-.15,0c0,.1-.45,0-.57.1h-.41c-.7,0-1.38.08-2.08,0l-.35,0-.68,0h-.47s-.12,0-.21.05-.17,0,0,.08a1,1,0,0,0,.71-.05,1.05,1.05,0,0,1,.45,0h0a.43.43,0,0,1,.24.05H41c.69,0,1.39,0,2.07,0h0l.38.09.11,0h0a2,2,0,0,1,.47.05h0a3.12,3.12,0,0,0,1.41-.22l-.07,0h.1s0,0,0,0h.21a.07.07,0,0,1,0,.06h.16a3,3,0,0,0,1-.07,12.36,12.36,0,0,0,1.24.07h.2l1-.1h0a3.92,3.92,0,0,1,.77,0,1.21,1.21,0,0,0,.6,0l.52,0,.43,0,0,0a0,0,0,0,0,0,0H52l.42,0h0a.74.74,0,0,0,.24-.06c.09,0,.1-.09.07-.14v0h.44a.06.06,0,0,0,0,0c0,.09.15.15.64.1h0a2,2,0,0,0,.27,0l0,.12h0l-.69,0h0a.57.57,0,0,0-.13,0h-.07v0H52a1,1,0,0,0-.05.16h0a3.89,3.89,0,0,0-.71,0s0,0,0,.06-.16.05-.28.06-.18,0-.18.06H50.3c0-.07-.19-.11-.48-.11h0a1.57,1.57,0,0,0-.63,0,5.3,5.3,0,0,1-.81,0h-.47l-.47.05h0a.43.43,0,0,0-.19-.05.91.91,0,0,0-.23,0h-.08v0h0a7.77,7.77,0,0,1-1.21.08H43.38l-.08,0c-.19,0-.39,0-.58,0s-.52,0-.56.06.32.07.46.12h.22a5.77,5.77,0,0,1,.95-.06h.27l.21,0,0,0h0l-.07,0,.28.1h.92a1.76,1.76,0,0,1,.49-.05.23.23,0,0,0,.24,0h.24c.15.09.59,0,.71.07a1.31,1.31,0,0,0-.31.07c0,.08.28,0,.45,0a2.25,2.25,0,0,1,.4,0h0l.19,0a3.69,3.69,0,0,0,.94,0,.31.31,0,0,0-.13,0c-.22-.05-.51-.05-.75-.08h-.06l0-.11h.24l.22,0h0a3.27,3.27,0,0,0,.65.06H49l.27-.12a10.84,10.84,0,0,0,1.14,0h.31a1.55,1.55,0,0,1,.68,0h.07l.41,0a5.06,5.06,0,0,1-1.11,0h-.06l-.25.06a5.09,5.09,0,0,0-.73.08c-.13,0-.22,0-.17,0h0v.05h0l.17,0,.05-.05h0l.2.05h0a8.42,8.42,0,0,0,.87,0H51a4.42,4.42,0,0,1,.76.06h0l.22,0c0-.07.07-.15-.18-.2h0l.07,0a1.25,1.25,0,0,1,.34,0h.12a2.76,2.76,0,0,0,.84-.11l-.05,0h.06v0a12,12,0,0,1,1.2,0l-.46.18,0,0,0,.07h1.81s0,0,0-.06l-.06,0a1,1,0,0,0-.36,0h0a6.62,6.62,0,0,1,1.36,0l-.62.12-.27.05a1.19,1.19,0,0,0,.51,0,5.31,5.31,0,0,1,.69,0h.25l.23-.07a.6.6,0,0,0-.18,0c-.11,0-.17,0,.07-.08.47-.07,1.09,0,1.54-.12h0l.23-.05h0a1.2,1.2,0,0,1,.5,0h0c-.07.1.14.25-.69.2a.48.48,0,0,0-.18,0c-.07,0-.09.06-.09.09h1.39l0,0v0h0c-.1-.06-.39-.13,0-.19a7.91,7.91,0,0,0,1-.06,3.24,3.24,0,0,1,.88,0l.1,0a5.24,5.24,0,0,1,.57,0h0a3,3,0,0,0,.47.05h.52c.87,0,1.74-.06,2.62,0h.49c1.29-.05,2.64,0,3.87-.14.19,0,.18,0,.2.08h.4c.4-.08.94,0,1.34-.06a15.51,15.51,0,0,1,2.55,0,4.33,4.33,0,0,1,.72,0c.28,0,.52-.08.48-.18a1.49,1.49,0,0,1-.37-.06H76c.23,0,.27,0,.29,0a0,0,0,0,0,0,0h.47a2.57,2.57,0,0,1,.46-.05c0,.09.34.11.51.17h0l.6,0h.07l.29.05h.15c.14-.07.58-.06.55-.16a12.73,12.73,0,0,0,2.05,0h0c0-.05.07-.08.25-.09a2.62,2.62,0,0,0,.94,0c.25,0,.5,0,.74-.06h0a1.34,1.34,0,0,0,.47.11,2.64,2.64,0,0,1,1,0h.16a1,1,0,0,1,.54,0h.65a15.06,15.06,0,0,1,2.43-.06h0a16.19,16.19,0,0,1,2.1,0h.52l.43-.05a1.57,1.57,0,0,0,.49,0h0l0,0,0-.05a11,11,0,0,1,1.15,0,5.9,5.9,0,0,0,1.41.06h0a.63.63,0,0,1,.3,0,.78.78,0,0,1,.21,0h.21l.23,0H96l.13,0h.17l.17,0a1.09,1.09,0,0,1,.51,0l.58,0h1.2a7.37,7.37,0,0,1,.94,0,7.16,7.16,0,0,1,1.39,0,3.43,3.43,0,0,1,.77.07,5.58,5.58,0,0,1-1.17.05,1.72,1.72,0,0,0-.75,0,3,3,0,0,0-.92.06l.12,0,.08,0h.94a.37.37,0,0,0,.29,0h.19s0,0,0-.05h0a1.71,1.71,0,0,1,.32,0,.65.65,0,0,1,.21,0h0a4.09,4.09,0,0,0,.88-.05,8.52,8.52,0,0,1,1.25,0h0a2.83,2.83,0,0,1,.65,0h1l.12-.09h0a6.57,6.57,0,0,1,1.29.08l.07,0a2.44,2.44,0,0,1,.93-.11c.31.06.26,0,.34-.06h.11a4.56,4.56,0,0,0,1.52,0h.19l.48.06a1.16,1.16,0,0,1,.56,0,1.61,1.61,0,0,0,.83-.09h0l.26.06.09,0h0l-.11,0a1.43,1.43,0,0,0,.44.07h0a.92.92,0,0,0,.57,0l-.12,0h0a0,0,0,0,0,0,0l.11,0a1.49,1.49,0,0,0,.47-.06h.16l.09.16c.42,0,.85-.08,1.26-.07a28.27,28.27,0,0,0,3.33-.06,1.69,1.69,0,0,1,.45,0,19.73,19.73,0,0,0,2.67.06,15.45,15.45,0,0,1,1.57-.09,4.65,4.65,0,0,0,1.19,0h0a19.43,19.43,0,0,0,2.65-.06h.22a2.49,2.49,0,0,0,.77,0,3.77,3.77,0,0,1,.9-.05h0a5.72,5.72,0,0,0,1.17,0h0a5.44,5.44,0,0,0,1.22,0h0l.25-.12c.24,0,.19-.11.48-.11H133v.06h-.09s0,0,.07,0h0a.08.08,0,0,0,0,0h0l.83-.06h.1l0,.05s0,0,0,0h.09l.08,0h.23a.36.36,0,0,0,.25,0h.24a1.46,1.46,0,0,1,.69,0,1.93,1.93,0,0,0,.74,0h.24a1.84,1.84,0,0,0,.47,0c.65,0,1.29,0,1.92,0h1.67l.3-.17h0l1.18,0a1.19,1.19,0,0,0,.45,0h.2a12.32,12.32,0,0,0,2.19,0h0l1.18.06h.26a8.78,8.78,0,0,1,1.46-.06c1.14,0,2.28,0,3.42,0s2.35,0,3.51,0h.43a19.29,19.29,0,0,0,2.85-.06c.66.11,1.4,0,2.08,0h.07l.05,0a8.47,8.47,0,0,0,1.25,0c1.48,0,3,0,4.46,0,1.11.05,2.22,0,3.33,0a1.83,1.83,0,0,0,.33,0c1.64,0,3.27,0,4.91,0s3.53,0,5.29,0h0a28.51,28.51,0,0,0,3.58,0s-.09.15.33.07a1.48,1.48,0,0,1,.63,0h.2l1-.11H186l0-.12h.7a.92.92,0,0,0,.43,0h0l0,0h.22s.05,0,.06-.05a1.35,1.35,0,0,1,.47,0h.45c.71-.05,1.42.06,2.14,0,.1,0,.16,0,.28-.05l-.28.05a.48.48,0,0,0,.28-.05h.22v.06l.51.05a4.48,4.48,0,0,0,.92-.05h1.19c.56,0,1.12,0,1.68,0h.41a1.18,1.18,0,0,0,.57.06c.31,0,.62,0,.92,0a.11.11,0,0,1,0-.05h1.44c.16,0,.33-.05.49,0v.11a3.75,3.75,0,0,0,.67,0h0L199.4,29c0-.07.2-.15-.22-.17a4.16,4.16,0,0,1-1-.06h-.45a3.45,3.45,0,0,1-.74.05h0l-.2,0h-.49l-.38,0h0l-.07,0c-.44,0-.61.18-1.16.11h0v0h-.73l0,0h-.27v0h0l-.23,0h0l.09,0,.06,0s0,0,0,0h-.1a6.33,6.33,0,0,1-.89-.06h-.08a1.61,1.61,0,0,0-.52,0h-.25a1.75,1.75,0,0,0-.72,0c.25,0,.25.08,0,.12l0-.11H191a1.22,1.22,0,0,1-.64-.12h0c.44,0,.79-.07,1.21-.07l0,0a2,2,0,0,0,.37,0h.27l0-.06,0-.05h-.19l-.18,0a.59.59,0,0,0-.23,0l-.1,0h0l-.08,0-.16,0a11.19,11.19,0,0,1-1.92,0h-.47a7.54,7.54,0,0,0-1,.06c-.07.06.05.1.23.13l-.1,0-.36.09H187l-.23-.11-.07,0-.16-.1,0,0h-.13l-.15.05a1.87,1.87,0,0,1-.65,0,3.19,3.19,0,0,0-.62,0H183.4s0,0,0-.05h-.22v0l0,0h0v0l0,0h-.43l0,0-.05-.06h0a4.37,4.37,0,0,1-.89,0h-.52c-.71,0-1.42,0-2.12,0l-.17,0a1,1,0,0,1-.78-.08h0l0,0h0l.12,0h.25s-.1-.05-.24-.05h0a2.4,2.4,0,0,0-.7-.07h0a5.8,5.8,0,0,0-.95.05l-.45-.06h0c.16-.07.58,0,.73-.11h0l.25-.05a2.27,2.27,0,0,1,.69,0,.52.52,0,0,1,.28.05h0l2.35-.11a2,2,0,0,1,.26,0,12.67,12.67,0,0,0,2.07-.12,9.61,9.61,0,0,1,1.26,0h.22s0,0,0,.05h.23a0,0,0,0,0,0,.05h.94v0s0,0,0,0h.61a1.63,1.63,0,0,1,.66,0h0a1.72,1.72,0,0,1,.62,0,1.5,1.5,0,0,0,.45,0h0l.24-.05h0l.05,0,.06,0h.1a2.91,2.91,0,0,0,.79,0h.23a3,3,0,0,0,.33,0h.35a3.34,3.34,0,0,1,.79-.06h.19c.47,0,.95,0,1.43,0,0,0,0,0,.06,0l.19,0,.21,0h0c0,.05.24.12-.2.1h-.05c-.43,0-.87,0-1.28,0s-.3.1-.11.16h0a2,2,0,0,1,.64,0h0a4.51,4.51,0,0,0,1.44-.06.66.66,0,0,1,.2,0h0a.37.37,0,0,1,.29,0h.25v.06l.46,0h.25a11.28,11.28,0,0,1,1.17,0,.51.51,0,0,1,.26,0h0l0,0a2,2,0,0,1,.67,0h0c.93,0,1,0,.69-.21s.33-.1.5-.15a.53.53,0,0,1,.47.06,3.38,3.38,0,0,0,.57,0l.12,0h0l.14,0,.1,0h0l.06,0,.22.07h.42Zm65-1.57.13,0-.07,0h0s0,0,0,0Zm-7.19-1.52h0Zm-.19,0h0Zm-.53-.24h-.22A.2.2,0,0,1,257.5,24.81Zm-1.17-.06.14,0h.06c.15,0,.25,0,.25.06h-.46S256.3,24.77,256.33,24.75Zm-8-.26-.07,0h.08l.07,0Zm-1.43,2.56h0Zm.9-.07a.15.15,0,0,1,.16,0Zm8.08-1,.22.06h.05l.15,0,.08,0a3.93,3.93,0,0,1-1,0s0,0,0-.05a.4.4,0,0,1,.13-.06l.13,0Zm-14.08-.47a.37.37,0,0,1,.21,0,1.36,1.36,0,0,1,.5.1l.43,0c-.06-.11.13-.23-.2-.33a1.24,1.24,0,0,1,.43,0,1.23,1.23,0,0,0,.54,0l.25.06c0,.22.35.34.93.35s.64-.06.68-.29.59-.1.95-.12c0,0,0,.09.08.11s.08.15.45.15a1.65,1.65,0,0,0,.82-.13l.11-.07h-.22s0-.05.16-.05h.07v.05h0l.18,0c0,.12.34.19.76.21s.8,0,.93-.11.23-.1.34-.15a1.14,1.14,0,0,1,.87-.05,1,1,0,0,0,.63,0,5.63,5.63,0,0,1,1.55-.09c.35,0,.35.18.13.2-.72.07-.45.21-.44.33h0a2.71,2.71,0,0,1-1.1,0c-.29,0-.23.09-.24.14h1a1.33,1.33,0,0,0,.57-.07.19.19,0,0,0,.09-.05,2,2,0,0,1,.61,0,.58.58,0,0,0,.35,0c-.09-.06,0-.12.1-.17s.19-.22-.12-.32c0-.05-.06-.11.26-.1h.07c.4,0,1,0,.94.16s0,.09.17.13h0a.9.9,0,0,1-.59.3,2.48,2.48,0,0,1-.33,0c-.19,0-.36.05-.25.13-.93,0-1.86,0-2.79,0h-.1l-.94,0h-.73l-.46,0h-.69l-.11,0a.24.24,0,0,1-.12,0l-.06,0h-2.14v.18H246c0-.07.11-.14-.22-.18h0l-.26.06-.08,0-.18,0h-1.21l-.2,0h-1.4l-.2-.05-.1,0c-.07-.08.07-.2-.54-.2C241.57,25.63,241.54,25.57,241.75,25.55ZM254.1,26l.28,0,0,0h0a0,0,0,0,1,0,0,1.19,1.19,0,0,1-.29,0h0S254.11,26,254.1,26Zm-2.22.73h0l0,0Zm0-.66a1.28,1.28,0,0,1-.19,0s-.09,0-.08,0,.11,0,.17,0Zm-1,0c0,.05-.2,0-.34,0h-.67V26h.76C250.74,26,250.86,26,250.87,26Zm-2.2.05h0Zm-8.16-1.32h.12l.13,0h0l-.29,0Zm-2.16.45h0a3.2,3.2,0,0,1,1.07,0,.24.24,0,0,1,.15,0c1.1,0,1.1,0,.77.27-.11.17-.48.06-.77,0l-.26-.06s-.09-.06-.2-.07-.24,0-.26-.05h-1.16s0,0,0-.05A3,3,0,0,1,238.35,25.22Zm-2.16,1.34h.53a.91.91,0,0,0,.26.06l.36.11.08,0c.34,0,.26-.1.48-.13h0a0,0,0,0,1,0-.05h.74l0,0h.46c.07,0,.1,0,0,.1H240s0-.05.1-.07l.09,0h0l.05,0h0l.07.05H241l0,0h.09a.4.4,0,0,1,.16,0h5.51l.06.05h.31a8.58,8.58,0,0,1,2.32,0l.18-.05,0-.06h0a1.1,1.1,0,0,1,.67.13h1.49a0,0,0,0,0,0,0s.17.08.29.06a5.71,5.71,0,0,1,1.77-.09c.72,0,1.43,0,2.15,0h.09s0,0,0,.06,0,0,0,0,0,.1,0,.16.19,0,.21.05h.46l0,0,0,0h-.44v0h-.24c-.46,0-.92,0-1.38,0h-.26l-.51.05a1.08,1.08,0,0,0-.35-.07c-.27,0-.58,0-.83-.06H252a4.07,4.07,0,0,0-.7,0h-.2l-.3-.11-2.37.06h-.22l.11-.1h-.61a12.28,12.28,0,0,1-2-.05h-.3a2,2,0,0,1-.35.08,3.19,3.19,0,0,1-.45,0c-.18,0-.44,0-.4-.09h0a3.84,3.84,0,0,1-.5,0s0,0,0-.05h-.13l.12,0h0a4,4,0,0,1-1.21,0c-.94,0-1.88,0-2.82,0h-1.41a2.55,2.55,0,0,1-.39,0l-.39,0c-.12,0-.24,0-.21-.07l-.12-.06a3.74,3.74,0,0,1-.85-.06.92.92,0,0,0-.46-.07h0s0,0,0,0v0s0,0,0,0Zm-2,.08h0l.16,0c.17,0,.34-.08.38,0h0a1.66,1.66,0,0,1-.56,0h0Zm-3-.5c-.13,0-.21,0-.23-.06C231.13,26.08,231.26,26.09,231.21,26.14Zm-.47.43a5.13,5.13,0,0,1,.81-.06h.12l.3,0h.44c.33-.08.44,0,.5.06l-.14,0-.17.05h-.91c-.31,0-.84,0-.95-.12Zm-.25-.61s-.13.05-.25.07S230.29,26,230.49,26Zm-2.42.77-.2,0h-.45A1,1,0,0,1,228.07,26.73Zm-1.23,0h0Zm-2.3-.56h.1l.14,0,.05,0s0,0-.06,0h-.23Zm0,.37,0,0H225l.17.11-.3,0-.34,0Zm-2.11.18h0Zm-.93-.21a.47.47,0,0,1,.29-.08h1.1l0,0,.18.09h-.55l-1.06,0Zm-.54,0h0Zm-.48.11h0Zm-3.23-.74a1.18,1.18,0,0,1,.65.08v.07h0l-.76-.06C216.94,26,217.06,26,217.2,25.94Zm-.32-1.22v0h0c.19,0,.23,0,.23.06h-.24Zm0,1.79h.2l.06,0h-.25S216.86,26.53,216.89,26.51Zm-2,1.5a.71.71,0,0,1,.17,0s.06,0,0,0-.17,0-.17,0,0,0,0,0ZM214.49,26a1.41,1.41,0,0,1-1,0A2,2,0,0,1,214.49,26ZM212,26s0,0,.06,0h-.23S211.92,26,212,26Zm42.84-2.62h0Zm-2.47.13a.09.09,0,0,1-.06,0h0l-.06,0A.33.33,0,0,0,252.41,23.49Zm-.64,0Zm-56.38-.18h.52l0,0h0l0,.09h-.22l-.23-.11h0Zm-24.68.22h0Zm1.43.06c0,.05-.13.07-.3.07h-.2l.3-.09h.21Zm-33.9,1h0a.69.69,0,0,1-.24,0h.49A.49.49,0,0,1,138.24,24.56Zm17.81-.32-.05,0h.09Zm8.69-.21Zm4.6.12h.2A.16.16,0,0,1,169.34,24.15Zm7.48-.38h0s0,0,0,0h0a3,3,0,0,1,.74,0A2.2,2.2,0,0,1,176.82,23.77Zm1.59,0h-.33l.1,0a.39.39,0,0,1,.24.06Zm2.24-.07h-.12v-.06a1.16,1.16,0,0,1,.47.07Zm2.2.05h-.14a.05.05,0,0,0,0,0h0c-.1-.05-.11-.11-.06-.16a.11.11,0,0,1,0,0l0-.11h.07l.15,0h0l0,.28Zm1.74-.16-.18.05-.27.07s0,0,0,0,0,0,0,0a1.76,1.76,0,0,0-.23,0h-.21l0,0h0V23.6h1Zm2,.38-.07,0h.07Zm.14-.38a1.14,1.14,0,0,1-.45.05h0s0,0,0,0v0h0l0,0h.41Zm2.1-.29a.7.7,0,0,1-.39,0h0c.14,0,.24-.06.4,0C188.85,23.3,188.85,23.31,188.83,23.32Zm11.77.41Zm0-.07h0Zm8,.23h-.12l.07,0C208.67,23.88,208.68,23.89,208.65,23.89ZM210.89,26s0,0-.08,0l-.13,0a0,0,0,0,1,0-.06A.81.81,0,0,1,210.89,26Zm-.23.67c.14,0,.15.06,0,.08a1.26,1.26,0,0,1-.48,0A1.57,1.57,0,0,1,210.66,26.63Zm-.82-2.43c-.24,0-.15-.07-.14-.11l.05-.06h.43s0,0,0,.08S210,24.21,209.84,24.2Zm-4.64,2.25h1.41A3.93,3.93,0,0,1,205.2,26.45Zm2.53.05c-.09,0-.16,0-.15-.05S207.83,26.45,207.73,26.5Zm-.09-.55h0a3.19,3.19,0,0,1,.9.1c-1,.08-1,.08-1.21-.09Zm-1.27-.23a.93.93,0,0,1,.48,0l.21,0s0,0,0,0h.17v0l0,0-.22,0-.21,0a1.23,1.23,0,0,1-.48,0S206.35,25.73,206.37,25.72Zm-1.58.27a1.19,1.19,0,0,1,.6,0s0,0,0,0v0h-.49C204.81,26.06,204.67,26,204.79,26Zm-.87,2.14h-.29c-.16,0-.22.13-.49.07s.06-.1.2-.14h.6S204,28.12,203.92,28.13Zm.76-2.6v.06a8.09,8.09,0,0,1-1.89-.06A13.21,13.21,0,0,1,204.68,25.53Zm-1.69,2v.06h-1.08A8.57,8.57,0,0,1,203,27.53Zm-1.17.49.24,0h.21c.13,0,.24.05.17.1l-.19,0c-.18,0-.18-.05-.2-.09h0l-.09,0-.14,0ZM201.34,26l-.18.05-.07,0h0a.44.44,0,0,1-.26-.09A1,1,0,0,1,201.34,26ZM76.8,25.71c.22,0,.44,0,.65,0l.28,0h0l-.44,0h-.13l-1,0Zm-33.3.43Zm-5.9.79Zm.53-.28a6,6,0,0,0-.76,0c-.16,0-.36,0-.52,0l-.12,0A4.56,4.56,0,0,1,38,26.54l.15,0h.17l.24.05C38.5,26.64,38.31,26.66,38.13,26.65Zm4-.3h0Zm0,0H42S42.06,26.29,42.09,26.31Zm2.66.55-.06,0h0l.08,0C44.8,26.83,44.81,26.85,44.75,26.86Zm.19.15h0Zm1.35.15h0Zm4.85-.25c-.13,0-.16,0-.15,0h.21S51.17,26.91,51.14,26.91ZM51,26.82a0,0,0,0,1,0,0Zm.65-.44H49.07a1.93,1.93,0,0,1-.48,0h-.23l-.34,0c-1.48,0-2.89.13-4.38.1-.72.06-1.53,0-2.22.11H39.81c-.25,0-.45,0-.53-.1l.92-.08h.08c.63,0,1.22-.06,1.85-.05h1.16l1.19,0h0l.08,0h0l1.56,0c.54,0,1.09,0,1.64,0h0l.55,0h.88c.52,0,1,0,1.57,0,.37,0,.74,0,1.11,0a0,0,0,0,1,0,0S51.7,26.35,51.65,26.38Zm1.34.94h0Zm1.08-1-1.28,0c-.07,0-.09-.05-.07-.07a.68.68,0,0,1,.17-.08h.47l1.31,0,.8,0A5.48,5.48,0,0,1,54.07,26.33ZM57.4,26l0,0s0,0,0,0H57A1,1,0,0,1,57.4,26Zm.53.31H56.64c-.32,0-.37-.06-.36-.12h.36l1.25,0,.11,0C58.18,26.18,58,26.23,57.93,26.27Zm13.84-.43a2.36,2.36,0,0,1-.46,0A.57.57,0,0,1,71.77,25.84Zm-4.07-.12.1,0,.11,0Zm-5.7.06h0c.3,0,.56,0,.83-.07H63s.08.06.23.06.21.05,0,.07h-.79l-.2,0a.38.38,0,0,1-.19,0h0Zm0,.28H62a6.15,6.15,0,0,0,1.06,0h.32c.19,0,.41,0,.45.06s-.14.09-.33.09h0c-.83,0-1.65.06-2.48,0h0l-.16-.08-.07,0H61Zm-1.49-.28a1.77,1.77,0,0,1,.74,0h-.64a.41.41,0,0,1-.25-.07Zm1,2h-.11c-.36,0-.73,0-1.09,0h-.17l0-.1.21,0c.37,0,.75,0,1.13,0h0l0,0h0A.14.14,0,0,0,61.5,27.83Zm1.7.14h.17S63.28,28,63.2,28Zm5.72-.5a11,11,0,0,1-1.91,0h0l-.07,0c-.1,0-.2.09-.15.15h.46c.53,0,1.06,0,1.58,0h.09l.21,0v.1l-2.14,0-.22,0,0-.05h0a.46.46,0,0,1-.16,0v0h0c-.16-.07-.62-.11-.35-.23.06,0,0-.06-.17-.05s-.21.05-.24.09h0v.19h0l.26,0-.25,0-.25,0h0l-.06,0h-.25l-1.15,0-.23,0h-.15l-.11,0h-1.9s0,0,0,0h0s0,0,0,0a2.63,2.63,0,0,1,.46-.07,4.65,4.65,0,0,1,.68-.06,4.87,4.87,0,0,1,1-.11l.38,0h0l.27-.15-.17,0c-.08,0-.06-.08-.06-.11a.05.05,0,0,0,0,0c-.3,0-.6.09-.92.12-.51.06-.46-.14-.9-.13h-.24a.09.09,0,0,1-.06,0l-.18,0c-.11.07.18.18-.27.22,0,0-.11.06-.25.05l-.2,0,0,.11-.11,0a6,6,0,0,1-1,0H60.1s0,0,0,0l0,0-.16,0h0s0,0,0,0h-.08c-.12,0-.08-.07-.15-.11h.13a1.67,1.67,0,0,0,.3-.07.84.84,0,0,0-.42-.05h-.27l.29-.11c.24,0,.42,0,.47-.09s0,0,0,0a.42.42,0,0,0,.16,0h0l0-.05h.9c.5,0,1,0,1.48-.11h.13a1.46,1.46,0,0,0,.45.06c.47,0,.87-.08,1.32-.08H65a.13.13,0,0,1,.07.05h-.26A.58.58,0,0,0,65,27h.52l-.2.11s0,.06.09.09l.11,0h0l.27,0,.06,0a1.16,1.16,0,0,1,.52,0l.13,0a.19.19,0,0,1,.22,0H67c.15,0,.3,0,.25-.07a.36.36,0,0,1,.26,0,1,1,0,0,0,.39,0h.32a6.8,6.8,0,0,0,1,.3s0,0,0,0S69.15,27.47,68.92,27.47Zm-.8-1.33a8.57,8.57,0,0,0-1.36.06h-.39c-.6,0-1.2,0-1.8,0,0-.09.3-.12.51-.16h2.13A3.72,3.72,0,0,0,68,26h.45c.57,0,1.13,0,1.69,0h.24l0,0h.5c.4,0,.8,0,1.21,0h.45a.73.73,0,0,1-.27,0,1.17,1.17,0,0,0-.45.08,13.6,13.6,0,0,1-1.69,0C69.44,26.14,68.78,26.14,68.12,26.14ZM75.61,28h0a4.5,4.5,0,0,0-.66,0h0a1.87,1.87,0,0,0-.51,0,1.28,1.28,0,0,1,.46-.11,1.15,1.15,0,0,0,.25-.06h.27l.18,0h0V28Zm1.07-.11-.27,0a1.73,1.73,0,0,1-.6-.06h.06l.16,0h.38C76.56,27.84,76.74,27.86,76.68,27.91Zm1.1,0,0,0,0,0h0c-.21,0-.5,0-.59,0s.19-.06.37-.07l.25.05Zm1.59.13h0Zm.26-.29h0Zm1.21.16h0c-.15,0-.25,0-.19-.08a1.87,1.87,0,0,1,.38,0Zm2-.41H82.7l-.17,0H82.1a1.38,1.38,0,0,1-.38,0,2.33,2.33,0,0,0-.59-.08h0c0,.07-.15.11-.45.12h-1.9a7.23,7.23,0,0,0-1.48.05,1.61,1.61,0,0,1-.22,0h0v.12h-.26l-.11,0h0s0,0,0,0l.26-.05H77l0-.06s0,0,.08-.05.22,0,.18-.07h.46a.53.53,0,0,0,.33,0h0l.26,0s-.12,0-.22,0l-.56,0h-.31a2.6,2.6,0,0,1-.75-.22,4.16,4.16,0,0,1-1.06.16l.07,0,.2.12h0c.36.07-.1.09-.14.13v.06h0l-.17,0H74.17l-.72,0c0-.1,0-.15-.12-.17h-.16l-.39,0v0l0,.08a5.49,5.49,0,0,1-1.24.07,14.84,14.84,0,0,1-1.9-.06h0a.72.72,0,0,0,.27-.06l.1-.05h-.43c-.07,0,.17-.06.21-.1s0,0,0,0-.46-.18-.2-.3h.92c.15.05.41.08.47.16s.3.07.48,0l.22,0c.11,0,.16.07.26.1-.47.12-1.15,0-1.67.12l.43.05a4,4,0,0,0,1.44-.09l0,0h.42l.07,0c.29-.09.15-.2.14-.3-.23,0-.44,0-.64,0H71.8a6,6,0,0,1,1.56-.24c.21.11-.1.26.4.35a2.82,2.82,0,0,0,.87,0,2,2,0,0,1,.29-.12c.3-.09.13-.26.94-.25a2,2,0,0,1,1,.19h0a4.54,4.54,0,0,1,1.2-.11,2.14,2.14,0,0,0,.88-.12,9.63,9.63,0,0,1,1.48-.09c.6,0,1.2.06,1.8,0h0l0,0h0v0a8.19,8.19,0,0,1-1,.12c-.2.1-.36.19-.26.3H81a3.46,3.46,0,0,0-.67.11,3.45,3.45,0,0,0-.49,0s.13.08.32.09a4.45,4.45,0,0,0,.93-.06h0s0,0,0-.06h.69l.13,0a.45.45,0,0,0,.23,0l.11,0s.1-.1.36-.05.36.09.34.17Zm-1.43-.19h-.25l0-.05C81.28,27.23,81.35,27.25,81.39,27.29Zm3-.36c-.21,0-.35,0-.31-.1s.19-.09.42-.07.36,0,.33.1A.7.7,0,0,1,84.34,26.93Zm1,.47h-.19a2,2,0,0,0-.53-.09c-.32,0-.23-.08-.19-.14a1.83,1.83,0,0,0,.7-.18h.19c.85,0,.9.06.46.27C85.54,27.29,85.34,27.32,85.38,27.4Zm5.7,0-.09,0c-.36,0-.76,0-1.13,0-.67,0-.16-.17-.6-.18a5.82,5.82,0,0,1-2.42.16,3,3,0,0,1-.82.06l-.08,0h0l-.06-.07h0l.21,0h.07s0,0,0,0a.9.9,0,0,0,.61-.17l0,0a2.39,2.39,0,0,0-1.18-.19.53.53,0,0,1-.23,0c-.08,0-.15,0-.25,0s-.08-.09.26-.08a4.73,4.73,0,0,0,.65,0h.13c.19,0,.38,0,.56,0a1.35,1.35,0,0,1,.53.06,2,2,0,0,0,1,.13c.27,0,.54-.08.44-.18l0-.06a5.59,5.59,0,0,1,.82,0c.21,0,.42.05.32.1-.29.17.25.29.34.43a1.86,1.86,0,0,1,.51.11.3.3,0,0,1,.15,0,.74.74,0,0,1,.21,0S91.13,27.36,91.08,27.38Zm0-.7c-.23,0-.23,0-.23-.07s.07-.05.22,0,.2,0,.2.05S91.23,26.67,91.13,26.68Zm6.27-.22h.85c.16.14-.16.18-.65.17l-.24-.06ZM93,26.87a3.06,3.06,0,0,1,1.3-.13,2.25,2.25,0,0,1-.94.25.94.94,0,0,1-.41,0C92.8,26.94,92.89,26.91,93,26.87Zm1.53.78h0v0l0,0h-.06Zm4,0a1.06,1.06,0,0,1-.41,0,1.47,1.47,0,0,0-.53,0h-.2v0h0l0-.06a2,2,0,0,1,1.17.09Zm.18-.49c-.28,0-.79,0-.62.17l-.08,0a2.32,2.32,0,0,1-.87,0h-.72a1.88,1.88,0,0,1-.34,0l-.16,0h0l-.44.06c-.15,0-.27,0-.29,0h0a5,5,0,0,1-.87,0l-.33,0-.19,0,.18.05h0c-.07,0-.16,0-.16-.05h-.45a1.78,1.78,0,0,0-.61,0h-.22a1,1,0,0,1-.31,0l-.07,0,0,0a1,1,0,0,0,.33-.11,6.81,6.81,0,0,0,1.37.05.68.68,0,0,1,.19-.11c1-.33,1-.32.2-.65a5.45,5.45,0,0,1,.81,0,.6.6,0,0,1,.45,0H95v0c0,.06.11.1.38.09h.08s0,0,0,0a0,0,0,0,0,0,0v-.05c.56.06.56.06,0,.19-.33.22-.28.26.45.41.39-.1.18-.29.92-.36a5.61,5.61,0,0,1,1.23,0,3.15,3.15,0,0,0,.43,0c.32,0,.7,0,.79.06S99.06,27.07,98.68,27.12Zm.36-.56c.08-.1.25,0,.4,0Zm1,.92h0Zm1.54.08a8.6,8.6,0,0,1-1.15,0h-.18l-.16-.09,0,0h1.19l.42,0,.05.05Zm-.12-.7v.2s-.09.06-.25,0-.12-.18-.44-.24c0-.1-.34-.18-.32-.29s0,0,0-.06h-.11a.85.85,0,0,1-.38-.07,1.34,1.34,0,0,1,.53,0c.32,0,.7-.12.93,0S102.09,26.72,101.43,26.86Zm-56.9,2.91Zm2.9.48h0a.2.2,0,0,1,.2,0Zm6.65-.06h0a7.67,7.67,0,0,0-1,0h0l-.67-.06h0s0,0,0,0h0l.09,0h0l.08,0L53.1,30h0l0,0c.07.07.24.07.48,0a1.41,1.41,0,0,1,.48.11l.05,0-.05.05Zm1,.35s0,0,0,0h-.25c-.14,0-.21-.05-.21-.1h0s.06,0,.13-.05h.1c.19,0,.24.07.25.12S55.05,30.53,55,30.54Zm0-.48h0Zm.2,0h0Zm0-.16h0L55,29.83l0,0h-.22s-.05,0-.06-.05l.69-.11h0l.06,0a3.22,3.22,0,0,0,.7,0h.66l0,0h.26a3.62,3.62,0,0,1,1.23,0,.39.39,0,0,1,.13,0c.05,0,.05.06,0,.09H57.18C56.54,29.82,55.92,29.85,55.29,29.89Zm4,.11h-.22a1,1,0,0,0-.34,0H58.2a1,1,0,0,0-.38,0h-.4l-.23,0H55.9l-.07,0-.06,0h0A5.46,5.46,0,0,1,56.94,30h.72l.28-.05,1.39.06h0v0ZM61,30H59.84a.82.82,0,0,1,.3-.07.69.69,0,0,0,.18,0h0c.39,0,.56,0,.65.1Zm.44-.41c.09,0,.19-.08.29,0Zm.76.37a.93.93,0,0,1-.29,0,.35.35,0,0,1-.17-.06,1.94,1.94,0,0,1,.71.06Zm3.73-.34.14,0h-.3ZM62.82,30h-.11a.18.18,0,0,1,.22,0Zm.6-.23H63l0,0h0c.05,0,0-.09.22-.11l.07,0a5,5,0,0,0,.68,0h.47l.25.06h-.15A4.76,4.76,0,0,0,63.42,29.72ZM66,29.9h0l-.34,0h0a10.41,10.41,0,0,0-1.26,0l-.14,0-.16,0,.26,0,.26,0c.38,0,.76,0,1.14,0h0a1.5,1.5,0,0,1,.39.09.25.25,0,0,1,.09,0Zm.47-.55Zm2.15.18H68l-.3-.13.09,0a2.18,2.18,0,0,1,.41-.07h0a.51.51,0,0,0,.26.05c.08,0,.23.08.25.13A.06.06,0,0,1,68.66,29.53Zm6-.24h0Zm-1.42-.05h.11a1.93,1.93,0,0,1,.81.05l-.11,0-.14,0-.42,0-.17,0C73.23,29.31,73.19,29.28,73.24,29.24Zm-3.17.38h0v0h0A0,0,0,0,0,70.07,29.62Zm5.05.09h-.3c-.08,0-.13,0-.13.06a.42.42,0,0,1-.26,0,3,3,0,0,0-.54-.1,4.25,4.25,0,0,0-.51,0l-.89.06-1.63,0-.33,0,.33,0-.54,0h-.07l-.08,0c-.08,0-.08,0-.06-.08h.44a.32.32,0,0,0,.26,0h.27a2.28,2.28,0,0,0,.69,0H72a1.35,1.35,0,0,0,.52,0l0,0,.25,0h0a1.22,1.22,0,0,0,.71,0h.25c.38.11.83-.06,1.21,0h.67v0l0,.07Zm.51.2h.2A.44.44,0,0,1,75.63,29.91Zm2.62-.07h0Zm48.55-3.76s.08,0,.12,0a.68.68,0,0,1-.3,0c-.07,0-.19,0-.18,0A.71.71,0,0,1,126.8,26.08Zm-1.48-.79a.44.44,0,0,1-.15.05h-.11a1.92,1.92,0,0,0-.47.06h-.21l-.2-.06h0s0,0,0,0h0v0ZM125.17,28h0Zm-2-1.82h.45c.5,0,1.16-.06,1.38.14s-.31.27-1,.28a9.73,9.73,0,0,0-1.87,0c-.11,0-.4,0-.35-.08s-.35-.19-.35-.3A12.28,12.28,0,0,1,123.19,26.14Zm.91.93a.69.69,0,0,1-.2,0c0-.06-.51-.11-.05-.18.23-.06.14-.18.65-.22.11.1.32.18.31.29V27l-.31,0A1.88,1.88,0,0,1,124.1,27.07Zm.28.29h0Zm-4-2h1.1v.07h-.67c-.19,0-.41,0-.61,0l-.2,0-.16,0Zm-2.72,1.25c.06-.06.25,0,.38,0a2.72,2.72,0,0,0,.57,0c.1-.07.18-.14.31-.22a1.07,1.07,0,0,1,.58-.05c.29,0,.17.07.16.13s-.33.23-.94.22h0s0,0-.08.05l-.69.06a.11.11,0,0,1-.05,0C117.74,26.67,117.63,26.65,117.68,26.6Zm1.9,1.17Zm-2.67.19H117V27.9h.49l0,0h.48a4.33,4.33,0,0,1,.72,0l1-.07h0l.8.05h0l.39,0c.11,0,.19.05.2.1l-.43,0h-.06l-2.27,0h-.35a4.43,4.43,0,0,0-.73,0h0l-.2,0s0,0,0,0l0-.05Zm-.2-1.4c-.06.13-.63.18-.52.3h-.91v-.06A5.91,5.91,0,0,1,116.71,26.56Zm-2,1.57h-1a3.06,3.06,0,0,1-.35,0l-.06,0h0q.22,0,.27-.06c.13,0,.18,0,.19-.07a13.45,13.45,0,0,0,1.68,0l.14,0a.32.32,0,0,1,.14.05h0s-.05,0,0,.05h-.1A4.52,4.52,0,0,0,114.73,28.13Zm.78.67h-1l.06,0,.19-.09H115l.3.07.14,0Zm-1.89-1.93c-.64,0-.63-.07-.48-.18.84-.17,1-.16,1.21.06C114,26.76,113.6,26.73,113.62,26.87Zm.67.17c-.12,0-.3,0-.35,0a0,0,0,0,1,0,0h.41S114.35,27,114.29,27Zm-.68.55h0l.11-.07.07,0S113.73,27.59,113.61,27.59Zm1.67-.54a.49.49,0,0,1-.24,0,.24.24,0,0,1,.2,0h0s0,0,0,0h.06a1.78,1.78,0,0,0,.4,0h0a1.08,1.08,0,0,1,.48.06A2.53,2.53,0,0,1,115.28,27.05Zm-8-.67c.19,0,.35,0,.53-.06h0a1.07,1.07,0,0,1,.27-.09c1,0,2-.08,2.91,0h1.13a4.26,4.26,0,0,1,1.29,0c.26,0,.42,0,.64,0a6.25,6.25,0,0,1,1-.06c.27,0,.46,0,.43.09s-.19.1-.47.1a4.44,4.44,0,0,0-1,0,2.55,2.55,0,0,1-.33.11.41.41,0,0,1-.37,0h0a.9.9,0,0,0-.69,0c-.09.08-.16.17-.55.06l-.21,0-.52.07c-.43.07-.21.09.13.11s.16.07.11.12c-.28,0-.18.11-.44.13-.48-.06-.81-.15-.71-.3.26-.05.26-.11.24-.17v0h-.22v0s0,0,0,0h-.22a4.7,4.7,0,0,1-2.3.1,1.62,1.62,0,0,0-.54,0,.71.71,0,0,1-.53-.08C106.82,26.39,107.09,26.4,107.32,26.38ZM106,27.78h0Zm.47-.12s0,0,0,0h0Zm-.72-.44c.21-.12.13-.22.49-.28,0,0,.16.07.3.07s.15,0,.17-.06l0,0a1.42,1.42,0,0,0-.5-.06q-.93,0-1.86,0c0,.05,0,.1-.29.11h0a1.79,1.79,0,0,1-.89,0l-.06,0,0,0c0-.05,0-.07.22-.06l.21-.08,0,0h0c-.24,0-.25-.07-.14-.13l.41-.18h.12c0-.07.18-.05.34-.05s0,0,0,0,0,.09-.2.12c0,.06-.25.1-.27.16s0,0,0,0c.81,0,.64-.19.91-.3l1.11-.06a1.49,1.49,0,0,0,.8.28c.37.05.3.13.26.21.56.11,1.27.13,1.9.19h.25l.21,0c.18-.12.72,0,1-.11-.16,0-.15,0,0-.05a1,1,0,0,1,.3,0c.12,0,.09.05,0,.07l.26.06v.12a13.48,13.48,0,0,1-1.92.05C107.84,27.21,106.85,27.19,105.71,27.22Zm2.4,1v-.05h0c.25,0,.51,0,.74,0l.22,0h.45v.12A11.39,11.39,0,0,1,108.11,28.19Zm.7.74Zm-2.12,0h0ZM105,28.2h0l.65-.05h0a2.5,2.5,0,0,1,.7.05h0l-.19.05-.4,0h-.33a.42.42,0,0,0-.25,0h-.11c-.31,0-.63,0-.93,0C104.27,28.18,104.66,28.2,105,28.2Zm-2.39.6h.53l-.07,0-.18.11,0,0a.74.74,0,0,1-.41-.11.06.06,0,0,1,0-.05Zm-8.37-.24Zm-4,.31h0Zm-.49-.13v.06C89.54,28.78,89.49,28.76,89.7,28.74Zm-.29.36ZM83.26,29a.43.43,0,0,1,.22,0h.25c.2.06,0,.08-.14.12h0l-.34-.05h0Zm-3.86.15V29.1h.48v.05H79.4Zm12.49.53-.08,0,.07,0h0Zm3.62-.33Zm6.8.36-.08,0h-.08s0,0,0,0a0,0,0,0,0,0,0h0a.28.28,0,0,1,.27,0Zm2.47,0h0v0h0l0,0a1,1,0,0,1-.45,0v-.08s0,0,0,0h.45s0,0,0,0h0Zm1.47-.19-.06,0h.08Zm11.48-.17h0l0,0h.06a.92.92,0,0,1,.3,0l0,0Zm0-.06Zm1.91-.1Zm0,0Zm.71.32h0v0h0S120.3,29.48,120.3,29.49Zm7.4.06,0,0s0,0,0,0ZM124.13,29h-1.2a4.3,4.3,0,0,0-.75.06H122a1.51,1.51,0,0,0-.56,0h-.1l-.09,0h-.06c-.45,0-.92,0-1.36,0-1.13,0-2.29,0-3.39.06-.78-.05-1.55,0-2.32,0a9.27,9.27,0,0,1-1.5,0h-.08c-.92,0-1.83.08-2.76,0a11.77,11.77,0,0,1-1.68,0h-.17c-.89.07-1.8.05-2.7.05h-.48l-7.87.14c-.34,0-.68,0-1,0h-.31l-.07,0h0l-.07,0-.27-.05h-.29c0,.05.32.12,0,.16h-.09a1.62,1.62,0,0,0-.8-.13c-.68,0-1.38,0-2.07,0a1.92,1.92,0,0,1-.48,0l-.07,0h-.08c-.81.08-1.65,0-2.48.05a7.11,7.11,0,0,1-1.13,0h0l-.78.06h-.71a.7.7,0,0,1-.21,0l0,0h0l0,0h-.37l-.07,0h0l-.07,0h0l-.05,0h-.06l-.1,0H85l-.12,0-.09,0h0l-.06,0-.11,0h-.15l-.08,0h0l-.25,0H81.81l-.09,0H80.13s0,0,0,0h-.48v-.12h.19l.08,0h.86a.64.64,0,0,0,.31,0,3,3,0,0,0,.46-.06h1c.69-.07,1.42-.06,2.14-.06h.48a6.84,6.84,0,0,1,1.11,0h0s.09,0,.09-.05h.22a.23.23,0,0,0,.12.05h0a.17.17,0,0,0,.09-.06h.26l1.18,0a10.42,10.42,0,0,1,1.12,0,4.54,4.54,0,0,1,.66-.05h.14l.71,0h.25a15.41,15.41,0,0,0,1.68-.07h.72c.47,0,.93,0,1.4,0h.48A4.59,4.59,0,0,0,97.11,29h.23l.06,0a2.87,2.87,0,0,0,1.11.08h0c1.45,0,2.89,0,4.32-.06h2.28l1.46,0h0l.08,0h2.12l1.71,0,2.13,0a.47.47,0,0,1,.31,0l.92,0,.47,0h2.82a8.54,8.54,0,0,1,1.25-.05h0a2.56,2.56,0,0,0-.64-.07h-1.06l-.5.07H116a1.22,1.22,0,0,1-.48-.07l.27,0a.57.57,0,0,0,.2-.07h.47l.23.07h.69l.3,0h.7a9.32,9.32,0,0,1,1.19,0,13.53,13.53,0,0,1,1.44-.06v-.06h2.4a.43.43,0,0,0,.18.05,3.26,3.26,0,0,1,.53.07h0l-1.72.06-.41,0h-1l-.91,0h0l-.26,0h-.45a2.11,2.11,0,0,0-.64.06,12.34,12.34,0,0,0,1.36,0H122l.93,0H123c1.59,0,3.16,0,4.73-.08h0l.12.07.12.06Zm4.05-.38v.12h0l-.42,0h-3.33a12.63,12.63,0,0,1,2.24-.07c.29,0,.17-.06.15-.1h1.4Zm.38-2h-.11s-.06.06-.21.07h0c-.1.11-.4.12-.77.1s-.44-.06-.71,0-.46.06-.52,0,.06-.16.36-.21a3.09,3.09,0,0,1,.68,0c.24,0,0,.07,0,.1-.22.08-.09.12.24.15a3.07,3.07,0,0,1,.67-.08l.07,0-.07,0s.09-.05.24-.05c0,0,0,0,.06,0l.21,0Zm40.5-.93h0a.28.28,0,0,1,.25,0h-.25c.15.16-.37.31-.15.47s0,.15-.32.18h-.18c-.14-.05.06-.06.14-.09v-.09c-.4,0-.73-.06-.75-.18s-.1-.16-.15-.23C168.07,25.65,168.63,25.73,169.06,25.65Zm-4.3.61a.77.77,0,0,1,.4,0c.09,0,0,0-.15.06a3.21,3.21,0,0,1-1.14,0C164.16,26.25,164.47,26.27,164.76,26.26Zm-1.61-.38a.38.38,0,0,1,.24,0c.05,0-.1,0-.19.05s-.25,0-.25,0S163.07,25.89,163.15,25.88Zm-.57.33c.19,0,.26,0,.29.06a.36.36,0,0,1-.25.06c-.19,0-.28,0-.28-.07S162.46,26.21,162.58,26.21Zm-4-.52a4.75,4.75,0,0,0,1,.09,5.61,5.61,0,0,1,.71,0s0,.11-.23.11a6.77,6.77,0,0,0-.7.08l-.13,0a1.73,1.73,0,0,1-.82.12c-.52-.05.19-.15-.07-.22s-.11-.09-.22-.13C158.11,25.72,158.16,25.63,158.54,25.69Zm-3,.18a4,4,0,0,1,1.11,0c.26,0,.5.07.52.15s-.31.09-.56.11a2,2,0,0,0-.37.07c-.14.08-.09.17-.06.27-.54-.1-.54-.1-.47-.28l.31,0h.09c0-.07-.05-.14-.42-.08h0C155.07,26,155.25,25.92,155.52,25.87Zm-2.71.39s0,0,0,.06a.64.64,0,0,1-.26,0S152.69,26.27,152.81,26.26Zm-1-.07h.32l-.15.08a.45.45,0,0,1-.25,0c-.08,0-.15,0-.15-.07S151.66,26.19,151.77,26.19Zm-1.24-.4c.27,0,.47,0,.42.06s.09.15-.31.16-.53,0-.56-.11S150.3,25.79,150.53,25.79Zm-2,.72a.4.4,0,0,0,.25-.05l.44-.08a2,2,0,0,0,.51-.05h.19l.27.06-.09,0s0,0,0,0h0l.06.05,0,.06-.18,0a8.79,8.79,0,0,1-1.26,0h-.1l-.12-.08Zm-3.36-.61c.79.05,1.59,0,2.39,0h0a.43.43,0,0,1,.31.12c-.14.21-1,.23-1.52.37a1.76,1.76,0,0,0-1.2-.43Zm2.36.91a1.13,1.13,0,0,1-.46.06C147,26.78,147,26.78,147.52,26.81Zm-1.74-.26s-.08.06-.22.05a.74.74,0,0,1-.17,0c-.07,0,0-.06.13-.06A.42.42,0,0,1,145.78,26.55ZM144.51,26l0,0,0,0a.35.35,0,0,1-.3,0A.6.6,0,0,1,144.51,26Zm-.11.28-.08,0-.07,0,.08,0Zm-5.91-.11a.78.78,0,0,0,.45-.06c.33-.16.33-.16,1.2-.24h.24l.24.06a7.09,7.09,0,0,0-.76.18c-.13.05-.24.1,0,.15a1.09,1.09,0,0,0,.6,0,2,2,0,0,1,.61-.08l0-.16a7.92,7.92,0,0,1,2.12,0s0,0,0,.05-.23.1-.19.11c.32.08.09.13-.16.19s-.15.07-.24.1.22.18-.39.16c-.44,0-.62-.09-.61-.18s-.06-.1-.09-.15a4.46,4.46,0,0,1-1.1.17,2.62,2.62,0,0,1-1.28-.11,1.39,1.39,0,0,0-.5,0c-1.3,0-1.3,0-1.53-.29A2.64,2.64,0,0,1,138.49,26.13Zm1.16.56c.06-.08.31-.09.52-.11a1.13,1.13,0,0,1,.33,0c.1,0,0,.07-.11.1Zm.53.24a.48.48,0,0,1-.32-.05.63.63,0,0,1,.29-.08h.18S140.45,26.92,140.18,26.93Zm-.78-.07-.21,0,0-.05h0C139.35,26.82,139.38,26.84,139.4,26.86Zm-1.59.52c-.05.06-.28.05-.46,0l.16-.13C137.78,27.29,137.85,27.34,137.81,27.38Zm-1.37-1.12s.1,0,.1,0l-.12,0s-.09,0-.09-.05S136.4,26.27,136.44,26.26ZM133.6,26c.24,0,.32,0,.38.09s-.15.09-.37.09-.37-.05-.38-.1S133.39,26,133.6,26Zm-1-.81h0s-.06,0,0,0h0S132.57,25.16,132.64,25.15Zm-1.8.94h0c-.08,0,0-.06.18-.06a6.41,6.41,0,0,1,1.16,0,7.59,7.59,0,0,1-1.38.06h0Zm-.33-.92s.1,0,.05,0h-.05Zm-.17,1.33c.27,0,.45,0,.46.1s.29.06.49,0h0l-.14-.06c-.13-.06-.19-.11,0-.18,1,0,1,0,.9.24s-.36.12-.68.13h-1.27C129.85,26.64,130.3,26.59,130.34,26.5Zm-.48,2Zm0,0h1.94c.31,0,.64,0,.94,0,0,0,0,.05,0,.07a1.18,1.18,0,0,1-.19.11l-.14,0h0a3.63,3.63,0,0,0-1,0h-.24a1.66,1.66,0,0,0-.73-.12,3,3,0,0,1-.63,0l-.09,0Zm-.26,1.16.09,0h0Zm7.5-.22-.06,0h.24a0,0,0,0,0,0,.05Zm2.52-.57h-.38c-.8.09-1.64,0-2.46,0-1.5,0-3,0-4.51,0-.71,0-1.41,0-2.11,0h-.29l.07,0c.16,0,.44,0,.61-.07,0,0,0,0,0,0h.06c.59,0,1.17,0,1.76,0H133l.12,0h.08l.47,0h2.89l.56,0c.83,0,1.68,0,2.52,0h.11l.17,0S139.7,28.85,139.61,28.87Zm2.91-.14h0Zm.23,0a.2.2,0,0,1-.21,0,1.47,1.47,0,0,1,.21,0Zm4.32.06a.32.32,0,0,1,.24,0Zm8.6,0H155v0s0,0,0,0H155a2.63,2.63,0,0,1,.63,0Zm2.29,0h-.06l-.15,0-.1,0h.66A.7.7,0,0,1,158,28.8Zm5.24-.06h-.07s0,0,0,0h.44A.68.68,0,0,1,163.2,28.74Zm10.41-.45v0h-.91a8.94,8.94,0,0,1-1,.06h-1.89l-.64,0,0,0,0,0,0,0a.74.74,0,0,1-.22,0s-.05-.05-.07-.07h0c-.62,0-1.22,0-1.82.06h-.72l-.24.06h0a1.47,1.47,0,0,0-.21,0v0h-.49a8.35,8.35,0,0,1-1.24-.05h0l-.9.05c-.24,0-.48-.05-.72,0a11.32,11.32,0,0,0-1.17,0h-1a.67.67,0,0,0-.2,0,3.06,3.06,0,0,0-.76,0,3.18,3.18,0,0,1-.69,0H157.3a2.81,2.81,0,0,1-.44,0H155l-.49.1-.2,0h-.56q-1.62,0-3.24,0l-.33,0h-2.1a13.56,13.56,0,0,0-1.7.05h-.1a.81.81,0,0,1-.22,0h-.13l.21-.08.2-.08-1.63,0,0,.07h0l0,0,.05,0h0s0,0,0,0h0l-.06,0h-.19a4.68,4.68,0,0,1-.84,0l-.12,0h0c.09,0,.4,0,.18-.06l-.5-.05H143a3.15,3.15,0,0,0-.43.05,5.08,5.08,0,0,0-.69,0h-4.08a6.9,6.9,0,0,0-1.93,0h-.22a.39.39,0,0,0-.26,0h-.22V28.5c.46-.06,1,0,1.44-.06h.14c1.31,0,2.61,0,3.91,0l.49-.06h.05a4.64,4.64,0,0,0,1.35,0h.05a10.33,10.33,0,0,0,2.08,0h.06a25.47,25.47,0,0,0,2.77.05c.5,0,1,0,1.52,0h1.18a.09.09,0,0,0,0-.06c.71,0,1.43,0,2.15,0l.11.06.12.07h.23l.07,0h0l.07,0,.09-.05a13.83,13.83,0,0,1,1.44,0,.65.65,0,0,0,.24,0v.05h0c.26,0,.27,0,.27,0s0,0,0,0l.4,0a4.78,4.78,0,0,0,.53,0l.27,0a1.76,1.76,0,0,1,.23,0l.15,0,.33,0h1.2l.62,0,.59,0c1.43,0,2.83-.08,4.26,0a5.83,5.83,0,0,1,1.32,0c1,0,2,0,3,0h1.86s0,0,.07-.05h0l.48,0,.22,0h.18l.21,0c.33,0,.7,0,1,0a7.33,7.33,0,0,1,.94,0h0a2.18,2.18,0,0,0,.74.05h0Zm.17-1.62c-.24,0-.37-.06-.39-.12s.06-.16.47-.16.44,0,.49.09S174.21,26.66,173.78,26.67Zm.55,1.23h0Zm0,0h0Zm.5-.19c-.3,0-.34-.06-.31-.12H175l0,0S175.07,27.71,174.85,27.71Zm21.73,1.22H197a.66.66,0,0,1-.35.05h-.11S196.56,28.94,196.58,28.93Zm-7.5-.18h0s0,0,0,.05h-.49a.58.58,0,0,1-.19,0Zm-3.77,0h.48l-.16.08-.09,0h-.21l-.48-.1Zm-.73,0h0a.31.31,0,0,1-.19,0A.61.61,0,0,1,184.58,28.76Zm-2,0Zm-1.76.06h0Zm-5-.11h0Zm1.33-.2h.09l.4,0h0l.24,0h0q0,.11-.36.12h-.12l-.29-.13Zm-.13.28h0Zm.2,0h.21s0,0,0,.05a4.91,4.91,0,0,1-.94,0,1.16,1.16,0,0,1,.48-.06h.26Zm-.95-.41a1.35,1.35,0,0,0,.33.05h.1l.18,0,.11,0h0a3.29,3.29,0,0,1-1.33,0l.1-.08h0l.13,0,.09,0h.26Zm5.1-2.26a1.15,1.15,0,0,1-.34-.06c-.1-.05,0-.07.16-.09s.28,0,.32.06S181.53,26.13,181.37,26.13Zm.44,1.64Zm1,0,0,0h0Zm.11,0h0l-.06,0,0,0h.09Zm-.2-1.54c-.15,0-.25,0-.25,0s.14-.09.36-.09a.79.79,0,0,1,.26,0C183,26.16,182.91,26.2,182.68,26.2Zm2.43,1.34h0Zm.5.4h0s.07,0,.16,0Zm.94,0c0-.06.23-.05.4-.05A2,2,0,0,1,186.55,28Zm1.84-.11h0Zm0-2,0,0a1,1,0,0,1-.62,0c-.09-.05.23-.08.45-.1a.49.49,0,0,1,.24,0C188.52,25.8,188.52,25.82,188.41,25.84Zm1.23,2.07Zm1.16-1.82h-.2c.35-.24.53-.26,1.15-.19-.47,0-.29.07-.23.13h.2a.38.38,0,0,0,.11,0A2.24,2.24,0,0,1,190.8,26.09Zm2.17,0c-.17,0-.22,0-.2-.05V26l-.05-.06a1.19,1.19,0,0,1-.52-.11h0c.23-.05.29-.11.31-.19h0C193.4,25.77,193.49,25.86,193,26.07Zm1.59,2a3.81,3.81,0,0,1-.76,0c-.31,0-.17-.07-.08-.11h0a2.42,2.42,0,0,1,.74,0h0a.09.09,0,0,1,.07,0Zm-.63-.26h.46a.11.11,0,0,1-.1.06.24.24,0,0,1-.12,0h-.08C194,27.9,193.93,27.87,193.93,27.84Zm.47-1.94-.26.18-.2-.06c.15-.06-.11-.15.18-.21a.77.77,0,0,1,.45,0C194.65,25.85,194.58,25.89,194.4,25.9Zm.92.76c-.13,0-.19,0-.19-.06s.08,0,.13,0,.18,0,.2.06A.58.58,0,0,1,195.32,26.66ZM197,28.11a1.24,1.24,0,0,1-.5,0l-.13,0h.12c.15,0,.31,0,.44,0l.18,0S197,28.1,197,28.11Zm1.16-2.22a1.29,1.29,0,0,1-.5-.15c-.29-.1.08-.16.15-.24l.21,0c.33,0,.37.12.43.2S198.41,25.83,198.14,25.89Z"/><polygon class="cls-1" points="197.03 23.49 197.03 23.49 197.03 23.49 197.03 23.49"/><polygon class="cls-1" points="208.02 28.06 208.02 28.06 208.02 28.06 208.02 28.06 208.02 28.06"/><polygon class="cls-1" points="146.84 24.69 146.84 24.69 146.84 24.69 146.84 24.69"/><polygon class="cls-1" points="194.18 28.32 194.18 28.32 194.18 28.32 194.18 28.32"/><path class="cls-1" d="M110.51,26.39Z"/><path class="cls-1" d="M156.18,23.66h.06a3.48,3.48,0,0,0,.88,0h.46v.14h-.07l-.65,0,.73,0h1.88c0-.08-.52-.12-.22-.21h0l.22,0a1.07,1.07,0,0,0,.7.06,11.31,11.31,0,0,0,1.66-.06h0l.15,0,.12,0h.21v0h0s0,0,0,0h0a1,1,0,0,1,.24,0h.22l.48,0h0l.41-.06h.06c.09.09.19.17-.17.23h.2c.78,0,1.56-.06,2.35,0h0a3.62,3.62,0,0,1,.75,0h.47c.12,0-.76-.09,0-.12l.46-.06c.34,0,.71,0,.73-.12h0s0,0,0,0a.66.66,0,0,0-.23,0h-.54c-.46,0-1,0-1.42.06a5.4,5.4,0,0,0-1.23.06l-.45,0h0a10.85,10.85,0,0,0-1.89,0h0a14,14,0,0,0-2.16.05h-.24l-.49.05a2.7,2.7,0,0,0-1-.05l-.92.06-.5.05c0-.12-.41-.11-.71-.13H156s0,0,0,0A1.38,1.38,0,0,0,156.18,23.66Zm8.15,0a0,0,0,0,1,0,0h.4c.32.06.27.12,0,.16s-.37,0-.42-.09Z"/><path class="cls-1" d="M134.5,23.54c-1.66.09-3.35,0-5,.09A34.84,34.84,0,0,0,134.5,23.54Z"/><path class="cls-1" d="M208.53,23.31l0,.1h.61a2.43,2.43,0,0,1,.85,0h.11l.37,0h1.4a3.09,3.09,0,0,1,.55,0h.13c1-.05,1.91,0,2.86,0l0-.06h-3.6l.24-.06h.24l.26-.11h0l.93-.08h0l.22,0a3.05,3.05,0,0,0,.69,0h1.24a1.72,1.72,0,0,1,.4,0l.09,0h0a.73.73,0,0,0,.38-.15l.07-.08a2.28,2.28,0,0,0-.67,0c-1-.11-2.1,0-3.14,0a.3.3,0,0,1-.08.08.71.71,0,0,1-.22.05h0L211.7,23h-.28l0,0,.17.09c-.12.05-.18.11,0,.17l-.17,0h-.76l-1.47,0h-.68Z"/><path class="cls-1" d="M199.38,23.22a2.08,2.08,0,0,0,.72,0h.28a.07.07,0,0,1,0,.05h.26a.27.27,0,0,0,.19,0,.06.06,0,0,0,0-.05h-.23l-.13,0-.08,0,0,0-.16,0h0l-.08,0h0s0,0,0-.05h-.19a.32.32,0,0,1-.27,0h-.19l-.17.07C199.23,23.16,199.22,23.19,199.38,23.22Z"/><path class="cls-1" d="M209,23.17a1.44,1.44,0,0,0,.68-.11h-.05a.39.39,0,0,1-.14,0l0,0L209,23h0a1,1,0,0,0-.23,0c-.06,0,0,.05.07.08Z"/><path class="cls-1" d="M155,23.6a0,0,0,0,0,0,0s0,0,.05.07h0c.35,0,.69,0,.46-.12l-.09,0h0l-.15,0H155S155,23.58,155,23.6Z"/><path class="cls-1" d="M146.14,23.83l.2,0h0c0,.09-.38.1-.5.17H146c.37,0,.73,0,1.1,0h0a5.1,5.1,0,0,0,1.07,0c-.47,0-.77,0-1.07,0h0s-.05,0,0,0,.51-.05.69-.1h1.14a3.32,3.32,0,0,0,.48,0l.06,0a11.31,11.31,0,0,0,1.66-.06h0l.15,0,.2,0h.11c.25.05,0,.14.27.18h.23l.24,0h.44a.1.1,0,0,0,0-.05c-.21-.07-.64-.08-.72-.18.73.06.81.06.71-.06l0-.05h-1.4a19.17,19.17,0,0,1-2.16.07l-.23,0a8.76,8.76,0,0,0-1.46.05,4.47,4.47,0,0,0-1.46,0h-.2a.23.23,0,0,0-.09.06C145.73,23.82,145.79,23.85,146.14,23.83Z"/><path class="cls-1" d="M221.91,23.1c.2,0,0-.06-.11-.09l-.05,0-.12,0h-.18a.14.14,0,0,1,0,.06v0C221.48,23.11,221.7,23.14,221.91,23.1Z"/><path class="cls-1" d="M207,23.12c.55.06.62.07.72-.07l0-.05h-.23a1,1,0,0,0-.49,0h-.22a0,0,0,0,1,0,0,0,0,0,0,1,0,0h-.68c-.18,0-.39,0-.54,0s-.17,0-.19.09h0C206,23.17,206.51,23.17,207,23.12Z"/><path class="cls-1" d="M173.61,23.18h.93a.09.09,0,0,0,0-.05H173.4l.21.06Z"/><path class="cls-1" d="M144.12,23.83c.11,0,.14,0,.13,0s0,0-.07,0l-.47-.05h0a.14.14,0,0,0,.1.08A.81.81,0,0,0,144.12,23.83Z"/><path class="cls-1" d="M201.1,23.19h1c-.14.07-.14.14.29.11a2.89,2.89,0,0,1,.66,0l.22-.06h0a.13.13,0,0,1,0-.06h.91c.25,0,.57,0,.66-.06s0-.05-.07-.06-.25,0-.32-.07h-.21l-.24.07a7.26,7.26,0,0,1-1,.06h-.07l-.19,0h-.18a8.13,8.13,0,0,0-1.48,0l0,.07Z"/><path class="cls-1" d="M232.65,23.06c-.1-.13-.4-.09-.71-.06A2.54,2.54,0,0,0,232.65,23.06Z"/><path class="cls-1" d="M153.28,23.42a1.6,1.6,0,0,0-.72-.06A2,2,0,0,0,153.28,23.42Z"/><path class="cls-1" d="M138.23,23.6h.66a2,2,0,0,0-.68-.05v.06Z"/><path class="cls-1" d="M77.06,25.49Z"/><path class="cls-1" d="M119.92,24.77h.94a2.61,2.61,0,0,0,.63,0c.21,0,.25,0,.25-.09s0-.06,0-.08h-1.38s0,0,0,.06h0a1.9,1.9,0,0,1-.34,0,1.79,1.79,0,0,0-.41,0l0,0C119.53,24.73,119.65,24.78,119.92,24.77Z"/><path class="cls-1" d="M93.06,25.24h0c.29-.1.84,0,1.14-.11.07.07.28.05.48,0h1.92l.58-.15.1,0H97.2l-.55,0a3.85,3.85,0,0,1-.48,0h-.25l-.45.07a2.58,2.58,0,0,1-.29,0,3.32,3.32,0,0,1-.46,0h-.47l-.09,0-.08,0a1.61,1.61,0,0,0-.49,0l-.33,0h-.11l-.07,0,0,0h-.21v.18h.25Z"/><path class="cls-1" d="M93,25.05Z"/><path class="cls-1" d="M82.79,25.4h1.38c.2,0,.24-.09.45-.07s.36.06.44,0,0-.06-.07-.08l-.35,0H83.25v0H83c.07,0-.28.05-.43.08S82.47,25.35,82.79,25.4Z"/><path class="cls-1" d="M109.93,24.21h.83a2.47,2.47,0,0,0,.7.06l0,0,0-.07h0l.41,0h.23a1.76,1.76,0,0,0,.49.05l0,0h.43a2.12,2.12,0,0,0,.46.08,9.23,9.23,0,0,1,1.29,0c.16,0,.32,0,.47,0l.09,0,.07,0a5.09,5.09,0,0,1,.71-.06l-.09-.05L116,24a1.85,1.85,0,0,0-.4,0l-.24,0h0l-.2,0S115,24,115,24h-.42c-1.06,0-2.13,0-3.18,0h-.18a6.51,6.51,0,0,0-.9-.05l-.06.05h-.35a3.32,3.32,0,0,0-.46,0c-.09,0-.16,0-.15.08S109.63,24.22,109.93,24.21Z"/><path class="cls-1" d="M117.93,24.12h0l.91,0h0l.16,0a.67.67,0,0,0,.27-.08l0,0h-1.61a0,0,0,0,0,0,.05A1,1,0,0,0,117.93,24.12Z"/><path class="cls-1" d="M87.82,24.32a1.32,1.32,0,0,1,.81,0l.12,0a12.81,12.81,0,0,0,2-.06.33.33,0,0,0,.15,0c.62.08,1.3,0,1.95.06a1.11,1.11,0,0,0,.57,0h0c.32,0,.72.06.9-.07h.16a1.83,1.83,0,0,0,.51.06h.72s0,0,0,0l.22,0,.5,0h.24a1.62,1.62,0,0,0,.72-.05,7.58,7.58,0,0,0,1.19.06h.23c.21,0,.52,0,.55-.07s-.29-.08-.48-.1-.68,0-1,0a11.1,11.1,0,0,0-1.92,0,5.52,5.52,0,0,0-.91,0h0c-.7-.07-1.44,0-2.16-.05l-.11,0h0a.37.37,0,0,0-.16,0l-.08,0-.14,0h0l.14,0,.09,0-.19,0,0,0h0l-.68,0a9.68,9.68,0,0,0-1.21,0h-.49l-.09,0-.13,0h-.2l-.18,0,.17,0a1.07,1.07,0,0,0-.25,0c-.4,0-.83,0-1.21,0h-.92l0,.08v0l0,.07h.71Z"/><path class="cls-1" d="M121.5,24a0,0,0,0,0,0,0c0,.11.39.11.73.12l.08,0c.16,0-.08-.1-.1-.16h0a3.78,3.78,0,0,0-.7.05s-.09-.05-.21-.05h0S121.39,24,121.5,24Z"/><path class="cls-1" d="M80.68,24.34a1.53,1.53,0,0,0,.9,0l.23,0h0a.41.41,0,0,1,.19,0l0,0c.28,0,.3-.06.27-.11l-.06-.07h0c-.25,0-.49,0-.7.06a.81.81,0,0,0-.22,0c-.17,0-.23,0-.26.05h0c-.22,0-.39,0-.44.07Z"/><path class="cls-1" d="M120.31,24.09c0-.09-.09-.15-.44-.17h0C119.83,24,119.81,24.09,120.31,24.09Z"/><path class="cls-1" d="M120.81,24.08c.11,0,.28,0,.29,0h-.29a0,0,0,0,0,0,0Z"/><path class="cls-1" d="M104.63,24.23a3.53,3.53,0,0,1,1.09,0,5.17,5.17,0,0,0,1.18,0,2.05,2.05,0,0,0,1.19-.11h0l-.7,0c-.62,0-1.25,0-1.88,0l0,0a9.24,9.24,0,0,1-1.19,0l-.23,0c-.19,0-.31.07-.08.14A1.07,1.07,0,0,0,104.63,24.23Z"/><path class="cls-1" d="M102.39,24.2s0-.06-.09-.07-.23,0-.23,0a.4.4,0,0,0,.16.07A.18.18,0,0,0,102.39,24.2Z"/><path class="cls-1" d="M109,24.05H109a4.13,4.13,0,0,0-.71,0l-.14,0h0A6.42,6.42,0,0,0,109,24.05Z"/><path class="cls-1" d="M108.12,24.08h0Z"/><path class="cls-1" d="M102.9,24.2a1,1,0,0,0,.17,0s0,0-.08,0a.57.57,0,0,0-.19,0C102.72,24.17,102.78,24.2,102.9,24.2Z"/><path class="cls-1" d="M103.44,24.19s0,0,.08,0l-.08,0-.08,0Z"/><path class="cls-1" d="M233.33,23.9h-.19c0,.05,0,.1.1.14a.82.82,0,0,0,.74,0c.09,0,.09-.08.13-.11l-.09,0A2.2,2.2,0,0,0,233.33,23.9Z"/><path class="cls-1" d="M279,28.5h-.13l-.07-.06a1.39,1.39,0,0,0,.5-.06h-2.37a4.15,4.15,0,0,0-.73.06l.07,0h-.07v0c-.47,0-.95,0-1.43,0h-1.49l-3.57,0-.67,0a15.7,15.7,0,0,0-1.69,0,.54.54,0,0,0-.18,0,8.24,8.24,0,0,0-1.79,0h-.39c-.14,0-.25-.07-.27-.12h0a6.76,6.76,0,0,1,.93-.07h1.65v-.11h-.25a.67.67,0,0,0-.2,0h-.29l-.16,0c-.24,0-.52,0-.77,0h-1.41s-.11-.05-.25-.05a3.92,3.92,0,0,0-1.2.05h-.11a1.85,1.85,0,0,0-.61.06l.11,0a1.45,1.45,0,0,0,.37,0h0l.06,0h0l-.06,0,.18,0v.1l-1.26,0h-.93l-.68,0h0a.6.6,0,0,1-.27,0h-.09l-.12,0a.73.73,0,0,1-.36,0,.27.27,0,0,1-.12,0h-.41l.15-.05h.76a.34.34,0,0,0-.16-.05h-.53s-.05,0,0-.05a2.94,2.94,0,0,0-.92-.06s-.07.06-.22.07h0l0,0s.05.05.14.07h0c.09.15-.47.12-.72.17h-.17l-.07,0c-.26-.1-.79-.11-1.1-.19a.49.49,0,0,0-.4.06.82.82,0,0,1-.67,0h-.18l-.54.09a.38.38,0,0,1-.18,0h0l0,0h-.86l-.13,0h-.13l-.07,0h0l-.22,0-.45,0a.42.42,0,0,1-.27,0h-.61c-.27,0-.53,0-.8,0l-.87,0s0,0,0,.05h0s-.06,0,0,0a2.36,2.36,0,0,0-.5.06h-.47l0,0a.43.43,0,0,1-.34,0h-.07l.33,0h.09l-.19-.1,0,0H247s0,0-.05-.05h-.63a2.44,2.44,0,0,1-.39.05c-.41,0-.86,0-1.26,0h-.06c-.19,0-.25.06-.25.11h-.18l-.11,0-.11,0h-.07l-.07,0-.13,0c-.76-.1-1.62,0-2.38-.08v0c.16,0,.16-.07,0-.1h0c-.09-.07.25-.14.05-.21-.85,0-.67.23-1,.34h0c-.54.08-1.2,0-1.73.08h0a3.41,3.41,0,0,0-.78-.05,27.27,27.27,0,0,1-3.26,0,1.47,1.47,0,0,0-.75.1h-.17c0-.06-.06-.1-.3-.11-.47,0-.93,0-1.4,0h-.21a1.57,1.57,0,0,0-.51,0h0a4.83,4.83,0,0,0-.95,0c-.27,0-.52,0-.8,0-1.67,0-3.34,0-5,0a2.52,2.52,0,0,0-.67.08h-.16a9.19,9.19,0,0,0-1.78-.1,17.2,17.2,0,0,1-1.9,0,2.79,2.79,0,0,0-1.31.1h0l-.08-.12H215c-.41,0-.74.05-1.13,0l-.09,0h-.22c-.32,0-.63,0-.94,0l-2.87,0h0a4.06,4.06,0,0,0-.79,0h-3l0,.07,0,.1h0s0,0,0,0v0l0,.06h0a7.84,7.84,0,0,0-1,.05h-.09c-.5,0-1,0-1.53,0h0l-.24.05h-.71c-.4,0-.8,0-1.19,0h-.22l0,.16.23,0h.72l1.2,0a1.48,1.48,0,0,0,.47,0,4.82,4.82,0,0,0,1.2,0h.2a2.54,2.54,0,0,0,.69,0h0l.08,0h.67a1.29,1.29,0,0,0,.73,0h0A12.3,12.3,0,0,0,209,29a2.11,2.11,0,0,0,.71,0h1c.12,0,.23,0,.26-.06h0l.45.05h1a3.27,3.27,0,0,0,1.4.09h0a3.91,3.91,0,0,0,.51,0c.61.07.71,0,.72-.14a1.84,1.84,0,0,1,.6.05,1.42,1.42,0,0,0,.9,0l.65,0c.8-.06,1.59.08,2.39,0s1.44,0,2.15,0h.2c0,.05.09.07.29.08.84,0,1.69,0,2.54,0a6.56,6.56,0,0,0,1.78-.06,2.07,2.07,0,0,1,.51,0c.4,0,.92.12,1.2-.05l.42,0c.41,0,.53,0,.5-.1a1.34,1.34,0,0,0,.2,0h0a3,3,0,0,0,1.4.05s0,0,0,0a.09.09,0,0,1,.06,0,8.42,8.42,0,0,0,1.42,0h0l.39,0a2.34,2.34,0,0,0,1,0h0c.39,0,.74,0,.71-.13h0l-.58-.05h-.11l0,0-.19-.08a1.52,1.52,0,0,0,.45-.08h.25l.28.06H235l.11,0h.2a1,1,0,0,0,.22,0h0a1,1,0,0,1,.51,0h0a1,1,0,0,0,.44.08c.22,0,.47,0,.69,0h.06a0,0,0,0,0,0,0h0a1.62,1.62,0,0,1,.22,0h.3s0,0,0,0h0a1.76,1.76,0,0,1-.27,0h-.22v.05h-1.48l-.2,0h-.06a.24.24,0,0,0-.15,0h0l0,0a3.32,3.32,0,0,0-1,0h0a3.51,3.51,0,0,0,1.38.17h0s0,0,0,0h.19l.19,0-.11,0h0a.88.88,0,0,1,.37-.05,4.16,4.16,0,0,0,1.31.13l.22,0h.25a2.89,2.89,0,0,0,1.22.12c.48,0,.93,0,1.39,0a1.94,1.94,0,0,1,.53-.07h.92l.48-.11h0a4,4,0,0,1,1.43,0h0s0,0,0,0h0a3.23,3.23,0,0,0,.89,0h0a.29.29,0,0,0,.14,0h.11a.05.05,0,0,1,0-.05h.17a1.3,1.3,0,0,0,.78,0h0a3.38,3.38,0,0,1,.9,0l.28.11h.23c0-.07.1-.11.42-.1l0,0,.07.08h.46l.51-.11h.2a4.15,4.15,0,0,0,1.7-.06h.19l.26.05,0-.05.4,0a.66.66,0,0,0,.28,0h.22l.24.06h0s-.19.07-.05.09a.8.8,0,0,0,.38,0l.17-.07h0a3.46,3.46,0,0,0,.72,0h0l.47,0h0a2.67,2.67,0,0,0,.76,0h0l.21-.06h.2c.08.11.36.13.74.12h0a2.69,2.69,0,0,0,.73.06c.2,0,.4,0,.59,0,1.4.06,2.77,0,4.15-.05h0a.47.47,0,0,0,.37,0h0a2.93,2.93,0,0,0,.79,0c.83-.05,1.65,0,2.46,0a4.2,4.2,0,0,0,1.2-.06h.47a5,5,0,0,0,1.18.06,1.76,1.76,0,0,0,.49.05h0c0-.05,0-.09.3-.09s.22,0,.22-.08h0a12.46,12.46,0,0,0,2.59,0,1.25,1.25,0,0,1,.52.05l.65-.07a3.77,3.77,0,0,1,.76,0,4.64,4.64,0,0,0,1.44,0l0-.08h0a3.22,3.22,0,0,1,.9-.05l.12,0h0l-.13,0a3.71,3.71,0,0,0,1.2,0h.05c.17.06.58,0,.72.1h.48l-.21-.2h1.16l-.11,0A2,2,0,0,0,279,28.5Zm-72.13.38h0Zm-.43-.09h0s0,0,0,0v0c.19,0,.51,0,.51,0S206.57,28.8,206.39,28.79Zm3.26-.06Zm.27,0s-.1.05-.22.05v0s0,0,0,0h0a1.58,1.58,0,0,0-.52.05H209l-1.19-.08h0l-.24-.06c-.09,0-.08-.05.31-.06a1.13,1.13,0,0,0,.18,0l-.06,0h0l0,0,.25,0h.44a1.07,1.07,0,0,0,.7.07l0,0h.05l0,0h-.05l.23.05h0s0,0,0,0h.2Zm1,0a.53.53,0,0,1-.49,0Zm4.29.06c-.1,0-.26,0-.25,0l.27,0h.46A1.21,1.21,0,0,1,215.2,28.8Zm1.9,0h0l-.07,0-.15,0h-.71l-.2,0s.06,0,.09,0a3.89,3.89,0,0,0,.59-.09h.47Zm4.7-.23h.09s0,0,0,0S221.74,28.59,221.8,28.57Zm1.08.24c-.18,0-.37,0-.56,0a2.06,2.06,0,0,0-.44,0h-.71a.33.33,0,0,0-.24,0l-.27,0,0,0a2,2,0,0,0-.41-.05h-1.69l-.23-.07h.1c.6-.06,1.2,0,1.81,0h0a15.06,15.06,0,0,0,1.91-.06h.91C223.21,28.75,223.25,28.79,222.88,28.81Zm3,.29-.07,0,.08,0,.06,0Zm1.08-.33v0l-.73.07H226a.33.33,0,0,0-.26,0h-.45l0,0h-.67l-.38,0,.41-.08h.15l.13,0h0l.11,0s0,0,0,0h.42l0,0a0,0,0,0,0,0,0h.24c.39,0,.41,0,.3-.1.31,0,.5.07.81.05a.12.12,0,0,0,.08,0Zm2.36.22-.09,0,.09,0Zm.25-.25h-.08a1.14,1.14,0,0,0-.37.06h0a5.89,5.89,0,0,1-.84,0h-.1v-.06h.08a9.1,9.1,0,0,1,1.29-.05h.06Zm.93,0h0l-.2,0a.26.26,0,0,1-.17,0c-.05,0,0-.05.16-.05v0s0,0,0,0v0h.2Zm1,0v.1H231c-.18,0-.25-.08-.27-.13h0s0,0,0,0h.44a.44.44,0,0,0,.27.05h0Zm5.08-.12s0,0,0,0h0l0,0Zm-1.19.23h0Zm3.79-.08-.49,0h-.23l-.24-.13h.17l.31,0h.68l.07.05h0s.11,0,.09,0A.7.7,0,0,1,239.12,28.73Zm1.45,0h-.19l-.09,0c-.21-.05-.16-.12-.22-.18h.46l.14,0C240.78,28.69,240.84,28.72,240.57,28.76Zm2.71-.08,0,0-.07.05c-.28,0-.5,0-.46-.12h.08a3.47,3.47,0,0,1,.56,0h0Zm4,0h0s0-.05.17-.05Zm30.51-.11h0Z"/><path class="cls-1" d="M268.24,28.27h-.67a.06.06,0,0,0,0,0h0s0,0,0,.05h1.51c.31,0,.61,0,.92,0a4.31,4.31,0,0,0,.72,0h0l.19-.05h-2.38A.48.48,0,0,1,268.24,28.27Z"/><path class="cls-1" d="M271.79,28.33a15.83,15.83,0,0,0,2.3-.11l-2.27,0Z"/><path class="cls-1" d="M63.88,24.44a2.4,2.4,0,0,0,.6,0h.14c.17,0,.44,0,.38-.07s-.39-.06-.63-.05l-.11,0a2.13,2.13,0,0,1-.37,0c-.14,0-.34,0-.32,0A.9.9,0,0,0,63.88,24.44Z"/><path class="cls-1" d="M65.69,24.47c.12,0,.22,0,.21-.06s-.13-.06-.29-.07-.29,0-.26.07A.61.61,0,0,0,65.69,24.47Z"/><path class="cls-1" d="M38.13,28.87c0,.07.26.05.42.05V28.8C38.37,28.81,38.13,28.81,38.13,28.87Z"/><path class="cls-1" d="M48.57,28.35h0s0,0,0,0h-.5l-.21.05a2.3,2.3,0,0,0,.74,0Z"/><path class="cls-1" d="M38.5,28.55s0-.05,0-.07,0,0-.1,0-.1,0-.11,0,0,.05,0,.07h.14Z"/><path class="cls-1" d="M35.92,28.93h-.23s-.09,0-.06,0l.07,0a.44.44,0,0,0,.24-.06c.14,0,.22,0,.23-.06.3,0,.45.26.94.05.3,0,.64.06.73-.05s-.35,0-.53-.08-.41,0-.44.07a3,3,0,0,0-.71-.06v0h0v0A.43.43,0,0,0,35.92,28.93Z"/><path class="cls-1" d="M254.15,23.15v0h-.06c-.55,0-1.11,0-1.67,0-.37,0-.74,0-1.1,0h0c-.17,0-.47,0-.48.1h3.35A0,0,0,0,0,254.15,23.15Z"/><path class="cls-1" d="M245.38,23.17a11.08,11.08,0,0,0,1.27,0c-.41-.07-.82,0-1.09-.09h-.24S245.05,23.15,245.38,23.17Z"/><path class="cls-1" d="M248.65,23.15h0a0,0,0,0,1,0,0,6,6,0,0,0-1.29.05h1.26S248.65,23.16,248.65,23.15Z"/><path class="cls-1" d="M250.09,23.12h0c-.11,0-.19,0-.2.05S250.09,23.16,250.09,23.12Z"/><path class="cls-1" d="M235.75,23.71l-.08.06h-.16l0,.08v.05a1.56,1.56,0,0,0,.7.1.51.51,0,0,1,.27-.06l.06,0v0a.72.72,0,0,0-.52-.18l0,0h-.25Z"/><path class="cls-1" d="M39.23,28.39a3.43,3.43,0,0,0,1,0c.67.06,1.23-.1,1.89-.07h0a.51.51,0,0,1,.21,0h0a1.77,1.77,0,0,1,.46,0,.67.67,0,0,0,.27,0h.71l.72-.06a.94.94,0,0,0,.61-.09c.07-.08.06-.15.12-.23s.28,0,.46,0H46a1.66,1.66,0,0,0,1.15.29c.25,0,.58.12.77,0h.23l.46,0,2.17,0h0l.48,0h.11a2.36,2.36,0,0,1,.62.05.53.53,0,0,1-.21.06l-.27,0v0a11,11,0,0,0,1.15,0h0l-.12-.06,0,0,0,0a.42.42,0,0,0,.27-.12h.05a2.81,2.81,0,0,0,.58,0h.06l.08,0,.11,0a3,3,0,0,0-1.15,0h-.67c-1-.08-2,0-2.91-.05a.05.05,0,0,1,0,0h-.12l-.09,0s0,0,0,0h0c-.18,0-.35,0-.42,0h0a.65.65,0,0,0-.3-.06c-.29,0-.39,0-.39.11l-.08,0a.87.87,0,0,1-.22,0c-.64-.12,0-.17.19-.25a5.92,5.92,0,0,1-1.21-.25c-.21-.06-.06-.1,0-.15h0c-.19,0-.34-.11-.55,0a2.45,2.45,0,0,1-.53.15c-.83.16-.82.17-.55.39a1.67,1.67,0,0,1-.89-.13c-.48-.11-1.22,0-1.81-.09a3.52,3.52,0,0,0-.69.16h-.24c-.31.06-.48,0-.46-.07s.2-.07.38-.05l.13,0c.49-.12.35-.2-.47-.27l-.08,0-.26,0-.1,0c-.06,0-.05.08-.07.13s-.05.08-.17.11.05.07,0,.08c-.65.11-.23.24-.1.36l.08.09a5.25,5.25,0,0,1-.73.06A.84.84,0,0,0,39.23,28.39Zm3.44-.4h0l-.05,0h.22c.42,0,.74-.08,1.15-.07h0c-.07.08.54.09.28.19h-.2l-.39,0h-.39L42.58,28h.13Zm-.62-.21a.61.61,0,0,1,.29.07.1.1,0,0,1,0,0h0c-.39,0-.43-.06-.52-.13Z"/><path class="cls-1" d="M38.91,28.08a2.23,2.23,0,0,0-.27,0l.25,0c.13,0,.26,0,.2,0A.5.5,0,0,0,38.91,28.08Z"/><path class="cls-1" d="M281.67,26.2h0a.66.66,0,0,0-.5,0l-.43,0v0l0,.08h0a1.86,1.86,0,0,0-.78,0,.7.7,0,0,1-.45,0h0l-.19,0a.91.91,0,0,1-.51-.11h-1.18c-.22,0-.21-.07-.26-.11h-.22a1.61,1.61,0,0,1-.22,0,.3.3,0,0,1-.18,0h-.09l-.16,0,.06,0,.09,0s0,0,0,0h0a5.58,5.58,0,0,1-1,.1l-.18,0h0l-.05-.06,0-.05a4.39,4.39,0,0,0-1.09,0,3,3,0,0,0-1,0c-1.13,0-1.19,0-1.24.2v0h0a4.09,4.09,0,0,1,1,0,2,2,0,0,0,1.31.1,1.23,1.23,0,0,0,.29-.08,1.76,1.76,0,0,0,.78.1l.48-.06h.5s-.1.1.14.12a.4.4,0,0,0,.31,0c.4-.06.9,0,1.28-.05h0l.66,0c.54,0,1.05-.1,1.63-.11h0a.46.46,0,0,0,.28.05h.22a3.49,3.49,0,0,0,.53,0,7.28,7.28,0,0,1,2,.08h0C283.13,26.2,283.12,26.2,281.67,26.2Zm1,.14Z"/><polygon class="cls-1" points="284.05 26.2 284.05 26.2 284.05 26.2 284.05 26.2"/><path class="cls-1" d="M281.88,26.05h.05l.18,0c-.25,0-.52,0-.76,0A2.42,2.42,0,0,0,281.88,26.05Z"/><polygon class="cls-1" points="282.12 26.02 282.12 26.02 282.12 26.02 282.12 26.02 282.11 26.02 282.12 26.02 282.12 26.02"/><path class="cls-1" d="M61.73,24.39h-.48A.51.51,0,0,0,61.73,24.39Z"/><path class="cls-1" d="M150,29.46a.85.85,0,0,0,.46-.05A1.22,1.22,0,0,0,150,29.46Z"/><polygon class="cls-1" points="110.03 29.77 110.03 29.77 110.02 29.77 110.03 29.77"/><path class="cls-1" d="M106.73,30.07s.07.05.18.06l-.1-.07Z"/><polygon class="cls-1" points="106.91 30.13 106.91 30.13 106.91 30.13 106.91 30.13 106.91 30.13"/><path class="cls-1" d="M110,29.77h0Z"/><path class="cls-1" d="M22.26,29.82c-.23,0-.47,0-.71,0h-.44l-.4.05h-.13a2.72,2.72,0,0,0,1,.06,2.93,2.93,0,0,1,.67,0c.19,0,.42,0,.46,0S22.43,29.83,22.26,29.82Z"/><path class="cls-1" d="M59.45,25.47h.14c.18,0,.3-.06.21-.11a.9.9,0,0,0-.3,0c-.22,0-.15.08-.11.12Z"/><path class="cls-1" d="M61.22,25.41s0,0,0,0-.06,0-.09,0,0,0,0,0A.14.14,0,0,0,61.22,25.41Z"/><path class="cls-1" d="M91.33,30c-.12,0-.19,0-.18.06s0,.07.19.08.25,0,.25-.07S91.53,30,91.33,30Z"/><path class="cls-1" d="M251.54,28.93h0Z"/><path class="cls-1" d="M251.65,29s0,0-.11,0l0,0Z"/><polygon class="cls-1" points="270.34 24.96 270.26 24.96 270.29 24.98 270.34 24.96"/><path class="cls-1" d="M236.24,23.19h1.91c1,0,2.08,0,3.12,0a3,3,0,0,1,.52,0H242l.17,0h.08l.25,0h.13c.69,0,1.4,0,2.08,0-.74,0-1.46-.06-2.2,0h0l-.23,0-5.81,0a1.92,1.92,0,0,0-.63.07h.49Z"/><path class="cls-1" d="M20.86,29.59v-.06h-.45A.78.78,0,0,0,20.86,29.59Z"/><path class="cls-1" d="M202.06,28.68h.39a3.79,3.79,0,0,0,.78,0h0s0,0,0-.06h.47v0h0l.24,0v-.05h0v-.05h-.42a0,0,0,0,1,0,0v0h-1.68a1.52,1.52,0,0,0-.52.05l-.23.06a3.14,3.14,0,0,1-.55,0l-.14,0c-.14,0-.2.09-.11.13l.12,0h.17l.15,0C201.14,28.67,201.61,28.69,202.06,28.68Z"/><path class="cls-1" d="M199,28.62a1.14,1.14,0,0,0-.61.05l-.08,0,1.1,0C199.27,28.66,199.14,28.63,199,28.62Z"/><path class="cls-1" d="M69.16,24.43h0a4.1,4.1,0,0,0,.7,0c.28,0,.46,0,.51-.06h0a2.58,2.58,0,0,1,.68,0c.8,0,1.61-.06,2.4,0h0l0,0h1.2c.4,0,.46-.09.44-.17h-.91l-.25,0H73c-1,0-1.93,0-2.88.05h-.42a.47.47,0,0,0-.33,0H68.2l0,0a0,0,0,0,0,0,0h0l0,.07C68.47,24.45,68.85,24.39,69.16,24.43Z"/><path class="cls-1" d="M247.94,24.63Z"/><path class="cls-1" d="M247.79,24.64h-.08c-.17,0-.38,0-.46,0s0,0,.07,0a1,1,0,0,0,.4,0h0a.68.68,0,0,0,.19,0s0,0,0,0h-.15Z"/><path class="cls-1" d="M45.7,24.82h0l.09,0c.25-.06.1-.09-.24-.11h0C45.43,24.75,45.51,24.79,45.7,24.82Z"/><path class="cls-1" d="M32.1,29l.48-.05L33,29h.08c.35-.1-.07-.07-.22-.08l-.08,0h0a7.91,7.91,0,0,0-.85.06c-.48,0-.24.07,0,.12Z"/><path class="cls-1" d="M34.5,29c.09,0,.22,0,.33,0l-.34-.11h0C34.35,28.9,34.23,28.94,34.5,29Z"/><path class="cls-1" d="M37.51,27.89l-.7-.23c-.46.06-1,.1-.86.28.4.13,1.16,0,1.6.18a1,1,0,0,0,.47-.06l.32-.15c.23-.05.34-.09,0-.14h0a.44.44,0,0,0-.3-.05h-.21C37.5,27.75,37.64,27.83,37.51,27.89Z"/><polygon class="cls-1" points="42.84 30.37 42.84 30.37 42.83 30.37 42.84 30.37"/><path class="cls-1" d="M41.19,30.19h0l-.11,0,.12,0Z"/><path class="cls-1" d="M269.68,29h0Z"/><path class="cls-1" d="M96.62,29.84h-.21s0,.07.06.09l.17,0,0-.11Z"/><path class="cls-1" d="M98,29.82H96.89l.19.06h0l.26.05a2.81,2.81,0,0,0,1-.12H98Z"/><path class="cls-1" d="M30.9,29.77h-.21l-.08,0h-.37a7.21,7.21,0,0,1-.94.05H27.77l-.08,0a.14.14,0,0,1-.09,0h-.3a5.68,5.68,0,0,1-.94.05H25.17l-.24,0h0a2,2,0,0,1-.67,0h0c-.11.06-.25.12-.21.19s0,0,0,0h0l0,0S24,30,24,30c-.2,0-.38,0-.42.07h-.3l0,0h0l0,0c-.08,0-.14,0-.14,0l.16,0,0,.07h0a2.19,2.19,0,0,1,.92,0,.56.56,0,0,0,.7-.16l1,.1h0L26.1,30A14.35,14.35,0,0,0,27.72,30c.58,0,1.16,0,1.74,0a2.85,2.85,0,0,0,.89,0c.31-.12.41,0,.59,0h.21s0,0,0,0v0Z"/><path class="cls-1" d="M34.73,30l.86.05.32-.06h0l.18,0h0l.06,0h.45c.19-.05.31-.21.69-.05a.58.58,0,0,0,.41,0c.13,0,.29,0,.29-.08s-.13-.06-.27-.07h0a4.54,4.54,0,0,1-.66-.05h0l-.69.06a.92.92,0,0,0-.47,0H34.28a.05.05,0,0,1,0,0,12.64,12.64,0,0,0-1.74,0s-.33,0-.33,0,.23.07.4.09h.24a1,1,0,0,1,.26,0C33.59,29.92,34.19,30,34.73,30Z"/><path class="cls-1" d="M31.13,29.93a.24.24,0,0,0,.17,0l-.16,0S31.15,29.92,31.13,29.93Z"/><polygon class="cls-1" points="31.77 29.85 31.69 29.86 31.76 29.87 31.77 29.85"/><path class="cls-1" d="M77.54,24.21Z"/><path class="cls-1" d="M77.85,24.29s.1,0,.09-.05a1.47,1.47,0,0,0-.39,0S77.67,24.29,77.85,24.29Z"/><path class="cls-1" d="M75.58,24.34l-.09-.05-.08,0s0,0,0,.05A.23.23,0,0,0,75.58,24.34Z"/><path class="cls-1" d="M53.34,30.52c-.29,0-.59,0-.9,0H52.2l.18.1h.94s.13-.05.13-.07S53.42,30.52,53.34,30.52Z"/><path class="cls-1" d="M281,28.5h-.11l-.3,0,.28,0,.29.05h0l.11,0C281.42,28.52,281.22,28.51,281,28.5Z"/><path class="cls-1" d="M280.42,28.37a1,1,0,0,1-.2-.05l-.41.05h-.07s0,.08.18.11H280v0h0v0c.18,0,.17,0,.07,0H280l.48-.12h-.06Z"/><path class="cls-1" d="M279.74,28.62v.06h0c.1,0,.27,0,.27,0S279.85,28.63,279.74,28.62Z"/><path class="cls-1" d="M30.34,29.05h.08c.27,0,.47,0,.43-.11H30.7c-.27,0-.44,0-.5.1l.14,0Z"/><path class="cls-1" d="M31.86,30.19h-.09c-.09,0-.13.05-.12.07a.08.08,0,0,0,0,0h.43l.06,0a.87.87,0,0,0,.36-.1h-.66Z"/><path class="cls-1" d="M26.84,29.17h0Z"/><path class="cls-1" d="M70.08,30.45h0c-.86,0-1.73.07-2.59,0h0a2.51,2.51,0,0,0-1,.06,1.67,1.67,0,0,1-.63,0,1.29,1.29,0,0,0-.48,0l-.46,0h0l-.24,0-.18,0a9.72,9.72,0,0,0-1,.08h0l-.14,0a3.69,3.69,0,0,0-.81-.08h-.24l-.49-.06h-.21l-.05.12h0a5.63,5.63,0,0,0,1,.06v0h.95l.09.07h.64a1.94,1.94,0,0,0,.71-.05c.32,0,.64.05,1,0l1.33-.05h.08l.06,0h.22l.47,0h0a.09.09,0,0,1,0-.05h0l1.19,0h0l.11,0h.11a2.74,2.74,0,0,1,.59,0h0l.85,0C70.71,30.46,70.22,30.53,70.08,30.45Z"/><path class="cls-1" d="M85.39,24.27a.5.5,0,0,0,.24.05h0s0,0,0,0,0,0,0,0h-.27l-.08,0h0l-.16-.08h-.65a.06.06,0,0,0,0,.07C84.6,24.34,85,24.29,85.39,24.27Z"/><polygon class="cls-1" points="193.92 28.85 193.92 28.85 193.92 28.85 193.92 28.85"/><path class="cls-1" d="M28.49,29h0v0h0a4.17,4.17,0,0,1,.73,0h0a1,1,0,0,0,.34.06h.14c.28-.14.05-.18-.47-.18L29,28.93h-.06a1.16,1.16,0,0,0-.45.05h0Z"/><path class="cls-1" d="M23.24,29.24s0,0,0,0,.18-.1.49-.06h.48l1,0h.22c0-.09-.32-.11-.5-.17h-.17l-.31.07H24.3a2.62,2.62,0,0,0-.56,0H23c-.13.05-.28.1-.25.17h.47Z"/><path class="cls-1" d="M258.94,24.63h-.21A.16.16,0,0,0,258.94,24.63Z"/><path class="cls-1" d="M258.24,24.75c.16,0,.18,0,0-.06A.13.13,0,0,0,258.24,24.75Z"/><path class="cls-1" d="M26.84,29.17l.11,0,.12,0h0l.08,0a5.75,5.75,0,0,1,.64-.05l.07,0h0L28,29a3.84,3.84,0,0,0-1.14-.06h0s0,0,0,.05H26.6v.17h.24Z"/><polygon class="cls-1" points="24.22 29.17 24.22 29.17 24.22 29.17 24.22 29.17"/><path class="cls-1" d="M207.45,24.44a1.38,1.38,0,0,0,.47,0c0-.06-.18-.08-.37-.1a.46.46,0,0,0-.32.05C207.18,24.41,207.26,24.44,207.45,24.44Z"/><path class="cls-1" d="M206.43,24.11l-.19-.07c-.06,0-.15,0-.16.07s0,.08.18.07S206.37,24.14,206.43,24.11Z"/><path class="cls-1" d="M207.53,24.14s0,0-.08,0l-.14,0s.05,0,.08.05Z"/><path class="cls-1" d="M228.13,28.32h.19A.15.15,0,0,0,228.13,28.32Z"/><path class="cls-1" d="M223.59,28.32c.2,0,.18,0,0-.06A0,0,0,0,0,223.59,28.32Z"/><path class="cls-1" d="M247.92,25.79h.15a.31.31,0,0,0,.16-.06,1.43,1.43,0,0,0-.45,0s-.09.08,0,.1Z"/><path class="cls-1" d="M79,27.37a.27.27,0,0,0-.09,0l0,0H79Q79.12,27.37,79,27.37Z"/><polygon class="cls-1" points="77.04 27.59 77.04 27.59 77.04 27.59 77.04 27.59"/><path class="cls-1" d="M242.14,28.28l0,0h.11q.14,0,0,0Z"/><path class="cls-1" d="M86.55,25.64h-.46l-.46,0h0a.79.79,0,0,1-.22,0h0a.71.71,0,0,1-.22.05h-1a11,11,0,0,0,1.64.06l.22-.05h.07l.07.05h0c.52,0,1.09,0,1.59-.05a7.67,7.67,0,0,1,1,0h2.63a2.24,2.24,0,0,0,.66,0,1.26,1.26,0,0,0,.25-.07h-.21a2,2,0,0,0-.73,0h0a24.39,24.39,0,0,0-3.42,0h-.82l.19-.11h-.69l0,.06h0s0,0,0,0Z"/><path class="cls-1" d="M190.75,28.31h0a1.05,1.05,0,0,0-.4-.06h0l-.4,0-.42,0-.36,0a.43.43,0,0,1,0,.05h.45l.87-.05Z"/><path class="cls-1" d="M188.89,28.37h0l-.06-.12h0l0,0-.2,0h-1.41l-.17,0-.08,0h0l0,0h0l0,0h-.19v0h-2.35c-.43,0-.4.05-.26.12h.44v0h0a2,2,0,0,1,1.15,0h.72a3.93,3.93,0,0,0,1,0,3,3,0,0,1,.7-.12v.06h.1a2.25,2.25,0,0,0,.59,0Z"/><path class="cls-1" d="M253.45,28.32a.21.21,0,0,0,0-.06h-.68a.13.13,0,0,0,0,.06h0l.2.05h.47v-.05Z"/><path class="cls-1" d="M254.65,28.26h-.24l0,0h0l0,.07c.49,0,.36-.06.25-.12Z"/><path class="cls-1" d="M88,27.22h0a2.38,2.38,0,0,0-.72.05,3.91,3.91,0,0,0,.85,0l.1,0-.19,0Z"/><path class="cls-1" d="M206.62,28.25h.2l-.1-.08c-.13,0-.1,0-.1.07Z"/><path class="cls-1" d="M150.16,28.48a2.49,2.49,0,0,0-.86,0H149c-.13.05,0,.06.17.06s.6,0,.89,0h.14l0-.06h0Z"/><path class="cls-1" d="M88,27.08A.36.36,0,0,0,88,27H88c-.59-.09-.75-.06-.81.12h0C87.7,27.17,87.84,27.17,88,27.08Z"/><path class="cls-1" d="M153.33,28.43h.16A.22.22,0,0,0,153.33,28.43Z"/><polygon class="cls-1" points="142.76 23.9 142.75 23.9 142.75 23.9 142.76 23.9"/><path class="cls-1" d="M123.89,24.08V24l.24.05a1.48,1.48,0,0,0,.63.06l.31,0H127a6.17,6.17,0,0,1,.67.06.38.38,0,0,1,.17.06h0a.48.48,0,0,1,.14-.06,2.45,2.45,0,0,1,.45-.05h.24s0,0,0,0l.49,0h.24V23.9h.05a1.9,1.9,0,0,0,.45.1h.7l.19,0,.32,0a4.28,4.28,0,0,1,.52,0l.17,0a.07.07,0,0,0,0,.06h.71a.59.59,0,0,1,.47,0l0,.1h0l1.16,0h0l-.12,0h0c-.19,0-.47,0-.66-.05l1-.1h.23V24h.25l.1,0a7.8,7.8,0,0,0,1.08,0c-.15.08-.08.12.07.16l.46.06h.14s0-.05,0-.07a.23.23,0,0,0-.09-.06l-.07,0a2.72,2.72,0,0,1,.91.09,4.11,4.11,0,0,0,.55.07h.12a.88.88,0,0,1,.24,0h1a2.87,2.87,0,0,0,.45,0,3.35,3.35,0,0,1,1.76-.16h.14a1.88,1.88,0,0,0,.53-.06h.45c-.07,0,.32-.13-.22-.11l-.15,0,.15,0-.42,0-.13,0a3,3,0,0,0-.6,0h0l-.05,0-1.43,0h-.42a.88.88,0,0,1-.38.06h-.24c-.1,0,0,.06.14.09h0c0,.21,0,.21-1,.18,0-.05.2-.08.26-.12s0,0,0,0c.2-.05.3-.09.14-.11h-.27a1.78,1.78,0,0,1-.61,0H134a.3.3,0,0,1-.1.05h0a.32.32,0,0,0-.17,0H133a4.24,4.24,0,0,1-.74-.05h0c-.58,0-1.19,0-1.76,0a5.3,5.3,0,0,1-.81,0,.1.1,0,0,0-.06.05h0c-.12,0-.22,0-.22.06a7,7,0,0,0-1.14,0l0,0h0a1.36,1.36,0,0,1-.51,0h0l-.68,0c-.55,0-1.11,0-1.65,0h0a3.54,3.54,0,0,1-.75-.05h-.13l-.09,0h-.47s0,0,0,.05h0l-.15,0s0,0,0,0S123.77,24.07,123.89,24.08Zm15.57-.14h0v0h.18s0,.08-.19.1Z"/><path class="cls-1" d="M141.53,24.08h0s0,0,0-.06h-.09l-.23,0A.61.61,0,0,0,141.53,24.08Z"/><polygon class="cls-1" points="169.06 23.78 169.06 23.78 169.05 23.78 169.06 23.78 169.06 23.78"/><path class="cls-1" d="M169,23.76h-.08l.11,0S169,23.76,169,23.76Z"/><path class="cls-1" d="M153.73,23.82h.32c.06-.06.14-.12.08-.18l-.08,0a4.38,4.38,0,0,0-.52,0h-.17C153.22,23.72,153.31,23.79,153.73,23.82Z"/><path class="cls-1" d="M153.3,24h.21l-.1,0Z"/><path class="cls-1" d="M206.77,23.31h-.09l-.33.05h0s0,0,0,0v0H207s0,0,0,0Z"/><path class="cls-1" d="M197.78,23.48h2.1c.68,0,1.39,0,2.07,0h.14a3.09,3.09,0,0,0,.68,0c.15,0,.31,0,.47,0h2.83s0,0,0,0h-.68c-.48,0-1,0-1.46,0h-3.12a1.45,1.45,0,0,1-.51.05h-1.89A2.05,2.05,0,0,0,197.78,23.48Z"/><path class="cls-1" d="M216.15,23.23l-.09,0-.14,0,.26.07h.19C216.42,23.3,216.36,23.26,216.15,23.23Z"/><path class="cls-1" d="M216.91,23.35h.15l1.47,0h.06c.28,0,.57-.05.86-.06h1l1,0h0l.43,0h.24a.31.31,0,0,1,.25,0h.24a.27.27,0,0,1,.25,0h.2l.26-.05h5.92a4.23,4.23,0,0,0-.89,0v-.05h-.23a0,0,0,0,0,0,0h0a.14.14,0,0,1,0-.06,14,14,0,0,0-1.45,0c-.69-.06-1.41-.06-2.13-.07h-.25a.4.4,0,0,1-.13,0h0l.13,0h-1.43l-.11.07-.1.06h0a2.94,2.94,0,0,0,.69.05v0s0,0,0,0h0v0l-1.68,0h0c-.32,0-.56.06-.88.05h-.06l0-.1h0c.44,0,.38-.08.23-.11l-.3-.07h-.24l-.18.07h0l-.07,0h0c-.16,0-.33-.06-.46,0h-.24V23a11.45,11.45,0,0,0-1.66,0v0h-.64c-.15,0-.26,0-.22.1s.36.07.57.06.67,0,1-.06l.21,0,.24.1h-1.63c-.32,0-.56,0-.47.1Z"/><path class="cls-1" d="M230.21,23.23h0a2.94,2.94,0,0,1,.45-.05H231a.85.85,0,0,0-.35-.06h-.8s0,.06,0,.08A1.21,1.21,0,0,0,230.21,23.23Z"/><path class="cls-1" d="M231.8,23.19a2.12,2.12,0,0,1,.44,0h.11l.24,0h0v0l0,0h0l0,0h.21l1,0h.23a2.43,2.43,0,0,0,.69-.06h-2.13s0,0,0,0,0,0,0,0h-.09a5,5,0,0,0-1.35.05h.58Z"/><path class="cls-1" d="M114.35,24.68h0a1,1,0,0,0-.51,0c-1,0-1.93,0-2.85.07a4.45,4.45,0,0,0-.73,0,18.54,18.54,0,0,0-2.12.05h0l-.24-.05h0l-.06.05h0c-.3,0-.62,0-.92,0a0,0,0,0,0,0,0,.06.06,0,0,0,0,0v0l0,0,.27-.05h0l.45.05a1.67,1.67,0,0,0,.39,0h.09s0,0,0,0a1.24,1.24,0,0,1,.43,0h1.73a.45.45,0,0,1,.2,0,2.47,2.47,0,0,0,.68,0l.08,0c.78,0,1.56,0,2.33,0l0,0v0h0s0,0,0,0h.2a1.48,1.48,0,0,0,.51-.06h0a1.83,1.83,0,0,1,.34,0,.17.17,0,0,1,.1,0,2.38,2.38,0,0,0,.49.06c.15-.18.65-.08,1-.09a6,6,0,0,0,1.23-.08h.32a3.23,3.23,0,0,0,1.18-.06,1,1,0,0,0-.25-.06,4.09,4.09,0,0,0-.86,0c-.26,0-.51,0-.74,0l-.22,0-.11,0-.36-.05C115.8,24.73,115,24.6,114.35,24.68Z"/><path class="cls-1" d="M149.27,24h.4A.47.47,0,0,0,149.27,24Z"/><path class="cls-1" d="M89.45,25.31h0a15.22,15.22,0,0,1,1.93-.07h0v-.07h0l-.2,0h0c-.78,0-1.57,0-2.33.05h-.06l0,.05H89a.3.3,0,0,0,.15.06,1.68,1.68,0,0,0,.31,0,0,0,0,0,1,0,0Z"/><path class="cls-1" d="M97.86,25h0s0,0,0,0,.36.09.82.06L98.12,25Z"/><polygon class="cls-1" points="97.84 25 97.85 25 97.85 25 97.84 25"/><path class="cls-1" d="M87,25.34v-.1h-.7a4.68,4.68,0,0,0-.66,0c-.06,0-.11,0-.13.08C86.06,25.39,86.55,25.31,87,25.34Z"/><polygon class="cls-1" points="112.66 24.2 112.65 24.2 112.64 24.21 112.66 24.2"/><path class="cls-1" d="M112.66,24.2h0Z"/><path class="cls-1" d="M112.75,24.23l-.08,0h.08Z"/><path class="cls-1" d="M122.66,24s0,0,0,.05.11.06.22.07h.17c.27,0,.4-.05.2-.11l-.14,0h-.48Z"/><path class="cls-1" d="M122.71,24s0-.06-.19,0l.14,0Z"/><path class="cls-1" d="M92.28,25.2h-.14l.07,0Z"/><path class="cls-1" d="M117.16,24.08h0a0,0,0,0,0,0,0h-.29l0,0S117.05,24.08,117.16,24.08Z"/><path class="cls-1" d="M41,27.14l0,0h.12Z"/><path class="cls-1" d="M51.48,25.73s0,0,0,0a0,0,0,0,0,0,0h.09s0,0-.11,0Z"/><path class="cls-1" d="M53.38,25.84s0,0,0,.05h.09S53.48,25.84,53.38,25.84Z"/><path class="cls-1" d="M258.22,25.05h0Z"/><path class="cls-1" d="M30.2,29.54h0l.23.11h.45l.06-.07A1.92,1.92,0,0,0,30.2,29.54Z"/><path class="cls-1" d="M42.15,29H42a2.43,2.43,0,0,0-.49,0l-.13,0s-.18.09-.08.14.07.17.51.17.74,0,.82-.16,0-.05,0-.08h0Z"/><path class="cls-1" d="M45.58,28.14c0,.05.12,0,.22.05l.2,0-.12,0C45.67,28.12,45.6,28.12,45.58,28.14Z"/><path class="cls-1" d="M45.88,28.15Z"/><path class="cls-1" d="M261.39,25.83c.52,0,.69,0,.72-.11a.23.23,0,0,0,0-.13.17.17,0,0,1,0-.05,2.55,2.55,0,0,0-1.22.06l0,0a1.91,1.91,0,0,0,.52.19Z"/><path class="cls-1" d="M260.66,25.64l0,0c-.12,0-.23,0-.25-.06-.17,0-.38,0-.53,0s-.18,0-.2.08.22.11.52.12S260.69,25.71,260.66,25.64Z"/><path class="cls-1" d="M264.09,25.55s0,0,.09,0,.22,0,.21,0l-.14,0A.76.76,0,0,0,264.09,25.55Z"/><path class="cls-1" d="M265.77,25.53l.08,0-.07,0s-.06,0-.07,0Z"/><path class="cls-1" d="M259.07,25.93,259,26h0c.35,0,.79.14.93-.05h-.15A3.48,3.48,0,0,0,259.07,25.93Z"/><path class="cls-1" d="M260.78,26c.3,0,.12-.07.08-.1h-.46C260.41,26,260.51,26,260.78,26Z"/><path class="cls-1" d="M197.69,28.6a1.58,1.58,0,0,1-.45-.08h0l-.2,0h-.43s0,0,0,0h.17a1.41,1.41,0,0,1,.49.08l.09,0h0l.2,0,.15,0,.09,0h0C198,28.69,198.29,28.63,197.69,28.6Z"/><path class="cls-1" d="M45.93,30s0,0,0-.06h-.23a0,0,0,0,1,0,.05h.19Z"/><path class="cls-1" d="M187.94,28.62h0Z"/><polygon class="cls-1" points="192.25 28.62 192.25 28.62 192.25 28.62 192.25 28.62"/><path class="cls-1" d="M193.92,28.63a1.84,1.84,0,0,0-.46-.06h-.17l0,0c-.13,0-.55,0-.44.08a1.07,1.07,0,0,0,.24.06,5.77,5.77,0,0,1,.72,0h0l.14-.05h.7s0,0,.06,0h.44a6.24,6.24,0,0,1,1-.07,3.59,3.59,0,0,0,.63.08h0s0-.06,0-.08a.09.09,0,0,0-.06,0l-.13-.05h-1.23v0h0l0,0h-.46l0,0h0l0,0h0l-.28,0-.46,0Z"/><path class="cls-1" d="M101.13,28.25a.38.38,0,0,0-.14-.05H99.56A10.2,10.2,0,0,0,101.13,28.25Z"/><path class="cls-1" d="M98.26,28.31s0,0,0,0H97.11v0h0v0h1.15Z"/><path class="cls-1" d="M182.4,28.43h0c.13-.1.06-.17-.43-.17l-.72,0a1.15,1.15,0,0,0-.53,0l-.42,0,0,.05h-.72l-.21.05h1l.21,0h1.87Z"/><path class="cls-1" d="M182.91,28.28c-.28,0-.11.08,0,.11h.24C183.18,28.33,183.16,28.26,182.91,28.28Z"/><path class="cls-1" d="M184.32,28c-.14,0-.33,0-.28,0a.85.85,0,0,0,.32,0h0Z"/><path class="cls-1" d="M184.36,28h0Z"/><path class="cls-1" d="M205.39,28.61l-.47,0,0,0h0l0,0h.44l.14,0c.06,0,0,0-.09-.05Z"/><path class="cls-1" d="M198.7,28.2l-.2,0a.37.37,0,0,0-.27,0s0,.05.08.07l.37,0Z"/><path class="cls-1" d="M253.92,28.32v.06h.24v0h0v0h-.24Z"/><path class="cls-1" d="M144.44,28.74s0,0,0-.06C144.23,28.7,144.25,28.72,144.44,28.74Z"/><path class="cls-1" d="M83.5,28.55h-.23c-.37,0-.74,0-1.11,0h-.07l-.51.1s0,0,0,0,0,0,0,0h0c.81,0,1.62,0,2.41-.05h2.1c0-.08-.11-.11-.28-.12h-.66l-.23,0h-.07l-.22-.05h-.16a.26.26,0,0,1-.15.06,1.47,1.47,0,0,1-.41,0h-.21l0,0-.24,0Z"/><path class="cls-1" d="M207.49,23.37l-.15,0H208l-.17,0A.71.71,0,0,0,207.49,23.37Z"/><path class="cls-1" d="M106.92,24.93h0Z"/><path class="cls-1" d="M106.57,25s.09,0,.14,0c.24,0,.17,0,.2-.08C106.77,24.94,106.6,24.92,106.57,25Z"/><path class="cls-1" d="M106.92,24.93Z"/><path class="cls-1" d="M123,24.6c-.08,0-.24,0-.11.06a2.16,2.16,0,0,0,.3,0h.21a.34.34,0,0,0,.28,0c.27,0,.55,0,.8,0h.14l.17,0h.57l.45,0s0,0,0,0,0,0,0,0l-.31,0,.07,0a.57.57,0,0,1,.28,0h.46l2,0h.39a1.7,1.7,0,0,1,.45,0h.25l.07,0a.53.53,0,0,0,.45,0,.43.43,0,0,1,.18-.05h.74a2.34,2.34,0,0,0,.46,0h1.91a2.72,2.72,0,0,1,.58.11l.2.06h.35l-.15-.06-.27-.11h.51a12.52,12.52,0,0,0,1.37,0h0c0-.06.47-.07.32-.17h-.65c-.59,0-1.18,0-1.76,0l-.26,0h0l-.2,0-.08,0H133l-.09,0a1.34,1.34,0,0,0-.35,0h-.06s0,0,0,0l0,0-.07.06c-.26,0-.54-.05-.81-.06h-.58l-.48,0a11.64,11.64,0,0,0-1.89.07h0a16,16,0,0,0-2.4,0h-.74l-.9,0h0s0,0,0,.05h-.71a5.48,5.48,0,0,0-.91,0Zm10.74-.18h0Z"/><path class="cls-1" d="M99,24.93a.08.08,0,0,0,0,.08c.08.07.3.09.69,0h1c.32.05.64,0,1,0a3.36,3.36,0,0,0,1.06.08c.62,0,1.21,0,1.81,0h0v-.08h.71a.06.06,0,0,0,0-.05h0a2.45,2.45,0,0,1,.54,0l.15,0c.18,0,.22-.06.22-.11s0,0,0-.06h-1.65a3,3,0,0,1-.48.05h-.27l-.49,0h-.17a5.21,5.21,0,0,0-.79,0,6.94,6.94,0,0,0-1.12,0l-.49,0-.14,0-.36,0-.47.07h0A5.77,5.77,0,0,0,99,24.93ZM102,25Z"/><path class="cls-1" d="M54.77,28h0A3.23,3.23,0,0,0,56,28l.1,0a5.42,5.42,0,0,0-1.46-.11.06.06,0,0,0,0,.07A.3.3,0,0,0,54.77,28Z"/><path class="cls-1" d="M56.72,28.08l0,.1h.2v-.11s.08,0,.16,0h.31l.27,0h0v0h0l-.05-.09h-.41l-.46.07-.12,0C56.41,28,56.48,28,56.72,28.08Z"/><path class="cls-1" d="M54.11,28l0,0-.22,0h-.06a.07.07,0,0,0,0,.06H54Z"/><path class="cls-1" d="M57.62,27.5h-.13l.06,0Z"/><path class="cls-1" d="M52.43,27.42l.2-.07C52.44,27.35,52.39,27.37,52.43,27.42Z"/><path class="cls-1" d="M57.84,27.33l.07,0C57.82,27.29,57.7,27.29,57.84,27.33Z"/><path class="cls-1" d="M57.91,27.29h0Z"/><path class="cls-1" d="M56.69,27.24c-.11,0-.18,0-.13,0h.15Z"/><path class="cls-1" d="M46.2,29.05l-.23.11.23.07h.48v-.12l-.15,0-.19,0Z"/><path class="cls-1" d="M50.06,29.31c0,.05.12.08.27.09a.61.61,0,0,0,.34-.07s-.12-.07-.27-.08S50.08,29.27,50.06,29.31Z"/><path class="cls-1" d="M47.28,28.9l-.13,0,0,.07,0,0h.18c.07-.05.36-.08.19-.14h0A1.17,1.17,0,0,0,47.28,28.9Z"/><path class="cls-1" d="M52.18,28.5H50.72l-.48-.12H48.88l-.32.16c-.7,0-1.45,0-2.14.08a1.46,1.46,0,0,0-.47,0h0l-1.41,0c-.73,0-1.43,0-2.14.05a2.58,2.58,0,0,0-.75,0c-.47,0-.9,0-1.35,0h0a1.19,1.19,0,0,1-.36.07c-.11,0-.17,0,0,.11h.21c.51,0,1,0,1.53,0h.68s0,0,0,0h.08l.15,0h.25a1.08,1.08,0,0,1,.48.06.69.69,0,0,0,.47,0h0c0-.06.3-.07.43-.11h0a3,3,0,0,0,1,0h.17l1.39.06h0c.14-.15.59-.12,1-.11h0a.59.59,0,0,1,.47,0h.28c.26.06-.16.12,0,.18l.49.12h.23s0-.06,0-.09.08-.11.39-.1.36.05.27.1,0,.1,0,.14a3,3,0,0,0,.43,0c.62,0,.79,0,.61-.17s-.16-.11-.1-.17l.26,0a3,3,0,0,1,.42.05l.51.11.2,0c.46-.06.39-.16.1-.26h0l.22,0h.18l.32.11c-.13.08-.44.16-.07.25,0,0,0,0,0,.05a.94.94,0,0,0-.27,0s0,0,0,.06l.07,0h0a.29.29,0,0,0-.16,0,1.55,1.55,0,0,0,.48,0l.11,0c0-.05,0-.07.23-.05l0,0a2,2,0,0,0,.49,0c.55,0,.59,0,.3-.14h0l.35,0c.08,0,0,.12.3.12h.27l0,0,.17,0h0l.1,0v0l0,0h0l-.18,0-.06-.16s0,0-.08,0h-.13l.48-.12h.26l.26.11h.14l.24-.1h0c-.25,0-.29-.16-.74-.11a1.63,1.63,0,0,0-.93,0A22.71,22.71,0,0,1,52.18,28.5Zm2.51.17h-.8C54.12,28.5,54.41,28.63,54.69,28.67Z"/><path class="cls-1" d="M204.23,28.57h0v.1h.2s0,0,0-.06,0,0,0,0A.4.4,0,0,0,204.23,28.57Z"/><path class="cls-1" d="M47.71,30l-.2,0-.2,0,.2,0A1.2,1.2,0,0,0,47.71,30Z"/><path class="cls-1" d="M187.45,28.62h-.2c-.51.11-.14.13.23.14a.1.1,0,0,0,.07,0c.08,0,0-.07-.08-.1Z"/><path class="cls-1" d="M64.59,27.53h0l.07,0h0a.84.84,0,0,0,.19,0h.43s0,0,0,0S64.8,27.56,64.59,27.53Z"/><path class="cls-1" d="M57.64,29.14s0,0,0,0h-.17l.15,0S57.64,29.15,57.64,29.14Z"/><path class="cls-1" d="M57.15,29.11h0a.38.38,0,0,1-.15,0A.12.12,0,0,0,57.15,29.11Z"/><polygon class="cls-1" points="67.58 28.14 67.58 28.14 67.58 28.14 67.58 28.14"/><path class="cls-1" d="M62.36,28.55h.09A2,2,0,0,1,63,28.5h.14a.87.87,0,0,0-.45-.12c-.1,0,0-.09-.22-.11a1.68,1.68,0,0,0-.33.07c-.06,0-.06.05.08.09C62.23,28.48,62.23,28.52,62.36,28.55Z"/><path class="cls-1" d="M63.88,29h0l.16,0a4.52,4.52,0,0,0,.74,0h0a1,1,0,0,0-.33-.05h-.58Z"/><path class="cls-1" d="M64.35,28.92h.25a.31.31,0,0,0-.18-.06h-.28a.06.06,0,0,0,0,.05h.19Z"/><path class="cls-1" d="M65.32,28.93h0V29h.43l0,0h1c.15,0,.2,0,.24,0h.48c0-.05.1-.11-.23-.11H65.32Z"/><path class="cls-1" d="M58.33,29.16l0,0-.07,0h.12Z"/><path class="cls-1" d="M73.57,28.83l-.08,0-.19,0,.08,0Z"/><path class="cls-1" d="M68.9,28.92h0l-.07,0h0l-.06,0-.09,0h-.22s0,0,0,0v0h.46Z"/></svg>