<svg id="Calque_1" data-name="Calque 1" xmlns="http://www.w3.org/2000/svg" viewBox="0 0 174.13 53.62"><defs><style>.cls-1{fill:#f29016;}</style></defs><title>TRAIT 3</title><path class="cls-1" d="M56.92,29.36c-.62,0-.74-.55-.94-.07s-.25-.74-.41-.09c-.18-.24-.35.07-.52.08s-.33-.35-.48.11c-.08-.63-.23,0-.35-.13s-.34.43-.46-.23c-.37,0-.72-.64-1.09-.18-.17.22-.18-.81-.37-.36s-.25.09-.37,0-.33-.15-.46.26c-.08.23-.16.17-.23-.08-.12-.41-.24-.24-.39-.06a.41.41,0,0,1-.58.13c-.48-.3-1-.05-1.42.32a1.13,1.13,0,0,0-.19.19c-.25.3-.4-.79-.69-.31-.2.31-.51.49-.7.26a2.43,2.43,0,0,0-.51-.43c-.19-.14-.35-.18-.46.46-.16.87-.52.82-.79,1.15s-.33.37-.56-.19-.36-.64-.58-.25c0,.07-.11,0-.15.08-.22.39-.45-.31-.69.22-.16.37-.42.4-.64.53-.06,0-.13-.13-.19-.14a.4.4,0,0,0-.32.1,2.32,2.32,0,0,0-.23.45c-.11-.54-.27,0-.4-.12s-.5-.51-.75-.06c0,0-.09-.13-.14-.18s-.23-.34-.29-.24c-.23.35-.48.23-.72.37s-.4-.06-.55.5-.15.28-.48.23a.6.6,0,0,0-.56.29c-.2.28-.38.58-.6.15-.06-.12-.18-.17-.21.24,0,.09,0,.23-.06.23-.22-.07-.46-.36-.66-.21s-.41.28-.58-.3c0,0,0,0,0,0s-.32.13-.47.09-.28-.26-.43-.32-.58-.12-.87-.25a.7.7,0,0,0-.9.23c-.2.24-.44.25-.66.37s-.21.23-.3.17-.26.82-.49.37a1.94,1.94,0,0,0-.46-.65.36.36,0,0,0-.45,0c-.12.08-.2.11-.31-.15-.28-.7-.58-.65-.87,0-.13.26-.23.35-.31-.11s-.27-.55-.43-.55c-.39,0-.77.28-1.17.11-.16.49-.35.1-.52.07s-1.29.16-1.42.37a3.42,3.42,0,0,0-.11.6c-.08.31-.12.55-.32.22s-.48-.52-.75-.18c-.08.12-.21,0-.32-.05-.78-.49-.82-.48-1.51.73-.05.1-.13.13-.19.11a1.47,1.47,0,0,1-.5-.22c-.22-.17-.43-.05-.64.11s-.62,0-.89-.1a.48.48,0,0,0-.62.17c-.27.35-.52.2-.79.14a3.88,3.88,0,0,0-1-.05c-.09,0-.24.33-.25.29-.12-.46-.21.3-.34,0-.06-.12-.2.11-.3.15s-.46.24-.7,0c-.08-.07-.22-.15-.26,0-.26.84-.33,0-.33-.39,0-.57-.37-.82-.17-1.53a6.92,6.92,0,0,1,0-1.64,17.73,17.73,0,0,1,.08-1.79,8.88,8.88,0,0,0,.05-2.58c.11-.5-.14-1.28.17-1.66.11-.14,0-.43,0-.66a11.35,11.35,0,0,1,0-2.1c0-.06.07-.81.3-.58s.33,0,.48.08a.34.34,0,0,0,.34,0c.1,0,.23.2.25-.34,0-.06.08-.13.13-.14.21,0,.43.46.64-.09s.4.05.55-.54c0-.13.21,0,.31,0s.47.2.68-.15c.1-.16.18-.24.23.06.13.8.43.86.63.73.66-.43,1.3,0,1.95.26.07,0,.15.06.21,0,.36-.46.77,0,1.13-.58.11-.17.32.11.48.21s0,.2.06.24c.2.28.45-.21.57,0s.33.35.54.3a1.47,1.47,0,0,1,1.07.07A1,1,0,0,0,28,20.66c.12-.11.22-.14.32,0,.48.52.48.53.86.46.06,0,.12.08.19.14s.19.33.24.26c.37-.57.66.13.94.58.16.26.31.24.46.37s.11-.09.12-.18c0-.37,0-.33.16-.11.19.37.39,1.05.67.46,0-.06.12,0,.15.1.13.54.34.31.51.46s.34.09.44-.53c.06-.35.13-.27.22.14a1.15,1.15,0,0,0,.11.4c.43.35.85.22,1.26-.27.12-.16.23-.58.23.21.25.1.53.44.74.24s.44.49.64.38.4-.45.62-.29a.86.86,0,0,1,.28.44c.23.62.51.36.77.09.08-.08.16-.25.24-.24s.34.21.5.18.3-.35.45-.4.14-.07.19-.35c.13-.61.14-.56.31,0,.06.2.19.4.27.37.38-.15.38-.18.67.22a.13.13,0,0,0,.19,0A6.71,6.71,0,0,0,41.84,23c.14-.15.3-.18.37,0,.37.91.79.41,1.19.42s.4-.1.86.43a.51.51,0,0,0,.33.17c.19,0,.37.27.59,0s.35.38.54.47.35,0,.53-.06.3.27.49,0,.28.11.43.08c.31-.06.65.23.92-.42.2-.47.21.6.37.36a5.66,5.66,0,0,1,.34-.47s.07.11.07.19c.07.69.28.41.38.29s.28-.26.44.11.35.42.4.26c.29-.77.54.13.79,0,.6-.22,1.17.3,1.75.48,0,0,.1.08.11,0,.22-.86.44,0,.66,0s.49.33.76,0c.1-.1.3.28.4.57s.11.14.16-.12a.17.17,0,0,1,.18-.15,1.32,1.32,0,0,1,.39.17c.14.09.33.09.41.34s.25-.38.29.23c0,.05.23.13.29,0,.15-.37.3-.31.47-.23a4.37,4.37,0,0,0,.67.29c.23.08.46.24.63.75s.21.44.26-.17c0-.05.15-.1.17,0,.14.46.27.5.43.14.11.42.24.56.42.27,0-.07.11,0,.15-.05.21-.28.27.86.54.36.13-.24.4.15.6.13s.21.46.36.33.24-.2.36-.17.26.56.47.18.34,0,.48.42c.05.12.15.08.22.11s.19.17.28.11c.24-.19.25,1.46.56.58.19-.53.45.22.62-.36.27.24.58.07.84.61.18.38.47.12.64.69.2-.52.43.06.63-.13,0,0,.09,0,.13-.06,0,.25-.07.49-.11.73a2.83,2.83,0,0,1,.25.24,1.34,1.34,0,0,1,0,.2c-.24.14-.48.24-.72.39s-.2-.84-.42-.3c-.13.31-.26-.07-.37-.33-.25.53-.19-.69-.4-.57s-.23-.05-.11.43a3,3,0,0,1-.07.48,1.92,1.92,0,0,1-.14-.36c-.18-.78-.31-.87-.55-.21-.1.25-.17.31-.22.05-.1-.63-.29-.53-.41-.32s-.29.11-.43,0-.15-.35-.22-.34-.15.25-.23.38-.08.09-.09.05c-.15-.45-.32-.58-.52-.27-.3-.86-.64-.35-1-.15-.16.11-.19-.29-.26-.29s-.19.46-.28.43-.38.08-.5-.46-.34-.68-.57-.31-.5-.12-.72.32c0,0-.1,0-.1-.07-.06-.75-.28,0-.39-.32a.53.53,0,0,0-.4-.32c-.28.08-.56.15-.36.05.55-.33.58-.37.58-.42s0-.28,0-.42c0,0-.07,0-.07,0S57.42,28.89,56.92,29.36Zm5.37-.21v.14s.06,0,.09-.06a1.82,1.82,0,0,0,0-.2,3,3,0,0,0-.15.83,1.19,1.19,0,0,0,0-.26.89.89,0,0,0,0-.32A2.23,2.23,0,0,0,62,29a2.05,2.05,0,0,0,0,.28C62,29.46,62.12,29.65,62.29,29.15Zm-1.95.3a2.09,2.09,0,0,0,.12-.33,1.48,1.48,0,0,0,0-.27l-.21.33Zm1.25-.21c0-.13,0-.26,0-.26s-.1,0-.15,0a1.69,1.69,0,0,0,0,.21A.29.29,0,0,0,61.59,29.24Zm-4-1.47c0-.13,0-.26,0-.27a.28.28,0,0,0-.15,0c0,.07,0,.2,0,.21A.27.27,0,0,0,57.57,27.77Zm-33.78,2a2.44,2.44,0,0,0,0-.26.4.4,0,0,0-.15,0c0,.08,0,.21,0,.22S23.73,29.75,23.79,29.75Zm41,.93,0-.09a.32.32,0,0,0-.07-.13s0,.05,0,.08Zm-2.11-1.16-.08.08s0,.11,0,.11,0,0,.08-.06Zm-.94-.1,0,.09a.32.32,0,0,0,.07.13s0-.05,0-.08Zm-4.61-1.58,0,.13a1.05,1.05,0,0,0,.05-.19.7.7,0,0,0,0-.12Zm-20.65.56a.18.18,0,0,0,0-.09,1.64,1.64,0,0,0,0-.22.18.18,0,0,0,0,.09A1.64,1.64,0,0,0,36.48,28.4ZM121,30.26a1.76,1.76,0,0,1-.13-.5c0-.24.38-.24.42-.06s0,.48.08.69a.33.33,0,0,0,.14.19s.07-.09.08-.17,0-.42,0-.62a2.14,2.14,0,0,1,.07-.38c0,.13,0,.26,0,.4,0,.4.13.32.21.33s.19.25.22.65.08.44-.07.39-.09-.08-.11,0a3.19,3.19,0,0,0-.12.4c0,.08.1.25.12.22a8.19,8.19,0,0,0,.53-.71.44.44,0,0,0,0-.45c-.17-.36,0-.56,0-.83.16,0,.21-.81.43-.47s.34-.54.47.21c0,.07.26.32.25-.17,0-.84.18-.38.27-.38s.28,0,.3.11c.14.6.27-.1.38,0s.34.51.52.68a1.83,1.83,0,0,0,.62.39s.12-.23.17-.36a2.43,2.43,0,0,0-.14-.2l-.54-.57a.78.78,0,0,1,0-.22s0-.09,0-.08c.25.15.5-.34.75,0,.07.19.13.43.2.57s.12,0,.16-.09a.76.76,0,0,0,0-.32c0-.21-.06-.41-.09-.61.11,0,.26-.21.29.38a1.5,1.5,0,0,0,.06.29c.09-.89.32-.3.49-.37a.67.67,0,0,0,.24-.31c.17-.33.12,0,.13.27a.8.8,0,0,0,.05.21,2.1,2.1,0,0,0,.06-.24c0-.4,0-.59.23-.61.36,0,.74.16,1.09-.31.09-.11.24.5.17.68a3.21,3.21,0,0,0-.15,1.38c.24-.15.28-.76.38-1.25s.41-.72.61-1.09c0-.08.21.38.31.62,0,0-.22.22,0,.42,0,0,.13-.22.13-.33,0-.73.26-.68.35-.67a.66.66,0,0,0,.67-.33c.06-.09.18,0,.25.13s.07.29.16.12c.22-.38.45-.23.69-.17a.88.88,0,0,0,.68-.17c.13-.09.24-.14.34.16,0,.05.1.06.11,0,.14-.7.37-.47.6-.54.47-.14.94.05,1.42-.17s.78-.05,1.16-.26l.61-.36c.2-.13.41-.33.61-.35s.43.26.64-.05c.06-.09.18,0,.2-.11.19-1.11.59-.23.85-.71a2.65,2.65,0,0,1,.11.27c.12.21.23.27.35,0,.22-.47.46-.55.72-.41.1.06.21,0,.32,0s.2-.11.26,0c.18.44.41.32.61.41a2.58,2.58,0,0,0,.71.15c.14,0,.28-.09.42-.12s.3-.56.41.17c0,0,.14-.17.2-.13s.44-.66.62.18c.28-.27.65.4.87-.65,0-.11.12-.19.17-.15.21.14.44,0,.63.46.07.15.23-.11.34,0s.5-.06.75.27c.11.16.3-.08.45-.18a.44.44,0,0,1,.56,0c.05,0,.12.12.16.07.41-.47.84-.23,1.26-.39.09,0,.22-.43.29.12a1,1,0,0,0,.17-.22c0-.07.09-.3.1-.29.38.63.43-.48.53-.94.12-.61.2-.7.38-.28,0,0,0,0,0,0,.2-.12.41-.33.61-.35s.42.18.64,0c.42-.4.85-.79,1.3-.4.12.11.23-.3.37.13a6.08,6.08,0,0,1,.45,1.5,4.37,4.37,0,0,0,.08.69,1.88,1.88,0,0,1,0,1.44c0,1.3-.46,2.08-.43,3.4,0,.42-.14.69-.32.61s-.44-.36-.54.52c0,.09-.14.15-.19.1s-.39.08-.51-.48c-.32.1-.67,0-.92.76,0,.13-.09.31-.14.31-.3,0-.61-.09-.92-.06a1,1,0,0,0-.61.34c-.2.23-.22.3-.54.1-.06,0-.14-.11-.16,0-.12.33-.25.2-.37.11s-.18-.31-.28-.36-.2.38-.32-.07-.25-.32-.39,0-.15.46-.22.45c-.28-.06-.52-.13-.49,1,0,.21-.31.13-.31-.16,0-.75-.18-.61-.3-.48s-.19.24-.27-.12c0,0-.08,0-.08,0,0,.67-.2.37-.33.39-.43.06-.86-.24-1.28.06,0,0-.07,0-.11-.05a.72.72,0,0,0-1,.22c-.08.14-.11.15-.2,0-.47-.93-1-1-1.52-.33-.08.09-.18.08-.26.1a2.39,2.39,0,0,0-.59.08c-.11.05-.22.42-.31.36s-.14-.5-.28-.68-.73-.13-.86.49c0,.1.15.55,0,.39s-.3.56-.45,0c0-.11-.11-.14-.13-.25-.15-.82-.44-.8-.71-1s-.4,0-.55.43-.17.12-.24-.15c-.15-.62-.42-.58-.61-.49a1,1,0,0,1-.53,0,1.65,1.65,0,0,0-.47.1c-.25.05-.5.21-.75,0-.06-.05-.15,0-.2.13-.23.53-.44.26-.66,0-.08-.11-.16-.28-.24-.27s-.39.93-.6,0c-.19.42-.42.16-.61.37s-.19.12-.25.28c-.22.59-.48.57-.7.14s-.34-.22-.55-.17c-.47.12-1,.4-1.44.07s-.69.2-1,.36c-.07,0-.14,0-.21,0a2.75,2.75,0,0,1,.1-.34,1.06,1.06,0,0,0-.05-.78c0-.06-.11,0-.16.1a2.65,2.65,0,0,0-.33.51c-.25.56-.46.47-.68-.15-.06-.17-.19-.18-.29-.2s-.13.14-.19.13c-.36-.06-.36-.06-.53.23s-.09-.15-.11-.32c0-.47-.32,0-.29-.86V31a.63.63,0,0,0,.12-.18,4.24,4.24,0,0,0,.11-.45.66.66,0,0,0,0-.21s-.12-.06-.14,0a3.68,3.68,0,0,0-.07.61c-.07.38-.12.66-.18.68a1.7,1.7,0,0,1-.74.09c-.24,0-.11.21-.07.48,0,.08-.07.41-.11.4s-.38-.07-.53-.33-.13-.14-.21,0-.18.27-.24.22c-.23-.18-.44,0-.63.21s-.16-.16-.18-.29c0-.38.07-.15.12-.21a1.72,1.72,0,0,0,.22-.43,4.54,4.54,0,0,0,.12-.6c-.07-.06-.15-.23-.2-.17s-.29.36-.42-.18c0-.1-.22-.34-.26.18s.1.32.18.41a1.45,1.45,0,0,1,.12.22s-.07.09-.1.1a1.48,1.48,0,0,1-.21,0c0,.15,0,.31,0,.47-.24-.34-.44.8-.71.14-.09-.21-.25-.17-.38-.18s-.16.18-.15.24c0,.95-.19.25-.28.37-.26.37-.4-.51-.62-.57.29-.65-.17-.46-.12-.85l-.15,0a2.39,2.39,0,0,0,0,.53c0,.26,0,.67,0,.61a2.22,2.22,0,0,1-.42-.82,2.6,2.6,0,0,1,.19-.8c.25-.4.33-.31.55.31,0,.08.1.19.11.17.14-.41.15.38.25.22a1.11,1.11,0,0,0,.12-.4,4.63,4.63,0,0,0-.1-.66s0,.13.07.13a.26.26,0,0,0,.15,0,.93.93,0,0,0,0-.2C121.12,30.15,121.06,30.15,121,30.26Zm3.46.1.11-.16a.63.63,0,0,0-.07-.19s-.1,0-.14.06a1.92,1.92,0,0,0,.29.51l0-.21-.06.12.06.17S124.61,30.61,124.43,30.36Zm2.94-.6c0,.32,0,.47.07.6.09.54.21.44.35.16a1.74,1.74,0,0,1,.13-.2c-.06-.08,0-.56-.18-.31,0,0-.08,0-.1-.09s-.06-.37-.07-.36S127.43,29.69,127.37,29.76Zm-.5.16a2.12,2.12,0,0,0,.1-.43c0-.22.09-.52,0-.64s-.09.06-.14.09C126.8,29.22,126.83,29.49,126.87,29.92Zm.57,1.4a.41.41,0,0,0,.17.07,1.47,1.47,0,0,0,0-.19l-.41-.18c0,.08,0,.21,0,.22A.4.4,0,0,0,127.44,31.32Zm-2.64.57,0-.41-.21.33c0,.06,0,.18.08.18S124.75,31.93,124.8,31.89Zm0-1,.27-.08c0-.08-.06-.22-.09-.23s-.14,0-.21,0Zm1.71.08.15-.08-.12-.59a.83.83,0,0,0-.06.21C126.47,30.64,126.49,30.8,126.5,31Zm5.52.1c0-.13,0-.26,0-.27a.28.28,0,0,0-.15,0c0,.07,0,.2,0,.21S132,31,132,31.05Zm-3.1-.61.16-.1a.81.81,0,0,0-.09-.24s-.06,0-.09,0ZM127.75,29l.16-.11a1.54,1.54,0,0,0-.09-.24s-.06,0-.1.06S127.74,28.9,127.75,29Zm3.93,2.16s0-.11,0-.11,0,0-.08.06,0,.12,0,.12ZM131,29l0-.1a.54.54,0,0,0-.07-.13s0,0,0,.08Zm-2.16,2.82,0,.13a1.05,1.05,0,0,0,0-.19.7.7,0,0,0,0-.12Zm-.4-1.94-.08.08s0,.11,0,.11.05,0,.08-.06Zm-5,.5,0,.13c0-.06,0-.12,0-.19s0-.08,0-.12A1.21,1.21,0,0,1,123.4,30.37Zm-54.83.9c0-.61-.06-.56-.23-.4s-.3-.68-.36.22c0,0-.06,0-.08-.07-.09-.22-.14-.86-.28-.55s-.18-.43-.31-.23-.14,0-.15,0c-.15,1-.24.3-.36-.06,0-.14-.12-.25-.18-.26s-.14.1-.16.22a2.33,2.33,0,0,0,0,.59.6.6,0,0,0,.14.35s.1-.34.14.06c0,.16.06.31.09.46a1.32,1.32,0,0,0,.12-.2c.26-.64.33-.68.54-.08s.36.45.55.41.2-.25.3-.3,0,.52.13.58a1.11,1.11,0,0,0,.16.07s.07-.06.11-.09A3.6,3.6,0,0,1,68.57,31.27Zm41,.24a3.69,3.69,0,0,1,.1.5c0,.28,0,.59,0,.88s.2-.39.21.15,0,.55.19.41a1.57,1.57,0,0,1,.36-.19c0-.08,0-.16,0-.24,0-.45-.09-1,.19-.9a2.42,2.42,0,0,0,0-.27,4.27,4.27,0,0,1-.13-.66c0-1-.33.21-.36-.49-.17.19-.08.45,0,.69a.33.33,0,0,1,0,.14c0,.26,0,.58-.14.14,0-.14-.13-.16-.21-.24Zm1.34.68c0,.15.13.18.17.32s-.06.76.15.31a1.66,1.66,0,0,0,.27-1.31s.08-.11.12-.18a1.74,1.74,0,0,0,.1-.19c-.26.13-.08-.89-.29-.86a1.66,1.66,0,0,0-.21.06c.2.83-.19.62-.23,1l-.13-.29a.59.59,0,0,0,0-.65c-.14-.09-.06.33-.1.51a2.27,2.27,0,0,0,0,.28C110.43,31.89,110.81,31.83,110.87,32.19Zm-6.86.35a2.21,2.21,0,0,0,0,.25.81.81,0,0,0,.2-.21c.24-.37.23-.37.26.5a1.11,1.11,0,0,0,.1.29.86.86,0,0,1,0-.16,5.38,5.38,0,0,1,.13-1.14c.18-.46.18.44.31.22a2.51,2.51,0,0,1,.19-.24,2.21,2.21,0,0,0,0-.25c0-.16.07-.33.11-.49l-.17.06c-.11.07-.3.3-.34.17-.27-.9-.51-.25-.76,0,0,0-.08,0-.11,0C103.91,31.82,104.2,32.22,104,32.54Zm4.9-.33c.1-.16.2-.34,0-.49a.25.25,0,0,0-.37.17s0,0,0,0c0,.39-.15.36-.2.15s-.06-.65-.1-1a.57.57,0,0,0-.14-.33s-.11.13-.13.25a1.64,1.64,0,0,0,0,.44,5.43,5.43,0,0,1,.18.93c0,.49.3.32.19.9a1,1,0,0,0,0,.12,4.91,4.91,0,0,1,.27-.47c0-.06.11,0,.17.06A1.31,1.31,0,0,1,108.91,32.21ZM83,32.41a3.29,3.29,0,0,0-.22-.9c-.1-.33-.08-.44-.11-.32s-.1.44-.16.57-.15,0-.18-.08,0-.38-.06-.55a3,3,0,0,0-.1-.32c0,.2-.11.39-.15.6a1.42,1.42,0,0,0,0,.35c.07.43.23.28.34.4s.22.24.21.32c0,.54.11.44.21.51S83.1,33,83,32.41Zm24-.78c0,.33,0,.94-.23.81a2.39,2.39,0,0,0-.07.37,3.26,3.26,0,0,1-.07.7c-.1.1-.22,0-.32,0s-.08-.21-.08-.31.07-.3.1-.29.21-.25.16-.4c-.2-.55,0-.8.07-1.17.07-.57.29.15.38-.31a.46.46,0,0,1,.08.19C107,31.32,107,31.48,107,31.63Zm-.25,0c0,.26,0,.35,0,.44,0-.08.06-.14.08-.24a1.32,1.32,0,0,0,0-.27ZM114,30.5a3,3,0,0,0-.21.58c0,.17,0,.19.15.34a4,4,0,0,1,.66,1.13s0,0,.07.06c0-.48.19-.36.26-.57a5.58,5.58,0,0,0,.07-.9.91.91,0,0,0-.05-.21,1.05,1.05,0,0,0-.06.24c0,.81-.16.67-.33.47s0-.38-.16-.18c0,0-.17-.29-.17-.33.05-.28.19-.58,0-.57C114.12,30.53,114.05,30.43,114,30.5ZM70.67,32.23c0-.13-.06-.25-.08-.38s.15-.06.18,0,.15.5.25.13a2.91,2.91,0,0,0,.14-.87c-.08-.6-.2.13-.32.05s-.2.33-.3-.12c0-.1-.22.11-.34.19s0,.13,0,.2c.23-.08.1,1,.46.8Zm-1.63.3c.26-.27.51-.65.8-.54a1.75,1.75,0,0,0,0-.34c0-.08,0-.51-.12-.23s-.23.3-.24-.32c0-.32-.19-.33-.19-.16,0,.7-.22.66-.34.95a1.06,1.06,0,0,0,0,.31,2.46,2.46,0,0,0,.09.39S69,32.54,69,32.53ZM112.71,31c0,.23,0,.4-.11.5s-.16.21,0,.6a1.42,1.42,0,0,1,.1.29c.1.48.1.48.23.09a2.09,2.09,0,0,1,.16-.4.4.4,0,0,0,0-.42c0-.1-.11-.22-.15-.18s-.11,0-.1-.24l0-.61c-.11.07-.26-.42-.35.16C112.59,30.85,112.69,30.86,112.71,31Zm-11.08.66c0,.11,0,.23-.08.35,0-.14,0-.29,0-.41a1.42,1.42,0,0,0-.1-.29c0,.21,0,.43,0,.63a1,1,0,0,1-.09.21c-.09-.63-.22.28-.31-.07l-.18.48c.07.06.16.23.2.16.18-.31.36-.13.53-.07s.25.09.31-.83C101.75,32,101.76,31.11,101.63,31.65ZM112,32.4a.54.54,0,0,1,.07-.19.75.75,0,0,1,0,.2s-.06,0-.09.06,0-.1,0-.07,0,.28,0,.38l.23.1a3.48,3.48,0,0,1,0-.47c0-.21.09-.4.13-.6l-.25-.26a.2.2,0,0,1,0-.1,1.38,1.38,0,0,1,0-.29c0-.58,0-.59-.09-.62a.5.5,0,0,0-.21,0,.92.92,0,0,1,.14.3,1.45,1.45,0,0,1,0,.52,3,3,0,0,0-.13,1A.31.31,0,0,0,112,32.4Zm-40.1-.12c.07,0,.13-.11.2-.15s.14-.06.2-.15a1.88,1.88,0,0,0,.14-.42s-.11,0-.16-.08a3,3,0,0,1-.21-.4,2.88,2.88,0,0,1,0,.54c-.09.13-.17.1-.18-.29a1.54,1.54,0,0,0,0-.31,1.84,1.84,0,0,0,0,.25c0,.18-.05.37-.08.55,0-.08-.1-.26-.14-.23a.57.57,0,0,0-.14.36,2,2,0,0,0,.06.35C71.64,32.29,71.76,32.3,71.88,32.28Zm46-.42s.06-.05.09-.08a1,1,0,0,0-.1-.23c-.08-.1-.21,0-.19-.38a.45.45,0,0,1,.15-.28s.11.07.16,0a.67.67,0,0,0,.17-.36,2.41,2.41,0,0,0-.08-.67c-.09-.36-.15.07-.2.17a10.59,10.59,0,0,0-.42,1.14c-.06.21,0,.49.09.54l.16.07A.41.41,0,0,0,117.84,31.86ZM107,33c0,.14,0,.29,0,.43a1.75,1.75,0,0,0,.09-.41c0-.42.12-.6.21-.29s.21.07.24-.08a4.81,4.81,0,0,0,.07-1c0-.23-.21.27-.26-.25,0-.06-.12-.12-.15-.06a1.81,1.81,0,0,0,0,.44c0,.16,0,.32,0,.47-.17-.1-.21.21-.22.6C107,32.91,107,33,107,33Zm-7.26-.85c.14-.22.25-.12.36.17.14-.34.31-.13.46-.12s.14-.27.09-.54c-.08-.43-.18-.67-.34-.23-.08.23-.18.33-.3.22a.41.41,0,0,0-.28-.12,1.75,1.75,0,0,0-.11.36C99.7,32,99.76,32.19,99.77,32.16ZM118.2,31c0-.16.08-.46.14-.49s.25.15.3.52a2.06,2.06,0,0,1-.09.41.75.75,0,0,1,.17.32,2,2,0,0,1-.07.45,2.58,2.58,0,0,1-.43-.56A5.11,5.11,0,0,1,118.2,31Zm.13.24,0,.22a.18.18,0,0,0,0-.09,1.79,1.79,0,0,0,0-.23ZM81.78,32.49a1.8,1.8,0,0,0,.09-.52,1.13,1.13,0,0,0,0-.38,2.68,2.68,0,0,0-.55-.25,1.09,1.09,0,0,0,0,.19,1,1,0,0,1,.2.74c0,.06.13.13.12.13S81.76,32.56,81.78,32.49Zm4-.46c.06.06.14.09.19.2.23.4.21.39.27-.21a2.52,2.52,0,0,0-.11-1.11c-.08.25-.15.51-.24.74,0,.06-.06.05-.09.07Zm12.86.48.11,0a2.9,2.9,0,0,0,0-.42c0-.14-.12-.18-.17-.32-.19-.52-.28-.5-.35.1s0,.6.18.51l.22-.11Zm-5.27-1.59s-.06,0-.1.06a1.72,1.72,0,0,0,.09.25c.29.37.28.36.22.79,0,.17,0,.36,0,.53.1-.11.27-.15.29-.34a3.59,3.59,0,0,0,0-1c0-.17-.16-.18-.19-.21A1.57,1.57,0,0,0,93.34,30.92ZM85.64,32a1.23,1.23,0,0,1-.08-.25.33.33,0,0,1,.1-.06.34.34,0,0,1,.11,0c0-.1,0-.23,0-.3,0-.23-.1-.45-.15-.67-.06.18-.13.35-.18.54a1.37,1.37,0,0,0,0,.3c0,.22-.08.55.06.63s.21.32.26-.19C85.71,32,85.67,32,85.64,32Zm2.74-.71a3.11,3.11,0,0,0-.06-.51c-.15-.33-.08.21-.13.31a1.12,1.12,0,0,0-.12.29,6.34,6.34,0,0,0,.14.8c0,.05.08.07.1,0a.85.85,0,0,0,0-.65,1.6,1.6,0,0,1,0-.22Zm17.7,2a7.49,7.49,0,0,0-.1-.9c0-.19-.17-.33-.25-.29s-.11.35-.16.55.15.25.17.19c.19-.38.15,0,.15.31a1.42,1.42,0,0,0,.08.18ZM84.24,31.92c-.19.42,0,.54.08.75,0,0,.08,0,.1,0a1,1,0,0,0,0-.67,3.85,3.85,0,0,0-.06-.55c0-.11-.14-.1-.21-.11s0,.11,0,.16Zm13.82-.46s-.11-.1-.14,0a3.34,3.34,0,0,0-.15.57,2.24,2.24,0,0,0,0,.49.29.29,0,0,0,.25.12,3.74,3.74,0,0,0,0-.5c0-.09,0-.19,0-.11Zm-1.66.28.1-.06a3.58,3.58,0,0,0,.09-.35c0-.12,0-.27.06-.41s-.09,0-.12,0-.09.19-.14.27a2.33,2.33,0,0,0-.19.25c0,.27.08.53.12.79l.16-.25A2.41,2.41,0,0,1,96.4,31.74Zm12.87,1.39a4.45,4.45,0,0,0,.15-.58,4.27,4.27,0,0,0,0-.52c-.06,0-.13,0-.19,0a1.15,1.15,0,0,0-.15.73,1.73,1.73,0,0,0,.05.35S109.25,33.18,109.27,33.13Zm6.12-2c-.2-.2-.13.5-.25.6a2,2,0,0,0,0,.5s.08.12.09.09c.1-.3.19-.62.28-.93A1,1,0,0,0,115.39,31.1Zm3.64-.16c0,.17.15.35,0,.55a2.42,2.42,0,0,0,0,.28l.28-.52-.14-.46C119.12,30.86,119,30.88,119,30.94Zm-5.47-.33c0-.09,0-.18,0-.28l-.09.22c0,.14-.1.28-.14.43s-.06.26-.09.4.1.12.15.09a.48.48,0,0,0,.15-.26,1.19,1.19,0,0,0,0-.29C113.55,30.81,113.56,30.71,113.56,30.61Zm-11.1,1.76c0-.15,0-.31,0-.47s.1-.54-.09-.51a.16.16,0,0,0-.09.06c0,.23,0,.47,0,.68a1.42,1.42,0,0,0,.1.26ZM117,31.81c.14.11.13-.25.13-.48a1.7,1.7,0,0,0-.08-.44l-.2.5C117,31.58,117,31.78,117,31.81Zm-21.59-.6a.18.18,0,0,0-.06.13,1.25,1.25,0,0,0,.16.86s.08,0,.12-.06C95.67,31.74,95.53,31.2,95.44,31.21Zm-21.5.7a1.55,1.55,0,0,0,.08-.36c0-.39-.13-.28-.21-.33s-.07.06-.17.14C73.78,31.6,73.86,31.76,73.94,31.91Zm33.9,0a2.21,2.21,0,0,0-.08.37c0,.22-.07.53.08.59s.09-.07.17-.15C107.94,32.4,107.89,32.16,107.84,31.91ZM75,31.71c0,.07.12-.06.18-.11a2.36,2.36,0,0,0-.07-.44c-.08-.08-.17-.05-.28-.07A4.24,4.24,0,0,0,75,31.71Zm11.59-.49s-.09,0-.09,0c0,.24,0,.48,0,.72,0,.06.09.11.14.12a1.1,1.1,0,0,0,.08-.28C86.66,31.61,86.62,31.41,86.57,31.22Zm8.11.11a3.9,3.9,0,0,0-.18-.52s-.1.14-.13.27a1.82,1.82,0,0,0,0,.41Zm6.51,0a5.63,5.63,0,0,0-.19-.54s-.08.09-.13.14.06.36.09.57Zm17.17,1a.53.53,0,0,0-.08-.27.79.79,0,0,0-.14.32,2.81,2.81,0,0,0,.11.46A3.19,3.19,0,0,0,118.36,32.35Zm-2-1.46a1.88,1.88,0,0,0-.06-.34,1,1,0,0,0-.15.27,2.26,2.26,0,0,0,.06.5A2.23,2.23,0,0,0,116.39,30.89ZM81.28,32.21a1.29,1.29,0,0,0,0-.24l-.29.29.15.42C81.18,32.49,81.24,32.36,81.28,32.21Zm30.45.47c0,.23-.08.54,0,.66s.15-.29.17-.56Zm-2.64-1.81c0-.23-.1-.44-.15-.66a1.29,1.29,0,0,0,0,.24l.13.75A1.71,1.71,0,0,0,109.09,30.87Zm-36.32.22s-.11.21-.1.24a1.23,1.23,0,0,0,.12.37s.07-.13.16-.3C72.86,31.25,72.82,31.11,72.77,31.09Zm32.6,1s-.1,0-.11.09c0,.25,0,.51.09.52s.08-.11.17-.23A3.27,3.27,0,0,0,105.37,32.11Zm.59-1.63a.86.86,0,0,0,0,.24c0,.23.1.45.15.67l.07-.35ZM89.4,31.9l-.14-.82a2.73,2.73,0,0,0-.05.4c0,.19,0,.38.05.59ZM104,31.35c0-.17,0-.34,0-.51-.06.07-.13.1-.16.22a2.46,2.46,0,0,0,.06.51C104,31.46,104,31.4,104,31.35Zm-.93,1.35a1.26,1.26,0,0,0,.17-.37,1.33,1.33,0,0,0-.09-.45s-.08.1-.13.17ZM73.43,31.39s-.1.21-.09.24a1,1,0,0,0,.11.37s.08-.13.17-.3C73.53,31.54,73.49,31.41,73.43,31.39ZM99.54,32.6a1.89,1.89,0,0,0,.2.2.28.28,0,0,0,.16.07s0-.11.06-.18a.42.42,0,0,0,0-.12,1.64,1.64,0,0,0-.22-.1Zm-14.4-.84-.29.41c.05.06.09.16.14.16s.14-.11.21-.18Zm9.2-.4c-.08,0-.19-.23-.23.14s.1.42.2.49Zm-2,.39a.66.66,0,0,0,0-.3c-.08-.09-.18-.1-.18.27a4.51,4.51,0,0,0,.08.47A2.39,2.39,0,0,0,92.38,31.75Zm-8.84-.07s0-.12,0-.19l-.41-.17c0,.07,0,.2,0,.22s.11.05.17.08A.52.52,0,0,0,83.54,31.68Zm35.26-1.95c-.06.12-.16.24-.16.35a3.11,3.11,0,0,0,.11.58l.1-.38ZM100.29,30.9s-.07-.15-.09-.13a1.41,1.41,0,0,0-.13.32,1.46,1.46,0,0,0,0,.29Zm-13.1.54a.87.87,0,0,0,0,.23,1.55,1.55,0,0,0,.12.38s0-.06.1-.11Zm15.31,0c.08.07.17.11.18-.26a1.18,1.18,0,0,0,0-.26l-.22.35C102.46,31.35,102.48,31.44,102.5,31.45Zm-3.44.41-.18.45s.06.15.08.14a1.21,1.21,0,0,0,.15-.22Zm-15.64.64-.12-.59a.9.9,0,0,0-.06.22,3.57,3.57,0,0,0,0,.46Zm3.5-1.06c0-.24,0-.5-.09-.53s-.06.05-.1.07c0,.2.09.4.13.62C86.89,31.53,86.92,31.5,86.92,31.44Zm2-.1c0-.06,0-.18-.07-.19s-.09,0-.14.06l.1.3Zm36.07-2.53a1.1,1.1,0,0,0-.09-.24s-.06,0-.09.06l0,.29ZM120.55,30c0-.06,0-.18-.07-.18s-.1.05-.15.08l.09.23A1.59,1.59,0,0,0,120.55,30Zm-1.37.05c0-.07,0-.19-.07-.2s-.09,0-.14.06l.1.3ZM80.63,32.66s-.1,0-.15,0a1.69,1.69,0,0,0,0,.21.29.29,0,0,0,.16,0A2,2,0,0,0,80.63,32.66Zm34.48-2.34a.26.26,0,0,0,.15,0,.93.93,0,0,0,0-.2.9.9,0,0,0-.22-.05C115.08,30.23,115.09,30.32,115.11,30.32Zm-.28,0c0-.14,0-.28,0-.42,0,0-.07,0-.07.08s0,.29,0,.46C114.78,30.42,114.82,30.39,114.83,30.35ZM80.05,31.91s0-.1-.07-.15l-.06.4a.77.77,0,0,0,.08.19C80,32.18,80,32.05,80.05,31.91ZM78.79,32c0-.14,0-.28,0-.42,0,0-.08,0-.08.09s0,.28,0,.45C78.74,32,78.79,32,78.79,32Zm17.08.55a3.09,3.09,0,0,0,0-.43s-.07,0-.07.09,0,.28,0,.45C95.83,32.58,95.87,32.55,95.87,32.52Zm-21-.52c0-.09,0-.19,0-.29-.05.06-.11.08-.12.17a3.55,3.55,0,0,0,0,.55C74.86,32.21,74.89,32.11,74.91,32Zm-7.65-.28a.93.93,0,0,0-.09-.24s-.06,0-.09.06l0,.29Zm38.05,1.48a.86.86,0,0,0,.13.2s.06-.07.09-.11l-.11-.23Zm-1.47-.33a.58.58,0,0,0-.06-.15c0,.14,0,.26-.06.4a.77.77,0,0,0,.08.19A3.77,3.77,0,0,0,103.84,32.87Zm-1.94-1a.49.49,0,0,0,.07-.19,2.88,2.88,0,0,0,0-.41l-.1.28Zm-.48-.54-.06-.35-.16.25Zm-1.87-.2a1.71,1.71,0,0,0,0-.18.76.76,0,0,0-.14-.16.89.89,0,0,0-.07.21C99.45,31,99.5,31.09,99.55,31.1Zm-.2.42c0-.05,0-.1-.06-.15,0,.13-.05.26-.06.39a.8.8,0,0,0,.08.2A4,4,0,0,0,99.35,31.52Zm-1.78,1.36c0-.14,0-.28,0-.42a.57.57,0,0,0-.07.22,3.7,3.7,0,0,0,0,.45C97.52,33,97.56,33,97.57,32.88Zm-.88-.79s-.07,0-.1-.05a1.51,1.51,0,0,0,.06.33c0,.06.09,0,.2,0A2.24,2.24,0,0,0,96.69,32.09ZM96,31.27c0-.06,0-.18-.08-.18s-.1.05-.15.08a1.85,1.85,0,0,1,.09.23Zm-4.21-.35c0-.13,0-.27,0-.41a.83.83,0,0,0-.06.21c0,.14,0,.28,0,.46A.83.83,0,0,0,91.74,30.92Zm-.35,1.91c0-.14,0-.28,0-.41s-.07-.05-.07,0,0,.26,0,.42C91.34,32.82,91.39,32.84,91.39,32.83Zm37.12-.24,0-.17-.06.17s0,.07,0,.12Zm-1.59-4.5a1.66,1.66,0,0,0,0-.22s0,.06,0,.08l0,.23S126.92,28.12,126.92,28.09Zm-.93.66s.06,0,.09-.06a1.82,1.82,0,0,0,0-.2l-.07.12Zm-3.12,3.75c0-.06,0-.12,0-.19a.27.27,0,0,0,0-.12l-.06.18Zm-.36-2.73c0-.09,0-.18,0-.25s0,0-.07,0l0,.21Zm-1.06-.47s0,.06,0,.08a1.64,1.64,0,0,0,0,.23l0-.09Zm-1.61,3.3s0,.11,0,.11,0,0,.08-.06l0-.13Zm-.15-.55-.06.12.06.17s0-.05,0-.08Zm0-1.43s0-.12,0-.12,0,0-.08.07l0,.13ZM119.64,32l-.09-.37Zm-.09-.37c0-.08,0-.18,0-.25s0,0-.07,0l0,.21Zm-.33-1.43,0,.12c0,.06,0,.12,0,.17s0-.05,0-.08Zm-2.52,1.29.07.13s0,0,0-.08l-.06-.14Zm-1.65-1.07,0-.17-.06.17s0,.07,0,.12Zm-1.15,1.81a1.79,1.79,0,0,0,0-.23.18.18,0,0,0,0,.09,1.64,1.64,0,0,0,0,.22A.2.2,0,0,0,113.9,32.26Zm-1-1.64s.07,0,.09-.06a1.27,1.27,0,0,0,0-.2l-.08.12Zm-.36.3,0-.16-.06.17s0,.07,0,.11Zm-.28,2-.06.12.06.17s0,0,0-.08Zm-.48-.53-.1.06.08.25Zm-2.14,1.19,0-.23s0,.06,0,.09a1.66,1.66,0,0,0,0,.22S109.61,33.58,109.61,33.56Zm0-2.61a.54.54,0,0,0-.07-.13s0,.06,0,.08l.06.15Zm-.3.35s0-.06,0-.09l0-.22,0,.09ZM108.8,33l-.06.12.06.17,0-.08C108.83,33.12,108.81,33.05,108.8,33Zm-.33-1.11c0-.09,0-.18,0-.25s0,0-.07,0l0,.21Zm-1.23-.55a1,1,0,0,0,0-.25s0,0-.07,0l0,.21Zm-2.39,1.25s0,0-.08.06,0,.12,0,.12a.18.18,0,0,0,.08-.07S104.86,32.57,104.85,32.57Zm-.18.82-.06.12.06.17,0-.08Zm-1.42-2.08a.54.54,0,0,0-.07-.13s0,.05,0,.08l.06.15Zm-1.11,1.44.07.13s0-.05,0-.08l-.06-.15Zm-.23-2s0-.12,0-.12,0,0-.08.07l0,.13Zm-3.45.55s.06,0,.09-.06a1.82,1.82,0,0,0,0-.2l-.07.12Zm-.61,1.66c0,.06,0,.12,0,.19a.27.27,0,0,0,0,.12l.06-.19Zm-.79-1.16s0-.12,0-.11,0,0-.08.06l0,.13Zm-.58.22.11.05-.09-.36Zm-1.12-1.08-.09.22.11.05C95.37,31.09,95.37,31,95.36,30.91Zm-.1.36,0-.16a1.62,1.62,0,0,0-.06.17l0,.11Zm-.56.89a1.05,1.05,0,0,0,0-.19.7.7,0,0,0,0-.12,1.21,1.21,0,0,0,0,.18ZM94.36,32l-.06.12.06.17s0,0,0-.08Zm-1.72.2a1.05,1.05,0,0,0,0-.19.7.7,0,0,0,0-.12l0,.18Zm-.24-.75s.06,0,.09-.06a1.82,1.82,0,0,0,0-.2l-.07.12Zm-4.82.43a1.1,1.1,0,0,0,0-.26s0,0-.07,0l0,.21Zm-3.87.84c0,.07,0,.13,0,.2s0,.08,0,.12l.06-.19Zm-6-.12a1.05,1.05,0,0,0,0-.19.7.7,0,0,0,0-.12l0,.18Zm-5.25-1.05s.07,0,.09-.06a.75.75,0,0,0,0-.2l-.07.12Zm12.3.5a.32.32,0,0,0-.07-.13s0,.05,0,.08l.06.14Zm1.77-1c0-.09,0-.18,0-.26s0,0-.07,0l0,.2Zm.4,1,0-.16a.67.67,0,0,0-.06.17s0,.07,0,.11A.75.75,0,0,1,86.89,32Zm0-.14.1-.06-.09-.25Zm.73,0-.06.12s0,.12.06.16,0,0,0-.08Zm-8.27,0s0-.12,0-.11,0,0-.08.06l0,.13Zm-4-.17a.54.54,0,0,0-.07-.13s0,.05,0,.08l.06.15Zm-5.57-.39s.06,0,.09-.06a1.82,1.82,0,0,0,0-.2l-.07.12Zm19.1.15-.06.12.06.17s0-.05,0-.08S88.92,31.58,88.91,31.51Zm-14.42-.16s0-.11,0-.11a.18.18,0,0,0-.08.07l0,.12Zm15.13.22s-.06,0-.08.06,0,.12,0,.12.05-.05.08-.07S89.63,31.56,89.62,31.57Zm-15.28.36a.5.5,0,0,0,.07.13s0-.05,0-.08l-.06-.14Zm5.86-.6a.54.54,0,0,0,.07.13l0-.08-.07-.15Zm9.76.81s0-.1-.06-.13,0,.05-.05.08l.07.15Zm.4-1.53s-.06,0-.08.06,0,.12,0,.12l.08-.07S90.37,30.61,90.36,30.61Zm-13,1.23a.23.23,0,0,0,0-.09,1.79,1.79,0,0,0,0-.23l0,.1Zm13.42.83a.18.18,0,0,0,0-.09,1.64,1.64,0,0,0,0-.22l0,.09Z"/></svg>