<svg id="Calque_1" data-name="Calque 1" xmlns="http://www.w3.org/2000/svg" viewBox="0 0 450.38 115.81"><defs><style>.cls-1{fill:#f29016;fill-rule:evenodd;}</style></defs><title>TRAIT ACCUEIL</title><path class="cls-1" d="M207.74,51.58l.19,0,.48,0-.28,0-.2,0a2.32,2.32,0,0,1-.38,0h.19Z"/><path class="cls-1" d="M209,51.57h0Z"/><path class="cls-1" d="M208.7,51.64l.58,0h-.19l-.77,0Z"/><polygon class="cls-1" points="198.87 51.66 198.87 51.66 198.87 51.66 198.87 51.66"/><path class="cls-1" d="M178.93,51.74a3.05,3.05,0,0,1-.49,0l-.19,0h.58Z"/><path class="cls-1" d="M177.38,51.74l.29,0H178v0h-.09C178.08,51.76,177.77,51.74,177.38,51.74Z"/><path class="cls-1" d="M176.9,51.75v0l.2,0Z"/><path class="cls-1" d="M175.17,51.81h.09v0H175v0l-.29,0Z"/><path class="cls-1" d="M171.31,51.85h-.67l-.29,0c.32,0,.44,0,.77,0h-.48c-.49,0-.32,0-.48.07v0h-.29c-.11,0,0,0-.29.05.15,0-1.56,0-2.22,0h-.29v0l4.15,0Z"/><path class="cls-1" d="M173,51.82h-.19A.92.92,0,0,0,173,51.82Z"/><path class="cls-1" d="M172.57,51.83h-.39C171.91,51.85,172.5,51.84,172.57,51.83Z"/><path class="cls-1" d="M168.9,51.87h.87l-1,0Z"/><path class="cls-1" d="M166.4,51.88c-.1,0,.14,0-.39,0l.2,0Z"/><path class="cls-1" d="M176.61,51.87h-.19C176.24,51.87,176.61,51.87,176.61,51.87Z"/><path class="cls-1" d="M172.57,51.91l-.68,0-.19,0h.87Z"/><path class="cls-1" d="M166.21,51.89h-.39l-.19,0A3.25,3.25,0,0,0,166.21,51.89Z"/><path class="cls-1" d="M165.92,51.93a5.38,5.38,0,0,0,1,0h.1l-.58,0Z"/><path class="cls-1" d="M159.46,52h-.1l.1,0Z"/><path class="cls-1" d="M159.85,52l-.2,0h.2Z"/><path class="cls-1" d="M159.08,52l-.29,0C159.18,52,159,52,159.08,52Z"/><path class="cls-1" d="M153.49,52l-.1,0h.1Z"/><path class="cls-1" d="M157.73,52a3.85,3.85,0,0,1-.49,0c-.64,0-1.32,0-1.63.07h1.83Z"/><path class="cls-1" d="M152,52.08l.1,0,.19,0,.1-.07-.2,0a11.37,11.37,0,0,0-1.44,0l-.48,0h-.1A15.44,15.44,0,0,0,152,52.08Z"/><path class="cls-1" d="M155.22,52.06h0Z"/><path class="cls-1" d="M147.32,52.15h.19v0h.1l-.07,0,.36,0c.08.05.43,0,.09.05h1.43l-.17,0h.07l-.07,0h-.85c.22,0,.14,0,.07,0l-.09,0h-.29l.1,0a6.31,6.31,0,0,0-1,0Z"/><path class="cls-1" d="M148.38,52.1Z"/><path class="cls-1" d="M149.73,52.2l.77,0-.48-.06-.7,0,.1,0Z"/><path class="cls-1" d="M147.51,52.14h0Z"/><path class="cls-1" d="M150.79,52.17c.3,0,.1,0,.19,0Z"/><path class="cls-1" d="M152.52,52.25h-.29A.92.92,0,0,0,152.52,52.25Z"/><path class="cls-1" d="M66.56,58.92h.29l-.19,0Z"/><path class="cls-1" d="M271.34,63.63h0Z"/><path class="cls-1" d="M78,63.69Z"/><path class="cls-1" d="M101.74,63.71H102Z"/><path class="cls-1" d="M302,63.87l-.2,0S301.71,63.85,302,63.87Z"/><path class="cls-1" d="M268.93,63.86h-.38A1.52,1.52,0,0,0,268.93,63.86Z"/><path class="cls-1" d="M271.34,63.89h0Z"/><path class="cls-1" d="M276,63.88h-.2l-.09,0H276Z"/><path class="cls-1" d="M276.64,63.89v0h.68l.09,0A6.31,6.31,0,0,1,276.64,63.89Z"/><path class="cls-1" d="M75.14,63.91h.48l-.29,0Z"/><path class="cls-1" d="M194.54,64l-.48,0,.09,0-.09,0h.28Z"/><path class="cls-1" d="M195.31,64,195,64Z"/><path class="cls-1" d="M94.61,64a.6.6,0,0,0,.19,0Z"/><path class="cls-1" d="M198.49,64h-.1c.07,0,.08,0,.39,0l-.1,0C198.85,64,198.52,64,198.49,64Z"/><path class="cls-1" d="M196.66,64.09v0l1,0h.1l.13,0h-.09l-.85,0,.42,0c.25,0,.14,0,.17,0a2.29,2.29,0,0,1,.51,0h0l.09,0c-.43,0-1.13,0-1.25,0Z"/><path class="cls-1" d="M93.16,64.17a2,2,0,0,0-.48,0C92.48,64.16,92.82,64.15,93.16,64.17Z"/><path class="cls-1" d="M91.14,64.21l-.1,0h-.38l-.2,0h.77l.68,0-.77,0Z"/><path class="cls-1" d="M95.18,64.27l.1,0h-.77Z"/><path class="cls-1" d="M84.1,64.33l.1,0h.1l1.44-.09h-.58Z"/><path class="cls-1" d="M86.9,64.35v0h-.1Z"/><path class="cls-1" d="M243.76,51.47H244a2.3,2.3,0,0,1-.38,0l-.2,0-.29,0,.49,0Z"/><path class="cls-1" d="M242.7,51.46h0Z"/><path class="cls-1" d="M243.18,51.47l-.77,0h-.19l.58,0Z"/><path class="cls-1" d="M387.41,57.74h0Z"/><path class="cls-1" d="M385.61,58.39h0Z"/><path class="cls-1" d="M385.61,58.41h0C385.5,58.4,385.48,58.39,385.61,58.41Z"/><polygon class="cls-1" points="252.62 51.55 252.62 51.55 252.63 51.55 252.62 51.55"/><path class="cls-1" d="M382.91,58.78v0h-.48l.1,0Z"/><path class="cls-1" d="M384.65,58.82h.19Z"/><path class="cls-1" d="M352.46,62.3h.29l-.19,0Z"/><path class="cls-1" d="M353.13,62.32h.39l-.1,0Z"/><path class="cls-1" d="M353.13,62.69l.1,0h-.29Z"/><path class="cls-1" d="M352.75,62.89c.11,0,.1,0,.09,0Z"/><path class="cls-1" d="M337.33,63.21h0Z"/><path class="cls-1" d="M348.41,63.22c-.14,0,.12,0,.19,0Z"/><path class="cls-1" d="M349.09,63.24h.29Z"/><path class="cls-1" d="M331.93,63.33h0Z"/><path class="cls-1" d="M333,63.35h.39l-.1,0Z"/><path class="cls-1" d="M375.78,63.38l.67,0-.48,0Z"/><path class="cls-1" d="M373.47,63.58h0Z"/><path class="cls-1" d="M349.66,63.61h.1l-.29,0Z"/><path class="cls-1" d="M171.39,63.75h0Z"/><path class="cls-1" d="M375.88,63.8h.48l-.19,0Z"/><path class="cls-1" d="M356.7,63.87a.6.6,0,0,0,.19,0Z"/><path class="cls-1" d="M358.82,64a2,2,0,0,0-.48,0C358.68,64,359,64.05,358.82,64Z"/><path class="cls-1" d="M360.46,64.14l-.1,0v0l-.77,0,.67,0H361l-.2,0Z"/><path class="cls-1" d="M356.31,64.16l.68,0h-.77Z"/><path class="cls-1" d="M365.76,64.16l1.44.09h.1l.1,0-1.06-.06Z"/><path class="cls-1" d="M364.6,64.24l.1,0h-.1Z"/><path class="cls-1" d="M263.72,64.12h0Z"/><path class="cls-1" d="M200.48,64.3h0Z"/><path class="cls-1" d="M179.44,63.83a2.9,2.9,0,0,0-.52,0h.52Z"/><path class="cls-1" d="M179.69,63.85h.17C179.63,63.83,179.82,63.83,179.69,63.85Z"/><path class="cls-1" d="M182.08,63.83l-.09,0S182.11,63.85,182.08,63.83Z"/><path class="cls-1" d="M186.93,64.07l.26,0S187.34,64.06,186.93,64.07Z"/><path class="cls-1" d="M187.7,64.07c.05,0,.15,0,.09,0Z"/><path class="cls-1" d="M188,64.07l.25,0-.25,0Z"/><path class="cls-1" d="M195.2,64.18l.09,0a6.37,6.37,0,0,1-.77,0l-.51,0,.17,0-1.45,0h-.17l-.6,0,.26,0a2,2,0,0,0,.42,0c.49,0,.79,0,.86,0l.51,0h.34l-.26,0h.43c.21,0,.06,0,.17,0h.43l.17,0-.6,0A3,3,0,0,1,195.2,64.18Z"/><path class="cls-1" d="M195.46,64.2l-.09,0v0h.17S195.55,64.21,195.46,64.2Z"/><path class="cls-1" d="M195.46,64.14v0h.08l.34,0,.17,0A4.85,4.85,0,0,1,195.46,64.14Z"/><path class="cls-1" d="M196.14,64.21v0l.25-.09-.42.06Z"/><path class="cls-1" d="M196.56,64.17l-.08,0h.43l-.18,0Z"/><path class="cls-1" d="M197.5,64.23h.26l-.17,0Z"/><path class="cls-1" d="M198.61,64.21v0l.33,0h-.33Z"/><path class="cls-1" d="M199.21,64.24l-.26,0,.09,0a2.16,2.16,0,0,1,.51,0l.08-.07h-.25Z"/><path class="cls-1" d="M200.48,64.27h.17l.09,0-1,0Z"/><path class="cls-1" d="M200.48,64.22h.35A1.27,1.27,0,0,0,200.48,64.22Z"/><path class="cls-1" d="M202.79,63.77h0Z"/><path class="cls-1" d="M213.1,63.89h.25l-.25,0Z"/><path class="cls-1" d="M218.55,64h.17l.09,0Z"/><path class="cls-1" d="M219,63.53l.08,0h-.25Z"/><path class="cls-1" d="M220,63.57l.25,0C220.16,63.58,220.29,63.57,220,63.57Z"/><path class="cls-1" d="M230.65,64.69c.16,0,.11,0,.09,0Z"/><path class="cls-1" d="M237,64.45l-.08,0h.25Z"/><path class="cls-1" d="M246.08,64.7h0Z"/><path class="cls-1" d="M247.1,64.74H248C248.23,64.68,247.46,64.7,247.1,64.74Z"/><path class="cls-1" d="M247.61,64.53h-.26l-.08,0h.5C247.68,64.56,247.62,64.55,247.61,64.53Z"/><path class="cls-1" d="M247.77,64.56h0Z"/><path class="cls-1" d="M250.59,64.64h-.76l-.09,0a5.93,5.93,0,0,0,.85,0l-.68,0v0c-.34,0-1.66,0-2.13,0l-.26.08a5.48,5.48,0,0,1,.86,0l.76,0a4,4,0,0,0,.77.07l-.26,0A6.45,6.45,0,0,1,250.59,64.64Z"/><path class="cls-1" d="M248.21,64.57h-.34A1.9,1.9,0,0,1,248.21,64.57Z"/><path class="cls-1" d="M248.55,64.72h.34v0h-.68Z"/><path class="cls-1" d="M248.21,64.51l.17,0,.08,0Z"/><path class="cls-1" d="M248.8,64.48c-.3,0-.06,0-.25,0h.34Z"/><path class="cls-1" d="M249.23,64.7h0Z"/><path class="cls-1" d="M250.42,64.5h-.34Z"/><path class="cls-1" d="M250.25,64.69h.17l-.17,0Z"/><path class="cls-1" d="M250.68,64.5h.17l-.09,0-.42,0A1.53,1.53,0,0,0,250.68,64.5Z"/><path class="cls-1" d="M250.51,64.68l.34,0H251l.25,0a2.53,2.53,0,0,0,.43,0l.09,0a3.78,3.78,0,0,1-.6,0C251,64.64,250.81,64.65,250.51,64.68Zm.93,0h-.08Z"/><path class="cls-1" d="M250.59,64.8h0Z"/><path class="cls-1" d="M252.21,64.55h0l-.51,0h.51Z"/><path class="cls-1" d="M252.38,64.19l.17,0h-.76l.08,0h-.08Z"/><path class="cls-1" d="M252,64.67c.1,0,.08,0,.08,0Z"/><path class="cls-1" d="M252.13,64.7h.08Z"/><path class="cls-1" d="M252.55,64.57l.17,0-.42,0Z"/><path class="cls-1" d="M253.15,64.66l-.34,0,.08,0a5.86,5.86,0,0,1,.86,0Z"/><path class="cls-1" d="M253.15,64.77l.25,0a6,6,0,0,0,.69,0,7.25,7.25,0,0,0,1,0l-.17,0S253.55,64.71,253.15,64.77Z"/><path class="cls-1" d="M253.83,64.17a.75.75,0,0,0-.26,0Z"/><path class="cls-1" d="M254.26,64.65l-.43,0h.26l.17,0Z"/><path class="cls-1" d="M254.94,64.66l-.6,0h.43Z"/><path class="cls-1" d="M254.94,64.65h.34l-.26,0Z"/><path class="cls-1" d="M255,64.75l.17,0h.09a3.32,3.32,0,0,1,.68,0l.17,0Z"/><path class="cls-1" d="M255.19,64.68h.34A1,1,0,0,0,255.19,64.68Z"/><path class="cls-1" d="M256.3,64.64h-.08l-.26,0,.43,0Z"/><path class="cls-1" d="M256.05,64.75h.17l-.09,0Z"/><path class="cls-1" d="M256.9,64.72h-.68l.17,0h.76C257,64.72,257.15,64.71,256.9,64.72Z"/><path class="cls-1" d="M256.39,64.65s.09,0,.08,0Z"/><path class="cls-1" d="M258.09,64.66h-.77l-.25,0H258Z"/><path class="cls-1" d="M257.24,64.74l.25,0h-.25Z"/><path class="cls-1" d="M257.84,64.72l.17,0h.34A2.19,2.19,0,0,0,257.84,64.72Z"/><path class="cls-1" d="M259.88,64.69a16,16,0,0,0-1.7,0c.45,0,1,0,1.53,0h.17Z"/><path class="cls-1" d="M258.69,64.75h.94l.08,0-1.19,0Z"/><path class="cls-1" d="M260.39,64.7h-.08l-.51,0h.68l-.17,0Z"/><path class="cls-1" d="M261.62,64.69h0Z"/><path class="cls-1" d="M261.65,64.69l-.24,0a6.5,6.5,0,0,1,.94,0l-.32,0Z"/><path class="cls-1" d="M260.14,64.68a3.25,3.25,0,0,1,.51,0c.5,0,.21,0,.68,0l.17,0h-1.36Z"/><path class="cls-1" d="M262,64.68h0Z"/><path class="cls-1" d="M261.33,64.44h.26l-.18,0Z"/><path class="cls-1" d="M262.78,64.68l-.34,0a5.8,5.8,0,0,1,.76,0l.09,0C262.79,64.7,262.88,64.7,262.78,64.68Z"/><path class="cls-1" d="M262.86,64.43h0Z"/><path class="cls-1" d="M263,64.36l.17,0h5l-.09,0Z"/><path class="cls-1" d="M263.46,64.72h.26l-.09,0Z"/><path class="cls-1" d="M263.8,64.71a3.86,3.86,0,0,0,.6,0Z"/><path class="cls-1" d="M264.57,64.73l.08,0-.25,0Z"/><path class="cls-1" d="M264.74,64.72h.51A2.87,2.87,0,0,0,264.74,64.72Z"/><path class="cls-1" d="M266.27,64.13h.17l-.17,0Z"/><path class="cls-1" d="M268.15,63.65h0Z"/><path class="cls-1" d="M269.43,64.43h0c-.31,0-.79,0-1.28,0h1.28Z"/><path class="cls-1" d="M268.23,64.1h.17l.09,0Z"/><path class="cls-1" d="M268.23,63.86h.17S268.44,63.85,268.23,63.86Z"/><path class="cls-1" d="M268.23,63.84h.09s.11,0,.08,0Z"/><path class="cls-1" d="M268.57,64.1h.26l-.09,0Z"/><path class="cls-1" d="M268.74,63.84c.36,0,.12,0,.26,0l.17,0v0l-.51,0Z"/><path class="cls-1" d="M269,64.81l.08,0-.25,0Z"/><path class="cls-1" d="M268.83,64.72h.6l.17,0Z"/><path class="cls-1" d="M268.91,64.13h.26l-.34,0v0Z"/><path class="cls-1" d="M269.17,64.1h.08Z"/><path class="cls-1" d="M269.77,64.43h0l-.26,0Z"/><path class="cls-1" d="M269.6,64.72h.68l.08,0h-.76Z"/><path class="cls-1" d="M269.77,64.11H270l-.17,0Z"/><path class="cls-1" d="M270,64.43l.77,0A5.23,5.23,0,0,0,270,64.43Z"/><path class="cls-1" d="M270.62,64.71l.25,0S270.9,64.69,270.62,64.71Z"/><path class="cls-1" d="M270.7,63.85h.17A.3.3,0,0,0,270.7,63.85Z"/><path class="cls-1" d="M271,63.85h.25l-.25,0Z"/><path class="cls-1" d="M271.65,64.44h0Z"/><path class="cls-1" d="M271.47,64.44h0Z"/><path class="cls-1" d="M272,64.42l.17,0h.34A1.33,1.33,0,0,0,272,64.42Z"/><path class="cls-1" d="M272.15,64.08v0l-.17,0Z"/><path class="cls-1" d="M272.75,63.79l-.26,0h.17Z"/><path class="cls-1" d="M272.58,63.84v0l.34,0Z"/><path class="cls-1" d="M273.77,64.06v0h-.25Z"/><path class="cls-1" d="M274.54,64h-.26v0h.34l.17,0Z"/><path class="cls-1" d="M273.86,64.05l.42,0h-.51Z"/><path class="cls-1" d="M273.94,64.46h.17l.09,0Z"/><path class="cls-1" d="M274.28,64.46l.09,0h-.09Z"/><path class="cls-1" d="M274.79,64.07a3,3,0,0,1,.52,0l-.09,0Z"/><path class="cls-1" d="M274.79,63.88h.26Z"/><path class="cls-1" d="M275,63.88l.35,0C275.21,63.87,275.22,63.89,275,63.88Z"/><path class="cls-1" d="M275.31,63.87h.17l-.17,0h0Z"/><path class="cls-1" d="M275.39,63.84l.26,0h.25A2.18,2.18,0,0,0,275.39,63.84Z"/><path class="cls-1" d="M275.56,64l.09,0,.25,0-.17,0Z"/><path class="cls-1" d="M276.07,64l-.25,0,.34,0h.25C276.16,64,276.14,64,276.07,64Z"/><path class="cls-1" d="M276.58,64l.17,0h-.42Z"/><path class="cls-1" d="M276.67,63.86h-.26l.34,0Z"/><path class="cls-1" d="M276.58,63.93l-.08,0h.25Z"/><path class="cls-1" d="M276.92,64h.35A1.06,1.06,0,0,0,276.92,64Z"/><path class="cls-1" d="M277.35,63.88h-.08C277.37,63.91,277.35,63.88,277.35,63.88Z"/><path class="cls-1" d="M277.69,64.08v0l-.17,0Z"/><path class="cls-1" d="M277.69,63.91H278l-.25,0Z"/><path class="cls-1" d="M278,63.9h0Z"/><path class="cls-1" d="M278.12,63.89h.34A1.22,1.22,0,0,0,278.12,63.89Z"/><path class="cls-1" d="M278.37,63.89v0h.34l.09,0h-.43Z"/><path class="cls-1" d="M279.48,63.91l.11,0h0Z"/><path class="cls-1" d="M279.59,63.89h.15S279.67,63.88,279.59,63.89Z"/><path class="cls-1" d="M279.74,63.88l.76,0h.09s.07,0-.17,0h0C280.21,63.89,280.24,63.86,279.74,63.88Z"/><path class="cls-1" d="M280.67,64.72h.26l-1,0Z"/><path class="cls-1" d="M281.61,63.82h0Z"/><path class="cls-1" d="M281.78,63.82l.26,0A1.23,1.23,0,0,0,281.78,63.82Z"/><path class="cls-1" d="M282.21,64.72h.59A2.14,2.14,0,0,0,282.21,64.72Z"/><path class="cls-1" d="M283,64.6h-.25A2,2,0,0,0,283,64.6Z"/><path class="cls-1" d="M283.23,64.59l.17,0S283.43,64.57,283.23,64.59Z"/><path class="cls-1" d="M284.08,64c.12,0,.1,0,0,0Z"/><path class="cls-1" d="M286.13,63.91l-.26,0A1.26,1.26,0,0,0,286.13,63.91Z"/><path class="cls-1" d="M286.13,64.51l-.17,0c.51,0,.41,0,.51,0h.17l-.51,0Z"/><path class="cls-1" d="M286.21,63.93h0l.34,0Z"/><path class="cls-1" d="M286.21,63.48c.11,0,.09,0,.09,0Z"/><path class="cls-1" d="M289.28,64.35l.43,0-.17-.1h-.17l-.34,0v-.07l-.69.06.09,0c-.78,0-1.62,0-2,0,.31,0,.18,0,.25,0C287.66,64.25,288.59,64.26,289.28,64.35Zm-.17-.06h.26l-.34,0Z"/><path class="cls-1" d="M286.72,64.53a3,3,0,0,1,.43,0v0H287Z"/><path class="cls-1" d="M286.86,63.46h-.05v0Z"/><path class="cls-1" d="M286.89,64.11v0h.52c.17,0,.39,0,.68,0l-.09,0h-.17l.09,0-.26,0A4.31,4.31,0,0,1,286.89,64.11Z"/><path class="cls-1" d="M287.24,64.56v0h.14Z"/><path class="cls-1" d="M287.41,64.58h0Z"/><path class="cls-1" d="M287.49,64.6h0Z"/><path class="cls-1" d="M287.32,64.66h.26l-.09,0Z"/><path class="cls-1" d="M287.92,64.13h.25v0l-.42,0Z"/><path class="cls-1" d="M288.09,64.1l.25,0h-.08Z"/><path class="cls-1" d="M288.34,64h-.08C288.41,64,288.37,64,288.34,64Z"/><path class="cls-1" d="M288.94,64.67H289l.08,0-.51,0Z"/><path class="cls-1" d="M289,64.52h.34l-.17,0Z"/><path class="cls-1" d="M289.45,64.67h1.19c-.24,0-.51,0-.93,0Z"/><path class="cls-1" d="M289.54,64.21h.25v0h.09l.08,0A2.28,2.28,0,0,0,289.54,64.21Z"/><path class="cls-1" d="M290.39,64.23l-.34,0-.17,0c.65,0,1,0,1.19,0s-.13,0-.17,0l1.53,0,.26,0h-.17l-.34,0,.14,0h0l.08,0c-.94,0-1,0-1.87-.08l.08,0-.25,0Zm1.28,0h.08l.26,0c-.18,0,0,0-.26,0h-.17Z"/><path class="cls-1" d="M292.35,64.46v0l-.51-.08.08,0h-.34l.09-.07-.6,0-.08.08-.6,0-.09,0,.94.06h-.34l.26,0,.42,0a5.05,5.05,0,0,0,.68.06l.26,0-.26,0,.51,0C292.59,64.48,292.89,64.47,292.35,64.46Zm-.94,0h-.08l-.26,0h.34l.09,0Zm.51.13h-.17l.17,0Z"/><path class="cls-1" d="M290.73,64.66h0Z"/><path class="cls-1" d="M290.64,64h.43l-.26,0Z"/><path class="cls-1" d="M290.9,63.89l-.17,0v0c.17,0,.23,0,.26.06C291.23,63.92,291.1,63.9,290.9,63.89Z"/><path class="cls-1" d="M291,64.2l.25,0v-.08Z"/><path class="cls-1" d="M291.24,64.18c.27,0,.11,0,.26,0l.25,0s0,0,.09,0l-.07,0h-.11A1.09,1.09,0,0,0,291.24,64.18Z"/><path class="cls-1" d="M291.24,63.9v0l.09,0Z"/><path class="cls-1" d="M291.84,64.39l-.09,0v0Z"/><path class="cls-1" d="M292.09,64h0Z"/><path class="cls-1" d="M292.77,64.21h-.17l-.08.05H293l-.09,0Z"/><path class="cls-1" d="M293,64.11l-.17,0,.09,0C293.12,64.18,293.26,64.15,293,64.11Z"/><path class="cls-1" d="M293.2,64.27h-.08l-.17,0C293.23,64.28,293.05,64.3,293.2,64.27Z"/><path class="cls-1" d="M293,64l.26,0-.17,0Z"/><path class="cls-1" d="M293.12,64.43v0l.42,0h-.42Z"/><path class="cls-1" d="M293.37,64.15h-.08l-.09,0h.43Z"/><path class="cls-1" d="M293.54,64.3h.17l-.08,0Z"/><path class="cls-1" d="M293.88,64.17l-.08,0h-.17l.25,0h-.34l.68,0,.26-.06-.43,0Z"/><path class="cls-1" d="M294.05,64.13l.17,0C294.39,64.13,294.05,64.13,294.05,64.13Z"/><path class="cls-1" d="M294.65,64.19s.11,0,.08,0Z"/><path class="cls-1" d="M297.12,63.42h.34A1.9,1.9,0,0,0,297.12,63.42Z"/><path class="cls-1" d="M386.77,58.21l-.17,0-.17,0,.17,0h0Z"/><path class="cls-1" d="M387.88,58.29h-.26v0A.86.86,0,0,0,387.88,58.29Z"/><path class="cls-1" d="M388,58.2h-.14c-.07,0,0,0-.28,0v0h-.09l-.17,0h.17l.09,0v0H388Z"/><path class="cls-1" d="M388.64,58.17l.09,0-.34,0Z"/><path class="cls-1" d="M389,58.13l.52,0h-.17Z"/><path class="cls-1" d="M391.46,57.93l.06,0h0Z"/><path class="cls-1" d="M393.42,57.92l-.26,0h.17Z"/><path class="cls-1" d="M394.44,57.86h.17l-.43,0C394.49,57.87,394.3,57.88,394.44,57.86Z"/><path class="cls-1" d="M398,57.25l.28,0,.5,0Z"/><path class="cls-1" d="M404.13,54.8h.16s-.12,0-.15,0h0s0,0,0,0a13.8,13.8,0,0,0-1.4,0,4.1,4.1,0,0,1,.78,0h-.7l-.55,0a4.45,4.45,0,0,0-.93,0l-.63,0a.71.71,0,0,0,.39-.09l-.15,0,.7,0s-.21,0,.16,0v0a19.78,19.78,0,0,0,2.18,0l-.31,0a1.9,1.9,0,0,0,.46,0,2.39,2.39,0,0,0,.55,0l.78,0-.68,0h-.33c.34,0,.14,0,.23,0H406c-.57,0-.44,0-.7,0l-1.09-.05c.23,0,.16,0,0,0,.46,0,.34-.11-.31-.15.43,0,.88,0,1.17,0l.15,0-.62,0,.39-.05c-.36,0-.15,0-.23,0a4.81,4.81,0,0,1-.55,0c-.21,0-.1,0-.08,0-.47,0-.44,0-.39,0l.47,0c.09,0-.1,0,.16,0h.15v-.07h-.7l.31,0h0c-.43,0-.38,0-.46,0h-.24l-.08.06-.46,0h.23l-1.09,0h2L400.7,54l.32,0-.55,0,.16,0-1.05,0h0c-.18,0-.1,0,0,0-.36,0-.77,0-1.16,0h.31l-2.18,0-.32,0,.86,0h0l-.39,0a9,9,0,0,0,.94,0l.08,0-.63,0c.62,0,1,0,1.56,0h0c-1-.07-2.24-.1-3.66-.12a7.07,7.07,0,0,1,.85,0l-2.25,0H394l.25,0h.66l.2,0-.49,0a3,3,0,0,0,.65,0l.7,0c-.14,0,.12,0,.15,0l.16,0h-.08l-1.41,0h-.38v0h-1.87a3.86,3.86,0,0,0-.76,0h-.51l-.29,0a.77.77,0,0,0,.39-.1h-.16l.7,0s-.2,0,.16,0v0a19.74,19.74,0,0,0,2.18,0l-.31,0a2.4,2.4,0,0,0,.47,0,1.84,1.84,0,0,0,.54,0l.78,0-.67,0h-.34c.34,0,.14,0,.23,0h.39l-.31,0h1.25a5.66,5.66,0,0,0-.7,0l-1.09-.06c.22,0,.16,0,0,0,.45,0,.33-.12-.32-.16.44,0,.88,0,1.17,0h.16l-.62,0,.39-.05c-.37,0-.16,0-.24,0a2.36,2.36,0,0,1-.54,0c-.21,0-.11,0-.08,0-.47,0-.44,0-.39,0l.47,0c.08,0-.11,0,.15,0h.16v-.06l-.63,0,.39,0h-.15a1.6,1.6,0,0,1-.47,0h-.23l-.08.06-.47,0h.23l-1.09,0h2l-3.27-.1.31,0h-.39c-.12,0-.53,0-1,0l0,0c-.17,0-.1,0,0,0l-1.16,0,.31,0-2.18,0-.31,0,.86,0h-.39c.48,0,.54,0,.93,0l.08,0-.62,0c.62,0,1,0,1.55,0-.05,0-.06,0,0,0-1-.06-2.24-.09-3.66-.12.36,0,.35,0,.86,0l-6.24-.09c.76-.07,5.63,0,6.47,0h.16c-1.38-.06-3.94,0-5.77-.1l-17.27-.24h-.35c-.59-.2-1-.28-1.08-.49h.46l-.54,0c-.2-.13.23.25.2.52-7.49-.14-18-.21-22.86-.18-4.14,0-7.77,0-9.76,0h-17c-3.49.08-8.07,0-12.08.06-3,.05-6.45,0-9.83.06-1.37-.06-2.95-.09-4.66-.12-.3-.31-.63-.64-.7-.69h-.16a6.72,6.72,0,0,1,.78.69c-3.4-.06-7.32-.06-11.23-.06h-.49c-.38,0-.69,0-.48,0h-.09v0h-.33l-.16,0a2.85,2.85,0,0,1-.48,0l.07,0h-5.38c-2.55-.09-9.4-.09-14.63-.11l.09.05h-.1v-.05c-3,0-5.45,0-6.26,0l-1.44,0,.19,0-.39,0h-.29l.29,0c-2.19.08-7.78-.1-10.31,0-.22-.05-4.45-.05-5.59,0l-19,.07-2.34,0h-.72l.29,0h-.29l-.39,0,.19,0-1.44,0c-.81,0-3.27,0-6.27,0v.05h-.09l.09-.05c-5.93,0-14,0-15.41.15-.32-.06-4.62,0-5.3,0l-.68,0c-.07,0-1.23.07-1.83.12l-.29-.08h-.29l-.58,0h-1l.39,0-.1,0h-.19l-.49,0-.57,0,1,0h0c-1.41,0-5.24.07-8.84.1l.13-.12h.23l.39,0a2.54,2.54,0,0,0-.57,0,2.45,2.45,0,0,1,.47-.38h-.17l-.39.38h-.12v0h.07l-.12.12c-3.5,0-6.76.07-7.37.12-.27,0-.15,0-.19,0l-.38,0-.68,0h-.19l.22,0h0l.31,0,3.66,0h.19l.19,0c-.52,0-.4,0-.67,0-2.21,0-4.43,0-6.55,0h0c.53,0,1.76,0,2.5,0l-.29,0h.2l.19,0h.1v0l.17,0h0l-.51,0-.67.06c-.72,0-1.77,0-2.25,0l-2.61,0c-.95,0-1.93,0-2.93,0,.16,0,.2,0,.08,0l-.22,0h-.48c.27,0,.37-.06.7-.09h-1l.29,0h-1v0l-.2,0-.09,0-.29,0-.58,0-2.4,0h-.59l-.09,0h0c-1.18,0-2.31,0-3.35,0h-17c-2,0-5.62,0-9.76,0-4.88,0-15.37,0-22.86.18,0-.27.4-.65.2-.52l-.54,0h.47c-.06.21-.5.29-1.09.49H87l-17.27.24c-1.83.06-4.39,0-5.77.1h.16c.84,0,5.71-.09,6.47,0l-6.24.09c.51,0,.51,0,.86,0-1.42,0-2.68.06-3.66.12.06,0,0,0,0,0,.58,0,.94,0,1.56,0l-.63,0,.08,0c.4,0,.46,0,.94,0h-.39l.85,0-.31.05-2.18,0,.31,0-1.16,0c.09,0,.17,0,0,0l0,0c-.52,0-.92,0-1,0h-.39l.31,0-3.27.1h2l-1.09,0h.23l-.47,0-.07-.06h-.24a1.55,1.55,0,0,1-.46,0h-.16l.39,0-.62,0v.06h.15c.26,0,.07,0,.16,0l.46,0c.06,0,.09,0-.38,0,0,0,.13,0-.08,0a2.46,2.46,0,0,1-.55,0c-.08,0,.13,0-.23,0l.39,0-.63,0,.16,0c.29.06.74,0,1.17,0-.65,0-.77.12-.31.16-.17,0-.23,0,0,0l-1.09.06a5.84,5.84,0,0,0-.71,0h1.25l-.31,0h.39c.09,0-.11,0,.23,0h-.33l-.68,0,.78,0a1.88,1.88,0,0,0,.55-.05,2.21,2.21,0,0,0,.46,0l-.31,0a19.78,19.78,0,0,0,2.18,0v0c.36,0,.17,0,.16,0l.7,0H59a.81.81,0,0,0,.39.1l-.29,0h-.51a3.76,3.76,0,0,0-.75,0h-.69c-.31,0-.45,0-1.18,0h-.39L54.2,54h-.08l.16,0s.3,0,.16,0l.7,0a2.91,2.91,0,0,0,.64,0l-.49,0,.2,0h.66l.25,0h.44l-2.25,0c.5,0,.5,0,.86,0-1.43,0-2.69.05-3.67.12.07,0,.06,0,0,0,.59,0,.94,0,1.56,0l-.62,0,.08,0a8.74,8.74,0,0,0,.93,0l-.39,0h0l.86,0-.31.05-2.19,0H52l-1.16,0c.08,0,.16,0,0,0H50.8l-1,0,.15,0-.54,0,.31,0-3.28.11h2l-1.09,0h.24l-.47,0L47,54.56h-.23a1.6,1.6,0,0,1-.47,0h-.16l.39,0-.62,0v.06H46c.26,0,.07,0,.15,0l.47,0s.08,0-.39,0c0,0,.13,0-.08,0a4.68,4.68,0,0,1-.54,0c-.08,0,.12,0-.24,0l.39,0-.62,0h.15c.29.06.74,0,1.17,0-.65,0-.76.11-.31.16-.16,0-.22,0,0,0l-1.09,0c-.25,0-.12,0-.7,0H45.7c.09,0-.1,0,.24,0H45.6l-.68,0,.78,0a2.39,2.39,0,0,0,.55-.05,2.4,2.4,0,0,0,.47,0l-.32,0a20,20,0,0,0,2.19,0v0c.36,0,.16,0,.15,0l.7,0h-.15a.71.71,0,0,0,.39.09l-.63.05a4.45,4.45,0,0,0-.93,0l-.55,0h-.7a4.1,4.1,0,0,1,.78,0,13.8,13.8,0,0,0-1.4,0v0h0s-.16,0-.15,0h.31l.26,0h0c.49,0,1.5,0,2.49,0l-.68,0h0l.23,0a4.34,4.34,0,0,0,.88.06h1.31c.26,0,.48,0,.62,0H54.2l5.14,0-3.66,0-.16,0h-.07l.31,0-1.09.05c-.32-.07-3.17,0-3.28,0l.24,0c-1,0-2.12,0-2.34,0s0,0,0,0h1.5l.29,0a1.16,1.16,0,0,1,.31,0h-.54l1.79,0h-.08c.85,0,2,0,3.12,0l-.23,0,1,0c-1.41.12-4.05,0-5.53.08l.15,0c-.65,0-1.23,0-1.87,0,0,0,0,.06,0,.08h.47l-.08,0h.23l-.07,0,2,0h.16v0a3.35,3.35,0,0,0,1.09.05l-.31,0a1.67,1.67,0,0,1-.24,0h.24l.15,0-1.4,0-.23,0,.46,0-.93,0v0h.08c.52,0,1.71,0,2.34,0a4.15,4.15,0,0,1-.55,0l4.83,0h-.31l.23,0h1.72l-.16,0-.47,0h4.14l-.24,0c-.33,0-.94,0-1.35,0H61l-.14,0h.33l.46,0h2.57c.3,0,.67,0,1.06,0l-5.35,0-.16.05H54.67l-.16,0-.08,0c1.92,0,5.69,0,5.85.06H59.5l-.08,0c.55,0,1.46.06,2.32.06H63l.2,0h-1c-2.06,0-4.22,0-4.6,0,.52,0,.3,0,.47,0h-.86l.23,0h-.86l2.11,0-.16,0H62l-.18.05h-.54l.08,0h-.06q-.72,0-1.29.06h-.13l-.08,0h0l-.87.07.29,0a6.93,6.93,0,0,0-1.06.12s.1,0-.19,0a.52.52,0,0,1-.17.06c-2.11,0-3.63,0-3.78,0,1,0,2.62,0,3.48,0l.18,0h.19a2.54,2.54,0,0,1-.48,0l.12,0c-2.34,0-4.65-.06-5.9,0h.23l3.27.09h0l-.54,0-.55,0,.24,0H52.8l.62,0-1.33,0,.71,0h4.4l-.27,0c.42,0,.49.07.51.11-.91,0-1.76,0-2.15,0l-.47-.05c-.61.08-2.59,0-3.43,0h0l.47,0h2.81l-.24,0c.87,0,2.29,0,3,0h-.39l.41,0a.72.72,0,0,0,.28.08c-.76,0-1.57,0-1.93,0h.31l-2.34,0a7.7,7.7,0,0,0-1,0l-.08,0,.15,0,.08,0h-.78c.17,0,.28,0,.24.05l3.89-.06c.8,0,.76,0,1.56,0,.13,0,.13,0,.08,0h.54c.09,0,.05,0,.39.08l.55,0a10.82,10.82,0,0,1-1.25,0l3.43,0-.15,0-6.86.14h1.17l-2.42.07h.55l-1.48,0h.31l-.24,0,1.71,0h0l2.06.06,2.23,0h-.54c.5,0,.77,0,1.4,0H59c.52,0,5-.05,5.3,0H64l.47,0h2.23l-.16.06h-.19a7.24,7.24,0,0,0,.92,0h0l-.06,0a7.85,7.85,0,0,0-.87,0h.31l-1,0h-.11l-.28,0h.54c-.07,0,0,0,.08,0h.29l.1,0h.5c-.27,0-.58,0-.79.09l-1.11,0h1l.25,0h.66c.23,0,.18,0,.88,0l.16,0,.75,0-.06,0h-.1l-.28.05h-.08l-.23,0H68s.13.06.69.08H68l-1.15,0v0h-.09L68,58.82l-.42.08h-.12a8.68,8.68,0,0,1-1.2,0,8.53,8.53,0,0,0,.87.05L67.7,59s0,0,0,0c.66,0,.95,0,2-.06h-.16l.06.07h-.17a7.24,7.24,0,0,0-.75,0H68.3c.18,0,.25,0,.08,0l-.23,0h-.24l-.23,0,.7,0c.18,0,.19,0,.08,0H68.3s-.06,0,.16,0h.15l-.13,0h-.1v0l-.18,0h0l.61,0h-.24l-.37,0h0l.16,0h.75a5.78,5.78,0,0,1-.6.07,9.81,9.81,0,0,1,1.17.07l-.31,0h-.47l.54,0,.08.05h0l0,0,.16,0h-.86l.39,0-.62,0h0l.54,0h.24l-.07,0h0l-.08,0a3.3,3.3,0,0,0-.62,0h-.47l.55,0c-1,0-.57,0-1.4,0h0l.46.06a1.75,1.75,0,0,0-.46,0l.07,0h-.78l-.39,0,.16,0c.33,0,.14,0,.16,0h.39l.62,0v0h-.38l.22,0-.74,0-1,0h.15c-1,.06-3.08,0-3.58.08h.23c-.57,0-1,0-1.48,0l1.4,0-3,.06,1.87,0-.31,0,1.8,0-.78,0h1.94c-.56,0-1,0-1.79,0l-.08,0h.6a1.25,1.25,0,0,1-.26,0l-.73,0-.07,0h.7v.07c-.42,0-.86,0-.7,0h-.32l.32,0c-.58,0-.9,0-1.18,0H60l-.39,0h1.56v0h.63l-.32,0c.24,0,.36,0,.24,0h-.08l-.31,0-.08,0h0c1.39,0,4.27,0,4.83.1H61.45l.07,0a8.35,8.35,0,0,0-.93,0l-.16.06-.39,0,.32,0H59.11l.7,0h-.08l.08,0c.25,0,.63,0,.47,0,.23,0-.09,0-.24.05,0,0,0,.08.24.12l.62,0A4.38,4.38,0,0,1,60,61H60c-.08,0-.12,0,.07.05l-.54,0c.17,0,.17,0,.08,0H59.5a3.66,3.66,0,0,0-.63,0h-.46L59,61c-1,0-.56,0-1.4,0h0l.47.06a1.83,1.83,0,0,0-.47,0l.08,0h-.78l-.39,0,.15,0c.33,0,.14,0,.16,0h.39l.62,0v0l-.31,0-.08,0h.24l.54-.09.7,0h-.54a4.28,4.28,0,0,1,.62,0l.16,0c.19,0,0-.07.23-.05-.05,0-.08,0,.08,0l.08,0,.47,0H60l-.46,0a9.83,9.83,0,0,0,1.32,0c-.6.06-.78,0-1.17.08l-.23,0c.22,0,.07,0,.08,0h-.32l-.31,0c1.15.08,1.37,0,1.87.07l.16.07h.62l-.62,0c.33,0,.26,0,.08,0l1.09,0h-.7l.31,0,.23,0s-.07,0,.16.05h.08l0,0h0a1.1,1.1,0,0,1,.42,0h-.42l1,0-.24,0c-.26,0-.13,0-.31,0h.94a1.85,1.85,0,0,1-.39,0h.07l.94,0-.16,0H65l-.54,0c.32,0,1.36.13,1.32.13.14,0,0,0-.15,0,.11,0,.12,0,.08,0h.54l-.08,0H66l-.39,0h0l-.54,0h.7l-.16,0H66v0l-.78,0,.54,0a5.85,5.85,0,0,0-.85,0l.46,0H65l1.56.05-.62.08a2.55,2.55,0,0,1,.31,0,2.91,2.91,0,0,0-.47,0h-.39l.47,0h-.23c-.22,0-.47,0-.31.06h-.55L65,62s.48,0,.55,0a1.06,1.06,0,0,0,.47.12,1,1,0,0,0-.32,0l-.07,0c.46,0,.61,0,.62,0,.27,0,.35.1.16.14a2.43,2.43,0,0,1,.7.08h-.39l.23,0,.7,0-.54.08a12.77,12.77,0,0,1,1.48.07v0s-.08,0,.31.07a9.29,9.29,0,0,1-.94,0l.94.06-.08,0c-.4,0-1.13.07-.78.12l-.46,0,.54.08-.54,0c.37,0,.48.06.15.09a12.21,12.21,0,0,1-1.48,0c.84.07,1,.1,1.09.22h-.7l.47,0-.08.12c.44,0,.4,0,.47.08h.46v0l2.19,0c-.14,0-.17-.06.15-.07,1.71,0,4.34.07,5.38.12l.08,0h-.24l.16,0h.23l0,0,.64,0h0l.16,0H78l.68,0,.13,0-1.49,0c.28.05,0,0,.07.07l1.78,0c-.45,0-.92,0-1.36,0l-.07,0h-.35s.09,0-.07,0h1.26l-.39.06-1.06,0c-.07,0,0,0,.2,0L76.1,64l1.26,0,.19,0a6,6,0,0,0-1.25.07c.69,0,.31,0,1,0l-.19,0a1.21,1.21,0,0,1,.38,0l.29,0c.77,0,.61,0,1.16,0l.1,0h-.39c1.33.08,2.8,0,5,0,.4.06.94.07,1.25.14.69,0,.89,0,1.45,0,.21,0,.35,0,.38.07l.29-.05h.1l-.1.06a39.79,39.79,0,0,1,4.34-.12l-.19,0h.38l.1,0-1.06,0h0l1.54,0a.72.72,0,0,0-.19,0l-.1,0,.48,0v0c.16,0,.09,0,0,0h.1a1.85,1.85,0,0,1,.39,0l.77,0-.49,0,.58,0,.48,0c-.05,0,.64,0,1,0v0l.38,0-.38,0,.87,0-.49,0,.2,0h.53l.47,0H97l.08,0h-.47a8.12,8.12,0,0,0,.91-.06v0l.62,0h.15c1,0,2.67-.09,3.18-.12h.91l-.14,0h-.79c.65,0,1.48,0,2.41,0h-.7c1.56.08,3.43-.07,4.37,0H107c.81,0,9.78-.12,10.83,0,.87,0,2-.07,3,0h-.54l1.32,0h-.23l-.39,0c.78,0,1.52,0,2.1,0h0l-.15,0h-1.17v0h3.12l-.55,0h.23a6.94,6.94,0,0,1,1,0h-.32c-.06,0,0,0-.31,0,1.65.06,3.82,0,6.55,0,4.85.07,13.15.06,19.45,0l.87,0,.29,0h.31c-.21.06-.63.07.26.11l-.48.08h.19l.87,0h.1c-.21,0-.74,0-.29.08l3.47-.12.29,0h1.06l.86-.09-.09,0h-.77l.67,0c3.84,0,10.36.06,10.82,0h.15l-.47,0,.24,0c1.1,0,1.65.06,2.41,0a6.51,6.51,0,0,1-.85,0c.74,0,.78,0,1.48,0l-.55,0H172l.23,0,.25-.05h5.34l.29,0,.13,0h.39a1,1,0,0,0-.33.05h-.16l-.11,0v0h-1.2s-.12,0-.16,0l-.25,0,.2,0c-.45,0-.84,0-1.11,0l1.35,0h1.77c.34,0,.22,0,.26,0l-.16,0h-.18a1.22,1.22,0,0,0,.46-.06h1.29s.24,0-.19,0c.24,0,.33,0,.19.07h.49v0a6,6,0,0,0,.81-.12h.61l-.08,0h.43l-.18,0,.68,0h0l.09,0c.12,0,.07,0,.09,0a3.31,3.31,0,0,1,.42,0h.54l-.11,0,.29,0H186v0l.12,0,2.59,0c1.2,0,2.31,0,3.46,0-.08,0,.11.08.44.12-2,0-3.58,0-4,0l4.8,0H194a.57.57,0,0,0,.19,0,4.93,4.93,0,0,0,.87.05l.38,0,.27-.06h.21l-.19,0h.1l.09,0,6,.06h-.16c-1,0-2.64,0-3.52,0l.69,0h.07s0,0,0,0l.6,0-.17,0,.34,0,.42,0,.09-.07.17,0,.43,0,.25.06.17,0v.06l.26-.06h.25l.26,0c-.16,0-1.29,0-1.51.06h.23v.06h.34l-.08,0c.72,0,1.3,0,2,0l.17-.06c.48,0,.2.07.08.07l.34,0s.92,0,1.11,0l.07,0h0l.16,0,.05,0,1.05.07-1.27,0h-.26l2.39,0,2,.12v0l1.35.06c.07,0,.33,0,.19,0h-.1l.1,0c-.52,0-1.31-.08-2-.11h2.11c1.63,0,3,0,3.25,0l1.28,0H215l.34,0H215l.85,0,.26,0,.85.06,1.19,0-.17,0h.43l-.17.06c1.11,0,2.34,0,3.24,0,.25,0-.07,0,.34,0,.13,0,4.75.07,5.2,0l.51.05H227l.76,0c1.29-.07,3.42-.06,4.52,0l.09,0h.08c1.72,0,4.3-.12,5.8,0,.66,0,.28,0,.51,0,.4,0,2.6,0,3.41,0l-.09,0h.34l.43,0,.08,0,.17,0,.17,0,.26,0c.1,0,.6,0,1,.06l.26,0v0l.42,0c.08,0,0,0-.34,0h.51v0a2.47,2.47,0,0,0,.69,0l.34,0-.09,0h.6l-.43,0c.37,0,.16,0,.17,0l.6.08h.08l.26,0c-.27,0-.17,0,0-.08a2,2,0,0,1-.51,0l.17,0a1.16,1.16,0,0,0-.34,0l-.09,0c-.21,0-1.14,0-1.36,0l-.17,0h.08c.22,0,.21,0,.52,0l.42-.07-.08.05h1.87v0l-.94,0a3.38,3.38,0,0,1,.6,0c-.07,0-.06,0,.09,0l-.09,0h.47a1.2,1.2,0,0,0-.21,0l.17,0,0,0h0l0,0h.34a2.13,2.13,0,0,1,.51,0l.77,0h.17l-.08,0c-.18,0-.18,0-.09,0h-.26s-.05,0,.18,0l-.52,0h-.17c.86,0,1.07,0,1.62,0l.09,0c.51,0,.73,0,1.11,0h.17l.17,0a.43.43,0,0,0,.25,0,23.92,23.92,0,0,0,2.81,0l.09,0,.34,0v0l2,0c.43,0,.07,0,.34,0s.19,0,.17,0h.85c.48,0,.37,0,.43,0l.94,0,.17-.05.17,0,.2,0h0a9.79,9.79,0,0,0,1.5,0l.26,0,.25,0-.17,0c-1.07,0-2.15,0-3.32,0v0l-.43,0v0c-.66,0-.58,0-1.1,0l.08,0c-1.35,0-4.39,0-6.9,0h0c-.34,0-.63,0-.77,0l-.25,0,.08,0a8.37,8.37,0,0,0,1,0l.17,0s.24,0-.08-.06a2.72,2.72,0,0,0,.43,0l.25,0h.26c-.17,0-.1,0,.25,0h-.17c.51,0,1.72,0,2.13,0,1.58.07,6.74,0,6.82,0,.48,0,.36,0,.51,0l.34,0-.25-.07H262l.17,0H263l.09,0s0,0-.17,0l.17,0,.48,0,.12,0a7.38,7.38,0,0,0,.93,0v0l.26,0,.6,0-.18,0,.77,0v0l.43,0-.26,0h.43v0l.08-.11.17.06H267l.6,0-.25,0h0l-.17,0,.17,0c.17,0,.11,0,.17,0,.28.05.19,0-.17.05h0l.42,0a3.22,3.22,0,0,1,.76,0v0l.26,0H269l.34,0,.17.06h.09l.08,0,.09,0,.68,0-.09,0,.29,0h.11c.22,0,.08,0,0,0l.34,0h.08a1.78,1.78,0,0,0,.35,0c.06,0,.12,0,.08,0l.6,0h.08l-.17,0h.43v0c.05,0,.2,0-.17,0a1.89,1.89,0,0,1,.51,0h.34l-.26,0,1.79-.08.26,0a8.09,8.09,0,0,1,1,0l.09,0c-.36,0-.8,0-1.11-.05s-2.22,0-3.81,0c-.13,0,0,0,0,0h-1a2.39,2.39,0,0,0-.57,0h.23l-.17,0c.42,0,.34,0,.42,0h.34l.26-.06.25,0,.43,0c-.06,0-.11,0,.09,0l.08,0h.26l-.07,0-.19,0,.34,0,.09,0h.34l-.26,0,.56,0h.18c-.06,0,0,0,.28.07h.35c.14,0-.12,0,.25,0h0l-.15,0h.17v.06l.26,0h.34l-.26,0c.49,0,.33,0,.45,0l.06,0h.29l-.09,0,.06,0,.08.05.17,0,.09,0,.09,0h0c.16,0,.38,0,.42,0,.28,0,.09,0,.17,0h.54l.06,0,.17.05.08,0a1,1,0,0,0,.34,0l.43.05.17,0-.17,0v-.08h-.08v0h-.09l-.34,0h-.26l-.17.06-.08,0-.32,0,.46,0c.14,0,.56,0,1.1,0l-.13,0,.14,0h.13l-.27,0c.39,0,.16,0,.34,0h.1l.23,0a6.81,6.81,0,0,1,.77,0l.08,0h.1l.1,0h.2l-.22,0h.6v0l.17,0v0h.4l-.06,0a2.48,2.48,0,0,0,.34,0h.15l.19,0s0,0,0,0l4.42.08a1.51,1.51,0,0,0-.39,0l.07,0a11.12,11.12,0,0,1,1.53.08l.43,0c.14,0,0,0,.17.06l-.43,0-.08.09L287,64l.26,0h.17l-.26,0,.43,0V64c.67,0,.56.05,1.45,0l-.18.09-.25,0-.09,0,.34.08.09,0c.2,0,.43,0,.34,0a1.56,1.56,0,0,0,.43,0l.42.05.6-.08-.17,0,.34,0c.19,0,0,0-.09,0l.18,0,.67,0h.26s0,0,.09,0h.17l-.26,0,.6,0v0h-.26l.51,0h-.59V64c.25,0,.1,0,.17,0,.36,0,.13-.06,0-.11h-.17v0L292,64h0l-.09,0,.43,0-.09,0h.2l1.09.09H293l-.13-.06h-.26l-.17,0,.26,0-.09,0,.17,0h0l.16,0-.2,0H293l.31,0h-.14c.21,0,.24,0,.08,0l.26,0,0,0h.24l.4.08-.21-.08h.38l.25,0-.14,0h.24l.29,0,3.47.12c.45,0-.08,0-.29-.08h.1l.86,0h.2l-.48-.08c1,0,.35,0,.19-.13h.19l.48.06c.82,0,1.06,0,1.83,0a12.83,12.83,0,0,0-1.44-.15h-.19c.39,0,.17,0,.38,0h.29l1,.06a8.37,8.37,0,0,0-1.25-.08l.19,0-1-.05-.1,0h.2l.77,0h.09s0,0-.19,0h.58l1.83.14h.1l-1.06-.12.09-.08c.83,0,1.5,0,1.74,0,.65-.06-.3-.14-1.38-.19,5.13,0,11,0,15.13,0l1.55,0-.2,0h3.47c.63,0,3.33.17,4.34.09l-.1,0a4,4,0,0,1,.58,0l.1,0a7.67,7.67,0,0,0,.87,0,4.88,4.88,0,0,1,1.35-.06H329c-.14,0-3.18,0-3.28-.09H326c1.44,0,2.89.06,4,.08h0l-.39,0,.78,0c.28,0,.1,0,.09,0l1.35,0-.38,0H333l-3.08-.08h1.45l-1.67,0h-.14c.38,0,.79,0,1.2,0h.85l1,0,.46,0c2.68,0,5.21.06,5.92,0l-.07,0h.24l.5.05c1.71,0,2.38.06,3.28,0h-.29v0l-1.54,0h0l2.33,0h0l-.1,0h0c.49,0,1.11,0,1.78,0-.47,0-1,0-1.45,0l-.09,0a19.42,19.42,0,0,1,2,.08,9.11,9.11,0,0,1,1.74.06h-.1l-1.06,0-.19,0,1.25,0-.48,0H347c.34,0,.25,0,.29-.06.44,0,.57,0,1.44,0,0,0,.28,0,0,.06h.58l-.19,0h1c.67,0,3.3.12,3.95.14v0a16.24,16.24,0,0,0,1.83.07l.19,0-.48,0,.87,0-.39,0,.39,0v0c.33,0,1,0,1,0l.49,0,.57,0-.48,0,.77,0a1.85,1.85,0,0,1,.39,0h.09c-.09,0-.15,0,0,0v0l.49,0-.1,0a.67.67,0,0,0-.19,0l1.54,0h0l-1.06,0,.1,0h.38l-.19,0a39.79,39.79,0,0,1,4.34.12l-.1-.06h.1l.28.05c0-.05.18-.08.39-.07.56,0,.76,0,1.45,0,.31-.07.85-.08,1.25-.14,2.21,0,3.68.09,5,0h-.39l.1,0c.55,0,.39,0,1.16,0l.29,0a1.21,1.21,0,0,1,.38,0l-.19,0c.65,0,.27,0,1,0a6.86,6.86,0,0,0-1.25-.07l.19,0,1.25,0-1.25-.07c.24,0,.27,0,.19,0l-1.06,0-.38-.06h1l-.19,0c-.71,0-1.46,0-2.12,0a2.52,2.52,0,0,0,.67-.06l.29,0,.29-.06.68,0h.09s0,0-.08,0c.72,0,1.76,0,2.3,0a9.23,9.23,0,0,0-1.73-.17h.19l.29,0,1.25,0c-.53,0-1.81-.09-2-.13h.06l.15,0h-.12l-.77,0,.58,0,.17,0h1c-.27,0-.26,0-.31.07h.23l.16,0h-.24l.08,0c1.05,0,3.67-.17,5.38-.12.32,0,.3,0,.16.07l2.18,0v.05h.47c.06-.06,0-.07.46-.08l-.07-.12.46,0h-.7c.11-.12.26-.15,1.09-.22a12.18,12.18,0,0,1-1.48,0c-.33,0-.21-.06.16-.09l-.55,0,.55-.08-.47,0c.36-.05-.37-.12-.78-.13h0c.34,0,.76,0,.44-.06h0l.46,0a7.41,7.41,0,0,1-.85,0h-.07c.36,0,.31,0,.29-.07v0a12.86,12.86,0,0,1,1.49-.07l-.55-.08.7,0,.23-.05h-.38A2.35,2.35,0,0,1,384,62c-.2,0-.12-.12.15-.14,0,0,.16,0,.63,0l-.08,0a.87.87,0,0,0-.31,0,1,1,0,0,0,.46-.12c.07,0,.59,0,.55,0l.23,0h-.54c.15-.05-.1,0-.31-.06h-.24l.47,0h-.39a2.84,2.84,0,0,0-.47,0,2.55,2.55,0,0,1,.31,0l-.62-.08,1.56,0H385l.47,0a6.09,6.09,0,0,0-.86,0l.55,0-.78,0v0h.31l-.16,0h.7l-.54,0h0l-.39,0h-.08l-.08,0h.55c-.05,0,0,0,.08,0-.2,0-.3,0-.16,0,0,0,1-.12,1.33-.13l-.55.05h.78l-.16,0,.94,0h.08a1.92,1.92,0,0,1-.39,0h.93c-.18,0-.05,0-.31,0l-.23,0,1.05,0h-.43a1.26,1.26,0,0,1,.42,0h0l0,0h.08c.22,0,.11,0,.15,0l.23,0,.32-.05h-.7l1.09-.05c-.18,0-.25,0,.07,0l-.62,0h.62l.16-.07c.5-.07.72,0,1.87-.07l-.31,0h-.31s-.15,0,.07,0l-.23,0c-.39,0-.57,0-1.17-.08a10,10,0,0,0,1.33,0l-.47,0h.08l.46,0,.08,0c.16,0,.13,0,.08,0,.25,0,0,0,.23,0l.16,0a4.28,4.28,0,0,1,.62,0h-.54l.7-.05.55.09H393l-.08,0-.31,0v0l.62,0h.39s-.17,0,.16.05l.15,0-.39,0h-.77l.07,0a1.75,1.75,0,0,0-.46,0l.46-.06h0c-.83,0-.43,0-1.4,0l.55,0h-.47a3.65,3.65,0,0,0-.63,0h-.07c-.1,0-.1,0,.07,0l-.54,0c.19,0,.15,0,.08,0h-.08a4.38,4.38,0,0,1-.86,0l.63,0c.27,0,.19-.09.23-.12-.14,0-.47,0-.23,0-.17,0,.21,0,.46,0l.08,0h-.08l.7,0H390l.31,0-.39,0-.16-.07c-.56,0-.54,0-.93,0l.08,0h-4.68c.56-.09,3.44-.07,4.83-.11h0l-.08,0-.31,0h-.08c-.12,0,0,0,.24,0l-.31,0h.62v0h1.56l-.38,0h-.24c-.28,0-.6,0-1.17,0l.31,0h-.31c.15,0-.29-.07-.7,0V59.9h.7l-.08,0-.73,0a1.25,1.25,0,0,1-.26,0h.6l-.08,0c-.78,0-1.22,0-1.79,0h1.95l-.78,0,1.79,0-.31,0,1.87,0-3-.06,1.4,0c-.52,0-.9,0-1.48,0h.24c-.5,0-2.57,0-3.59-.08h.16l-1.05,0-.75,0,.23,0h-.39v0l.63,0h.39s-.17,0,.15.05l.16,0-.39,0H383l.08,0a1.83,1.83,0,0,0-.47,0l.47-.06h0c-.84,0-.43,0-1.41,0l.55,0h-.47a3.31,3.31,0,0,0-.62,0l-.08,0h0l-.06,0h.23l.55,0h0l-.63,0h.14l0,0h.34l.09,0-.08,0,.95,0h-.45s-.07,0-.08,0l.86,0h-.2l.64,0-.68,0,.68,0h0a2.76,2.76,0,0,1-.52-.09H383c-.06,0-.09,0,.08,0l-.34,0c-.21,0-.14,0-.23,0l-.11,0v0a1.15,1.15,0,0,0,.43,0l.08,0,.59-.12.84.11a8.3,8.3,0,0,0,.86,0,6.68,6.68,0,0,1-1.73-.15l1.25.06h-.09v0l-1.84-.05c1.28-.06.5-.13.07-.22h.21c-.1,0,0,0,.08,0H384V58.4h-.45l.87,0c.47,0,.15,0,.51,0h.66l0,0-.11,0h0l.25,0,.17,0h-.51l-.27,0,.87,0,.12,0h0l.1,0c.08,0-.12,0,.17,0s.79,0,1.2,0h-.34s-.69,0-1.29,0h0l-.55,0c-.4,0-.1,0-.26,0s0,0-.25,0h0l.17-.09h0l.08,0h.26l-.26-.09h-.16l-.07,0h.49l.17.09a3.06,3.06,0,0,1,.6,0c.29,0,0,0,.25,0,.09,0,0,0-.25,0,.27,0,.26,0,.59,0s.38,0,.26.05c.61,0,.22-.05.43-.07h0l.23,0-.23,0h.23l.07,0h-.07l.26,0,.76,0v0l.26.06.07-.09h-.07l.08,0v0l.19,0,.25,0,.09,0v0l.42-.07.09,0,.25,0-.17,0,.09,0h.67l-.5,0,.42,0a5.78,5.78,0,0,1,.86,0l-.07,0,.34,0,.31,0h-.69l-.4,0c.08,0,.1,0,.42,0l-.5,0s0,0-.05,0l0,0h-1c-.13,0,0,0-.72-.05h-.09l.06,0-.4,0a4.61,4.61,0,0,0-.51,0l.25,0h-.17l-.41,0,0,0a2.57,2.57,0,0,1-.68,0l.2,0h-.29l-.2,0h.68l-.07,0h0c.6,0,1.33,0,1.45,0l.17,0,.86,0h.86c-.63,0-1.29.08-1.71.11h.16a.92.92,0,0,1,.34,0h.08l-.17-.05.51,0-.34,0h.77c-.17,0,0,0-.26,0l1.59-.13h-.12l2.24,0,2.05-.06h0l1.71,0-.23,0H398l-1.48,0H397l-2.41-.07h1.16l-2.19,0c.85-.11,0-.22,1-.29l-.3,0h.06l.24,0h.09l3.32,0c-.05,0,.06,0,.23,0h-.78l.08,0,.16,0-.08,0a7.77,7.77,0,0,0-1,.05l-1.94,0-.06-.08-.77,0v0h.58c-.37,0-.45,0-.43,0,.69,0,1.45,0,2,0l-.23,0h2.8l.47,0h0c-.83,0-2.81.06-3.43,0l-.47,0H394l.06,0a2.54,2.54,0,0,1-.48,0h.19l.29,0a1.94,1.94,0,0,1-.51-.08h4l.7,0-1.33,0,.63,0h-1.48l.23,0-.55,0h-.54l3.27-.09h.24c-1.44-.08-4.24,0-6.89,0a20.64,20.64,0,0,0-2.12-.1h0l2,0h-.47a11.33,11.33,0,0,1,1.41,0l-.24,0c.61,0,2.74,0,3.9,0-.21,0-3.24,0-6.81,0l-.13,0h.24l.54,0c-.41,0-.67,0-1,0h-.86l.38,0-1,0-.19,0-.1,0h0l.16,0c-.73,0-.35-.05-1.13-.08.77,0,1.6,0,2.59,0l-.08,0,.08,0-3.14,0-1,0,6.89,0-.16,0,2.11,0h-.86l.24,0h-.86c.16,0-.06,0,.47,0-.47,0-3.52,0-5.85,0l.07,0-.81,0h-.66l-.37,0,1.39,0h.23s.11,0-.16,0l1.4,0h.64c.86,0,1.77,0,2.32-.06l-.08,0h-.77C390.26,56,394,56,396,56l-.08,0-.15,0h-5.07l-.15,0-5.36,0c.39,0,.76,0,1.06,0h2.58l.45,0h.33l-.14,0H391l-.55,0-.2,0h-.86c-.41,0-1,0-1.35,0l-.23,0h4.13l-.47,0-.16,0H393l.23,0h-.31l4.83,0a3.8,3.8,0,0,1-.54,0c.63,0,1.81,0,2.34,0h.07v0l-.93,0,.47,0-.24,0-1.4-.05.16,0h.23a1.3,1.3,0,0,1-.23,0l-.32,0a3.35,3.35,0,0,0,1.09,0v0h.16l2,0-.08,0h.23l-.08,0h.47s0-.07,0-.08c-.64,0-1.22,0-1.87,0l.16,0c-1.49-.07-4.13,0-5.54-.08l1,0-.24,0c1.13,0,2.28,0,3.12,0h-.08l1.79,0H399a1.16,1.16,0,0,1,.31,0l.29,0h1.5s.09,0,0,0-1.34,0-2.33,0l.23,0c-.11,0-2.95-.11-3.27,0l-1.09,0,.31,0h-.08l-.16,0-3.66,0,5.14,0h2.65c.15,0,.37,0,.63,0h1.3a4.26,4.26,0,0,0,.88-.06l.23,0h0l-.67,0c1,0,2,0,2.48,0h0l.26,0Zm.24-.27v0h-.08Zm-.39-.07h.15l-.15,0Zm.31-.25.31,0-.31,0-.39,0A1.12,1.12,0,0,0,404.29,54.21Zm-9.67-.92v0h-.08Zm-.39-.08h.16l-.16,0Zm.31-.25.32,0-.32,0a1.85,1.85,0,0,1-.39,0A1.12,1.12,0,0,0,394.54,53Zm-238.16-.74.09,0h.1ZM55.76,53.79v0l.08,0Zm.39-.07-.15,0h.15ZM46,55v0l.07,0ZM46.4,55l-.15,0h.15Zm3.38-.47c.45,0,.38,0,.44,0-.25,0-.34,0-.44,0h0l-.08,0Zm0,0h-.31l-.08,0Zm-.31.14c.16,0,.09,0,.08,0h-.23l.07,0Zm-.23,0h-.16l.24,0Zm-.24.17-.23,0h0l.39,0-.08,0Zm.08,0H49A.53.53,0,0,1,49.13,54.87Zm-.31-.25v0l.08,0Zm-.23-.06.62,0h-.62Zm.08.33-.71,0h.63Zm-.39,0-.39,0A1.2,1.2,0,0,1,48.28,54.9Zm-.24,0v0C48.1,54.89,48.19,54.88,48,54.89Zm.24-.31c.13,0,0,0-.16,0Zm-.24,0v0h0Zm.39.1v0l-.62,0Zm-.47,0-.15,0S48,54.73,48,54.75Zm-.15,0-.39,0C47.49,54.76,47.39,54.77,47.81,54.76Zm-.55,0-.15,0,.31,0ZM47,54.63h.15l-.23,0Zm-.08.08h-.39Zm-.86,0-.31,0,.31,0a1.14,1.14,0,0,0,.39,0A2.65,2.65,0,0,1,46.09,54.74Zm.63,0,.15,0h-.31Zm-.08.28v0C46.7,55,46.78,55,46.64,55Zm.7-.17h-.08c.05,0,.07,0-.08,0l-.46,0Zm-.55.13A.67.67,0,0,1,47,55Zm0,0v0a2.25,2.25,0,0,0,.55,0h.23a1.81,1.81,0,0,1-.46,0Zm.47.1a.58.58,0,0,1,.16,0Zm.08,0h.23l.32,0H47.5Zm.7.06h0s-.09,0,.08,0h.31Zm.55,0a8.94,8.94,0,0,0-1.25,0l.08,0,2.26,0Zm1-.22h0l.55,0H49.6Zm.39.34.31,0v0H50Zm.23-.08a1.71,1.71,0,0,1,.32,0Zm.63-.56h-.47v0h.08l.39,0Zm3.58-.24h-.08l-.15,0Zm-.08.27h-.07v0Zm-1.55-.15h-.32l-.07,0Zm-.86.64h-.16l-.08,0C52,55,51.86,55,51.94,55Zm-.63-.54.16,0h-.23l-.16,0Zm.16.05h0Zm-.23.08-.31,0,.62,0Zm.62.49h-.08l-.08,0Zm0,.17h-.08l.16,0,.15,0Zm.31,0a.58.58,0,0,1,.16,0Zm.16-.81c-.11,0,0,0,.23,0Zm.39.6-.08,0,.23,0Zm.54.17h0l.31,0Zm-.07-.87Zm.46.23.47,0v0h.16l-.16,0h-.47C53.84,54.63,53.78,54.65,53.65,54.62Zm.16.07.15,0C54.05,54.69,54.06,54.68,53.81,54.69Zm.47.28-.16,0,.31,0Zm0-.3h0l.15,0Zm.12-.08h0Zm.63-.11h.15l-.15,0H55Zm.15.81-.15,0h.39Zm.16-.53v0C55.45,54.75,55.47,54.74,55.37,54.76Zm-.16-.58-.15,0,.39,0Zm-4.75,1.33H50.3l-.15,0h.31Zm1.95,0-.16,0h.39l.23,0Zm2,.05-.23,0h.54Zm1-.14a5.78,5.78,0,0,1,.77,0Zm-5.3.35h.07l-.15,0,.39,0Zm.54,0h-.15s0,0-.16,0l.08,0h.15Zm.24,0c.08,0,0,0,.23,0Zm.23,0a1.84,1.84,0,0,1,.47,0Zm3.51.09h-.24l-.08,0Zm-1.17-.05h-.24S53.3,55.77,53.5,55.79Zm.07.06H53.5l-.16,0Zm-.46-.14v0H52.8Zm-.39,0c.06,0,.14,0,0,0Zm-.63.32a.53.53,0,0,1-.15,0l.23,0Zm.55,0V56h-.23c-.17-.05.2,0-.16-.05h.39Zm.39.08v0h.08l.08,0Zm.08-.05H53c.13,0-.07,0,.24,0ZM53,55.89c.19,0,.22,0,.16,0h-.55a1.47,1.47,0,0,1,.78,0h.39l-.47,0Zm.55.21h-.08l.08,0Zm.39,0h0l-.32,0h.32Zm.07-.19s-.17,0,.08,0Zm.24-.06.08,0h-.16Zm0,.27v0h0Zm.31,0h0Zm.16,0-.08,0h.08Zm.07-.13-.46,0,.31,0h.08l.39,0Zm.86.17-.23,0h.08l.39,0Zm.62-.3-.15,0h.23l.16,0Zm.55,0,.16,0C56.82,55.84,57,55.82,56.77,55.84Zm1-.42-.07,0C57.9,55.41,57.74,55.4,57.78,55.42Zm.16.68h-.39a1,1,0,0,1,.39,0h-.16Zm-.08-.16v0l.08,0Zm1-.33h0Zm1.72,2.59h0C60.67,58.2,60.7,58.19,60.59,58.2Zm1.87,2.2-.08,0h.24Zm.39.11.15,0C63.13,60.5,63,60.5,62.85,60.51Zm.86.07h-.16l.08,0h.08Zm.07-.06h-.23C63.7,60.51,64,60.5,63.78,60.52Zm-5,.61-.39,0h.31l.08,0Zm1.09,0h-.08c.08,0,0,0,.23,0Zm5.84.69-.15,0h.15ZM65,62l.24,0C65.21,62,65.3,62,65,62Zm184.45,2.43.09,0h-.34Zm4.18-.14h0Zm-2.22.08h0ZM273.09,64a1.36,1.36,0,0,1-.34,0l.25,0Zm-.43,0c.13,0,.2,0-.08,0ZM271,64h0ZM375.2,63.5l.29,0h-.29Zm10.15-2c-.27,0-.18,0-.23,0Zm-.62-.25h.08l-.16,0h.08Zm6.86-.66.07,0H392l-.39,0Zm-1,0h-.07l-.16,0C390.6,60.61,390.49,60.58,390.57,60.61Zm-1-.23h.31l-.08,0h-.15l-.08,0Zm.47.06-.16,0-.39,0Zm-3.35-.34v0h.07l.08,0Zm1.32-.21-.08,0-.15,0Zm-.62.11.15,0C387.35,60,387.25,60,387.38,60Zm-.55,0h-.23C386.37,60,386.68,60,386.83,60ZM382.93,59h0Zm15.51-3.43a.53.53,0,0,1-.15,0l-.08,0Zm-.7,0h.39c-.36,0,0,0-.15,0h-.24Zm2.5-.18h-.31l.39,0-.16,0Zm-.55-.06h.24l.07,0c-.14,0-.11,0-.15,0h-.16l.08,0Zm-.23,0-.24,0C399.5,55.28,399.37,55.29,399.46,55.3Zm-.24,0h-.46A1.77,1.77,0,0,1,399.22,55.27Zm1-.26-.16,0h.16Zm-2.5,0h.39l-.15,0h-.47Zm-1.56.06-.23,0-.31,0C396,55.08,395.75,55.09,396.18,55.08ZM394.94,55l-.78,0A6,6,0,0,1,394.94,55Zm.93.64h0Zm-.39,0h.31l-.07,0Zm.7,0h0Zm.71,0v0l.07,0Zm.46-.06v0h-.15l.08,0h.07Zm-.15-.05c.31,0,.1,0,.23,0h-.15Zm.47-.3h0C397.52,55.22,397.61,55.22,397.67,55.21Zm-.39,0,.31,0h-.31Zm-.16.09h-.23C397.09,55.29,397.1,55.31,397.12,55.32Zm-.08,0-.15,0-.08,0Zm0,0a1.53,1.53,0,0,1,.78,0h-.54c-.07,0,0,0,.15,0l-.31,0-.47,0Zm-.54.19v0h.31l-.31,0Zm-.08-.19-.08,0C396.6,55.4,396.45,55.37,396.42,55.41Zm-.24-.06.08,0h-.15Zm-.15,0h0Zm-.31,0h.07l.32,0-.47,0h-.31Zm-.78.19H395l-.24,0h-.23Zm-.86-.31h.23l-.15,0h-.24Zm-.47.08c-.22,0-.05,0-.15,0Zm-.93-.45-.08,0S392.48,54.93,392.68,54.91Zm-.16.53v0h-.08Zm-.08.16c.1-.05.31,0,.39,0h-.39l.16,0Zm-.93-.49h0ZM398,53.87l-.08,0h-.31Zm-1.8-.11-.15,0H396Zm-.07.26v0H396Zm-.78-.34-.16,0h-.23Zm-.31.58v0C394.91,54.26,394.93,54.27,395,54.26Zm-.55-.66-.16,0h.16Zm-8.28,2.74h.29l-.29,0-.1,0Zm1.81.16h0Zm1.95.17-.58,0,.09,0h.4Zm3.27.3-.09,0v0Zm.1.53-.19,0v0h.19Zm-1.16,0h-.09v0Zm-5.24.37h0Zm-28.78,5.41h0Zm-3.95.07h0C354.12,63.35,354,63.36,354.19,63.35Zm-.86,0,.27,0H354Zm-3.13-.49-.62,0c.05,0,.1,0,0,0-.36,0-.32,0-.7,0l-1.64,0a25.45,25.45,0,0,1,2.73,0l-.39,0h.7s-.11,0,.08,0,.08,0,.08,0h1.09l.15,0-1.94,0,.46,0-.78,0H349l.9,0h3.48v0l.2,0v0l.09.05a3.74,3.74,0,0,1,.68,0h-.58l.29,0h-.62s-.11,0-.08,0C353.11,62.7,350.15,62.84,350.2,62.87Zm-8.57.33h-.93l-.79,0h2.81l.24,0A11.3,11.3,0,0,0,341.63,63.2Zm-2.73,0h-2.18l-.23,0h.26l.1,0c.13,0-.16,0,.29,0l.29,0,.29,0-.1,0a1.25,1.25,0,0,0-.29,0l.19,0h.29a1,1,0,0,1,.29,0l.48,0-.09,0,.34,0h-.16Zm-47,.27-.05,0-.09,0h.14Zm-.73.31v-.06C291.35,63.76,291.33,63.76,291.16,63.8Zm-.22,0h0Zm-1.23.11h.08l.26,0-.17,0-.17,0Zm-.26,0h0l.26,0Zm.26,0,.17-.06.17.08c-.15,0-.14,0-.17,0Zm.34.13s0,0-.09,0Zm0-.16.34,0A2.15,2.15,0,0,1,290.05,63.84Zm.42,0h0Zm-3.14-.41h0Zm-5.68,0h0Zm-6.71-.06-.07,0h.07Zm-1.38.13.13,0h-.26l.09,0h0Zm-.13,0v0l.4,0,0,0h-.16A.74.74,0,0,0,273.43,63.58Zm0,0-.16,0v0Zm-1.26,0h0Zm-.22,0h-.22Zm-.29,0h.27s0,0,0,0Zm-.46-.23H272v0l0,0h0l-.06,0h-.18a1.15,1.15,0,0,0-.38,0h-.1Zm.13.22Zm-1.1,0h0Zm.36-.24h-.42l.19,0h.29Zm-.84.26h0Zm-1.25.07-.09-.05h.17l.05,0H269l-.1,0A1.55,1.55,0,0,0,268.49,63.67Zm.16.13h0Zm-.22-.35h0Zm-.11,0v0h0l.1,0Zm.45,0h0Zm-.1-.06h0Zm.16.08h.08Zm.47,0Zm-1,0h0Zm.42.24.26.06-.34,0Zm-.64-.26h0Zm-1.18.29h-.14v0h.14Zm.1.08h0Zm-.24-.19h0Zm.2-.22.06,0v0h-.16l.07,0-.39,0h0l.29,0Zm-.11-.06h0Zm.41.12h0Zm-.31,0h0Zm-.15,0h0Zm-.63.22h0Zm-.15-.34h0Zm.06.17Zm-1.37.12h.19l-.25,0h0l.11,0Zm.13-.13h0Zm-1.23.15h.14c.2,0,.22,0,.21,0l.16,0H264Zm.34.06-.34,0v-.05H264Zm.15-.07h0Zm-.6,0h0Zm-.4-.16h0Zm.17.18h-.09l-.16,0h0Zm-.73,0h0Zm.13.39v0h-.25Zm-.15-.44-.19,0,.17,0,.27,0Zm.18-.05H263l.08,0H263Zm.53-.07h0Zm.55-.08h-.37l0,0h.4Zm0,.08h0Zm-.29,0h.21Zm1.54-.1h0Zm-.43.3h0Zm.55,0h0l.34,0Zm.25.11h0Zm-.13-.43h.34l.05,0h.08l.09,0,0,0-.14,0h-.22Zm.65.34h0Zm-.16-.21h0Zm-.19.23h.26l.17.06-.43,0Zm-4,.12v0C261.76,63.84,261.81,63.82,261.59,63.84Zm0,.15h.08C261.79,64,261.59,64,261.59,64Zm-.18-.34.18,0h.17Zm-.05-.06h-.12s0,0,0,0Zm-1.14,0h.09S260.3,63.62,260.22,63.63Zm-.77,0h0Zm-1.61.17h0l-.26,0h0Zm-.15-.16h0Zm-2.18,0h-.13l-.1,0h0C255.37,63.6,255.6,63.61,255.51,63.63Zm-.35.09h0Zm-1.59-.1Zm0,.15h0Zm-6.31.53h0Zm-3,.15h0l-.34,0,.08,0Zm-1.38,0h0Zm-.31,0Zm-.82-.78h0Zm-1.07,1,.17-.05C241,64.64,241,64.62,240.71,64.65Zm-3.74-1h0l-.14,0h.28Zm.06,0h0Zm-.84-.08h0c.13,0,.1,0,.17,0Zm.17.84v0h0Zm-6-1h-.07l-.07,0h0l.3,0Zm.07.1h0Zm-2.2-.17h0Zm-.19.05Zm-.17.12-.08,0-.26,0h.34Zm-2.08,0h0Zm-3.63.12h.09l.09,0Zm-.34.08H222v0h-.09Zm-.08-.07h.08S221.88,63.69,221.79,63.7Zm.14-.26h-.14l-.17,0v0h.31Zm-2.36.43.09,0h.25v0Zm.33.23h0Zm-.16-.27h.09l.08,0Zm-2.1.09h-.24l0,0h.19l.09,0h.1s0,0-.14,0Zm-12.3.31-.34,0h.26Zm-3.53-.33h.54l-3.31,0H199l-2.45,0s.07,0,0,0h.2c2.93.07,7.15.07,10.62.07l.2,0h-.06C206.69,63.9,202.25,63.88,201.81,63.9Zm.39.09-.78,0a1,1,0,0,1,.54,0Zm-34-.25h0c.71,0,1.5,0,2,0C169.5,63.75,168.87,63.76,168.22,63.74Zm-3.35,0a14.27,14.27,0,0,1,1.48,0h-1.48Zm-5,0Zm-.1,0-.53,0-.1,0h.16Zm-4.08,0h0Zm-35.26-.1h-.54l.08,0Zm-.83-.08h0ZM115,63.46h-.33Zm-39,.12h0Zm-.08-.13V63.4c.33,0,1,0,1.42,0l-.89,0ZM69.24,61.9l-.08,0,.24,0Zm.16,0h-.08Zm.17-2.08h0Zm-11.2-2.75v0l-.06,0Zm1.68-3.23v0l.15,0h-.46Zm-.39-.29-.31,0h0l.54,0Zm.31.24a1.61,1.61,0,0,1,.31,0Zm3.58-.37.16,0C63.8,53.45,63.81,53.43,63.55,53.44Zm.47,0,.16,0-.13,0c.1,0,0,0-.11,0l.11,0Zm.16.3H64l-.15,0Zm.93-.21v0C65.2,53.51,65.22,53.5,65.11,53.51Zm.63-.39h0C65.82,53.12,65.84,53.11,65.74,53.12Zm.78-.18v0S66.66,52.93,66.52,52.94Zm317.35-.5v0C383.72,52.45,383.81,52.46,383.87,52.44Zm.78.19h0C384.54,52.63,384.56,52.64,384.65,52.63Zm.62.38v0C385.16,53,385.18,53,385.27,53Zm1.17,0c-.1,0-.21,0-.11,0l-.13,0,.16,0h0Zm.08.26-.16,0h-.16Zm.15-.28.16,0C386.57,53,386.59,53,386.67,52.94Zm2.11.44.15,0-.08,0Zm0,3.52h.1v0Zm.65,0h.22A.75.75,0,0,1,389.44,56.93Zm-1.23.1h-.29l.19,0Zm-7.53,4.64.15,0,.16,0h-.31Zm.46-.25H381l.23,0Zm.24.15h.07l-.23,0Zm-.31-.11H381Zm-24.25,1.75h0Zm1.13,0h0Zm-5.3-.32h.1l-.1,0h-.07a5.8,5.8,0,0,0-.58-.06h.89l.82.1-1,0Zm1.16,0h.56l.43,0h-.9Zm.83,0h0Zm.32,0Zm-.47,0h0Zm-.45,0h0a1.49,1.49,0,0,1-.19,0H354Zm-.81.07h0Zm.87.26h.48l-.06,0h1.14l-.6,0-.1,0h-.86Zm2.42,0h0Zm-2.11.05h0Zm2.29,0h0Zm-1.95-.48h0Zm-1.33-.14h0Zm-8,.15h.39l-.16,0h-.15Zm-.51-.16,0,0h-.11Zm.43.16h-.15l-.16,0,.54,0Zm.23-.1h-.23l-.15,0h.46l.16,0Zm-9.19.51h-.09l.24,0-.09,0Zm-.24,0h-.93l.64,0s0,0-.09,0l-.68,0v0a1.31,1.31,0,0,1-.38-.06h-1.64l.58,0,.29,0,1.78,0h.13A1,1,0,0,0,336.17,63.16ZM297.06,52h0Zm20.72.33Zm71.55,1.49-.16,0h.16Zm-6.72,3.91h0Zm1,0h0Zm-5.94,3.75.05,0h-.05Zm2.22.13h0Zm-28.41.82h0Zm-18.08.62-.19,0v0Zm-.5,0H332a4,4,0,0,0,.77,0h.1l.09,0Zm17.87-.81c.3,0,.19,0,.23,0s0,0-.15,0h.29l.09,0h.69l-.37,0h1.24l-.62,0h.31c.08,0,.17,0-.07,0h2.95l.2,0-.38,0,.14.08C353.82,62.38,352.31,62.39,350.75,62.34Zm1.61.13h-.09l-.08,0h.09Zm-.65,0-.12,0-.13,0Zm-15,.54h0Zm.3-.23v0h0S337,62.76,337,62.75Zm.24,0s0,0,0,0l-.21,0Zm-.62,0h0l-.1,0h.1Zm1.93,0h-.16l-.78,0h.94Zm12.86-.49h0Zm-17.91,0h0Zm2,.74h0a3,3,0,0,0,.41,0h-.44Zm15.33-.52.23,0h-1.14C350.14,62.45,350.44,62.46,350.83,62.45Zm1.69,0h.1c.06,0,.2,0,.08,0a5.72,5.72,0,0,0,.7,0c.13,0,.11,0,.11.06Zm31.75-8.39h0Zm-51,9.14h0Zm.86,0h0Zm-.46,0-.12,0-.07,0h.19ZM337,63h0Zm2.5.19h0Zm.26,0h0Zm.66,0v0l-.21,0Zm-.71,0h0Zm7.26-.54.23,0h0l-.1,0Zm2.42.07-.32,0-1.79,0C348.72,62.7,347.69,62.69,349.35,62.71Zm5.81,0-.1,0v0Zm6.92.36h0Zm18.13-1.75-.55,0h.63C380.08,61.3,380.2,61.27,380.21,61.3Zm-.72.3h-.32a2.12,2.12,0,0,0,.34,0Zm-.46-.06-.31,0h.16l.16,0Zm2-.38-.32,0A1,1,0,0,1,381.07,61.16Zm1.24-.15-.08.06h-.62Zm3.49-3.16h0Zm0,0h0ZM308.92,52h0Zm-36.8,11.3h0Zm.8,0Zm1.47,0h0Zm.05,0h0Zm.35,0h0Zm-13.44.15h0Zm-2.18,0h0Zm-.53,0-.08,0h-.21l.26,0Zm-1.23,0h0Zm-3.15,0Zm-.1,0H254l.05,0Zm-.24,0h0Zm.31-.05h0Zm-.66,0h0Zm-.59,0h0Zm0,0h0Zm-3.36,0h0Zm-5,0h0Zm-.15,0h0l-.23,0h-.11l.15,0h.15l.05,0,.07,0h0Zm-10.31-.06,0,0h.12c.08,0,.08,0,.05,0Zm-1,0h0Zm-3.29-.12h0Zm-8.41.13h0Zm-.18.08h0Zm-2.18.13-.42,0h0a2.75,2.75,0,0,1,.39,0l-.05,0,.08,0h0Zm-4.24.21h-.32l.09,0h.22l-.09,0h.34l-.1,0h.11l0,0Zm-5.47.19c-.19,0,0,0-.06-.06l.23,0,.16,0-.13,0h-.2Zm-.6,0h0Zm-.17-.12-.07,0h.19l-.06,0Zm-.83,0,.18,0-.32,0H208v0s.11,0-.1,0h-.18Zm-.14,0s0,0,.09,0Zm-3.23-.14-.24,0h.26s0,0,0,0h.25l.09,0Zm-2,0,.06,0v0h.26l-.06,0h.41C202.81,63.78,202.65,63.79,202.38,63.79Zm-.81,0h.28v0h-.51l.23,0h-.07l-.32,0v0h.31l.62,0h.16l-.08,0,.11,0Zm-1.51-.06h.5l.39,0h-.23c-.28,0-.17,0-.08,0Zm48.66-.19h0Zm.45,0h0Zm-3.74,0h0Zm-.59,0h0Zm-1.66,0-.17,0-.09,0h.26Zm-1.45,0h0Zm1.79,0h.08l.09,0Zm-5.5-.1h0Zm-19.09,0h-.12l.38,0h0l-.17,0,.09,0Zm-3.48.44h0Zm.59,0h0Zm-.13-.15h-.34l.25,0Zm-5.69.3c-.05,0,0,0-.23,0Zm-7.92-.35h-.15s0,0,0,0l.3,0h-.11Zm-3,.13h0Zm-1.44-.05h0Zm-1.67,0c.5,0,.18,0,.61,0h-.62v0h.09l-.08,0Zm39.29-.49-.3,0h.56l.06,0Zm-.81,0h0Zm-.06-.1h.28l0,0h-.23Zm-1.2.05h0l.13,0h0Zm1.34,0h.09S234.84,63.23,234.74,63.24ZM216,63.53h-.07l-.18,0h0Zm-.88.09h0Zm-2,0h0Zm-1.71.28-.46,0C211,63.9,210.91,63.92,211.39,63.9Zm-2-.18h0Zm.31-.08h0l0,0Zm-3.93,0h0Zm.32,0h.3a1.76,1.76,0,0,1-.33,0Zm0,0h0Zm-1.24,0h.14l.15,0h-.31v0l-.2,0h-.09l-.23,0h.07l.19,0,.17,0h.11Zm-2.68,0,0,0h-.21l.1,0h.15Zm-.67,0h-.37a3.6,3.6,0,0,1,.57,0Zm9.8.09h0Zm-.85-.07h0Zm.27,0-.19,0,.11,0Zm-12.37.1h0Zm.4-.11h0Zm.64,0h0Zm8.85,0h0Zm.12,0h0Zm.77,0h0Zm.89,0h0Zm.09.08h0Zm.26,0h0Zm.34,0Zm-11.8,0h0Zm6.16,0h0Zm1-.11h0Zm.64,0,0,0h.47l0,0h-.46Zm.6,0,.17,0-.1,0Zm.47,0h0s.05,0-.06,0h-.1Zm.94.11Zm1.23,0-.43,0h-.05a4.47,4.47,0,0,1,.47,0Zm2.06,0h0Zm1.75,0h0Zm.7,0Zm2.65,0-.26,0C216.87,63.69,216.71,63.67,217,63.69Zm0,0h0Zm.1-.06h0Zm.08,0c-.4,0-.47,0-.59,0s-.19,0-.2,0h-.23l.43,0a1.18,1.18,0,0,0,.43,0l.17,0Zm.69,0-.43,0C217.67,63.48,217.45,63.5,217.87,63.5Zm-.17,0h.08l.09,0-.26,0Zm.34,0,.25,0-.25,0-.17,0Zm-.09,0,.42,0h.23c-.1,0-.32,0-.22.05h-.09Zm.16,0h0Zm.44.08-.08,0V63.5Zm.09.07h-.26A.79.79,0,0,1,218.64,63.62Zm-.86-.15h0Zm.7,0h0Zm15.13-.07h0Zm.21-.11h0a2.1,2.1,0,0,1,.43,0v0h.21c-.06,0,0,0,.12,0h-.74Zm.68.12h0Zm2.88,0h0Zm16.83-.15h0Zm-2.31,0h0Zm-2.2,0h0Zm-9.08-.08-.16,0h.16Zm5.38.1h0Zm-2.19-.16h0Zm1.54,0h0Zm-2.6,0s.3,0,.17,0h.26l-.2,0h-.23Zm1.8.26a0,0,0,0,1,0,0h0Zm.6,0h0Zm6.45-.27Zm-.34,0h0Zm-.07,0h0Zm-.43.14h0Zm-3-.14h0Zm1,0Zm1.7.11h0Zm-1.85-.13h0Zm-8.83.11h0Zm.55,0h0Zm-.07,0h0l-.1,0Zm2.84.24h0Zm4.4,0Zm3.69,0Zm-60.39.31-.46,0h.46Zm4.48.05v0h.58l0,0Zm2.22,0h0Zm2,.05h0Zm8.72.12h1.28Zm7.46-.18h0Zm.65.13h0Zm.24-.08h0Zm1.85-.09h0Zm.14.1h0Zm-.41-.11-.14,0s0,0-.12,0h0a4.42,4.42,0,0,0-.49,0h.17c.56.06.78.09,1.45.11C218.66,63.67,218.45,63.65,218.12,63.66Zm.6-.08h0Zm.26,0-.26-.06.2,0h.35l-.12.06Zm.37-.13h.22c.07,0,.08,0,0-.05l.32,0-.29,0h-.25Zm.84.07h0Zm-.19-.06.09,0H220Zm.05.12.13,0,.25,0v0a1.19,1.19,0,0,1-.35,0v0l-.68-.08.43,0,.15,0Zm.21-.07h0Zm-.18.27H220l-.17,0,.08,0Zm-.38-.23h-.21v0Zm0,0h0Zm-.18.11h-.26l.09,0Zm.94-.12h0Zm.08.11h0Zm.12-.08v0l-.18,0,.12,0h.12l.06,0Zm-.06-.05h-.14v0h.24Zm-1.85-.08Zm15.49,0h0Zm1.37,0h0Zm.55,0,.09,0h.1l-.17,0Zm3.87-.17h.1c-.11,0-.09,0,0,0s.07,0,0,0H240Zm2.16.29h0Zm1.57.06h-.13l.09,0Zm1.19,0h0Zm.3,0,.09,0h.12l0,0Zm1.57,0,.05,0h0l.13,0Zm3.84,0h0Zm1.78,0h0Zm-.4,0h.13l-.18,0Zm.71,0h0Zm.81-.07ZM77.37,63.39l-.8,0h.15l1,0ZM63.29,57.14h0ZM62.71,57l-.1,0v0Zm-.65,0a.72.72,0,0,1-.22,0h.22ZM61,56.91l-.38,0-.1,0H61Zm2.89-.37H64l-.06,0-.18,0Zm68.81-3.7h0ZM78.18,63.22ZM61.37,54.34h-.16l-.15,0Zm4.57.18h0Zm23.52,8.64h0Zm-19.19-.8Zm7.57.85h0Zm63.56-10.7h0ZM65.11,56.25l-.1,0-.19,0Zm-1.41.29h0Zm-2.05.22H62l.1,0-.58,0Zm8.29,2.53s0,0-.08,0h.08Zm-1.17,2.24h-.62l-.08,0Zm.86.09-.31,0A.94.94,0,0,1,69.63,61.62Zm.47.13h.62l-.54.05S70.3,61.78,70.1,61.75Zm7.17,1.5h0Zm-.68,0,.32,0h-.36S76.58,63.26,76.59,63.24Zm35.27.21h.56a3.23,3.23,0,0,1-.63,0l-.33,0Zm10.11.09h0Zm.42.08-.47,0-.15-.07ZM206,64h2.17l.19,0,.18,0,.51,0H207.8l.23,0h-.19l-.08,0h-.12l-.19,0-.1,0h-1l-.63,0-.15,0c-.8,0-2.12,0-2.81,0Zm-2.83.07h.08Zm3.72,0h0Zm-.56,0,.19,0h-.19Zm1,0h0Zm.36,0h0Zm5.81-.17h0l-1.57,0c.29,0,.77-.05,1.35-.06h.14v0h.29l.22,0s-.11,0,.21,0h.24l.11,0h-.24l-.15,0-.08,0h-.52Zm4,0-.12,0-.12,0Zm.68,0h0Zm-.59-.06h0Zm1.58,0h0Zm1.28,0c.07,0,.08,0,.09,0h.42A1.66,1.66,0,0,1,220.34,63.81Zm.17.32.09,0C220.75,64.12,220.53,64.12,220.51,64.13Zm.09-.24h-.26l.17,0Zm.34,0,.17.09H221l-.08,0-.26,0Zm.23-.12.14,0,.19,0h0l-.17,0-.17,0-.08,0Zm.28.09h0Zm3.83-.26h.09l.17.05-.26-.05Zm4.43-.22H230l-.26,0Zm1.2.07h-.43l.09,0Zm-.23,0h0Zm.23.06.08.06h-.42Zm.08.09.16,0-.16,0Zm.09,0,.08,0,.09,0c.24,0,.11,0,.17,0Zm.08-.12Zm1.43,0h-.15l0,0Zm1.56.16c.31,0,.17,0,.17,0H234C234.23,63.57,234.13,63.59,234.15,63.57Zm-.11,0h0Zm.53.13.26,0-.34,0C234.69,63.7,234.64,63.71,234.57,63.67Zm4.18.55h0Zm.12,0h0Zm5.84.22h.34l-.08,0a2.09,2.09,0,0,0-.26,0l.09,0Zm0,0,.43,0-.09,0Zm4.83-.87h.37l-.13,0h-.24Zm12.28,0h0l-.09,0h.1Zm-.06.11.25,0c.09,0,.11,0,.1,0h-.35Zm13.33-.38h0Zm3.17.08h0Zm57.17-.13.07,0h-.07Zm.26,0a2.1,2.1,0,0,0,.53,0h0l.16,0-.08,0h-.64Zm8.2-.59-.16,0,.41,0,.14,0h-.39Zm.7.31c-.21,0-.25,0-.15,0l-.32,0h.47Zm.63-.08h-1.1l.08,0,.94,0,.31,0h-.08Zm12.63.43h0Zm.08-.05h0Zm15.44-.08h0Zm-.1,0h0Zm.24,0,.15,0h-.15Zm8.65-1.52.07,0h-.39Zm-.24-.06c.3,0,.27,0,.31,0Zm.7-.29h-.07c-.86-.08-3.77,0-4.52,0h.15c1.23-.09,4.37,0,4.37,0C382.79,61.23,382.63,61.23,382.62,61.25Zm-.77-2.57h0Zm5-.82-.18,0h.18Zm5-1h.1l.1,0Zm-9.43-1h0Zm2.83,0h.29l-.19,0Zm6.14-2.22a3.75,3.75,0,0,0,.48,0l.24,0h-.72Zm1.7,0h0Zm-2.93-.09.16,0v0l.31,0Zm.54-.33h-.23l.55,0h0Zm.24.18,2.26,0,.08,0a10.78,10.78,0,0,0-1.25,0Zm.86-.2h0l-.24.05h-.08l-.07,0Zm-.08-.18.08,0v0Zm-.08.26h-.16A.58.58,0,0,1,391.66,53.15Zm1.09.05-.39,0A1.2,1.2,0,0,1,392.75,53.2Zm-.15-.06v0C392.45,53.16,392.54,53.16,392.6,53.14Zm.07-.12c-.07,0,.11,0,.16,0Zm0,.12-.7,0,.08,0Zm-.07.19-.39,0h.31c.16,0,.07,0,.08,0h0Zm.15,0,.31,0,.24,0h-.55Zm.47,0a.53.53,0,0,1,.15,0Zm.47-.07a.53.53,0,0,1,.15,0Zm.15,0h-.31a1.32,1.32,0,0,1-.47,0h.24a2.06,2.06,0,0,0,.54,0Zm-.39-.08c-.15,0-.12,0-.08,0l-.07,0,.62,0Zm.55.14c-.15,0-.06,0,0,0Zm-.16-.25h-.08l.16,0,.16,0Zm.24,0h-.32l-.07,0Zm-.47-.09h.08l-.24,0Zm-.08.1-.16,0-.15,0Zm-.31,0-.39,0C393.25,53,393.14,53,393.22,53.05Zm-.62-.17h.23l-.08,0h-.15Zm-.24,0,.16,0C392.32,52.87,392.23,52.87,392.36,52.85Zm-.15.13h.62l-.62,0Zm-.16-.15h0l-.31,0h-.31Zm-.55.14h-.23Zm-.39,0H391s-.08,0,.07,0h.08l.08,0Zm.08-.2-.08,0h-.31Zm-.33,0,.1,0-.08,0h0l-.45,0C390.48,52.78,390.41,52.77,390.86,52.77Zm-.76.56h0Zm-.31-.56.39,0h.08v0h-.47Zm-.47,0h0Zm.31,0h0Zm.08.06-.31,0h-.31Zm-.78.42h-.23A1.18,1.18,0,0,1,388.93,53.28Zm-.62-.51-.23,0C388.34,52.76,388.42,52.74,388.31,52.77Zm-.08-.14-.08,0h-.31Zm-.23.7-.08,0h-.16Zm-.55-.67h0Zm-.93.24v0l.46,0c-.13,0-.19,0,0,0h-.46Zm-.16-.1h-.08l.08,0Zm.08-.29-.16,0h-.08Zm-.08.34h0Zm-.78-.08-.15,0a.46.46,0,0,1,.15,0h0Zm0-.33h0Zm-.86,0-.39,0H385Zm0-.12-.15,0h.15Zm-.39,0-.23,0h-.31Zm-1.09.31-.07,0H383l-.08,0Zm-1.24.18v0C381.85,52.88,381.94,52.89,382,52.87Zm-.16-.47c-.27,0-.18,0-.23,0Zm-2.26.2-.16,0h-.15Zm-1.95-.29-.08,0h-.23Zm-2.88.48h-.31Zm-117.6-1.18h.1l-.1,0Zm-7.61-.07.1,0-.2,0Zm-.29.05h0Zm-1,.06h.09c-.21,0-.08,0-.19,0Zm-1.83.13.09,0h-.09Zm-.87-.09.1,0-.29,0Zm-.29,0v0l-.1,0Zm-3.28,0,.1,0-.19,0Zm-1-.1v0l-.1,0Zm-.38.11.09,0h-.29Zm-2.12-.1.09,0h-.09Zm-3,.12h0Zm-6.38-.08.09,0h-.1l-.08,0h-.06S229.07,51.64,229.21,51.63Zm-1.93,0h-.23Zm-4.72,0s0,0-.19,0Zm-2.41,0,.1,0,.07,0H220Zm-2.12,0,.1,0h-.29Zm-1.25,0h0Zm-14.44.05h0Zm-.38-.05h.09l-.19,0Zm-7.62.07v0l-.09,0Zm-11.17.13h.09l-.09,0Zm-8.19,0h.48l-.29,0H175Zm-14.75.32,1.25,0h.68s-.63,0-1,.07l-.78,0Zm-14.89,0h0ZM75.63,53.27l.32,0h-.32Zm-2.57-.46h-.23l-.08,0Zm-2,.29H71l-.16,0Zm-2.33-.23c-.06,0,0,0-.24,0Zm-.39.48s.14,0,0,0Zm-.94-.18-.08,0h-.15l-.08,0Zm-1.09-.28h-.08l-.23,0,.54,0Zm-.23,0h-.32l-.15,0Zm-.08.09-.39,0-.23,0Zm-.86,0h0Zm-.39.31a.5.5,0,0,1,.16,0l-.16,0h0Zm-.62.1h0ZM64,53.28v0l.08,0Zm.16-.27H64.1l-.16,0Zm-.31.34v0H63.4c.19,0,.13,0,0,0Zm-.94-.21h0Zm-.47.7-.07,0,.23,0Zm.08-.71h-.31l-.08,0Zm-.23.1-.24,0C62,53.22,62.05,53.24,62.31,53.23Zm-.63.54h-.23A1,1,0,0,1,61.68,53.77Zm-.07.09h-.08l-.08,0Zm-.55-.62h0Zm.16,0H60.9l-.15,0Zm.07.07H61l-.31,0Zm-1.16-.14h.07l.39,0h-.46Zm-.61,0c.45,0,.38,0,.45,0l-.45,0h0l-.08,0Zm.06,0h-.31l-.08,0Zm-.31.15c.15,0,.09,0,.08,0h-.24l.08,0Zm-.24,0h-.15l.23,0Zm-.23.17-.23,0h0l.39,0-.08,0Zm.08,0h-.16A.79.79,0,0,1,58.88,53.63Zm-.31-.26v0l.07,0Zm-.24-.06.63,0h-.32l-.31,0Zm.08.33-.7,0h.62Zm-.39,0-.39,0A1.25,1.25,0,0,1,58,53.65Zm-.23,0h0C57.85,53.64,57.93,53.64,57.79,53.64Zm.23-.31c.14,0,0,0-.15,0Zm-.23,0v0h-.16l-.08,0Zm.39.1v0l-.63,0Zm-.47,0h-.16C57.6,53.49,57.78,53.48,57.71,53.5Zm-.16,0-.39,0C57.24,53.51,57.13,53.52,57.55,53.51Zm-.54,0-.16,0h.31Zm-.24-.12h.16l-.23,0Zm-.07.07-.08,0h-.31Zm-.86,0-.31,0,.31,0a1.12,1.12,0,0,0,.39,0A1.85,1.85,0,0,1,55.84,53.49Zm.62,0,.16,0h-.31Zm-.08.28h0C56.44,53.77,56.53,53.77,56.38,53.77Zm.71-.17-.08,0c.05,0,.07,0-.08,0h-.47Zm-.55.13a.58.58,0,0,1,.16,0Zm0,0v0a2.17,2.17,0,0,0,.55,0h.23a1.32,1.32,0,0,1-.47,0Zm.47.09a.53.53,0,0,1,.15,0Zm.08,0,.23,0,.31,0h-.54Zm.7.05h0s-.09,0,.08,0h.31Zm.54,0a10.59,10.59,0,0,0-1.24,0l.07,0,2.26,0Zm-1,.22h0Zm.93,0h0l.23,0A3.94,3.94,0,0,0,59,54h-.71Zm-1.88.06h-.31l-.16,0Zm-.39.28v0C56.08,54.37,56.1,54.36,56,54.37Zm-.08-.17-.23,0h.62Zm.86,0v0C56.83,54.19,56.91,54.18,56.77,54.19Zm-.16,0h-.07l-.24,0,.55,0Zm1,.3h-.16l-.08,0h.32Zm1,.18v0C58.7,54.62,58.79,54.61,58.64,54.62Zm.16-.49.23,0C59,54.14,59.07,54.12,58.8,54.13Zm.85,2H59.5l-.24,0h.16l.55,0A1.12,1.12,0,0,1,59.65,56.16Zm1.09,0v0C60.83,56.16,60.85,56.15,60.74,56.16Zm2,.09h0Zm.67.33v0h-.16l.11,0Zm.2.12v0h-.39l.1,0Zm-.68,0-.09,0v0Zm-1.15.13h-.2l-.29,0Zm-1.06,0h.07l-.07,0ZM59.53,57h.1l-.2,0Zm-3,.26h-.32Zm2,.14h0Zm-.14.36h0Zm.51.13a1.2,1.2,0,0,1,.32,0Zm.32-.06.07,0,.16,0Zm3.74.06h0Zm2,.34h-.39A1,1,0,0,1,65,58.21Zm2.35.1h0Zm1,.18h0Zm.26.34,1.06,0,.48,0h0l-.17,0H69l.54,0c-.12,0,0,0,0,0H69l.07,0h-.48v0h-.46Zm.57.46h0Zm.78.13.31,0h-.38Zm-.62.38h0Zm-1.09,0h.23l.08,0h-.12l-.27,0Zm-.31,0,.34,0H67.7Zm-.63,1.41h0Zm-.93-.61h.31l-.16,0h-.23Zm.46.92-.07,0-.16-.06h.08C66.87,61.57,67,61.54,66.82,61.57Zm-.31.07h0Zm-.23-.08.15,0h-.07Zm.15-.08s0,0,.24,0Zm.16-.38.16,0v0ZM66,60.74h.23l-.23,0h0Zm.31.52v0l-.31,0Zm-.55,0h0Zm-.31-.17-.15,0,.38,0Zm0,.11H65l-.15,0Zm0-.22h-.15l-.08,0L65,61Zm-.54,0h-.24l-.08,0Zm0,.3h-.16A.5.5,0,0,1,64.88,61.32ZM64.17,61l.08,0L64,61Zm-.31.06H64v0h-.24l-.15,0Zm-.54.07-.16,0C63.29,61.09,63.59,61.1,63.32,61.11Zm-.16-.18.23,0c-.34,0-.48,0-.31,0h-.39C62.74,60.92,62.59,60.94,63.16,60.93Zm-.54,0h-.08l-.16,0Zm-1.1,0c.13,0,0,0,.32,0l-.32,0h-.07c-.28,0,0,0-.16,0Zm.32.22h-.39A1.27,1.27,0,0,1,61.84,61.12Zm-.24,0h0C61.69,61.08,61.71,61.07,61.6,61.08Zm-.78-.22h0l-.08,0h-.15l-.08,0Zm-.31.08-.15,0h.54Zm0,.16c.24,0,.77-.05,1.07-.06h0l-.22,0h.39l-.17,0h0l-.21,0Zm.47.16-.31,0H61Zm-.31,0-.47,0,.86,0Zm1.09,0h-.7A2.49,2.49,0,0,1,61.76,61.17Zm-.16.1h0Zm.16,0-.16,0a2.37,2.37,0,0,0,.31,0Zm.08-.24.54,0L62,61Zm.39.14.07,0h-.15Zm.31.12-.08,0-.39,0,.7,0A.4.4,0,0,1,62.54,61.27Zm0-.1h0Zm.15-.1h0Zm.24,0c-.34,0-.08,0-.24,0h.39l.08,0c-.07,0-.2,0,.07,0h.16l-.07,0h-.09l-.15,0C62.86,61,62.92,61.05,62.93,61Zm.39,0v0h-.16Zm-.39.2.15,0,.78,0Zm.78-.06.46,0,.16,0h-.47Zm.46,0,.55,0Zm.16.06h.39l-.08,0Zm.55.2-.16,0,.31,0ZM65,61.4v0l.08,0Zm.08,0h.47l-.39,0Zm.62.15H65.5l.15,0Zm-.07-.19h.31v0h-.08Zm.31.13H66c.09,0,0,0-.16,0Zm0,.16c.31,0,.18,0,.23,0Zm.23,0v0l.08,0Zm.08.07.23,0h-.15l-.24,0Zm-.16,0h.08s.28,0-.08.05l.08,0C66,61.7,66.08,61.71,66,61.69Zm.24.18h0Zm0-.06c.31,0,.17,0,.23,0Zm.08.41h-.55l.55,0,.07,0C66.27,62.21,66.33,62.2,66.36,62.22Zm.07-.24-.07,0h.07Zm.16.25-.08-.07h.31l.08,0Zm.08-.5-.08,0H67Zm.31,0h-.23l-.39,0H67Zm.39-.23-.23,0-.08,0Zm.08.72h-.16l.16,0Zm.08-.1h-.24l-.15,0h.39Zm-.24-.28v0l.08,0Zm.24-.21h-.32l.24,0h.08Zm.07.89h.08s0,0,.08,0l.23,0Zm.94-.37h-.39l.08,0,.31,0ZM68.15,62s0,0,.31,0Zm-.31-.3h-.08s-.17,0,.08,0c0,0,3.13-.13,4.36,0h.09l-.3,0-.22,0-.07,0C70.54,61.74,68.52,61.67,67.84,61.73Zm1.63,1.21-.31,0,.31,0Zm.19-.37h0Zm.9.44,1.33,0L70.33,63l.86,0c-.43,0-.6,0-.78,0h.88l.09,0,.2,0h1.24l-.09,0h.19l.58,0,1.45.06.09,0-.19.06a.89.89,0,0,1,.39,0c.08,0-.11,0-.2,0l-.19,0h0a2.58,2.58,0,0,0,.58,0l-.29.09.36,0h0c.09,0-.07,0,.18,0l-.16,0h.35v.07l-.09,0c.45,0,.29,0,.38,0l.29,0h0l-1,0,.24,0c-.66,0-1.68,0-2.34,0a20.76,20.76,0,0,0-2.73-.14Zm4.68.42h.31l-.23,0Zm.16-.18h-.32l-.46,0Zm-4,.36-.7,0,.08,0h.08c.73,0,1.85,0,2.41.05Zm2.34-.09h-.47s0,0,.47,0Zm.39.14c.06,0,0,0,.39,0Zm.62-.23h-.93a10.84,10.84,0,0,1,1.17,0h-.24Zm.78.21h.29l-.1,0Zm3.82.09-.25,0,.16,0a2.33,2.33,0,0,0,.48,0h.14l-.6,0C79.38,63.74,79.16,63.76,79.37,63.73Zm7.43.49h-.1l.1,0ZM92.87,64h.39A3.79,3.79,0,0,1,92.87,64Zm10.51-.25h-.58c-.2,0-.14,0-.07,0h.65Zm.77,0c.19,0,1.87,0,1.95,0Zm2.26,0c.14,0,0,0,.32,0Zm.08,0-.23,0h.39l.31,0Zm.94-.06.23,0,3.43,0c-.58,0-2,0-2.34,0A11.17,11.17,0,0,0,107.43,63.66Zm2.57.05v0h.23Zm6.23,0-1.63,0h-.55l-.08,0,.16,0c.33,0,.57,0,1,0H114l-.31.06h-2.18l.23,0-1.09,0,.31,0a5.61,5.61,0,0,0,.71,0h-.47l-.08,0,2.18,0,.24,0c-.59,0-1.1,0-1.72,0h-.08l.16,0a5.23,5.23,0,0,0,1,0h.61l.17,0a3.81,3.81,0,0,0-.7,0c1.91-.05,3.64,0,5.38-.05l.1,0h-.22l-.1,0h.34l.19,0a1.75,1.75,0,0,0-.47,0c.2,0,.38,0,.65,0h.29l-2.26,0c.35,0,1.51,0,2.18.06l-3.43,0a1.89,1.89,0,0,0,.62,0c-.14,0-.07,0-.07,0h.93s5.36,0,5.54,0Zm7.72,0-.23,0,.39,0,.31,0Zm2.49.09h-.23l.16,0h.15l.47,0Zm1.56-.09h-.93l.08,0h1.63Zm2.81.06-.31,0h-.24l.47,0h.08Zm.08-.06h0Zm22.48.28h.09l.1,0Zm4-.06c-.08,0,0,0,.38-.07Zm1.6-.13h0l.53,0s0,0,.1,0Zm2.42,0-.55,0,.08,0h.08l.39,0s-.09,0,.15,0l.24,0Zm1.32-.1h-2l-.78,0h0l.23,0h.3c-.06,0-.07,0,0,0l.17,0,2.17,0Zm.39,0-.15,0a7.68,7.68,0,0,1,.93,0Zm.81,0h.83l-.7,0Zm.44.1h-.24l.08,0h.47C164.31,63.79,164.47,63.77,164.4,63.81Zm.86,0h-.63l-.15,0h.78Zm.46,0-.15,0h.15Zm.08,0h-.08s0,0,.16,0Zm2.49.07h-.07l-.31,0h.38Zm.16,0-.29,0h.52Zm.8,0,1.07,0h-1.07Zm12,0h0Zm13.9.28h-.2v0h-.09c-.17,0,0,0-.29,0s.16,0-.2,0h.78Zm2.55,0h.05c-.41,0-.31,0-.38,0h-.19l-.4,0-.51,0-2,0h-.16a.77.77,0,0,0-.19,0h0c-.18,0,0,0-.29-.06v0l-.19.08h-.19l.09,0c-.11,0-.15-.06-.09-.07l-.1,0c.55,0,1.19,0,1.48,0h0l.13,0h.92l-.08,0h1.86l3.68,0h-1.25l.62,0h-1l3.19,0C201.75,64.06,199.82,64.05,197.67,64Zm4.86.12Zm-.51.16h-.26a1.13,1.13,0,0,1,.26,0v0l.17,0Zm.17-.07.08,0h-.08Zm.77,0h0Zm2,.12-.14,0,.29,0Zm.8,0Zm1.29,0-.19,0h0c-.19,0-.35,0-.47,0h-.24l0,0h.48l.07,0,0,0,.52,0Zm.35,0h-.11v0l.17,0Zm.32,0-.08,0h.08Zm.68,0h0Zm.08-.06h0Zm-.08-.09a1,1,0,0,1,.17,0Zm1.85-.16h0Zm2.55,0h0Zm1.07,0H214l-.1,0Zm.32,0h0c-.08,0-.16,0,0,0H215l-.49,0h-.26Zm.26,0,.06,0h-.06Zm.94,0c.06,0,.13,0-.29,0h.25C215.5,64.07,215.83,64.08,215.4,64.1Zm.59,0v0h0Zm.34,0h.09S216.43,64.07,216.33,64.08Zm0,0a2.6,2.6,0,0,0-.5,0h.72Zm2-.07H218l-1.61,0c.05,0,.06,0,0,0l.39,0-.93,0,.07,0h1.21l.07,0h0l-.28,0,1.13,0h.06c.15,0,0,0,.17,0l.09,0,.08-.06h-.17l.43,0h.1l.16.07-.09,0h-.08l.17,0a1.16,1.16,0,0,0,.42,0l.24,0h-.48l-.35,0v0h-.52Zm1.12.12h0Zm-.43,0-.17,0H219Zm.59.46h-.51a1.53,1.53,0,0,0-.34,0l.34,0,.6,0Zm0-.63h.17l.09,0-.09,0Zm.26.2.06,0h0s0,0,.16,0C220,64.13,220.13,64.12,219.83,64.13Zm.08-.2.34,0h-.34Zm.52,0-.43,0h.6l-.26.07C220.14,63.93,220.29,63.93,220.43,63.91Zm.68.63h-.6v0h.68Zm0-.65h.08C221.31,63.88,221.11,63.89,221.11,63.89Zm.25.65h0Zm.26-.4h.08v0l.26,0Zm.34-.28.25,0-.25,0Zm.25.29h-.07l.33,0C222.36,64.16,222.41,64.14,222.21,64.15Zm.83-.38H223v0H223Zm0-.22Zm.59,0h-.17l0,0h.22Zm.4.12h-.14l.16,0Zm0-.1-.06,0h.06Zm.51.27h0Zm.49-.18.11,0h-.11Zm0,0,.09,0,.25,0Zm.6,0h.08l.1,0h-.42Zm.08.21h0Zm.17.07v0h0Zm.6-.23.09,0S226.66,63.63,226.56,63.65Zm.26.24h-.09l.17,0,.09,0Zm.25-.22h0Zm.51-.07c.25,0,.35,0,.29,0h-.08l-.21,0Zm.13.06h0Zm.56.09h-.6l.26,0h.34Zm0-.12-.13,0,.09,0h0l.13,0Zm0,0,.05,0h.12v0Zm.17.23h.09S228.62,63.83,228.52,63.84Zm.16-.37h-.41a.88.88,0,0,1,.25,0h.16Zm.11-.08-.24,0h-.11l-.09,0h0l0,0h0l.17,0h.26l0,0h.38s0,0,.08,0Zm.43,0h0Zm.22.13h0Zm.2,0h0c-.09,0,.11,0-.24,0h.36Zm-.06-.13h0Zm.3,0,.09,0S230,63.44,229.88,63.45Zm-.08-.08h-.09l.34,0Zm.58.28h0Zm.05,0h.15l-.18,0Zm.18.56h0Zm.19-.51h-.15l.09,0h.06Zm.08,0h0l.2,0h-.2Zm.11.81h.09c.08,0-.08,0,.17,0h.08Zm.46-.89-.18,0,.06,0s0,0,.17,0l.09,0Zm.48,0h0Zm0,.14v0h0C232.08,63.69,232.11,63.68,231.93,63.7Zm.08.83h0Zm-.08.07h.26Zm.51-1.11.34,0h-.34Zm.22.08h0Zm1,0-.08,0,.25,0Zm.34.13h0Zm.09.72v0l.34,0Zm.85,0,.09,0h-.34l-.26,0h1.19Zm2.73,0c-.28,0,0,0-.34,0a.49.49,0,0,0-.17,0H237c-.46,0-.1,0-.34,0l-.08,0v0l-.43,0-.34,0h-.09s0,0,.09,0c.29,0,.19,0,.26,0l.76,0,.85,0Zm.84,0h0l-.07,0C238.57,64.48,238.58,64.47,238.48,64.48Zm.1,0-.17,0,.25,0Zm.08,0,.26,0,.08,0Zm1.54.17h-.09l.09-.07.17.07Zm.42,0a1.9,1.9,0,0,1,.34,0Zm.51-.41-.08,0h.25Zm-.17-.59h.43Zm.77.89s0,0,.51-.07Zm1.53,0h-1a6.88,6.88,0,0,1,.85,0h.17Zm-.08-.31-.17,0h.25Zm.25.22h.43a1.86,1.86,0,0,1-.43,0l-.08,0,.11-.05Zm.52.2h-.09l.34,0C244.07,64.66,244.3,64.64,244,64.66Zm-.43-.11-.09,0c.5,0,.47,0,.52,0l.08,0h.09l.08,0A3.12,3.12,0,0,0,243.52,64.55Zm.94,0-.17,0,.25-.05.09,0,.34,0-.26,0,.43,0,.17,0Zm.59-.06h0Zm.34,0-.17,0,.51,0Zm.26-.7h.08Zm.77.66-.26,0h.26Zm-.09-.48-.34,0,.43,0Zm.34.48v0l.17,0Zm.26,0v0l.17,0Zm0-.06.25,0,.17,0,.09,0Zm.51,0,.17,0S247.66,64.43,247.44,64.45Zm1.19-.72.34,0h-.08l-.26,0Zm.17.71-.08,0h.34l.08,0Zm.51,0Zm.43-.57h-.09C249.82,63.84,249.76,63.83,249.74,63.84Zm.09.31v0h1.1l-.34,0C250.29,64.15,250.17,64.15,249.83,64.15Zm1.44,0-.34,0,.26,0,.17,0Zm.43-.39h-.09l.18,0,.08,0Zm.6-.07.17,0h-.17Zm.08.18h0Zm.73-.15h0Zm.46.1Zm.7,0,.24,0,.15,0Zm.24.06Zm.26-.07.2,0h-.2Zm.76,0v0h0Zm.09.22h0Zm.11,0h0Zm.16-.41h.58l.08,0h-.25A2.25,2.25,0,0,1,255.89,63.59Zm.59.08h0Zm.08.24h-.09l.17,0,.09,0Zm.42-.08h0Zm.24-.17h0Zm.1.32h.09l-.08,0h.11l.4,0Zm.69-.17h0Zm.85-.14h-.09l-.08,0H259Zm.12,0h0Zm.47.33-.17,0h0C259.53,64,259.58,64,259.45,64Zm.26-.2-.26,0v0h.09l.17,0,.09,0Zm.11-.17H260l.09,0h-.23Zm.14.08h0v0h0Zm.18.31v0C260.34,64,260.26,64,260.14,64Zm-.17-.24v0l.34,0Zm.25,0,.07,0h0Zm.2,0h0Zm.23-.05h0Zm.42.39h.09Zm-.17-.46h0Zm.34.11h.17v0Zm.35.4-.09,0c.18,0,.13,0,.17,0Zm-.26,0v0l.43,0Zm.51,0,.17,0C262,64,262.15,64,261.84,64Zm-.08-.24h.17l.17,0Zm.25-.07.07,0h.11C262.25,63.69,262.2,63.71,262,63.72Zm.77.37h-.43s.11,0,.16,0h0l.41,0Zm.08-.25.09,0,.17,0Zm.17,0c.17,0,.23,0,0-.09l-.17,0,.09,0h.42l.09,0-.26.06c.27,0,.08,0,.17,0l.43,0-.25,0Zm.26.14h.17Zm.6,0-.17,0-.17,0,.08,0-.08,0,.34,0Zm.51,0H264l.34,0,.17,0h-.08Zm.17,0-.26,0H264c.54,0,.56,0,.6,0Zm-.43-.22h-.08l-.17,0,.25,0,.26.06v0l.25.07Zm.94,0h-.34s.18,0-.09,0l.43,0Zm0-.17h0Zm.64.43c.12,0,0,0,.34,0Zm.25-.07-.25,0a2.08,2.08,0,0,0-.52,0l.43,0,.17,0,.26,0Zm.43-.18-.43,0,.26.07h-.34v0l-.26,0s.4,0,.09-.07c0,.05,0,0-.35,0l.43-.05h.09a2.3,2.3,0,0,1,.59,0Zm0-.51h.39l-.19,0h-.2Zm.47.62h0Zm.08-.12-.42,0h.08l.2,0,.46,0h0Zm.19-.06h0l.11,0C267.24,63.78,267.39,63.79,267.14,63.78Zm-.06-.15h0Zm.56.13Zm.15-.08h-.06l.16,0h-.17l-.22,0h-.07l.11,0h.69s.32,0-.17,0h0Zm1.72.35.34,0h.09Zm.43-.11-1.11,0h-.76c-.1,0-.07,0-.14-.07h.13l-.08,0h.07l.38,0,.23,0h1l-.25,0h.27Zm-.26-.19h0Zm.39-.11h0Zm.29.19h-.25l.25,0Zm-.25,0Zm.85-.15h0S271,63.61,271,63.62Zm0-.28-.06,0H271Zm.51.45h0Zm.15-.15h-.41c.18,0,.09,0-.08,0h.34l.51,0Zm.68,0h0l-.25-.07v0l.68,0,.07,0Zm.19-.12c.2,0,.1,0,.18,0h-.18Zm.47.1h-.1l.23,0Zm.3.18h0Zm.27,0h0v0h0Zm.61-.14-1,0,.24,0,.34,0,.34,0s-.3,0-.17,0l-.09,0,.39,0H274Zm.4,0h-.33c.15,0,.22,0,.23-.07h.27v0h-.17l-.09,0h.26v0h0Zm.42.14s0,0,0,0h.11Zm.14,0h0Zm0,0,.09,0C275.38,63.79,275.15,63.79,275.13,63.79Zm.43,0h.09C275.83,63.78,275.59,63.79,275.56,63.79Zm.09,0-.09,0h-.28l-.07,0h-.59l.19,0c.27,0,.4,0,.76,0h.16Zm.25,0-.17,0,.15,0h0Zm.26-.19h0Zm.17.24-.26,0,.09,0Zm-.11-.33h0Zm1.79.35-.15,0H278Zm0-.26Zm.47.06v0l-.17,0h0l-.08,0h.09l0,0h.25l.38,0Zm1.07-.14h-.93l-.06,0h0l-.42,0h-.2l1.21,0,.4,0Zm.58,0,.1,0,.67,0Zm.65.34h0Zm0-.3.28,0,.36,0h-.24v0h-.11Zm1.67.33v0l.38,0Zm.79,0h-.1a6.32,6.32,0,0,0-.86,0l.08,0h-.28c.21,0,.09,0,.2,0h-.08l-.16,0h-.16l0,0h-.09v0h-.7s-.08,0,.11,0l-.09,0h.47l0,0h0c.58,0,1.18,0,1.78,0Zm1.58,0h-.09v0l.09,0Zm.1-.36h-.19c-.21,0-.14,0-.2,0l.39,0h.19Zm.59,0-.11-.05.72,0v0h.42l-.23,0h.39l.1,0h.26v0l-.18,0h0l.55.11v0c.08,0-.05,0,.17,0l.08,0h0l-.08.09a2.54,2.54,0,0,1-.77-.07l-.34,0A4.25,4.25,0,0,0,285.52,63.52Zm2.23.22-.07-.05c-.44,0-.73,0-.93,0h-.32l-.12,0h0l-.05,0h.07l.76,0a2.43,2.43,0,0,0,.59,0l0,0h.07Zm.25-.13h-.17l.34,0Zm.43.28h-.17v-.09l.51,0a8.17,8.17,0,0,0,.85,0l-.08.09-.09-.05c-.35,0-.48,0-.51.06h-.26v0Zm.94,0h-.09Zm-.43,0h.34l-.08.06Zm.51,0,.17,0h-.25a1,1,0,0,1-.17,0Zm.34.11H290l-.08,0-.6,0,.85,0c-.26,0,0,0,.17.09Zm1.62,0,.26,0C291.54,64.08,291.74,64.06,291.41,64.08Zm.6,0h0Zm0-.18c-.34,0-.2,0-.6,0h.6l.08,0Zm-.26,0h0Zm.43,0,0,0h.09Zm.17-.09-.1,0-.49,0h.16l-.25-.06-.17.06h.11l.14,0h0l.25,0h0l-.26,0-.42,0s0,0-.09,0,.33.06.09.11l.42,0a1.09,1.09,0,0,0-.51.1c-.16,0,.12,0,.34,0l-.08,0-.94-.07h0l-.09.06-.34,0a4,4,0,0,1,.43,0h0a.13.13,0,0,0,.08,0l.35,0h.08l.09,0a3.19,3.19,0,0,1-.6,0l-.26,0v-.15l.17.09c.53-.06-.17-.1.17-.17v0H291l.08,0h0s0,0-.08,0h0l.25.05.32-.09.79.06Zm1.73.22-.22,0H294C294.11,64,294.14,64,294.08,64Zm1.64-.2v0h.1Zm-.19-.42h1.21l.62,0,.58,0H298v0h-2Zm2.41.7.09,0h.1Zm2-.55a8.19,8.19,0,0,1-.87,0l-.09,0,1.35.08Zm-.88-.16h.45l1.68.07-.38,0a15.44,15.44,0,0,1-2-.12h0Zm26.2,0h-.19l-.19,0h.19l.39,0Zm3-.14,1.15,0h-.06Zm12.66,0h0Zm2.76-.06c.34,0,.18,0,.31,0Zm.23,0h-.47l.31,0h.39Zm2.34,0-2,0C344.36,63.23,346.05,63.2,346.23,63.25Zm-.63.08h.32l-.11,0A.55.55,0,0,0,345.6,63.33Zm2.43.19-.58,0,.58,0Zm.77,0-.1,0h.1Zm2-.14-1.35,0c-.5-.06-1.91-.07-2.86-.09l.63,0h-.7c.94,0,1.77,0,2.42,0l-1.95,0h5.45l.16,0h.23l-1.17,0,1.85,0h-1.84l.38,0,.58,0h.17l.54,0h.13l1.09.11C353.65,63.49,352,63.44,350.82,63.38Zm4.14,0h0Zm3.28.51h.39A3.68,3.68,0,0,1,358.24,63.85Zm4.34-.45h.09l.1,0Zm2.12.71v0l.09,0Zm1.83-.62h.1l.09,0Zm4.72.14h-.58l.39,0,.19,0Zm2.31-.45h0Zm2.28,0c.38,0,.33,0,.39,0Zm.31-.22-.06,0h.06Zm.47.1v0c.51,0,.42,0,.47,0h-.47Zm2.34.09h-1.87c.57,0,1.68,0,2.42,0h.07l.08,0ZM382.62,62h0c.09,0,0,0,.07,0h.08Zm.24-.87v0h.08l.23,0Zm.23.19v0H383Zm-.15.4v0l.15,0Zm.15-.09h.16Zm.16-.61L383,61h.32Zm-.08-.21h0Zm.62,1-.31,0,.08,0h.31Zm-.39-.52h.39l-.08,0Zm1.17.52H384s.08,0-.08,0l.08,0Zm-.54-.27-.08,0H384Zm-.39-.27H384Zm.39-.1H384l.15,0Zm.07,0h0Zm-.39-.17c.25,0,.19,0,.24,0Zm-.07-.38v0l.15,0Zm.07.44h.08l-.15.06-.08,0c-.16,0-.05,0,.15,0h0Zm.39.28-.23,0C383.93,61.34,383.79,61.34,384.1,61.33Zm0,.06h0Zm.16-.16.08,0c-.35,0-.13,0-.08,0h.08S384.39,61.22,384.26,61.23Zm.08,0-.24,0-.15,0,.23,0Zm-.24-.39v0h.32Zm.16.34c.05,0-.07,0,.23,0Zm-.08,0,.08,0v0Zm.55-.1h0l.15,0Zm.15-.15h.47l-.08,0Zm.55,0v0h-.08Zm.08.07h-.16l.31,0Zm0-.13a.46.46,0,0,1,.15,0Zm.23,0-.08,0h.39Zm-.08-.14.55,0Zm.86,0,.78,0,.16,0Zm1.4.1-.07,0a.44.44,0,0,1-.24-.06l.7.05Zm-.23-.11h0Zm.39,0,.08,0,.08,0Zm.7.1h0Zm.16-.16h-.39A1.25,1.25,0,0,1,388.94,60.63Zm-.16,0h0C388.67,60.59,388.7,60.6,388.78,60.59Zm0,.14-.16,0-.15-.05A2.46,2.46,0,0,0,388.78,60.73Zm-.16,0a2.57,2.57,0,0,1,.71,0Zm.78.09v0h.32Zm.78-.07-.46,0h-.39Zm-.31-.09-.86,0-.21,0h0l-.17,0H389l-.22,0h0C389.11,60.57,389.64,60.58,389.87,60.62Zm-1-.2h.23c-.17,0,.12,0-.15,0h-.08l-.31,0C388.89,60.43,388.74,60.45,388.86,60.42Zm-.31.11h-.16l-.39,0Zm-.55-.12-.15,0H388Zm.16.16h0Zm-.94-.12c.57,0,.42,0,.47,0h-.39c.17,0,0,0-.31,0Zm0,.09h-.15v0Zm-.06,0c.27,0,.13,0,.06,0l.08,0h.39c-.16,0,.1,0-.23,0,0,0,.07,0-.16,0l-.14,0h-.09l-.08,0Zm.06,0-.15,0C386.8,60.62,387.09,60.61,387.22,60.6Zm-.47,0-.15,0h-.24v0h.39Zm-.54-.06.15,0h-.23Zm0,.14.47,0-.16,0h-.47Zm-.39-.11-.08,0h.08Zm-.47.19H385l.55,0Zm0-.22-.15,0-.08,0h.23Zm-.23.09-.16,0h-.23Zm-.24.19h0Zm-.39,0h.32l-.24,0h-.08Zm.08.17c-.21,0-.25,0-.15,0h.07Zm-.15-.73h0l-.24,0Zm-.32-.07h-.23l-.16,0H384Zm-1.64-.82.22,0h-.55Zm-.54,0h.31l-.27,0h-.12Zm-.9,0h0Zm1.89-.61.6.08c-.29,0-.69.06-1.34.07,0,0,0,0,0,0h-.1l.11,0a2.1,2.1,0,0,0-.51,0s0,0,0,0h-.18l-.11,0,.54,0-.31,0H382v0Zm1.73-.51h0Zm.17,0h0Zm0-.06-.06,0H385C384.81,58.14,384.82,58.12,384.78,58.13Zm.54,0Zm.26.07.08,0h.17Zm2.81-.09-.32-.06h0l.63,0Zm.68-.12-.43,0h.11l.32,0Zm.34,0-.23,0h.55Zm-.08-.07.39,0h-.39Zm-.34,0Zm-.43,0h0Zm.36-.21-1,.05h-.31l-.14,0-.15,0-.21,0-.36,0H387l.17,0-.17,0-.66,0h-.13l1,0,.07,0h.29l.29.05h.09l.25,0Zm4.78-.63h0Zm-.38-.19h0Zm-.1-.15h.63l.31,0h-.94Zm-2.41-.07v0l-.09,0Zm-.86,0h-.2l.48,0Zm-1.06-.18h0Zm-.77,0h0v0h.07l.13,0Zm.05,0h0Zm-1.46,0h0Zm.34-.06.1,0-.19,0Zm-.67-.06.05,0h0Zm-1.28-.2h-.68l.69,0S385.12,56.12,385.1,56.12Zm1.18-.35h0Zm3.36-.09c-.11,0-.09,0,0,0Zm1.48,0-.24,0h-.15c-.31,0-.11,0-.31,0l.54,0Zm.23-2,.24,0C391.32,53.64,391.41,53.66,391.35,53.63Zm.39.51c-.14,0-.06,0,0,0Zm1.17-.18h-.15l-.08,0H393Zm.7-.25c-.14,0-.06,0,0,0Zm.16-.05h-.24l.55,0-.23.05Zm.62.23c-.1,0-.08,0,0,0Zm.08-.17-.39,0h.62Zm.7,1.09-.23,0h.39Zm.16-.79-.16,0h.16l.08,0Zm.78.07-.16,0h-.23Zm.07.11h-.11l-.12,0,.16,0h.07Zm-.07.29H396l.31,0Zm.31-.3.15,0C396.32,54.2,396.33,54.21,396.42,54.19Zm.31,0h-.47l-.15,0h.15v0l.47,0C396.6,54.17,396.54,54.15,396.73,54.18Zm.39.6h-.31l.31,0Zm.08-.87h0Zm.47.7h-.16l.23,0Zm.38-.6h-.23C398.08,54,398.16,54,398.05,54Zm0,.8a.58.58,0,0,1,.16,0Zm.47,0h-.23l.15,0,.16,0Zm.08-.17h-.08l.16,0Zm0-.08h-.16c.08,0,0,0,.24,0Zm.47-.54h.23l-.15,0h-.24Zm.31,0h0Zm-.23.08h-.32l.63,0Zm1.55.39,2.26,0,.08,0a8.73,8.73,0,0,0-1.24,0Zm.86-.2h0l-.23.05h-.08l-.08,0Zm-.08-.18.08,0v0Zm-.07.26h-.16A.67.67,0,0,1,401.41,54.4Zm1.09.05-.39,0A1.25,1.25,0,0,1,402.5,54.45Zm-.16-.06v0C402.2,54.4,402.28,54.41,402.34,54.39Zm.08-.12c-.07,0,.11,0,.16,0Zm0,.11-.7,0,.08,0Zm-.08.2-.39,0h.31c.17,0,.08,0,.08,0h0Zm.16,0,.31,0H403l-.15,0Zm.46,0h0Zm.47-.07a.58.58,0,0,1,.16,0Zm.16,0h-.31a1.86,1.86,0,0,1-.47,0l.15,0H403a2.29,2.29,0,0,0,.55,0Zm-.39-.07c-.15,0-.13,0-.08,0h.55Zm.54.14c-.14,0-.05,0,0,0Zm-.15-.26h-.08l.16,0,.15,0Zm.23,0h-.39Zm-.47-.1.08,0-.23,0Zm-.07.11-.16,0-.16,0Zm-.32,0-.38,0C403,54.29,402.89,54.28,403,54.3Zm-.62-.17h0Zm-.23,0,.15,0C402.07,54.11,402,54.11,402.11,54.09Zm-.16.14h.63l-.63,0Zm-.15-.15h0Zm-.55.14h-.16l-.07,0Zm-.39,0h-.08s-.07,0,.08,0h.08l.08,0Zm.08-.2-.08,0h-.31Zm-.33,0,.09,0-.07,0h0c-.11,0-.2,0-.45,0C400.23,54,400.15,54,400.61,54Zm-1.07,0h0l.39,0H400v0h-.46Zm.62.56h-.31A1.07,1.07,0,0,1,400.16,54.58Zm-.23.08h.15v0l.31,0Zm.31-.33.54,0h-.54Z"/><path class="cls-1" d="M398.26,57.28h0Z"/><path class="cls-1" d="M394.39,57.79h0Z"/><path class="cls-1" d="M352,63.4l.62,0C352.79,63.39,352.3,63.39,352,63.4Z"/><path class="cls-1" d="M349.35,63.32l1.32,0,.16,0-1.33,0Z"/><path class="cls-1" d="M375.92,63.3h0Z"/><path class="cls-1" d="M347.55,63.32h.24l-.08,0Z"/><path class="cls-1" d="M378.88,63.22l-.62,0,.31.06.62,0h-.62S378.62,63.25,378.88,63.22Z"/><path class="cls-1" d="M331.58,63.3h0Z"/><path class="cls-1" d="M330.64,63.3h0Z"/><path class="cls-1" d="M377.17,63.24l-.94,0H377l.55,0Z"/><path class="cls-1" d="M375.69,63.29h.15l.08,0Z"/><path class="cls-1" d="M352.15,63.27h.16Z"/><path class="cls-1" d="M379.43,63.28h-.24Z"/><path class="cls-1" d="M382.55,62.44l-.16,0h.23C382.56,62.44,382.74,62.46,382.55,62.44Z"/><path class="cls-1" d="M382.62,62.42h-.23l.16,0Z"/><path class="cls-1" d="M382.55,62.38Z"/><path class="cls-1" d="M353,62.32h.31A1.93,1.93,0,0,0,353,62.32Z"/><path class="cls-1" d="M384.49,61.86h0Z"/><path class="cls-1" d="M385.74,61.55H386l-.32,0Z"/><path class="cls-1" d="M386.75,61.34h0Z"/><path class="cls-1" d="M385.82,61.28l.62,0S386.32,61.28,385.82,61.28Z"/><path class="cls-1" d="M385.59,61.24h-.08Z"/><path class="cls-1" d="M385,61.22h.39C385.55,61.21,385.19,61.22,385,61.22Z"/><polygon class="cls-1" points="384.73 61.16 384.73 61.16 384.73 61.16 384.73 61.16"/><path class="cls-1" d="M390.81,60.87l-.47,0-.7,0C390.23,60.85,390.15,60.84,390.81,60.87Z"/><path class="cls-1" d="M391.51,60.73h.23l.86,0h-.86Z"/><path class="cls-1" d="M392.76,60.64l.62.07h.31A4.26,4.26,0,0,0,392.76,60.64Z"/><path class="cls-1" d="M392.05,60.67l.24,0C392.36,60.66,392.33,60.67,392.05,60.67Z"/><path class="cls-1" d="M391.9,60.64h.23A1.33,1.33,0,0,0,391.9,60.64Z"/><path class="cls-1" d="M393.15,60.64h.23C393.56,60.63,393.33,60.64,393.15,60.64Z"/><path class="cls-1" d="M390.65,60.44c-.3,0-.11,0-.15,0h.15Z"/><path class="cls-1" d="M390.88,60.36h-.38l.15,0,.08,0Z"/><path class="cls-1" d="M391,60c-.13,0-.07,0-.08,0l.47,0c-.09,0-.09,0-.08,0-.18,0,0,0,.24,0l-.39,0c-.22,0-.23,0-.16,0h-.54l.31,0-.7,0h.24Z"/><path class="cls-1" d="M391.59,60.05h-.16Z"/><path class="cls-1" d="M389,59.86l.08,0h.24c.11,0,0,0,.15,0A2.58,2.58,0,0,0,389,59.86Z"/><path class="cls-1" d="M388.62,59.8h0Z"/><path class="cls-1" d="M384.42,59.23l-.63,0,.08,0-.39,0h.16Z"/><path class="cls-1" d="M383.09,59.26h0Z"/><path class="cls-1" d="M381.69,59.26l.39,0,.86,0h-1.25Z"/><path class="cls-1" d="M384,59.18h0Z"/><path class="cls-1" d="M385.82,58.47h0Z"/><path class="cls-1" d="M385.2,58.45v0H385Z"/><path class="cls-1" d="M384.1,58.41l.32,0-.08,0h-.24Z"/><path class="cls-1" d="M393.15,58l-.55,0C392.79,58,392.63,58,393.15,58Z"/><path class="cls-1" d="M390.5,57.94l-.08,0h.08Z"/><path class="cls-1" d="M398.37,57.77v0h0Z"/><path class="cls-1" d="M396.18,57.39a1.77,1.77,0,0,1,.47,0l.08,0-.86,0h.31Z"/><path class="cls-1" d="M394.31,57.37h1.17l-.62,0S394.87,57.36,394.31,57.37Z"/><path class="cls-1" d="M397.74,57.34v0h.47l1.09,0-.86,0Z"/><path class="cls-1" d="M398.91,57.25h0Z"/><path class="cls-1" d="M396.18,57.22v0h0Z"/><path class="cls-1" d="M397.67,57.2l.38,0h-.38Z"/><path class="cls-1" d="M395,57.19h0Z"/><path class="cls-1" d="M398.13,57.16a5.85,5.85,0,0,0,.86,0h-.08A6.23,6.23,0,0,0,398.13,57.16Z"/><path class="cls-1" d="M396.57,57.09h.55Z"/><path class="cls-1" d="M399.85,57.07h0Z"/><path class="cls-1" d="M399.46,57.07l-.39,0A1.29,1.29,0,0,0,399.46,57.07Z"/><path class="cls-1" d="M399,57h.86A6.32,6.32,0,0,0,399,57Z"/><path class="cls-1" d="M399.93,57h.77l-.54,0Z"/><path class="cls-1" d="M397.74,56.82h0l.31,0C397.88,56.82,398.11,56.84,397.74,56.82Z"/><path class="cls-1" d="M397.74,56.86h-.15Z"/><path class="cls-1" d="M398.37,56.85l.54,0-.78,0Z"/><path class="cls-1" d="M399.61,56.76H400a3.1,3.1,0,0,0-.39,0Z"/><path class="cls-1" d="M396.89,56.59h0Z"/><path class="cls-1" d="M391.51,56.48h0Z"/><path class="cls-1" d="M394.86,56.39h.93l2.65,0Z"/><path class="cls-1" d="M390.65,56.42l.16,0h-2.34Z"/><path class="cls-1" d="M388.39,56.41h0Z"/><path class="cls-1" d="M389.56,56.34l.08,0h-.08Z"/><path class="cls-1" d="M390.26,56.32h.31l-.07,0Z"/><path class="cls-1" d="M392.21,56.29l-.23,0h.15Z"/><path class="cls-1" d="M389.4,56.24h.47A1.75,1.75,0,0,0,389.4,56.24Z"/><path class="cls-1" d="M395.64,56.16h.15l.08,0Z"/><path class="cls-1" d="M394.7,56h.24Z"/><path class="cls-1" d="M397.51,56h.16C397.61,56,397.68,56,397.51,56Z"/><path class="cls-1" d="M397.12,56c.15,0,0,0-.7,0Z"/><path class="cls-1" d="M399.07,55.9h-.24l.32,0Z"/><path class="cls-1" d="M398.29,55.9l-.7,0-.31,0,.93,0Z"/><path class="cls-1" d="M397,55.88l-.54,0,.7,0Z"/><path class="cls-1" d="M394.78,55.92h.63l-.47,0,.15,0h-.31Z"/><path class="cls-1" d="M393.38,55.9h.47C394.05,55.89,393.61,55.9,393.38,55.9Z"/><path class="cls-1" d="M395.79,55.91a1.49,1.49,0,0,0-.38,0Z"/><path class="cls-1" d="M396.11,55.72l-.08,0h.08Z"/><path class="cls-1" d="M392,55.7h1.87C393.29,55.67,392.05,55.69,392,55.7Z"/><path class="cls-1" d="M400.78,55.57v0h-.31Z"/><path class="cls-1" d="M400.24,55.57l.08,0h-.24l-.23,0Z"/><path class="cls-1" d="M399.85,55.51l.15,0,.08,0Z"/><path class="cls-1" d="M399.07,55.53h.62l.08,0h0Z"/><path class="cls-1" d="M398.6,55.38h-.08v0Z"/><path class="cls-1" d="M401.48,55.31h.39A1.59,1.59,0,0,0,401.48,55.31Z"/><path class="cls-1" d="M400.78,55.23a1.5,1.5,0,0,0-.39,0h.16C400.38,55.24,400.58,55.23,400.78,55.23Z"/><path class="cls-1" d="M399.61,55.08h0Z"/><path class="cls-1" d="M402.34,55.07h.16C402.63,55.06,402.48,55.07,402.34,55.07Z"/><path class="cls-1" d="M401.56,55l-.31.07.55,0Z"/><path class="cls-1" d="M401.87,55c-.05,0-.06,0,0,0h0Z"/><path class="cls-1" d="M395,54.9h-.16C395.07,54.89,395.11,54.88,395,54.9Z"/><path class="cls-1" d="M409.28,54.86h.15A.72.72,0,0,0,409.28,54.86Z"/><path class="cls-1" d="M409.12,54.84l.08,0,.16,0Z"/><path class="cls-1" d="M407.56,54.85h.63l-.24,0Z"/><path class="cls-1" d="M408.34,54.84h.31l-.46,0Z"/><path class="cls-1" d="M406.94,54.81h-.39l.55,0C406.91,54.82,407,54.84,406.94,54.81Z"/><path class="cls-1" d="M406.94,54.78h-.78l.23.06.16,0,.23,0Z"/><path class="cls-1" d="M404.35,54.82h0Z"/><path class="cls-1" d="M404.91,54.75h-.46l.39,0-.49,0a3.73,3.73,0,0,0,.64,0l.7,0c-.14,0,.13,0,.16,0l.15,0A5,5,0,0,1,404.91,54.75Z"/><path class="cls-1" d="M407.41,54.83c.07,0,0,0-.24,0Z"/><path class="cls-1" d="M404,54.83h0Z"/><path class="cls-1" d="M400.7,54.81h0Z"/><path class="cls-1" d="M399.46,54.82h0Z"/><path class="cls-1" d="M404.21,54.75h0Z"/><path class="cls-1" d="M401.48,54.68l-.15,0-.24,0Z"/><path class="cls-1" d="M403.35,54.59h.32C403.89,54.57,403.41,54.59,403.35,54.59Z"/><path class="cls-1" d="M405.61,54.56h0Z"/><path class="cls-1" d="M405,54.56h0Z"/><path class="cls-1" d="M401.64,54.51l-.08,0h.08Z"/><path class="cls-1" d="M404.45,54.43l.46,0h-.15Z"/><path class="cls-1" d="M404.45,54.47l1.4.05c-.36-.06-.71-.06-.31-.14h-.47l.23,0h-.39C404.8,54.45,404.84,54.44,404.45,54.47Zm.68,0h0s0,0,0,0h0Z"/><path class="cls-1" d="M405.61,54.44l.24,0C405.8,54.44,405.93,54.47,405.61,54.44Z"/><path class="cls-1" d="M414.11,54.36h.23A.75.75,0,0,0,414.11,54.36Z"/><path class="cls-1" d="M407.17,54.26l.78,0c-.53,0-1.55-.08-2.1,0l1.25,0v0l-.55,0h.94C407.3,54.25,407.52,54.26,407.17,54.26Z"/><path class="cls-1" d="M408,54.27c.18,0-.06,0-.23,0Z"/><path class="cls-1" d="M405,54.14l.16.09h1.17l-.32,0h.47v0h.24c-.89,0-1.46,0-1.33-.09Zm.47,0,.08,0h-.32Z"/><path class="cls-1" d="M408.11,54.22h0Z"/><path class="cls-1" d="M405.15,54.12h-.08Z"/><path class="cls-1" d="M404.45,54.07l.46,0-.7,0Z"/><path class="cls-1" d="M406.86,54.05h0Z"/><path class="cls-1" d="M404.6,54l-.47,0,.08,0Z"/><path class="cls-1" d="M403.51,54v0C403.36,54,403.35,54,403.51,54Z"/><path class="cls-1" d="M403.28,54l-.7,0-.16,0h.86Z"/><path class="cls-1" d="M402.34,54l-.23,0L402,54Z"/><path class="cls-1" d="M401.25,54c.1,0,0,0-.23,0Z"/><path class="cls-1" d="M401.56,53.93l.47,0h.39Z"/><path class="cls-1" d="M399.61,53.89h0Z"/><path class="cls-1" d="M399.46,53.77l.86,0v0h-.86Z"/><path class="cls-1" d="M399.3,53.78l-.23,0c-.22,0-.15,0-.16,0h.39Z"/><path class="cls-1" d="M398.37,53.73h0Z"/><path class="cls-1" d="M404.6,53.64h.55Z"/><path class="cls-1" d="M404,53.62h-.7l.15,0Z"/><path class="cls-1" d="M401.87,53.62h.78A4,4,0,0,0,401.87,53.62Z"/><path class="cls-1" d="M403.2,53.61h0Z"/><path class="cls-1" d="M401.09,53.61h0Z"/><path class="cls-1" d="M396.42,53.54h0l.2.05.15,0,.23,0h.49l.14,0c.06,0,0,0-.07,0l2.65,0c-.76-.08-2.83-.05-3.9-.07Z"/><path class="cls-1" d="M281.62,51.14l.07,0h-.31C281.44,51.15,281.35,51.13,281.62,51.14Z"/><path class="cls-1" d="M280,51.07h0C279.92,51.07,279.83,51.07,280,51.07Z"/><path class="cls-1" d="M278.65,51.06c-.22,0-.23,0-.15,0Z"/><path class="cls-1" d="M275.85,51.07l-.39,0,.31,0Z"/><path class="cls-1" d="M288.24,51.21h-.08Z"/><path class="cls-1" d="M294.24,51.25c.09,0,0,0-.15,0S294,51.24,294.24,51.25Z"/><path class="cls-1" d="M293.62,51l-.08,0h.08Z"/><path class="cls-1" d="M318.17,51l-.24,0h.24Z"/><path class="cls-1" d="M270.08,51,270,51h.08Z"/><path class="cls-1" d="M320.51,51.46v0l.15,0Z"/><path class="cls-1" d="M285.2,51h0Z"/><path class="cls-1" d="M319.1,51.7h0Z"/><path class="cls-1" d="M266.73,51.2h-.47l.16,0Z"/><path class="cls-1" d="M258.55,51.46l-.16,0h.31Z"/><path class="cls-1" d="M254,51.26h-.16Z"/><path class="cls-1" d="M304.45,51.64h.16A.58.58,0,0,0,304.45,51.64Z"/><path class="cls-1" d="M308.5,51.09v0l.16,0Z"/><path class="cls-1" d="M308,51.09l-.08,0H308Z"/><path class="cls-1" d="M303.44,51l-.08,0h.08Z"/><path class="cls-1" d="M303.36,51.11h0Z"/><path class="cls-1" d="M341.63,51.62l.15,0h-.15Z"/><path class="cls-1" d="M334.85,51.05H335l-.15,0h-.32C334.86,51,334.74,51,334.85,51.05Z"/><path class="cls-1" d="M326.35,51.09l-.16,0h.16Z"/><path class="cls-1" d="M297.2,51h.24C297.38,51,297.45,51,297.2,51Z"/><path class="cls-1" d="M383.63,59.41c.18,0-.05,0-.23,0Z"/><path class="cls-1" d="M381.84,58.8h0Z"/><path class="cls-1" d="M386.83,55.85h.54l-.54,0Z"/><path class="cls-1" d="M390.1,55.83l.08,0h-.39Z"/><path class="cls-1" d="M389.71,55.83l-.39,0A1.61,1.61,0,0,0,389.71,55.83Z"/><path class="cls-1" d="M399.53,53.62h0Z"/><path class="cls-1" d="M399.45,53.62l.16,0h-.23Z"/><path class="cls-1" d="M398.21,53.57l-.39,0,.62,0Z"/><path class="cls-1" d="M398.6,53.59h.31l-.47,0Z"/><path class="cls-1" d="M397.19,53.57h-.39l.55,0Z"/><path class="cls-1" d="M394.6,53.57h0Z"/><path class="cls-1" d="M394.23,53.58h0Z"/><path class="cls-1" d="M391.74,53.43l-.16,0-.23,0Z"/><path class="cls-1" d="M393.61,53.34h.31C394.14,53.33,393.66,53.34,393.61,53.34Z"/><path class="cls-1" d="M395.87,53.31h.47l-.47,0Z"/><path class="cls-1" d="M395.25,53.32l.07,0h-.07Z"/><path class="cls-1" d="M391.89,53.26l-.07,0h.07Z"/><path class="cls-1" d="M394.7,53.19l.47,0H395Z"/><path class="cls-1" d="M394.7,53.22l1.4.05c-.36-.06-.7-.05-.31-.13h-.47l.24,0h-.39C395.05,53.21,395.09,53.19,394.7,53.22Zm.68,0h0s0,0,0,0h0Z"/><path class="cls-1" d="M395.87,53.19l.23,0C396.05,53.2,396.18,53.22,395.87,53.19Z"/><path class="cls-1" d="M404.6,53.13a.86.86,0,0,0-.24,0h.24Z"/><path class="cls-1" d="M397.35,53l-.55,0h.94c-.19,0,0,0-.31,0l.78,0c-.53,0-1.55-.08-2.11,0l1.25,0Z"/><path class="cls-1" d="M398.05,53h.23C398.46,53,398.22,53,398.05,53Z"/><path class="cls-1" d="M395.25,52.9l.15.08,1.17,0-.31,0h.47v0H397a4.07,4.07,0,0,1-1.33-.09Zm.46.05.08,0h-.08Z"/><path class="cls-1" d="M398.36,53h.08Z"/><path class="cls-1" d="M395.4,52.87h-.08Z"/><path class="cls-1" d="M394.7,52.82l.47,0-.7,0Z"/><path class="cls-1" d="M397.12,52.8h0Z"/><path class="cls-1" d="M394.86,52.78l-.47,0,.08,0Z"/><path class="cls-1" d="M393.76,52.77v0C393.62,52.76,393.6,52.75,393.76,52.77Z"/><path class="cls-1" d="M393.53,52.74l-.7,0-.16,0h.86Z"/><path class="cls-1" d="M392.6,52.74l-.24,0-.15,0Z"/><path class="cls-1" d="M391.5,52.72c.11,0,0,0-.23,0Z"/><path class="cls-1" d="M391.82,52.68l.46,0,.39,0Z"/><path class="cls-1" d="M389.87,52.64h0Z"/><path class="cls-1" d="M389.56,52.52h.15l.86,0v0h-1Z"/><path class="cls-1" d="M389.48,52.54h.08l-.24,0c-.22,0-.14,0-.15,0h.31Z"/><path class="cls-1" d="M388.62,52.49l-.31,0h.31Z"/><path class="cls-1" d="M394.86,52.39h.54Z"/><path class="cls-1" d="M394.23,52.38h-.7l.16,0Z"/><path class="cls-1" d="M392.13,52.38h.78A2.86,2.86,0,0,0,392.13,52.38Z"/><path class="cls-1" d="M393.45,52.36h-.23l.31,0Z"/><path class="cls-1" d="M391.35,52.36h0Z"/><path class="cls-1" d="M390.49,52.34c-.75-.07-2.83-.05-3.9-.07l.08,0Z"/><path class="cls-1" d="M51.63,57.73l.49,0,.29,0Z"/><path class="cls-1" d="M66.16,58.41h-.27C66.13,58.42,66.1,58.42,66.16,58.41Z"/><path class="cls-1" d="M52.09,57.76h0Z"/><path class="cls-1" d="M56.3,58.27h0Z"/><path class="cls-1" d="M185.13,64l.78,0,1.48,0h0C186.42,64,185.78,63.94,185.13,64Z"/><path class="cls-1" d="M197.75,64h1l-.08,0,.16,0-2.11,0Z"/><path class="cls-1" d="M196.51,64h-.39Z"/><path class="cls-1" d="M183.41,64a2.19,2.19,0,0,0-.46,0h.23c.31,0,.38,0,.23,0h0Z"/><path class="cls-1" d="M180.45,63.94l1,0,.62,0h-1.64Z"/><path class="cls-1" d="M179.36,64h1l-.38,0Z"/><path class="cls-1" d="M174.45,63.89h.31l-.23,0,3,0c.68,0,1.22,0,1.56,0C179,63.9,174.29,63.86,174.45,63.89Z"/><path class="cls-1" d="M189.65,63.92a3.17,3.17,0,0,0,.47,0H190Z"/><path class="cls-1" d="M174.14,63.86h-4.52l.16,0c1.12,0,3.45,0,4,0h.55C174.1,63.87,174.23,63.9,174.14,63.86Z"/><path class="cls-1" d="M97.76,63.9l.63,0C98.08,63.87,97.59,63.87,97.76,63.9Z"/><path class="cls-1" d="M102.44,63.87l.78,0c.17,0,.12,0,.08,0Z"/><path class="cls-1" d="M99.24,63.89h.47l-.08,0Z"/><path class="cls-1" d="M76.8,63.84h0Z"/><path class="cls-1" d="M99.56,63.8l.15,0,1.33,0-.16,0Z"/><path class="cls-1" d="M174.16,63.82h.13l.86,0,.31,0-.15,0h-.45v0h-.1l-.07,0h-1.8Z"/><path class="cls-1" d="M103.69,63.83h0Z"/><path class="cls-1" d="M72.44,63.79h0Z"/><path class="cls-1" d="M102.6,63.8h.23l-.16,0Z"/><path class="cls-1" d="M71.81,63.76h-.62l.62,0,.31-.06-.62,0C71.76,63.73,71.78,63.72,71.81,63.76Z"/><path class="cls-1" d="M76.8,63.79l.39,0A1.37,1.37,0,0,0,76.8,63.79Z"/><path class="cls-1" d="M118.81,63.79h0Z"/><path class="cls-1" d="M76.25,63.78h0Z"/><path class="cls-1" d="M119.74,63.78h0Z"/><path class="cls-1" d="M73.21,63.72l-.39,0h1.33Z"/><path class="cls-1" d="M74.54,63.77h0Z"/><path class="cls-1" d="M70.56,63.76H71l.24,0Z"/><path class="cls-1" d="M115.3,63.52c-.71,0-.67,0-1.25,0,0,0,0,0-.47,0l.94,0,.94-.06C115.26,63.53,115.34,63.55,115.3,63.52Z"/><path class="cls-1" d="M116.78,63.57l-.23,0-.39,0h.62Z"/><path class="cls-1" d="M115.69,63.57h.39A1.07,1.07,0,0,0,115.69,63.57Z"/><path class="cls-1" d="M116.55,63.53h.15S116.4,63.52,116.55,63.53Z"/><path class="cls-1" d="M117.48,63.52l-.23,0v0h.23Z"/><path class="cls-1" d="M117.72,63.48v0H118Z"/><path class="cls-1" d="M73.37,63.14a3.74,3.74,0,0,0-.47,0Z"/><path class="cls-1" d="M71.27,63h.39l-.16,0Z"/><path class="cls-1" d="M73.29,63h0Z"/><path class="cls-1" d="M71.27,62.94l.15,0h1.33l-.24,0Z"/><path class="cls-1" d="M68,62.94l-.15,0c-.2,0,0,0-.08,0Z"/><path class="cls-1" d="M67.76,62.9h.08l.15,0Z"/><path class="cls-1" d="M67.84,62.86Z"/><path class="cls-1" d="M65.65,62.34h0Z"/><path class="cls-1" d="M64.41,62h.23l.08,0Z"/><path class="cls-1" d="M63.63,61.83l.23,0h-.31Z"/><path class="cls-1" d="M63.94,61.81l.62-.05C64.07,61.76,64,61.77,63.94,61.81Z"/><path class="cls-1" d="M65,61.72H64.8l.08,0H65Z"/><path class="cls-1" d="M65.42,61.71h0c-.23,0-.58,0-.39,0Z"/><polygon class="cls-1" points="65.66 61.64 65.66 61.64 65.66 61.64 65.66 61.64"/><path class="cls-1" d="M60,61.3l-.46.06c.65,0,.58,0,1.16,0Z"/><path class="cls-1" d="M57.78,61.19l.86,0h.23l-.23,0Z"/><path class="cls-1" d="M56.69,61.19H57l.63-.07A4.46,4.46,0,0,0,56.69,61.19Z"/><path class="cls-1" d="M58.1,61.17l.23,0C58.05,61.15,58,61.14,58.1,61.17Z"/><path class="cls-1" d="M58.48,61.12a1.33,1.33,0,0,0-.23,0h.23Z"/><path class="cls-1" d="M57.24,61.12c-.19,0-.42,0-.24,0Z"/><path class="cls-1" d="M59.73,60.92h.16S60,60.94,59.73,60.92Z"/><path class="cls-1" d="M59.65,60.84l.08,0,.16,0h-.24Z"/><path class="cls-1" d="M59.58,60.47l.31,0h-.55c.08,0,.06,0-.15,0l-.39,0c.26,0,.41,0,.23,0,0,0,0,0-.08,0l.47,0s0,0-.08,0H60l.23,0Z"/><path class="cls-1" d="M58.8,60.53l.15,0H58.8Z"/><path class="cls-1" d="M61.06,60.37h.23l.08,0a2.65,2.65,0,0,0-.47,0C61.07,60.36,60.94,60.35,61.06,60.37Z"/><path class="cls-1" d="M61.76,60.28h0Z"/><path class="cls-1" d="M66.75,59.77h.15l-.39,0,.08,0-.62,0Z"/><path class="cls-1" d="M67.29,59.76h0Z"/><path class="cls-1" d="M67.45,59.74l.85,0,.39,0H67.45Z"/><path class="cls-1" d="M67.53,59.66l.85,0s-.06,0-.08-.05Z"/><path class="cls-1" d="M66.51,59.65h0Z"/><path class="cls-1" d="M64.25,59h.31A1.52,1.52,0,0,0,64.25,59Z"/><path class="cls-1" d="M65.19,58.93l.23,0h-.23Z"/><path class="cls-1" d="M66.28,58.89H66l-.07,0Z"/><path class="cls-1" d="M67.06,58.92h-.31l.15,0Z"/><path class="cls-1" d="M67.14,58.93h.07s.18,0,.08,0h.16C67.18,58.87,67.18,58.92,67.14,58.93Z"/><path class="cls-1" d="M67.68,58.86l-.23,0,.31,0Z"/><path class="cls-1" d="M62.85,58.69a.94.94,0,0,0-.39,0Z"/><path class="cls-1" d="M67.29,58.67h.55l-.16,0v0Z"/><path class="cls-1" d="M67.35,58.58h.1l.78,0h-.16a3.13,3.13,0,0,1-.62,0l-.16,0h.06Z"/><path class="cls-1" d="M67.06,58.58h0Z"/><path class="cls-1" d="M62.3,58.53H63A4.09,4.09,0,0,0,62.3,58.53Z"/><path class="cls-1" d="M63.24,58.52h.7l-.08,0h-.08Z"/><path class="cls-1" d="M65.81,58.48h0Z"/><path class="cls-1" d="M57.78,58.44l-.54,0C57.75,58.46,57.6,58.48,57.78,58.44Z"/><path class="cls-1" d="M58.17,58.44h0l.31,0,.55,0Z"/><path class="cls-1" d="M59.5,58.44h0c-.22,0-.18,0-.16,0h.24l-.16,0c.23,0,.46,0,.31,0l.16,0H59.5Z"/><path class="cls-1" d="M61.06,58.39a3.28,3.28,0,0,0-.86.07l1.79,0A8.48,8.48,0,0,1,61.06,58.39Zm-.39,0,.39,0,.15,0-.39,0Z"/><path class="cls-1" d="M62,58.42l.63,0-.32,0,.7,0-.07,0A6,6,0,0,0,62,58.42Z"/><path class="cls-1" d="M62.69,58.44l1.33,0-.86,0Z"/><path class="cls-1" d="M63.94,58.35l-.08,0h0c.31,0,.35,0,.24,0H65v-.05a2.08,2.08,0,0,0-.46,0c.07,0-.06,0-.39,0C64,58.35,64.22,58.38,63.94,58.35Z"/><path class="cls-1" d="M59.89,58.42H60Z"/><path class="cls-1" d="M65,58.34l.08,0C65.3,58.36,65.05,58.35,65,58.34Z"/><path class="cls-1" d="M65.34,58.33l-.07,0,.54,0H65.5C65.59,58.32,65.55,58.34,65.34,58.33Z"/><path class="cls-1" d="M62.38,58.26l.47,0-.23,0Z"/><path class="cls-1" d="M63.78,58.25l-.23,0,.55,0-.08,0Z"/><path class="cls-1" d="M52,58.25h0Z"/><path class="cls-1" d="M57.86,58h.24l-.24,0-.23,0Z"/><path class="cls-1" d="M56.69,57.88h.94l.08,0C57.12,57.85,56.45,57.85,56.69,57.88Z"/><path class="cls-1" d="M54.2,57.87h.31l-.86,0,.08,0A1.73,1.73,0,0,1,54.2,57.87Z"/><path class="cls-1" d="M54.9,57.87h1.17c-.55,0-.57,0-.55,0Z"/><path class="cls-1" d="M52.64,57.84v0l-.7,0-.86,0,1.09,0Z"/><path class="cls-1" d="M51.47,57.72h0Z"/><path class="cls-1" d="M54.2,57.7h0Z"/><path class="cls-1" d="M52.72,57.68h-.39Z"/><path class="cls-1" d="M55.37,57.67h0Z"/><path class="cls-1" d="M52.25,57.64a6.23,6.23,0,0,0-.78,0h-.08A5.85,5.85,0,0,0,52.25,57.64Z"/><path class="cls-1" d="M53.81,57.57l-.55,0h.55Z"/><path class="cls-1" d="M50.54,57.55h0Z"/><path class="cls-1" d="M51.31,57.52l-.38,0A1.21,1.21,0,0,0,51.31,57.52Z"/><path class="cls-1" d="M50.54,57.5h.85A6.15,6.15,0,0,0,50.54,57.5Z"/><path class="cls-1" d="M50.22,57.46l-.54,0h.78Z"/><path class="cls-1" d="M52.33,57.34l.31,0h0C52.27,57.32,52.5,57.3,52.33,57.34Z"/><path class="cls-1" d="M52.64,57.34l.16,0h-.16Z"/><path class="cls-1" d="M52.25,57.33l-.78,0,.55,0Z"/><path class="cls-1" d="M50.77,57.24h0a3.1,3.1,0,0,0-.39,0Z"/><path class="cls-1" d="M54,57.06h0Z"/><path class="cls-1" d="M54.59,56.9H51.94Z"/><path class="cls-1" d="M58.41,56.79l-.24,0,.08,0Z"/><path class="cls-1" d="M60.51,56.73H61A1.78,1.78,0,0,0,60.51,56.73Z"/><path class="cls-1" d="M54.51,56.61l.08,0h.15Z"/><path class="cls-1" d="M55.68,56.49l-.23,0h.23Z"/><path class="cls-1" d="M52.72,56.5h.15C52.7,56.49,52.78,56.49,52.72,56.5Z"/><path class="cls-1" d="M53.26,56.45l.7,0C53.28,56.41,53.12,56.42,53.26,56.45Z"/><path class="cls-1" d="M51.24,56.4l.31,0h-.24Z"/><path class="cls-1" d="M52.8,56.36l-.71,0,.08,0,.94,0Z"/><path class="cls-1" d="M53.19,56.4l.7,0-.55,0Z"/><path class="cls-1" d="M55,56.4h.31l.16,0Z"/><path class="cls-1" d="M56.54,56.4H57C56.77,56.38,56.33,56.37,56.54,56.4Z"/><path class="cls-1" d="M54.59,56.39H55A1.55,1.55,0,0,0,54.59,56.39Z"/><path class="cls-1" d="M54.28,56.2h.07Z"/><path class="cls-1" d="M56.54,56.19h1.87C58.33,56.17,57.1,56.15,56.54,56.19Z"/><path class="cls-1" d="M49.6,56h0Z"/><path class="cls-1" d="M50.07,56l.08,0h.39l-.24,0Z"/><path class="cls-1" d="M50.3,56l.08,0,.16,0Z"/><path class="cls-1" d="M50.61,56h0l.08,0h.62Z"/><path class="cls-1" d="M51.78,55.86l.08,0v0Z"/><path class="cls-1" d="M48.51,55.8h.39A1.59,1.59,0,0,0,48.51,55.8Z"/><path class="cls-1" d="M49.6,55.71c.21,0,.41,0,.23,0H50A1.5,1.5,0,0,0,49.6,55.71Z"/><path class="cls-1" d="M50.77,55.56h0Z"/><path class="cls-1" d="M47.89,55.56H48C47.9,55.55,47.75,55.54,47.89,55.56Z"/><path class="cls-1" d="M48.59,55.56l.54,0-.31-.07Z"/><path class="cls-1" d="M48.51,55.48v0h0C48.57,55.5,48.56,55.5,48.51,55.48Z"/><path class="cls-1" d="M55.29,55.36h.08c-.1,0-.06,0,.15,0h-.23Z"/><path class="cls-1" d="M41,55.35h.16A.79.79,0,0,0,41,55.35Z"/><path class="cls-1" d="M41.18,55.35l.08,0H41Z"/><path class="cls-1" d="M42.2,55.34h.62l-.39,0Z"/><path class="cls-1" d="M41.73,55.33h.47Z"/><path class="cls-1" d="M43.29,55.33l.54,0h-.39C43.38,55.32,43.47,55.3,43.29,55.33Z"/><path class="cls-1" d="M43.6,55.28l.23,0,.16,0,.23-.06h-.78Z"/><path class="cls-1" d="M46.33,55.31h0Z"/><path class="cls-1" d="M45.94,55.23h-.47a4.92,4.92,0,0,1-1.09.05l.15,0s.3,0,.16,0l.7,0a3.73,3.73,0,0,0,.64,0l-.48,0Z"/><path class="cls-1" d="M43,55.31l.23,0C43,55.3,42.9,55.28,43,55.31Z"/><path class="cls-1" d="M46.64,55.3h0Z"/><path class="cls-1" d="M49.37,55.3h0Z"/><path class="cls-1" d="M50.77,55.3h0Z"/><path class="cls-1" d="M45.86,55.21h0Z"/><path class="cls-1" d="M49.05,55.14l-.15,0h.39Z"/><path class="cls-1" d="M46.72,55.08H47C47,55.07,46.49,55.05,46.72,55.08Z"/><path class="cls-1" d="M44.77,55l-.47,0h.47Z"/><path class="cls-1" d="M45.31,55l.08,0h-.08Z"/><path class="cls-1" d="M48.74,55h.08Z"/><path class="cls-1" d="M45.63,54.89h-.16l.47,0Z"/><path class="cls-1" d="M44.85,54.86c.39.08,0,.08-.32.14l1.41,0c-.4,0-.35,0-.47-.06h-.39l.23,0Zm.4.08h0s0,0,0,0h0Z"/><path class="cls-1" d="M44.77,54.92c-.31,0-.19,0-.24,0Z"/><path class="cls-1" d="M36,54.86h.23A.79.79,0,0,0,36,54.86Z"/><path class="cls-1" d="M42.9,54.76h.93l-.54,0h0l1.24,0c-.55,0-1.57,0-2.1,0l.78,0C42.86,54.74,43.09,54.73,42.9,54.76Z"/><path class="cls-1" d="M42.35,54.75h.24C42.41,54.74,42.18,54.73,42.35,54.75Z"/><path class="cls-1" d="M43.68,54.72h.23v0h.47l-.31,0h1.17l.15-.09H45C45.13,54.66,44.57,54.71,43.68,54.72Zm1.48,0h-.31l.07,0Z"/><path class="cls-1" d="M42.27,54.7l-.07,0h.07Z"/><path class="cls-1" d="M45.55,54.61h-.31l.07,0Z"/><path class="cls-1" d="M45.94,54.55h.23l-.7,0Z"/><path class="cls-1" d="M43.52,54.53h0Z"/><path class="cls-1" d="M46.25,54.48l-.47,0h.39Z"/><path class="cls-1" d="M46.87,54.49c.17,0,.15,0,0,0Z"/><path class="cls-1" d="M47.57,54.48H48l-.15,0-.7,0Z"/><path class="cls-1" d="M48,54.47h.39l-.15,0Z"/><path class="cls-1" d="M49.13,54.45h.24C49.13,54.44,49,54.43,49.13,54.45Z"/><path class="cls-1" d="M48,54.43h.39l.47,0Z"/><path class="cls-1" d="M50.77,54.37h0Z"/><path class="cls-1" d="M51.08,54.25h-1v0l.86,0Z"/><path class="cls-1" d="M51.31,54.22l-.23,0h.39S51.54,54.25,51.31,54.22Z"/><path class="cls-1" d="M52.41,54.2h0Z"/><path class="cls-1" d="M45.78,54.12l-.54,0h.54Z"/><path class="cls-1" d="M47.11,54.1H46.4l.55,0Z"/><path class="cls-1" d="M47.73,54.11h.78A4,4,0,0,0,47.73,54.11Z"/><path class="cls-1" d="M47.18,54.09h0Z"/><path class="cls-1" d="M49.29,54.09h0Z"/><path class="cls-1" d="M131.28,52.18h0Z"/><path class="cls-1" d="M162.38,51.7h0Z"/><path class="cls-1" d="M146.94,51.5v0H147Z"/><path class="cls-1" d="M142.35,51.57v0h.07Z"/><path class="cls-1" d="M147,51.59h0Z"/><path class="cls-1" d="M156.3,51.7c-.18,0-.25,0-.16,0S156.44,51.72,156.3,51.7Z"/><path class="cls-1" d="M153,51.49h.23C152.94,51.48,153,51.48,153,51.49Z"/><path class="cls-1" d="M129.88,51.94h-.16l.16,0Z"/><path class="cls-1" d="M141.88,51.57h-.16l.16,0Z"/><path class="cls-1" d="M115.85,51.48h-.31l-.16.05h.16C115.64,51.49,115.52,51.51,115.85,51.48Z"/><path class="cls-1" d="M124.34,51.56h-.15l-.16,0h.31Z"/><path class="cls-1" d="M132.22,51.51v0h.23Z"/><path class="cls-1" d="M156.76,51.51v0h.08Z"/><path class="cls-1" d="M180.3,51.48v0h.08Z"/><path class="cls-1" d="M171.73,51.54l.15,0C172,51.53,172,51.56,171.73,51.54Z"/><path class="cls-1" d="M174.92,51.51l-.39,0h.08Z"/><path class="cls-1" d="M169,51.6h-.31l.08,0C169,51.61,169,51.63,169,51.6Z"/><path class="cls-1" d="M184.12,51.68h-.47l.31,0Z"/><path class="cls-1" d="M108.76,52.08h-.16l.16,0Z"/><path class="cls-1" d="M170.4,51.54h0C170.55,51.55,170.46,51.55,170.4,51.54Z"/><path class="cls-1" d="M165.1,51.5h0Z"/><path class="cls-1" d="M67,59.88c-.18,0-.41,0-.23,0Z"/><path class="cls-1" d="M63,56.34h.54Z"/><path class="cls-1" d="M60.2,56.29l.08,0,.31,0Z"/><path class="cls-1" d="M61.06,56.27l-.39,0A1.61,1.61,0,0,0,61.06,56.27Z"/><path class="cls-1" d="M50.7,54.1h0Z"/><path class="cls-1" d="M51,54.07h-.24l.16,0Z"/><path class="cls-1" d="M52.18,54.05l-.24.05.63,0Z"/><path class="cls-1" d="M51.94,54.06l-.47,0h.47Z"/><path class="cls-1" d="M53,54.08l.55,0h-.39Z"/><path class="cls-1" d="M55.78,54.05h0Z"/><path class="cls-1" d="M52.72,54.06l.15,0h.48l.23,0,.15,0,.2,0h0L54,54c-1.07,0-3.14,0-3.89.07l2.64,0C52.69,54,52.67,54,52.72,54.06Z"/><path class="cls-1" d="M56.38,54.05h0Z"/><path class="cls-1" d="M58.64,53.91H59l-.23,0Z"/><path class="cls-1" d="M56.46,53.83h.31C56.72,53.82,56.24,53.81,56.46,53.83Z"/><path class="cls-1" d="M54.51,53.78l-.46,0h.46Z"/><path class="cls-1" d="M55.06,53.78l.08,0h-.08Z"/><path class="cls-1" d="M58.49,53.74v0h.08Z"/><path class="cls-1" d="M55.37,53.64h-.15l.46,0Z"/><path class="cls-1" d="M54.59,53.62c.4.08,0,.07-.31.13l1.4,0c-.39,0-.35,0-.46-.06h-.63Zm.41.07h0s0,0,0,0h0Z"/><path class="cls-1" d="M54.51,53.67c-.31,0-.18,0-.23,0Z"/><path class="cls-1" d="M46,53.59a.75.75,0,0,0-.23,0H46Z"/><path class="cls-1" d="M53,53.49c-.35,0-.13,0-.32,0h.94l-.55,0v0l1.25,0c-.55,0-1.57,0-2.1,0Z"/><path class="cls-1" d="M52.1,53.5h.23C52.16,53.49,51.92,53.48,52.1,53.5Z"/><path class="cls-1" d="M53.42,53.47h.24v0h.46l-.31,0,1.17,0,.16-.08h-.39A4.07,4.07,0,0,1,53.42,53.47Zm1.48,0h-.31l.08,0Z"/><path class="cls-1" d="M52,53.45l-.08,0H52Z"/><path class="cls-1" d="M55.29,53.36H55l.08,0Z"/><path class="cls-1" d="M55.68,53.3h.24l-.7,0Z"/><path class="cls-1" d="M53.27,53.28l-.08,0h.08Z"/><path class="cls-1" d="M56,53.24l-.47,0h.39Z"/><path class="cls-1" d="M56.62,53.25c.16,0,.14,0,0,0Z"/><path class="cls-1" d="M57.32,53.23h.39l-.16,0-.7,0Z"/><path class="cls-1" d="M57.79,53.22h.39l-.16,0Z"/><path class="cls-1" d="M58.88,53.2h.23C58.87,53.19,58.78,53.18,58.88,53.2Z"/><path class="cls-1" d="M57.71,53.18l.39,0,.47,0Z"/><path class="cls-1" d="M60.52,53.12h0Z"/><path class="cls-1" d="M60.83,53h-1v0l.86,0Z"/><path class="cls-1" d="M61.06,53l-.23,0h.39S61.28,53,61.06,53Z"/><path class="cls-1" d="M62.15,53h-.08l-.31,0Z"/><path class="cls-1" d="M55.53,52.87l-.55,0h.55Z"/><path class="cls-1" d="M56.85,52.86h-.7l.55,0Z"/><path class="cls-1" d="M57.48,52.87h.78A2.84,2.84,0,0,0,57.48,52.87Z"/><path class="cls-1" d="M56.93,52.84l-.08,0,.31,0Z"/><path class="cls-1" d="M59,52.84h0Z"/><path class="cls-1" d="M63.79,52.75c-1.07,0-3.14,0-3.9.08l3.82,0Z"/></svg>